g obj3
v -0.6082434 3.23062 -0.05595979
v 0.6553881 5.972132 -0.05595979
v 0.6554062 5.972183 -0.05627755
v 0.6554062 5.972183 0.08875243
v 0.6553881 5.972132 0.08843467
v -0.6082434 3.23062 0.08843467
v -0.6192546 3.23062 -0.06595979
v 0.6553881 5.996022 -0.06595979
v 0.6553881 6.340969 -0.06595979
v -0.6705902 3.464192 -0.06595979
v -0.6705902 3.23062 -0.06595979
v -0.6151184 3.230452 -0.0651985
v 0.6553881 5.996022 -0.06595979
v -0.6192546 3.23062 -0.06595979
v 0.6557531 5.987671 -0.0651985
v -0.6116401 3.230249 -0.0630304
v 0.6561931 5.980877 -0.06303047
v -0.6092234 3.230312 -0.05978664
v 0.6560555 5.975399 -0.05978668
v -0.6085267 3.230471 -0.05792511
v -0.6085267 3.230471 -0.05792511
v -0.6082434 3.23062 -0.05595979
v 0.6560555 5.975399 -0.05978668
v 0.6559833 5.974821 -0.0593293
v 0.6558981 5.97426 -0.05885277
v 0.6558004 5.973722 -0.05835462
v 0.6556911 5.973211 -0.05783012
v 0.6555737 5.972741 -0.05727073
v 0.655458 5.972342 -0.05665858
v 0.6554062 5.972183 -0.05627755
v 0.6553881 5.972132 0.08843467
v 0.6553881 5.972132 -0.05595979
v -0.6082434 3.23062 -0.05595979
v -0.6082434 3.23062 0.08843467
v -0.6085267 3.230471 0.09039999
v -0.6092234 3.230312 0.09226152
v 0.6560555 5.975399 0.09226155
v -0.6116401 3.230249 0.09550527
v 0.6561931 5.980877 0.09550535
v -0.6151184 3.230452 0.09767336
v 0.6557531 5.987671 0.09767338
v -0.6192546 3.23062 0.09843466
v 0.6553881 5.996022 0.09843466
v 0.6560555 5.975399 0.09226155
v -0.6082434 3.23062 0.08843467
v -0.6085267 3.230471 0.09039999
v 0.6559833 5.974821 0.09180418
v 0.6558981 5.97426 0.09132764
v 0.6558004 5.973722 0.09082951
v 0.6556911 5.973211 0.09030499
v 0.6555737 5.972741 0.0897456
v 0.655458 5.972342 0.08913346
v 0.6554062 5.972183 0.08875243
v -0.6705902 3.464192 0.09843466
v 0.6553881 6.340969 0.09843466
v 0.6553881 5.996022 0.09843466
v -0.6192546 3.23062 0.09843466
v -0.6705902 3.23062 0.09843466
v -0.6709552 3.472542 0.09767338
v 0.6553881 6.340969 0.09843466
v -0.6705902 3.464192 0.09843466
v 0.655023 6.349319 0.09767338
v -0.6713952 3.479336 0.09550535
v 0.654583 6.356112 0.09550535
v -0.6712576 3.484815 0.09226155
v 0.6547207 6.361592 0.09226155
v -0.6711854 3.485393 0.09180418
v -0.6711854 3.485393 0.09180418
v -0.6711002 3.485953 0.09132764
v 0.6547207 6.361592 0.09226155
v -0.6710024 3.486492 0.09082951
v -0.6708933 3.487002 0.09030499
v -0.6707758 3.487473 0.0897456
v -0.6706601 3.487871 0.08913346
v -0.6706082 3.48803 0.08875243
v -0.6706082 3.48803 0.08875243
v -0.6705902 3.488081 0.08843467
v 0.6547207 6.361592 0.09226155
v 0.6553881 6.364858 0.08843467
v 0.6553881 6.364858 0.08843467
v 0.6547929 6.36217 0.09180418
v 0.6547207 6.361592 0.09226155
v 0.6548781 6.36273 0.09132764
v 0.6549759 6.363268 0.09082951
v 0.655085 6.363779 0.09030499
v 0.6552026 6.364249 0.0897456
v 0.6553181 6.364648 0.08913346
v 0.6553701 6.364807 0.08875243
v 0.6553881 6.364858 -0.05595979
v 0.6553881 6.364858 0.08843467
v -0.6705902 3.488081 0.08843467
v -0.6705902 3.488081 -0.05595979
v -0.6711854 3.485393 -0.0593293
v -0.6712576 3.484815 -0.05978668
v 0.6547207 6.361592 -0.05978668
v -0.6713952 3.479336 -0.06303047
v 0.654583 6.356112 -0.06303047
v -0.6709552 3.472542 -0.0651985
v 0.655023 6.349319 -0.0651985
v -0.6705902 3.464192 -0.06595979
v 0.6553881 6.340969 -0.06595979
v 0.6547207 6.361592 -0.05978668
v -0.6711002 3.485953 -0.05885277
v -0.6711854 3.485393 -0.0593293
v -0.6710024 3.486492 -0.05835462
v -0.6708933 3.487002 -0.05783012
v -0.6707758 3.487473 -0.05727073
v -0.6706601 3.487871 -0.05665858
v -0.6706082 3.48803 -0.05627755
v 0.6547207 6.361592 -0.05978668
v -0.6705902 3.488081 -0.05595979
v -0.6706082 3.48803 -0.05627755
v 0.6553881 6.364858 -0.05595979
v 0.6547207 6.361592 -0.05978668
v 0.6547929 6.36217 -0.0593293
v 0.6553881 6.364858 -0.05595979
v 0.6548781 6.36273 -0.05885277
v 0.6549759 6.363268 -0.05835462
v 0.655085 6.363779 -0.05783012
v 0.6552026 6.364249 -0.05727073
v 0.6553181 6.364648 -0.05665858
v 0.6553701 6.364807 -0.05627755
vt 0.0015137 1
vt 0.9928751 1
vt 0.9928927 0.9776711
vt 0.9928927 0.02232884
vt 0.9928751 0
vt 0.0015137 0
vt 0.006358108 1
vt 0.9073103 1
vt 1 0
vt 0.06276243 0
vt 0 0.677124
vt 0.0005184247 0.2598909
vt 1 0
vt 0 0
vt 0.9975598 0.2598909
vt 0.000936079 0.5
vt 0.9955939 0.5
vt 0.001287242 0.7401091
vt 0.993941 0.7401091
vt 0.001430357 0.8652202
vt 0.001430357 0.8652202
vt 0.0015137 1
vt 0.993941 0.7401091
vt 0.9937587 0.771036
vt 0.9935799 0.8030486
vt 0.9934058 0.8364003
vt 0.9932384 0.8716131
vt 0.993082 0.9093795
vt 0.9929473 0.9512353
vt 0.9928927 0.9776711
vt 1 1
vt 1 0
vt 0 0
vt 0 1
vt 0.001430357 0.1347797
vt 0.001287242 0.2598909
vt 0.993941 0.2598909
vt 0.000936079 0.5
vt 0.9955939 0.5
vt 0.0005184247 0.7401091
vt 0.9975598 0.7401091
vt 0 1
vt 1 1
vt 0.993941 0.2598909
vt 0.0015137 0
vt 0.001430357 0.1347797
vt 0.9937587 0.228964
vt 0.9935799 0.1969514
vt 0.9934058 0.1635997
vt 0.9932384 0.1283869
vt 0.993082 0.09062043
vt 0.9929473 0.04876471
vt 0.9928927 0.02232884
vt 0.06276243 1
vt 1 1
vt 0.9073103 0
vt 0.006358108 0
vt 0 0.322876
vt 0.002329748 0.2598909
vt 0.9931975 0
vt 0 0
vt 0.9955273 0.2598909
vt 0.004206682 0.5
vt 0.9974042 0.5
vt 0.005784785 0.7401091
vt 0.9989823 0.7401091
vt 0.005958874 0.771036
vt 0.005958874 0.771036
vt 0.006129623 0.8030486
vt 0.9989823 0.7401091
vt 0.006295749 0.8364003
vt 0.006455625 0.8716131
vt 0.006604882 0.9093795
vt 0.006733522 0.9512353
vt 0.006785661 0.9776711
vt 0.006785661 0.9776711
vt 0.006802475 1
vt 0.9989823 0.7401091
vt 1 1
vt 1 1
vt 0.9991564 0.771036
vt 0.9989823 0.7401091
vt 0.9993271 0.8030486
vt 0.9994933 0.8364003
vt 0.9996532 0.8716131
vt 0.9998024 0.9093795
vt 0.999931 0.9512353
vt 0.9999832 0.9776711
vt 1 1
vt 1 0
vt 0 0
vt 0 1
vt 0.005958874 0.228964
vt 0.005784785 0.2598909
vt 0.9989823 0.2598909
vt 0.004206682 0.5
vt 0.9974042 0.5
vt 0.002329748 0.7401091
vt 0.9955273 0.7401091
vt 0 1
vt 0.9931975 1
vt 0.9989823 0.2598909
vt 0.006129623 0.1969514
vt 0.005958874 0.228964
vt 0.006295749 0.1635997
vt 0.006455625 0.1283869
vt 0.006604882 0.09062043
vt 0.006733522 0.04876471
vt 0.006785661 0.02232884
vt 0.9989823 0.2598909
vt 0.006802475 0
vt 0.006785661 0.02232884
vt 1 0
vt 0.9989823 0.2598909
vt 0.9991564 0.228964
vt 1 0
vt 0.9993271 0.1969514
vt 0.9994933 0.1635997
vt 0.9996532 0.1283869
vt 0.9998024 0.09062043
vt 0.999931 0.04876471
vt 0.9999832 0.02232884
vn 0.9081712 -0.4185989 0
vn 0.9081712 -0.4185989 0
vn 0.9077125 -0.4183874 -0.0317776
vn 0.9077125 -0.4183874 0.0317776
vn 0.9081712 -0.4185989 0
vn 0.9081712 -0.4185989 0
vn 0 0 -1
vn 0 0 -1
vn 0 0 -1
vn 0 0 -1
vn 0 0 -1
vn 0.3475412 -0.1601904 -0.9238799
vn 0 0 -1
vn 0 0 -1
vn 0.3475412 -0.1601904 -0.9238799
vn 0.6421741 -0.2959941 -0.7071068
vn 0.6421741 -0.2959941 -0.7071068
vn 0.8390412 -0.3867351 -0.3826825
vn 0.8390412 -0.3867351 -0.3826825
vn 0.8904642 -0.4104373 -0.1965064
vn 0.8904642 -0.4104373 -0.1965064
vn 0.9081712 -0.4185989 0
vn 0.8390412 -0.3867351 -0.3826825
vn 0.8550693 -0.3941228 -0.3369327
vn 0.8693463 -0.4007035 -0.2892641
vn 0.881746 -0.4064188 -0.2394739
vn 0.8921516 -0.411215 -0.1869968
vn 0.900335 -0.4149869 -0.131083
vn 0.9059513 -0.4175757 -0.06987748
vn 0.9077125 -0.4183874 -0.0317776
vn 0.9081712 -0.4185989 0
vn 0.9081712 -0.4185989 0
vn 0.9081712 -0.4185989 0
vn 0.9081712 -0.4185989 0
vn 0.8904642 -0.4104373 0.1965064
vn 0.8390412 -0.3867351 0.3826825
vn 0.8390412 -0.3867351 0.3826825
vn 0.6421741 -0.2959941 0.7071068
vn 0.6421741 -0.2959941 0.7071068
vn 0.3475412 -0.1601904 0.9238799
vn 0.3475412 -0.1601904 0.9238799
vn 0 0 1
vn 0 0 1
vn 0.8390412 -0.3867351 0.3826825
vn 0.9081712 -0.4185989 0
vn 0.8904642 -0.4104373 0.1965064
vn 0.8550693 -0.3941228 0.3369327
vn 0.8693463 -0.4007035 0.2892641
vn 0.881746 -0.4064188 0.2394739
vn 0.8921516 -0.411215 0.1869968
vn 0.900335 -0.4149869 0.131083
vn 0.9059513 -0.4175757 0.06987748
vn 0.9077125 -0.4183874 0.0317776
vn 0 0 1
vn 0 0 1
vn 0 0 1
vn 0 0 1
vn 0 0 1
vn -0.3475412 0.1601904 0.9238799
vn 0 0 1
vn 0 0 1
vn -0.3475412 0.1601904 0.9238799
vn -0.6421741 0.2959941 0.7071068
vn -0.6421741 0.2959941 0.7071068
vn -0.8390412 0.3867351 0.3826825
vn -0.8390412 0.3867351 0.3826825
vn -0.8550693 0.3941228 0.3369327
vn -0.8550693 0.3941228 0.3369327
vn -0.8693463 0.4007035 0.2892641
vn -0.8390412 0.3867351 0.3826825
vn -0.881746 0.4064188 0.2394739
vn -0.8921516 0.411215 0.1869968
vn -0.900335 0.4149869 0.131083
vn -0.9059513 0.4175757 0.06987748
vn -0.9077125 0.4183874 0.0317776
vn -0.9077125 0.4183874 0.0317776
vn -0.9081712 0.4185989 0
vn -0.8390412 0.3867351 0.3826825
vn -0.9081712 0.4185989 0
vn -0.9081712 0.4185989 0
vn -0.8550693 0.3941228 0.3369327
vn -0.8390412 0.3867351 0.3826825
vn -0.8693463 0.4007035 0.2892641
vn -0.881746 0.4064188 0.2394739
vn -0.8921516 0.411215 0.1869968
vn -0.900335 0.4149869 0.131083
vn -0.9059513 0.4175757 0.06987748
vn -0.9077125 0.4183874 0.0317776
vn -0.9081712 0.4185989 0
vn -0.9081712 0.4185989 0
vn -0.9081712 0.4185989 0
vn -0.9081712 0.4185989 0
vn -0.8550693 0.3941228 -0.3369327
vn -0.8390412 0.3867351 -0.3826825
vn -0.8390412 0.3867351 -0.3826825
vn -0.6421741 0.2959941 -0.7071068
vn -0.6421741 0.2959941 -0.7071068
vn -0.3475412 0.1601904 -0.9238799
vn -0.3475412 0.1601904 -0.9238799
vn 0 0 -1
vn 0 0 -1
vn -0.8390412 0.3867351 -0.3826825
vn -0.8693463 0.4007035 -0.2892641
vn -0.8550693 0.3941228 -0.3369327
vn -0.881746 0.4064188 -0.2394739
vn -0.8921516 0.411215 -0.1869968
vn -0.900335 0.4149869 -0.131083
vn -0.9059513 0.4175757 -0.06987748
vn -0.9077125 0.4183874 -0.0317776
vn -0.8390412 0.3867351 -0.3826825
vn -0.9081712 0.4185989 0
vn -0.9077125 0.4183874 -0.0317776
vn -0.9081712 0.4185989 0
vn -0.8390412 0.3867351 -0.3826825
vn -0.8550693 0.3941228 -0.3369327
vn -0.9081712 0.4185989 0
vn -0.8693463 0.4007035 -0.2892641
vn -0.881746 0.4064188 -0.2394739
vn -0.8921516 0.411215 -0.1869968
vn -0.900335 0.4149869 -0.131083
vn -0.9059513 0.4175757 -0.06987748
vn -0.9077125 0.4183874 -0.0317776
g obj3_0
f 3/3/3 2/2/2 1/1/1
f 6/6/6 5/5/5 4/4/4
f 9/9/9 8/8/8 7/7/7
f 7/7/7 10/10/10 9/9/9
f 7/7/7 11/11/11 10/10/10
f 14/14/14 13/13/13 12/12/12
f 13/13/13 15/15/15 12/12/12
f 12/12/12 15/15/15 16/16/16
f 15/15/15 17/17/17 16/16/16
f 16/16/16 17/17/17 18/18/18
f 17/17/17 19/19/19 18/18/18
f 20/20/20 18/18/18 19/19/19
f 23/23/23 22/22/22 21/21/21
f 23/23/23 24/24/24 22/22/22
f 24/24/24 25/25/25 22/22/22
f 25/25/25 26/26/26 22/22/22
f 26/26/26 27/27/27 22/22/22
f 27/27/27 28/28/28 22/22/22
f 28/28/28 29/29/29 22/22/22
f 29/29/29 30/30/30 22/22/22
f 33/33/33 32/32/32 31/31/31
f 34/34/34 33/33/33 31/31/31
f 37/37/37 36/36/36 35/35/35
f 36/36/36 37/37/37 38/38/38
f 37/37/37 39/39/39 38/38/38
f 38/38/38 39/39/39 40/40/40
f 39/39/39 41/41/41 40/40/40
f 42/42/42 40/40/40 41/41/41
f 43/43/43 42/42/42 41/41/41
f 46/46/46 45/45/45 44/44/44
f 45/45/45 47/47/47 44/44/44
f 45/45/45 48/48/48 47/47/47
f 45/45/45 49/49/49 48/48/48
f 45/45/45 50/50/50 49/49/49
f 45/45/45 51/51/51 50/50/50
f 45/45/45 52/52/52 51/51/51
f 45/45/45 53/53/53 52/52/52
f 56/56/56 55/55/55 54/54/54
f 54/54/54 57/57/57 56/56/56
f 54/54/54 58/58/58 57/57/57
f 61/61/61 60/60/60 59/59/59
f 60/60/60 62/62/62 59/59/59
f 59/59/59 62/62/62 63/63/63
f 62/62/62 64/64/64 63/63/63
f 63/63/63 64/64/64 65/65/65
f 64/64/64 66/66/66 65/65/65
f 67/67/67 65/65/65 66/66/66
f 70/70/70 69/69/69 68/68/68
f 70/70/70 71/71/71 69/69/69
f 70/70/70 72/72/72 71/71/71
f 70/70/70 73/73/73 72/72/72
f 70/70/70 74/74/74 73/73/73
f 70/70/70 75/75/75 74/74/74
f 78/78/78 77/77/77 76/76/76
f 78/78/78 79/79/79 77/77/77
f 82/82/82 81/81/81 80/80/80
f 81/81/81 83/83/83 80/80/80
f 83/83/83 84/84/84 80/80/80
f 84/84/84 85/85/85 80/80/80
f 85/85/85 86/86/86 80/80/80
f 86/86/86 87/87/87 80/80/80
f 87/87/87 88/88/88 80/80/80
f 91/91/91 90/90/90 89/89/89
f 92/92/92 91/91/91 89/89/89
f 95/95/95 94/94/94 93/93/93
f 94/94/94 95/95/95 96/96/96
f 95/95/95 97/97/97 96/96/96
f 96/96/96 97/97/97 98/98/98
f 97/97/97 99/99/99 98/98/98
f 100/100/100 98/98/98 99/99/99
f 101/101/101 100/100/100 99/99/99
f 104/104/104 103/103/103 102/102/102
f 103/103/103 105/105/105 102/102/102
f 105/105/105 106/106/106 102/102/102
f 106/106/106 107/107/107 102/102/102
f 107/107/107 108/108/108 102/102/102
f 108/108/108 109/109/109 102/102/102
f 112/112/112 111/111/111 110/110/110
f 111/111/111 113/113/113 110/110/110
f 116/116/116 115/115/115 114/114/114
f 116/116/116 117/117/117 115/115/115
f 116/116/116 118/118/118 117/117/117
f 116/116/116 119/119/119 118/118/118
f 116/116/116 120/120/120 119/119/119
f 116/116/116 121/121/121 120/120/120
f 116/116/116 122/122/122 121/121/121
