g Door_Button_002_Button_Button_Chamber
v 0.6761938 0.1132997 -0.7185113
v 0.6901851 0.1179751 -0.7076553
v 0.6749734 0.1179751 -0.7139563
v 0.6925433 0.1132997 -0.7117394
v 0.6925433 -0.2344049 -0.7117394
v 0.6761938 -0.2344049 -0.7185113
v 0.6749734 0.1179751 -0.7139563
v 0.6583408 0.1179751 -0.7161459
v 0.6586475 0.1132997 -0.7208214
v 0.6761938 0.1132997 -0.7185113
v 0.6761938 -0.2344049 -0.7185113
v 0.6586475 -0.2344049 -0.7208214
v 0.6583408 0.1179751 -0.7161459
v -0.6583405 0.1179751 -0.7161459
v -0.6586475 0.1132997 -0.7208214
v 0.6586475 0.1132997 -0.7208214
v 0.6586475 -0.2344049 -0.7208214
v -0.6586475 -0.2344049 -0.7208214
v 0.6925433 0.1132997 -0.7117394
v 0.7032488 0.1179751 -0.6976313
v 0.6901851 0.1179751 -0.7076553
v 0.7065823 0.1132997 -0.7009659
v 0.7065823 -0.2344049 -0.7009659
v 0.6925433 -0.2344049 -0.7117394
v 0.7065823 0.1132997 -0.7009659
v 0.7132732 0.1179751 -0.6845683
v 0.7032488 0.1179751 -0.6976313
v 0.7173566 0.1132997 -0.6869262
v 0.7173566 -0.2344049 -0.6869262
v 0.7065823 -0.2344049 -0.7009659
v 0.7173566 0.1132997 -0.6869262
v 0.7195732 0.1179751 -0.6693558
v 0.7132732 0.1179751 -0.6845683
v 0.7241272 0.1132997 -0.6705764
v 0.7241272 -0.2344049 -0.6705764
v 0.7173566 -0.2344049 -0.6869262
v 0.7241272 0.1132997 -0.6705764
v 0.7217647 0.1179751 -0.6527243
v 0.7195732 0.1179751 -0.6693558
v 0.7264391 0.1132997 -0.6530308
v 0.7264391 -0.2344049 -0.6530308
v 0.7241272 -0.2344049 -0.6705764
v 0.7264391 0.1132997 -0.6530308
v 0.7217647 0.1179751 0.6527244
v 0.7217647 0.1179751 -0.6527243
v 0.7264391 0.1132997 0.653031
v 0.7264391 -0.2344048 0.653031
v 0.7264391 -0.2344049 -0.6530308
v -0.6583405 0.1179751 -0.7161459
v -0.6749734 0.1179751 -0.7139563
v -0.6761938 0.1132997 -0.7185113
v -0.6586475 0.1132997 -0.7208214
v -0.6586475 -0.2344049 -0.7208214
v -0.6761938 -0.2344049 -0.7185113
v 0.6761938 0.1132997 0.7185116
v 0.6583419 0.1179751 0.7161459
v 0.6749734 0.1179751 0.7139564
v 0.6586489 0.1132997 0.7208215
v 0.6586489 -0.2344048 0.7208215
v 0.6761938 -0.2344048 0.7185116
v 0.6749734 0.1179751 0.7139564
v 0.6901851 0.1179751 0.7076552
v 0.6925433 0.1132997 0.7117392
v 0.6761938 0.1132997 0.7185116
v 0.6761938 -0.2344048 0.7185116
v 0.6925433 -0.2344048 0.7117392
v 0.6586489 0.1132997 0.7208215
v -0.6583421 0.1179751 0.7161459
v 0.6583419 0.1179751 0.7161459
v -0.6586488 0.1132997 0.7208215
v -0.6586488 -0.2344048 0.7208215
v 0.6586489 -0.2344048 0.7208215
v 0.6901851 0.1179751 0.7076552
v 0.7032502 0.1179751 0.6976314
v 0.7065839 0.1132997 0.700966
v 0.6925433 0.1132997 0.7117392
v 0.6925433 -0.2344048 0.7117392
v 0.7065839 -0.2344048 0.700966
v 0.7032502 0.1179751 0.6976314
v 0.7132732 0.1179751 0.6845683
v 0.7173566 0.1132997 0.6869262
v 0.7065839 0.1132997 0.700966
v 0.7065839 -0.2344048 0.700966
v 0.7173566 -0.2344048 0.6869262
v 0.7132732 0.1179751 0.6845683
v 0.7195746 0.1179751 0.6693558
v 0.7241287 0.1132997 0.6705765
v 0.7173566 0.1132997 0.6869262
v 0.7173566 -0.2344048 0.6869262
v 0.7241287 -0.2344048 0.6705765
v 0.7195746 0.1179751 0.6693558
v 0.7217647 0.1179751 0.6527244
v 0.7264391 0.1132997 0.653031
v 0.7241287 0.1132997 0.6705765
v 0.7241287 -0.2344048 0.6705765
v 0.7264391 -0.2344048 0.653031
v -0.6749734 0.1179751 -0.7139563
v -0.6901851 0.1179751 -0.7076553
v -0.6925434 0.1132997 -0.7117394
v -0.6761938 0.1132997 -0.7185113
v -0.6761938 -0.2344049 -0.7185113
v -0.6925434 -0.2344049 -0.7117394
v -0.6901851 0.1179751 -0.7076553
v -0.7032488 0.1179751 -0.6976313
v -0.7065823 0.1132997 -0.7009659
v -0.6925434 0.1132997 -0.7117394
v -0.6925434 -0.2344049 -0.7117394
v -0.7065823 -0.2344049 -0.7009659
v -0.7032488 0.1179751 -0.6976313
v -0.7132732 0.1179751 -0.6845683
v -0.7173566 0.1132997 -0.6869262
v -0.7065823 0.1132997 -0.7009659
v -0.7065823 -0.2344049 -0.7009659
v -0.7173566 -0.2344049 -0.6869262
v -0.7132732 0.1179751 -0.6845683
v -0.7195732 0.1179751 -0.6693558
v -0.7241272 0.1132997 -0.6705764
v -0.7173566 0.1132997 -0.6869262
v -0.7173566 -0.2344049 -0.6869262
v -0.7241272 -0.2344049 -0.6705764
v -0.7195732 0.1179751 -0.6693558
v -0.7217647 0.1179751 -0.6527243
v -0.7264391 0.1132997 -0.6530308
v -0.7241272 0.1132997 -0.6705764
v -0.7241272 -0.2344049 -0.6705764
v -0.7264391 -0.2344049 -0.6530308
v -0.7217647 0.1179751 -0.6527243
v -0.7217647 0.1179751 0.6527244
v -0.7264391 0.1132997 0.653031
v -0.7264391 0.1132997 -0.6530308
v -0.7264391 -0.2344049 -0.6530308
v -0.7264391 -0.2344048 0.653031
v -0.7217647 0.1179751 0.6527244
v -0.7195746 0.1179751 0.6693558
v -0.7241285 0.1132997 0.6705765
v -0.7264391 0.1132997 0.653031
v -0.7264391 -0.2344048 0.653031
v -0.7241285 -0.2344048 0.6705765
v -0.6761938 0.1132997 0.7185116
v -0.6901851 0.1179751 0.7076552
v -0.6749734 0.1179751 0.7139564
v -0.6925434 0.1132997 0.7117392
v -0.6925434 -0.2344048 0.7117392
v -0.6761938 -0.2344048 0.7185116
v -0.6749734 0.1179751 0.7139564
v -0.6583421 0.1179751 0.7161459
v -0.6586488 0.1132997 0.7208215
v -0.6761938 0.1132997 0.7185116
v -0.6761938 -0.2344048 0.7185116
v -0.6586488 -0.2344048 0.7208215
v -0.6925434 0.1132997 0.7117392
v -0.7032501 0.1179751 0.6976314
v -0.6901851 0.1179751 0.7076552
v -0.7065839 0.1132997 0.700966
v -0.7065839 -0.2344048 0.700966
v -0.6925434 -0.2344048 0.7117392
v -0.7065839 0.1132997 0.700966
v -0.7132732 0.1179751 0.6845683
v -0.7032501 0.1179751 0.6976314
v -0.7173566 0.1132997 0.6869262
v -0.7173566 -0.2344048 0.6869262
v -0.7065839 -0.2344048 0.700966
v -0.7173566 0.1132997 0.6869262
v -0.7195746 0.1179751 0.6693558
v -0.7132732 0.1179751 0.6845683
v -0.7241285 0.1132997 0.6705765
v -0.7241285 -0.2344048 0.6705765
v -0.7173566 -0.2344048 0.6869262
v 0.653746 0.1179751 -0.6979166
v 0.6653931 0.115686 -0.683836
v 0.6495003 0.1155378 -0.6901472
v 0.6706603 0.1179751 -0.6909105
v 0.6901851 0.1179751 -0.7076553
v 0.6749734 0.1179751 -0.7139563
v 0.6495003 0.1155378 -0.6901472
v 0.6324137 0.1153448 -0.6921106
v 0.6358998 0.1179751 -0.7002662
v 0.653746 0.1179751 -0.6979166
v 0.6749734 0.1179751 -0.7139563
v 0.6583408 0.1179751 -0.7161459
v 0.6324137 0.1153448 -0.6921106
v -0.6323042 0.1152539 -0.6919903
v -0.6359098 0.1179751 -0.700428
v 0.6358998 0.1179751 -0.7002662
v 0.6583408 0.1179751 -0.7161459
v -0.6583405 0.1179751 -0.7161459
v 0.6706603 0.1179751 -0.6909105
v 0.6789206 0.1157163 -0.6735239
v 0.6653931 0.115686 -0.683836
v 0.6851856 0.1179751 -0.6797649
v 0.7032488 0.1179751 -0.6976313
v 0.6901851 0.1179751 -0.7076553
v 0.6851856 0.1179751 -0.6797649
v 0.6892363 0.1156888 -0.6599991
v 0.6789206 0.1157163 -0.6735239
v 0.6964319 0.1179751 -0.6652972
v 0.7132732 0.1179751 -0.6845683
v 0.7032488 0.1179751 -0.6976313
v 0.6964319 0.1179751 -0.6652972
v 0.6955505 0.1155448 -0.644113
v 0.6892363 0.1156888 -0.6599991
v 0.7035626 0.1179751 -0.6483854
v 0.7195732 0.1179751 -0.6693558
v 0.7132732 0.1179751 -0.6845683
v 0.7035626 0.1179751 -0.6483854
v 0.6974001 0.1152662 -0.626926
v 0.6955505 0.1155448 -0.644113
v 0.7058467 0.1179751 -0.6304902
v 0.7217647 0.1179751 -0.6527243
v 0.7195732 0.1179751 -0.6693558
v 0.7058467 0.1179751 -0.6304902
v 0.6975191 0.1153556 0.6270334
v 0.6974001 0.1152662 -0.626926
v 0.7056869 0.1179751 0.6304796
v 0.7217647 0.1179751 0.6527244
v 0.7217647 0.1179751 -0.6527243
v -0.6323042 0.1152539 -0.6919903
v -0.6495001 0.1155378 -0.6901472
v -0.6538075 0.1179751 -0.6981462
v -0.6359098 0.1179751 -0.700428
v -0.6583405 0.1179751 -0.7161459
v -0.6749734 0.1179751 -0.7139563
v 0.6538076 0.1179751 0.6981464
v 0.6323058 0.1152539 0.6919903
v 0.6495003 0.1155379 0.6901473
v 0.635911 0.1179751 0.700428
v 0.6583419 0.1179751 0.7161459
v 0.6749734 0.1179751 0.7139564
v 0.6495003 0.1155379 0.6901473
v 0.6653931 0.115686 0.683836
v 0.6707206 0.1179751 0.6910131
v 0.6538076 0.1179751 0.6981464
v 0.6749734 0.1179751 0.7139564
v 0.6901851 0.1179751 0.7076552
v 0.635911 0.1179751 0.700428
v -0.6324151 0.1153448 0.6921107
v 0.6323058 0.1152539 0.6919903
v -0.6359015 0.1179751 0.7002662
v -0.6583421 0.1179751 0.7161459
v 0.6583419 0.1179751 0.7161459
v 0.6653931 0.115686 0.683836
v 0.6789206 0.1157153 0.6735228
v 0.6851883 0.1179751 0.6797664
v 0.6707206 0.1179751 0.6910131
v 0.6901851 0.1179751 0.7076552
v 0.7032502 0.1179751 0.6976314
v 0.6789206 0.1157153 0.6735228
v 0.6892363 0.1156888 0.6599993
v 0.6963308 0.1179751 0.6652399
v 0.6851883 0.1179751 0.6797664
v 0.7032502 0.1179751 0.6976314
v 0.7132732 0.1179751 0.6845683
v 0.6892363 0.1156888 0.6599993
v 0.6955518 0.1155448 0.6441131
v 0.7033384 0.1179751 0.6483251
v 0.6963308 0.1179751 0.6652399
v 0.7132732 0.1179751 0.6845683
v 0.7195746 0.1179751 0.6693558
v 0.6955518 0.1155448 0.6441131
v 0.6975191 0.1153556 0.6270334
v 0.7056869 0.1179751 0.6304796
v 0.7033384 0.1179751 0.6483251
v 0.7195746 0.1179751 0.6693558
v 0.7217647 0.1179751 0.6527244
v -0.6495001 0.1155378 -0.6901472
v -0.665393 0.115686 -0.683836
v -0.6707208 0.1179751 -0.6910132
v -0.6538075 0.1179751 -0.6981462
v -0.6749734 0.1179751 -0.7139563
v -0.6901851 0.1179751 -0.7076553
v -0.665393 0.115686 -0.683836
v -0.6789194 0.1157153 -0.6735228
v -0.6851868 0.1179751 -0.6797662
v -0.6707208 0.1179751 -0.6910132
v -0.6901851 0.1179751 -0.7076553
v -0.7032488 0.1179751 -0.6976313
v -0.6789194 0.1157153 -0.6735228
v -0.6892366 0.1156888 -0.6599991
v -0.6963308 0.1179751 -0.6652399
v -0.6851868 0.1179751 -0.6797662
v -0.7032488 0.1179751 -0.6976313
v -0.7132732 0.1179751 -0.6845683
v -0.6892366 0.1156888 -0.6599991
v -0.6955505 0.1155448 -0.644113
v -0.7033373 0.1179751 -0.648325
v -0.6963308 0.1179751 -0.6652399
v -0.7132732 0.1179751 -0.6845683
v -0.7195732 0.1179751 -0.6693558
v -0.6955505 0.1155448 -0.644113
v -0.6975189 0.1153556 -0.6270333
v -0.7056869 0.1179751 -0.6304797
v -0.7033373 0.1179751 -0.648325
v -0.7195732 0.1179751 -0.6693558
v -0.7217647 0.1179751 -0.6527243
v -0.6975189 0.1153556 -0.6270333
v -0.6973999 0.1152661 0.626926
v -0.7058467 0.1179751 0.6304901
v -0.7056869 0.1179751 -0.6304797
v -0.7217647 0.1179751 -0.6527243
v -0.7217647 0.1179751 0.6527244
v -0.6973999 0.1152661 0.626926
v -0.6955518 0.1155448 0.6441131
v -0.703564 0.1179751 0.6483855
v -0.7058467 0.1179751 0.6304901
v -0.7217647 0.1179751 0.6527244
v -0.7195746 0.1179751 0.6693558
v -0.653746 0.1179751 0.6979169
v -0.665393 0.115686 0.683836
v -0.6495001 0.1155379 0.6901473
v -0.6706601 0.1179751 0.6909106
v -0.6901851 0.1179751 0.7076552
v -0.6749734 0.1179751 0.7139564
v -0.6495001 0.1155379 0.6901473
v -0.6324151 0.1153448 0.6921107
v -0.6359015 0.1179751 0.7002662
v -0.653746 0.1179751 0.6979169
v -0.6749734 0.1179751 0.7139564
v -0.6583421 0.1179751 0.7161459
v -0.6706601 0.1179751 0.6909106
v -0.6789218 0.1157163 0.6735241
v -0.665393 0.115686 0.683836
v -0.6851868 0.1179751 0.679765
v -0.7032501 0.1179751 0.6976314
v -0.6901851 0.1179751 0.7076552
v -0.6851868 0.1179751 0.679765
v -0.6892366 0.1156888 0.6599993
v -0.6789218 0.1157163 0.6735241
v -0.6964316 0.1179751 0.6652972
v -0.7132732 0.1179751 0.6845683
v -0.7032501 0.1179751 0.6976314
v -0.6964316 0.1179751 0.6652972
v -0.6955518 0.1155448 0.6441131
v -0.6892366 0.1156888 0.6599993
v -0.703564 0.1179751 0.6483855
v -0.7195746 0.1179751 0.6693558
v -0.7132732 0.1179751 0.6845683
v 0.6352665 0.1040689 -0.6750218
v 0.6451691 0.1016316 -0.6613916
v 0.6310208 0.1016316 -0.6672525
v 0.6504362 0.1039208 -0.6684662
v 0.6653931 0.115686 -0.683836
v 0.6495003 0.1155378 -0.6901472
v 0.6310208 0.1016316 -0.6672525
v 0.6155288 0.1016316 -0.669292
v 0.619015 0.1042619 -0.6774477
v 0.6352665 0.1040689 -0.6750218
v 0.6495003 0.1155378 -0.6901472
v 0.6324137 0.1153448 -0.6921106
v 0.6155288 0.1016316 -0.669292
v -0.6155187 0.1016316 -0.6691303
v -0.6191243 0.1043529 -0.6775679
v 0.619015 0.1042619 -0.6774477
v 0.6324137 0.1153448 -0.6921106
v -0.6323042 0.1152539 -0.6919903
v 0.6504362 0.1039208 -0.6684662
v 0.6573191 0.1016316 -0.652068
v 0.6451691 0.1016316 -0.6613916
v 0.6635841 0.1038905 -0.6583089
v 0.6789206 0.1157163 -0.6735239
v 0.6653931 0.115686 -0.683836
v 0.6635841 0.1038905 -0.6583089
v 0.6665449 0.1016316 -0.6398602
v 0.6573191 0.1016316 -0.652068
v 0.6737387 0.103918 -0.6451582
v 0.6892363 0.1156888 -0.6599991
v 0.6789206 0.1157163 -0.6735239
v 0.6737387 0.103918 -0.6451582
v 0.6722788 0.1016316 -0.6257074
v 0.6665449 0.1016316 -0.6398602
v 0.6802896 0.104062 -0.6299797
v 0.6955505 0.1155448 -0.644113
v 0.6892363 0.1156888 -0.6599991
v 0.6802896 0.104062 -0.6299797
v 0.6743848 0.1016316 -0.6102661
v 0.6722788 0.1016316 -0.6257074
v 0.6828328 0.1043405 -0.6138304
v 0.6974001 0.1152662 -0.626926
v 0.6955505 0.1155448 -0.644113
v 0.6828328 0.1043405 -0.6138304
v 0.6745459 0.1016316 0.6102769
v 0.6743848 0.1016316 -0.6102661
v 0.6827137 0.1042511 0.6137233
v 0.6975191 0.1153556 0.6270334
v 0.6974001 0.1152662 -0.626926
v -0.6155187 0.1016316 -0.6691303
v -0.6309605 0.1016316 -0.667023
v -0.6352663 0.1040689 -0.6750218
v -0.6191243 0.1043529 -0.6775679
v -0.6323042 0.1152539 -0.6919903
v -0.6495001 0.1155378 -0.6901472
v 0.6352665 0.1040689 0.675022
v 0.6155203 0.1016316 0.6691304
v 0.6309605 0.1016316 0.6670231
v 0.6191257 0.1043529 0.677568
v 0.6323058 0.1152539 0.6919903
v 0.6495003 0.1155379 0.6901473
v 0.6309605 0.1016316 0.6670231
v 0.6451101 0.1016316 0.661289
v 0.6504362 0.1039208 0.6684663
v 0.6352665 0.1040689 0.675022
v 0.6495003 0.1155379 0.6901473
v 0.6653931 0.115686 0.683836
v 0.6191257 0.1043529 0.677568
v -0.61553 0.1016316 0.669292
v 0.6155203 0.1016316 0.6691304
v -0.6190163 0.104262 0.6774477
v -0.6324151 0.1153448 0.6921107
v 0.6323058 0.1152539 0.6919903
v 0.6451101 0.1016316 0.661289
v 0.6573191 0.1016316 0.6520666
v 0.6635869 0.1038914 0.6583102
v 0.6504362 0.1039208 0.6684663
v 0.6653931 0.115686 0.683836
v 0.6789206 0.1157153 0.6735228
v 0.6573191 0.1016316 0.6520666
v 0.6666443 0.1016316 0.6399176
v 0.6737387 0.103918 0.6451583
v 0.6635869 0.1038914 0.6583102
v 0.6789206 0.1157153 0.6735228
v 0.6892363 0.1156888 0.6599993
v 0.6666443 0.1016316 0.6399176
v 0.6725057 0.1016316 0.6257679
v 0.6802911 0.104062 0.6299798
v 0.6737387 0.103918 0.6451583
v 0.6892363 0.1156888 0.6599993
v 0.6955518 0.1155448 0.6441131
v 0.6725057 0.1016316 0.6257679
v 0.6745459 0.1016316 0.6102769
v 0.6827137 0.1042511 0.6137233
v 0.6802911 0.104062 0.6299798
v 0.6955518 0.1155448 0.6441131
v 0.6975191 0.1153556 0.6270334
v -0.6309605 0.1016316 -0.667023
v -0.6451101 0.1016316 -0.6612892
v -0.6504365 0.1039208 -0.6684662
v -0.6352663 0.1040689 -0.6750218
v -0.6495001 0.1155378 -0.6901472
v -0.665393 0.115686 -0.683836
v -0.6451101 0.1016316 -0.6612892
v -0.6573178 0.1016316 -0.6520667
v -0.6635855 0.1038914 -0.6583102
v -0.6504365 0.1039208 -0.6684662
v -0.665393 0.115686 -0.683836
v -0.6789194 0.1157153 -0.6735228
v -0.6573178 0.1016316 -0.6520667
v -0.6666445 0.1016316 -0.6399177
v -0.6737387 0.103918 -0.6451582
v -0.6635855 0.1038914 -0.6583102
v -0.6789194 0.1157153 -0.6735228
v -0.6892366 0.1156888 -0.6599991
v -0.6666445 0.1016316 -0.6399177
v -0.6725042 0.1016316 -0.6257679
v -0.6802897 0.104062 -0.6299797
v -0.6737387 0.103918 -0.6451582
v -0.6892366 0.1156888 -0.6599991
v -0.6955505 0.1155448 -0.644113
v -0.6725042 0.1016316 -0.6257679
v -0.6745461 0.1016316 -0.6102768
v -0.6827135 0.104251 -0.613723
v -0.6802897 0.104062 -0.6299797
v -0.6955505 0.1155448 -0.644113
v -0.6975189 0.1153556 -0.6270333
v -0.6745461 0.1016316 -0.6102768
v -0.6743861 0.1016316 0.6102664
v -0.682833 0.1043406 0.6138306
v -0.6827135 0.104251 -0.613723
v -0.6975189 0.1153556 -0.6270333
v -0.6973999 0.1152661 0.626926
v -0.6743861 0.1016316 0.6102664
v -0.6722802 0.1016316 0.6257073
v -0.680291 0.104062 0.6299798
v -0.682833 0.1043406 0.6138306
v -0.6973999 0.1152661 0.626926
v -0.6955518 0.1155448 0.6441131
v -0.6352663 0.1040689 0.675022
v -0.6451705 0.1016316 0.6613915
v -0.6310208 0.1016316 0.6672525
v -0.6504365 0.1039208 0.6684663
v -0.665393 0.115686 0.683836
v -0.6495001 0.1155379 0.6901473
v -0.6310208 0.1016316 0.6672525
v -0.61553 0.1016316 0.669292
v -0.6190163 0.104262 0.6774477
v -0.6352663 0.1040689 0.675022
v -0.6495001 0.1155379 0.6901473
v -0.6324151 0.1153448 0.6921107
v -0.6504365 0.1039208 0.6684663
v -0.6573206 0.1016316 0.652068
v -0.6451705 0.1016316 0.6613915
v -0.6635855 0.1038905 0.6583091
v -0.6789218 0.1157163 0.6735241
v -0.665393 0.115686 0.683836
v -0.6635855 0.1038905 0.6583091
v -0.6665449 0.1016316 0.6398602
v -0.6573206 0.1016316 0.652068
v -0.6737387 0.103918 0.6451583
v -0.6892366 0.1156888 0.6599993
v -0.6789218 0.1157163 0.6735241
v -0.6737387 0.103918 0.6451583
v -0.6722802 0.1016316 0.6257073
v -0.6665449 0.1016316 0.6398602
v -0.680291 0.104062 0.6299798
v -0.6955518 0.1155448 0.6441131
v -0.6892366 0.1156888 0.6599993
v -0.6444925 0.1016316 0.6102666
v -0.6743861 0.1016316 0.6102664
v -0.6745461 0.1016316 -0.6102768
v -0.6446525 0.1016316 -0.6102766
v 0.6572065 0.1016316 0.6102769
v 0.6570456 0.1016316 -0.6102663
v 0.6745459 0.1016316 0.6102769
v 0.6743848 0.1016316 -0.6102661
v -0.6725042 0.1016316 -0.6257679
v -0.6446525 0.1016316 -0.6102766
v -0.6745461 0.1016316 -0.6102768
v -0.6427026 0.1016316 -0.6257666
v 0.6570456 0.1016316 -0.6102663
v 0.6549928 0.1016316 -0.6257081
v 0.6743848 0.1016316 -0.6102661
v 0.6722788 0.1016316 -0.6257074
v -0.6427026 0.1016316 -0.6257666
v -0.6725042 0.1016316 -0.6257679
v -0.6666445 0.1016316 -0.6399177
v -0.6370997 0.1016316 -0.6399164
v 0.6549928 0.1016316 -0.6257081
v 0.6494079 0.1016316 -0.6398609
v 0.6722788 0.1016316 -0.6257074
v 0.6665449 0.1016316 -0.6398602
v -0.6573178 0.1016316 -0.6520667
v -0.6370997 0.1016316 -0.6399164
v -0.6666445 0.1016316 -0.6399177
v -0.6281843 0.1016316 -0.6520668
v 0.6494079 0.1016316 -0.6398609
v 0.6404207 0.1016316 -0.652068
v 0.6665449 0.1016316 -0.6398602
v 0.6573191 0.1016316 -0.652068
v -0.6281843 0.1016316 -0.6520668
v -0.6573178 0.1016316 -0.6520667
v -0.6451101 0.1016316 -0.6612892
v -0.6165164 0.1016316 -0.6612915
v 0.6404207 0.1016316 -0.652068
v 0.6285838 0.1016316 -0.6613904
v 0.6573191 0.1016316 -0.652068
v 0.6451691 0.1016316 -0.6613916
v -0.6743861 0.1016316 0.6102664
v -0.6424785 0.1016316 0.6257087
v -0.6722802 0.1016316 0.6257073
v -0.6444925 0.1016316 0.6102666
v 0.6552198 0.1016316 0.6257671
v 0.6572065 0.1016316 0.6102769
v 0.6725057 0.1016316 0.6257679
v 0.6745459 0.1016316 0.6102769
v -0.6370002 0.1016316 0.6398615
v -0.6665449 0.1016316 0.6398602
v -0.6722802 0.1016316 0.6257073
v -0.6424785 0.1016316 0.6257087
v 0.6495074 0.1016316 0.6399168
v 0.6552198 0.1016316 0.6257671
v 0.6666443 0.1016316 0.6399176
v 0.6725057 0.1016316 0.6257679
v -0.6665449 0.1016316 0.6398602
v -0.6281869 0.1016316 0.652068
v -0.6573206 0.1016316 0.652068
v -0.6370002 0.1016316 0.6398615
v 0.6404206 0.1016316 0.6520666
v 0.6495074 0.1016316 0.6399168
v 0.6573191 0.1016316 0.6520666
v 0.6666443 0.1016316 0.6399176
v -0.6165766 0.1016316 0.6613892
v -0.6451705 0.1016316 0.6613915
v -0.6573206 0.1016316 0.652068
v -0.6281869 0.1016316 0.652068
v 0.6285248 0.1016316 0.6612903
v 0.6404206 0.1016316 0.6520666
v 0.6451101 0.1016316 0.661289
v 0.6573191 0.1016316 0.6520666
v 0.6155203 0.1016316 0.6691304
v 0.6285248 0.1016316 0.6612903
v 0.6451101 0.1016316 0.661289
v 0.6309605 0.1016316 0.6670231
v -0.6310208 0.1016316 0.6672525
v -0.6451705 0.1016316 0.6613915
v -0.6165766 0.1016316 0.6613892
v -0.61553 0.1016316 0.669292
v 0.6285248 0.1016316 0.6612903
v 0.6155203 0.1016316 0.6691304
v -0.61553 0.1016316 0.669292
v -0.6165766 0.1016316 0.6613892
v -0.6451101 0.1016316 -0.6612892
v -0.6309605 0.1016316 -0.667023
v -0.6155187 0.1016316 -0.6691303
v -0.6165164 0.1016316 -0.6612915
v 0.6155288 0.1016316 -0.669292
v 0.6285838 0.1016316 -0.6613904
v -0.6165164 0.1016316 -0.6612915
v -0.6155187 0.1016316 -0.6691303
v 0.6310208 0.1016316 -0.6672525
v 0.6451691 0.1016316 -0.6613916
v 0.6285838 0.1016316 -0.6613904
v 0.6155288 0.1016316 -0.669292
vt 1 0.9759529
vt 0.03474116 1
vt 0.9651768 1
vt 0 0.9759529
vt 0 0
vt 1 0
vt 0.03472716 1
vt 0.9826778 1
vt 1 0.9759529
vt 0 0.975953
vt 0 0
vt 1 0
vt 0.0002328753 1
vt 0.9997671 1
vt 1 0.9759529
vt 0 0.9759529
vt 0 0
vt 1 0
vt 1 0.9759529
vt 0.03477257 1
vt 0.9652229 1
vt 0 0.9759531
vt 0 0
vt 1 0
vt 1 0.9759529
vt 0.03480804 1
vt 0.9652571 1
vt 0 0.975953
vt 0 0
vt 1 0
vt 1 0.9759529
vt 0.03476083 1
vt 0.9652043 1
vt 0 0.9759533
vt 0 0
vt 1 0
vt 1 0.9759529
vt 0.01732534 1
vt 0.9652444 1
vt 0 0.9759531
vt 0 0
vt 1 0
vt 1 0.9759529
vt 0.0002347231 1
vt 0.9997652 1
vt 0 0.9759529
vt 0 0
vt 1 0
vt 0.01732218 1
vt 0.9652729 1
vt 1 0.9759529
vt 0 0.975953
vt 0 0
vt 1 0
vt 1 0.9759529
vt 0.01732367 1
vt 0.9652701 1
vt 0 0.975953
vt 0 0
vt 1 0
vt 0.03482401 1
vt 0.9652592 1
vt 1 0.9759529
vt 0 0.975953
vt 0 0
vt 1 0
vt 1 0.9759529
vt 0.0002328753 1
vt 0.9997671 1
vt 0 0.9759529
vt 0 0
vt 1 0
vt 0.03476739 1
vt 0.9652249 1
vt 1 0.9759529
vt 0 0.9759531
vt 0 0
vt 1 0
vt 0.03480542 1
vt 0.9652005 1
vt 1 0.9759529
vt 0 0.9759532
vt 0 0
vt 1 0
vt 0.03477377 1
vt 0.9652238 1
vt 1 0.9759529
vt 0 0.9759532
vt 0 0
vt 1 0
vt 0.03477842 1
vt 0.9826845 1
vt 1 0.9759529
vt 0 0.9759532
vt 0 0
vt 1 0
vt 0.0348233 1
vt 0.965259 1
vt 1 0.9759529
vt 0 0.9759529
vt 0 0
vt 1 0
vt 0.0347771 1
vt 0.9652275 1
vt 1 0.9759529
vt 0 0.9759531
vt 0 0
vt 1 0
vt 0.03474283 1
vt 0.965192 1
vt 1 0.9759529
vt 0 0.975953
vt 0 0
vt 1 0
vt 0.03479576 1
vt 0.9652392 1
vt 1 0.9759529
vt 0 0.9759533
vt 0 0
vt 1 0
vt 0.03475559 1
vt 0.9826747 1
vt 1 0.9759529
vt 0 0.9759531
vt 0 0
vt 1 0
vt 0.0002348423 1
vt 0.9997653 1
vt 1 0.9759529
vt 0 0.9759529
vt 0 0
vt 1 0
vt 0.01731563 1
vt 0.9652216 1
vt 1 0.9759529
vt 0 0.9759532
vt 0 0
vt 1 0
vt 1 0.9759529
vt 0.03474087 1
vt 0.965176 1
vt 0 0.975953
vt 0 0
vt 1 0
vt 0.0347299 1
vt 0.9826763 1
vt 1 0.9759529
vt 0 0.975953
vt 0 0
vt 1 0
vt 1 0.9759529
vt 0.03477502 1
vt 0.9652326 1
vt 0 0.9759531
vt 0 0
vt 1 0
vt 1 0.9759529
vt 0.0347994 1
vt 0.9651945 1
vt 0 0.9759532
vt 0 0
vt 1 0
vt 1 0.9759529
vt 0.03477615 1
vt 0.9652262 1
vt 0 0.9759532
vt 0 0
vt 1 0
vt 1 0.872986
vt 0.1110533 1
vt 1 1
vt 0.07046594 0.8552229
vt 0 0.1352476
vt 0.8601402 0.1447781
vt 0.1174433 1
vt 0.9999718 1
vt 1 0.8620062
vt 0.1555089 0.8331643
vt 0 0.1443832
vt 0.7924362 0.1668397
vt 0 1
vt 1 1
vt 0.9967722 0.8082818
vt 0.003010259 0.8146905
vt 0 0.1847532
vt 1 0.1878428
vt 1 0.8732319
vt 0 1
vt 0.9999938 1
vt 0.001064174 0.8645586
vt 0 0.135298
vt 0.9316916 0.1354282
vt 1 0.8637815
vt 1.520905E-05 1
vt 0.9999982 0.9999982
vt 0 0.8701907
vt 0.06607001 0.135293
vt 0.9989352 0.1353011
vt 0.9303138 0.852163
vt 1.786713E-05 1
vt 0.8890626 1
vt 0 0.8676258
vt 0.1373208 0.1443086
vt 1 0.135121
vt 0.840198 0.82597
vt 0 1
vt 0.8828675 1
vt 0 0.858611
vt 0.2043295 0.1658026
vt 1 0.1439096
vt 0.9968033 0.8098659
vt 0 1
vt 0.9999998 1
vt 0.002982961 0.8161513
vt 0 0.183302
vt 1 0.1863637
vt 3.075215E-05 1
vt 0.8825567 1
vt 0.8366495 0.8247584
vt 0 0.8580886
vt 0.207564 0.1668399
vt 1 0.1443829
vt 0.8366362 0.8247584
vt 3.075731E-05 1
vt 0.8825557 1
vt 0 0.8580908
vt 0.2075808 0.1668399
vt 1 0.1443813
vt 0 1
vt 0.8889464 1
vt 0.9277933 0.8515764
vt 0 0.8674085
vt 0.1398582 0.1447771
vt 1 0.1352473
vt 0.9967722 0.8082818
vt 0 1
vt 1 1
vt 0.003010253 0.8146905
vt 0 0.1847534
vt 1 0.187843
vt 6.198722E-06 1
vt 0.9999938 0.9999938
vt 0.9989375 0.8645018
vt 0 0.870237
vt 0.06830457 0.13543
vt 1 0.1352981
vt 0 1
vt 0.9999848 1
vt 1 0.8730893
vt 0 0.8637258
vt 0.001064379 0.1353006
vt 0.9339246 0.1352944
vt 0.1109373 1
vt 0.9999803 1
vt 1 0.8731203
vt 0.06800482 0.8556916
vt 0 0.1351181
vt 0.8626869 0.1443028
vt 0.1171303 1
vt 0.9999826 1
vt 1 0.8624821
vt 0.1522774 0.8341705
vt 0 0.1439148
vt 0.795648 0.165812
vt 0 1
vt 0.8889467 1
vt 0.9277925 0.8515759
vt 0 0.8674077
vt 0.1398598 0.1447781
vt 0.9999999 0.1352477
vt 6.190824E-06 1
vt 0.9999942 0.9999942
vt 0.9989392 0.8645028
vt 0 0.8702394
vt 0.06830837 0.1354282
vt 1 0.1352982
vt 0 1
vt 0.9999848 1
vt 1 0.873091
vt 0 0.8637279
vt 0.001064651 0.1353013
vt 0.93393 0.135293
vt 0.1109374 1
vt 0.9999821 1
vt 1 0.8731161
vt 0.06800851 0.8556889
vt 0 0.1351212
vt 0.8626792 0.1443086
vt 0.1171325 1
vt 0.9999785 1
vt 1 0.8624875
vt 0.1522676 0.8341782
vt 0 0.1439095
vt 0.7956704 0.1658026
vt 0 1
vt 0.9999997 1
vt 0.9968032 0.8098658
vt 0.002982825 0.8161513
vt 0 0.183302
vt 1 0.1863638
vt 0 1
vt 0.8828697 1
vt 0.8401898 0.8259616
vt 0 0.8586055
vt 0.2043518 0.1658121
vt 1 0.143915
vt 1 0.8729868
vt 0.1110536 1
vt 1 1
vt 0.07046705 0.8552221
vt 0 0.1352475
vt 0.8601419 0.1447771
vt 0.1174443 1
vt 0.9999718 1
vt 1 0.8620082
vt 0.1555215 0.8331643
vt 0 0.144381
vt 0.7924188 0.16684
vt 1 0.8732289
vt 0 1
vt 0.9999938 1
vt 0.001063731 0.8645588
vt 0 0.1352981
vt 0.9316955 0.13543
vt 1 0.8637818
vt 1.52107E-05 1
vt 0.9999968 0.9999968
vt 0 0.87019
vt 0.06607547 0.1352944
vt 0.9989353 0.135301
vt 0.9303159 0.8521665
vt 1.967098E-05 1
vt 0.8890627 1
vt 0 0.8676294
vt 0.1373131 0.1443028
vt 0.9999999 0.1351181
vt 0.9999917 0.8508682
vt 0.07377213 1
vt 0.8963398 1
vt 1.572466E-05 0.8599373
vt 0 0.1400606
vt 1 0.1491386
vt 0.03127766 1
vt 0.8647131 1
vt 1 0.8390644
vt 0 0.8508616
vt 7.234629E-06 0.1491323
vt 0.9999677 0.1609398
vt 0 1
vt 1 1
vt 0.9999995 0.8334931
vt 4.629956E-07 0.8390573
vt 0 0.160943
vt 1 0.1665073
vt 1 0.8599416
vt 0.118481 1
vt 0.9440672 1
vt 2.405425E-06 0.8617865
vt 0 0.1382133
vt 0.9999847 0.1400605
vt 1 0.8617849
vt 0.05555367 1
vt 0.8800561 1
vt 0 0.860093
vt 2.131473E-05 0.1399099
vt 0.9999977 0.1382133
vt 0.9999784 0.8600872
vt 0.1065469 1
vt 1 1
vt 0 0.8512862
vt 1.760902E-05 0.1487164
vt 0.9999999 0.1399098
vt 0.9999839 0.851281
vt 0.1377861 1
vt 0.9659688 1
vt 1.228643E-05 0.8342585
vt 0 0.1657541
vt 1 0.1487167
vt 1 0.8342593
vt 0 1
vt 1 1
vt 3.314548E-07 0.8396994
vt 0 0.1603011
vt 0.9999998 0.1657409
vt 0.1394545 1
vt 0.9673603 1
vt 1 0.8508616
vt 0 0.8335012
vt 3.737642E-05 0.1665052
vt 0.9999928 0.1491322
vt 1 0.8508616
vt 0.1394666 1
vt 0.9673681 1
vt 0 0.8335012
vt 3.745997E-05 0.1665051
vt 0.9999908 0.1491305
vt 0.1083232 1
vt 0.9245367 1
vt 0.999984 0.8599371
vt 8.453963E-06 0.8508682
vt 0 0.149139
vt 1 0.1400606
vt 0.9999995 0.8334931
vt 0 1
vt 1 1
vt 4.629936E-07 0.8390573
vt 0 0.1609429
vt 1 0.1665073
vt 0.05716447 1
vt 0.8815324 1
vt 0.9999999 0.8617193
vt 0 0.8599415
vt 1.554216E-05 0.1400607
vt 0.9999933 0.138275
vt 0.1199809 1
vt 0.945631 1
vt 1 0.8600931
vt 6.510862E-06 0.8617241
vt 0 0.1382753
vt 0.9999787 0.13991
vt 0 1
vt 0.897945 1
vt 1 0.8512862
vt 2.152906E-05 0.8600872
vt 0 0.1399095
vt 0.9999803 0.1487159
vt 0.03262311 1
vt 0.866268 1
vt 1 0.8397055
vt 1.596699E-05 0.8512811
vt 0 0.1487159
vt 0.9999781 0.1602995
vt 0.108324 1
vt 0.9245365 1
vt 0.9999842 0.8599372
vt 8.398982E-06 0.8508682
vt 0 0.1491386
vt 1 0.1400605
vt 0.0571677 1
vt 0.8815321 1
vt 1 0.8617196
vt 0 0.8599416
vt 1.524507E-05 0.1400605
vt 0.9999934 0.138275
vt 0.1199781 1
vt 0.945632 1
vt 1 0.860093
vt 6.403451E-06 0.8617241
vt 0 0.1382751
vt 0.9999787 0.1399099
vt 0 1
vt 0.8979439 1
vt 1 0.8512862
vt 2.15312E-05 0.8600872
vt 0 0.1399099
vt 0.9999824 0.1487164
vt 0.03261709 1
vt 0.8662404 1
vt 1 0.8397079
vt 1.610894E-05 0.8512809
vt 0 0.1487166
vt 0.9999712 0.1602984
vt 0 1
vt 1 1
vt 1 0.8342589
vt 4.245329E-07 0.8397003
vt 0 0.1602998
vt 0.9999998 0.1657414
vt 0.1377855 1
vt 0.9659628 1
vt 0.999984 0.851281
vt 1.681668E-05 0.8342577
vt 0 0.1657585
vt 1 0.148716
vt 0.9999915 0.8508682
vt 0.07377195 1
vt 0.8963405 1
vt 1.596089E-05 0.8599371
vt 0 0.1400605
vt 1 0.149139
vt 0.03127021 1
vt 0.8647014 1
vt 1 0.8390653
vt 0 0.8508616
vt 9.261886E-06 0.1491306
vt 0.9999676 0.1609398
vt 1 0.8599415
vt 0.1184807 1
vt 0.944072 1
vt 4.222389E-06 0.8617854
vt 0 0.1382139
vt 0.9999844 0.1400607
vt 1 0.8617822
vt 0.0555566 1
vt 0.8800534 1
vt 0 0.8600931
vt 2.133125E-05 0.13991
vt 0.9999957 0.1382142
vt 0.9999784 0.8600872
vt 0.1065436 1
vt 1 1
vt 0 0.8512862
vt 1.9675E-05 0.1487159
vt 1 0.1399098
vt 0.0001366384 0.977839
vt 0.0001397351 0.9999999
vt 0.9049616 0.9999991
vt 0.9049585 0.9778382
vt 1.796165E-06 0.01285407
vt 0.9048236 0.01285406
vt 0 2.878343E-16
vt 0.9048218 0
vt 0.1313517 0
vt 0.1401146 0.02216095
vt 0.1430353 0
vt 0.1284409 0.02209291
vt 0.0129353 0.9871459
vt 0.001688405 0.9841154
vt 0.01124121 1
vt 0 0.99693
vt 0.3962118 0.9778391
vt 0.4051912 1
vt 0.413948 0.9913796
vt 0.405046 0.9694097
vt 0.005208358 0.01285407
vt 0.01741529 0.01274327
vt 0 0
vt 0.01225186 0
vt 0.7569847 0
vt 0.7544562 0.02216095
vt 0.7714675 0
vt 0.7402092 0.02185182
vt 0.01371128 0.987146
vt 0.009730336 0.973376
vt 0.003844199 1
vt 0 0.9860508
vt 0.9778392 0.7503794
vt 1 0.7673854
vt 0.9960974 0.7532442
vt 0.9743484 0.7365516
vt 0.01285407 0.009864028
vt 0.02729966 0.009682257
vt 0 0
vt 0.0146845 0
vt 0 7.262487E-17
vt 0.01467393 0.02209273
vt 0.01165971 0
vt 0.003022692 0.02216095
vt 0.1459264 0.9841068
vt 0.134644 0.9871459
vt 0.1476748 0.9969214
vt 0.1363972 1
vt 0.009099732 0.9694059
vt 0 0.9913757
vt 0.008757387 1
vt 0.01793623 0.9778391
vt 0.405342 0.01274322
vt 0.4176233 0.01285407
vt 0.4106201 0
vt 0.4229473 0
vt 0 1.825181E-16
vt 0.03089797 0.02185334
vt 0.01438538 0
vt 0.01674657 0.02216095
vt 0.7499288 0.9734435
vt 0.7459654 0.9871459
vt 0.7595066 0.9861192
vt 0.755679 1
vt 0.02563659 0.7248752
vt 0.003884966 0.7413032
vt 0 0.7553766
vt 0.02216095 0.7386368
vt 0.9727975 0.009528765
vt 0.9871459 0.009709666
vt 0.9854141 0
vt 1 0
vt 0 0
vt 0.4590504 0.19782
vt 1 0.1240342
vt 0.5129718 0
vt 0.4863426 0
vt 0 0.130312
vt 0.9319759 0.2530928
vt 0.9999999 0
vt 0 4.646375E-14
vt 0.01044502 0.006295866
vt 0.99916 0.006347197
vt 1 0
vt 0 0
vt 0.4781716 0.1937248
vt 1 0.2648939
vt 0.9662673 4.887472E-13
vt 0.01048429 0
vt 0 0.006347635
vt 1 0.006295634
vt 0.999198 3.119155E-13
vt 0.4863009 0
vt 0 0.1303159
vt 0.5405771 0.2015281
vt 1 0
vn 0.2587878 0.01222232 -0.9658569
vn 0.08743251 0.9845927 -0.1514355
vn 0.04939942 0.9815331 -0.1848038
vn 0.4999754 0.0121676 -0.8659542
vn 0.5000125 0 -0.8660183
vn 0.2588141 0 -0.9659272
vn 0.04939942 0.9815331 -0.1848038
vn 0.0006661754 0.9186692 -0.3950272
vn 0.001729937 0.01287491 -0.9999156
vn 0.2587878 0.01222232 -0.9658569
vn 0.2588141 0 -0.9659272
vn 0.001730647 0 -0.9999986
vn 0.0006661754 0.9186692 -0.3950272
vn -0.0006686007 0.9180422 -0.3964822
vn -0.001729938 0.01287463 -0.9999156
vn 0.001729937 0.01287491 -0.9999156
vn 0.001730647 0 -0.9999986
vn -0.001730647 0 -0.9999986
vn 0.4999754 0.0121676 -0.8659542
vn 0.1202827 0.9854257 -0.1202836
vn 0.08743251 0.9845927 -0.1514355
vn 0.7070526 0.01216702 -0.7070562
vn 0.7071052 0 -0.7071083
vn 0.5000125 0 -0.8660183
vn 0.7070526 0.01216702 -0.7070562
vn 0.151465 0.9845871 -0.08744506
vn 0.1202827 0.9854257 -0.1202836
vn 0.8659685 0.01216566 -0.4999506
vn 0.8660326 0 -0.4999876
vn 0.7071052 0 -0.7071083
vn 0.8659685 0.01216566 -0.4999506
vn 0.1849008 0.9815134 -0.0494285
vn 0.151465 0.9845871 -0.08744506
vn 0.9658532 0.01222045 -0.2588017
vn 0.9659235 0 -0.2588279
vn 0.8660326 0 -0.4999876
vn 0.9658532 0.01222045 -0.2588017
vn 0.3911899 0.9203098 -0.0006658832
vn 0.1849008 0.9815134 -0.0494285
vn 0.9999156 0.01287218 -0.001745972
vn 0.9999985 0 -0.001746691
vn 0.9659235 0 -0.2588279
vn 0.9999156 0.01287218 -0.001745972
vn 0.389788 0.9209043 0.000663012
vn 0.3911899 0.9203098 -0.0006658832
vn 0.9999156 0.01287218 0.00174482
vn 0.9999985 0 0.001745537
vn 0.9999985 0 -0.001746691
vn -0.0006686007 0.9180422 -0.3964822
vn -0.04962092 0.9813654 -0.1856337
vn -0.2587867 0.01222237 -0.9658572
vn -0.001729938 0.01287463 -0.9999156
vn -0.001730647 0 -0.9999986
vn -0.2588129 0 -0.9659274
vn 0.2588031 0.01222249 0.9658527
vn 0.0006685359 0.9180435 0.3964791
vn 0.04962257 0.9813663 0.1856286
vn 0.001729829 0.01287493 0.9999156
vn 0.00173054 0 0.9999986
vn 0.2588294 0 0.9659231
vn 0.04962257 0.9813663 0.1856286
vn 0.08759784 0.9845329 0.1517292
vn 0.4999595 0.01216788 0.8659633
vn 0.2588031 0.01222249 0.9658527
vn 0.2588294 0 0.9659231
vn 0.4999967 0 0.8660274
vn 0.001729829 0.01287493 0.9999156
vn -0.0006661073 0.9186716 0.3950216
vn 0.0006685359 0.9180435 0.3964791
vn -0.001729828 0.01287521 0.9999156
vn -0.00173054 0 0.9999986
vn 0.00173054 0 0.9999986
vn 0.08759784 0.9845329 0.1517292
vn 0.1202951 0.9854226 0.120297
vn 0.7070497 0.01216691 0.7070592
vn 0.4999595 0.01216788 0.8659633
vn 0.4999967 0 0.8660274
vn 0.7071022 0 0.7071112
vn 0.1202951 0.9854226 0.120297
vn 0.1511699 0.9846476 0.08727431
vn 0.8659679 0.01216613 0.4999515
vn 0.7070497 0.01216691 0.7070592
vn 0.7071022 0 0.7071112
vn 0.8660321 0 0.4999885
vn 0.1511699 0.9846476 0.08727431
vn 0.184089 0.9816768 0.04921148
vn 0.9658531 0.01222004 0.2588022
vn 0.8659679 0.01216613 0.4999515
vn 0.8660321 0 0.4999885
vn 0.9659234 0 0.2588283
vn 0.184089 0.9816768 0.04921148
vn 0.389788 0.9209043 0.000663012
vn 0.9999156 0.01287218 0.00174482
vn 0.9658531 0.01222004 0.2588022
vn 0.9659234 0 0.2588283
vn 0.9999985 0 0.001745537
vn -0.04962092 0.9813654 -0.1856337
vn -0.08760306 0.9845318 -0.1517323
vn -0.4999753 0.01216772 -0.8659542
vn -0.2587867 0.01222237 -0.9658572
vn -0.2588129 0 -0.9659274
vn -0.5000125 0 -0.8660183
vn -0.08760306 0.9845318 -0.1517323
vn -0.120289 0.9854242 -0.1202898
vn -0.7070549 0.01216719 -0.707054
vn -0.4999753 0.01216772 -0.8659542
vn -0.5000125 0 -0.8660183
vn -0.7071073 0 -0.7071062
vn -0.120289 0.9854242 -0.1202898
vn -0.1511785 0.9846458 -0.08727943
vn -0.8659685 0.01216566 -0.4999506
vn -0.7070549 0.01216719 -0.707054
vn -0.7071073 0 -0.7071062
vn -0.8660326 0 -0.4999876
vn -0.1511785 0.9846458 -0.08727943
vn -0.184081 0.9816784 -0.04920921
vn -0.9658532 0.01222045 -0.2588017
vn -0.8659685 0.01216566 -0.4999506
vn -0.8660326 0 -0.4999876
vn -0.9659235 0 -0.2588279
vn -0.184081 0.9816784 -0.04920921
vn -0.3897862 0.9209051 -0.000663484
vn -0.9999156 0.01287218 -0.001745972
vn -0.9658532 0.01222045 -0.2588017
vn -0.9659235 0 -0.2588279
vn -0.9999985 0 -0.001746691
vn -0.3897862 0.9209051 -0.000663484
vn -0.3911921 0.9203088 0.0006654549
vn -0.9999156 0.01287218 0.001744991
vn -0.9999156 0.01287218 -0.001745972
vn -0.9999985 0 -0.001746691
vn -0.9999985 0 0.00174571
vn -0.3911921 0.9203088 0.0006654549
vn -0.1849067 0.9815122 0.04942984
vn -0.9658531 0.01221981 0.2588022
vn -0.9999156 0.01287218 0.001744991
vn -0.9999985 0 0.00174571
vn -0.9659234 0 0.2588283
vn -0.2588015 0.01222249 0.9658532
vn -0.08742659 0.9845936 0.1514328
vn -0.04940151 0.9815333 0.1848019
vn -0.4999596 0.01216802 0.8659633
vn -0.4999966 0 0.8660273
vn -0.2588278 0 0.9659235
vn -0.04940151 0.9815333 0.1848019
vn -0.0006661073 0.9186716 0.3950216
vn -0.001729828 0.01287521 0.9999156
vn -0.2588015 0.01222249 0.9658532
vn -0.2588278 0 0.9659235
vn -0.00173054 0 0.9999986
vn -0.4999596 0.01216802 0.8659633
vn -0.1202879 0.9854245 0.1202896
vn -0.08742659 0.9845936 0.1514328
vn -0.7070519 0.01216709 0.7070569
vn -0.7071044 0 0.7071091
vn -0.4999966 0 0.8660273
vn -0.7070519 0.01216709 0.7070569
vn -0.1514563 0.9845889 0.08743892
vn -0.1202879 0.9854245 0.1202896
vn -0.8659707 0.01216596 0.4999467
vn -0.8660349 0 0.4999836
vn -0.7071044 0 0.7071091
vn -0.8659707 0.01216596 0.4999467
vn -0.1849067 0.9815122 0.04942984
vn -0.1514563 0.9845889 0.08743892
vn -0.9658531 0.01221981 0.2588022
vn -0.9659234 0 0.2588283
vn -0.8660349 0 0.4999836
vn -0.02147014 0.9971375 0.07249775
vn -0.2148298 0.9084041 0.3586784
vn -0.1280143 0.8958499 0.4255176
vn -0.03216249 0.9980162 0.05412151
vn 0.08743251 0.9845927 -0.1514355
vn 0.04939942 0.9815331 -0.1848038
vn -0.1280143 0.8958499 0.4255176
vn -0.001410371 0.8870323 0.4617051
vn -0.0001842867 0.9979929 0.0633252
vn -0.02147014 0.9971375 0.07249775
vn 0.04939942 0.9815331 -0.1848038
vn 0.0006661754 0.9186692 -0.3950272
vn -0.001410371 0.8870323 0.4617051
vn 0.001372998 0.8870397 0.4616913
vn 0.0001757482 0.9979981 0.06324425
vn -0.0001842867 0.9979929 0.0633252
vn 0.0006661754 0.9186692 -0.3950272
vn -0.0006686007 0.9180422 -0.3964822
vn -0.03216249 0.9980162 0.05412151
vn -0.2896676 0.9122317 0.2896998
vn -0.2148298 0.9084041 0.3586784
vn -0.04193086 0.9982363 0.04202498
vn 0.1202827 0.9854257 -0.1202836
vn 0.08743251 0.9845927 -0.1514355
vn -0.04193086 0.9982363 0.04202498
vn -0.3567425 0.9094228 0.2137406
vn -0.2896676 0.9122317 0.2896998
vn -0.05382363 0.9980327 0.03214972
vn 0.151465 0.9845871 -0.08744506
vn 0.1202827 0.9854257 -0.1202836
vn -0.05382363 0.9980327 0.03214972
vn -0.4211846 0.8980382 0.1270075
vn -0.3567425 0.9094228 0.2137406
vn -0.07210424 0.9971663 0.02145168
vn 0.1849008 0.9815134 -0.0494285
vn 0.151465 0.9845871 -0.08744506
vn -0.07210424 0.9971663 0.02145168
vn -0.4604488 0.8876852 0.001374985
vn -0.4211846 0.8980382 0.1270075
vn -0.06270623 0.998032 0.0001747215
vn 0.3911899 0.9203098 -0.0006658832
vn 0.1849008 0.9815134 -0.0494285
vn -0.06270623 0.998032 0.0001747215
vn -0.4604641 0.8876773 -0.001410904
vn -0.4604488 0.8876852 0.001374985
vn -0.06279063 0.9980267 -0.0001830573
vn 0.389788 0.9209043 0.000663012
vn 0.3911899 0.9203098 -0.0006658832
vn 0.001372998 0.8870397 0.4616913
vn 0.1275092 0.8975133 0.4221507
vn 0.021675 0.9971161 0.07273134
vn 0.0001757482 0.9979981 0.06324425
vn -0.0006686007 0.9180422 -0.3964822
vn -0.04962092 0.9813654 -0.1856337
vn -0.02167552 0.9971162 -0.07272947
vn -0.001372983 0.8870397 -0.4616911
vn -0.1275159 0.8975143 -0.4221466
vn -0.000175735 0.9979979 -0.06324536
vn 0.0006685359 0.9180435 0.3964791
vn 0.04962257 0.9813663 0.1856286
vn -0.1275159 0.8975143 -0.4221466
vn -0.2141649 0.9092067 -0.3570386
vn -0.0323082 0.9980164 -0.05403379
vn -0.02167552 0.9971162 -0.07272947
vn 0.04962257 0.9813663 0.1856286
vn 0.08759784 0.9845329 0.1517292
vn -0.000175735 0.9979979 -0.06324536
vn 0.001410283 0.8870333 -0.4617034
vn -0.001372983 0.8870397 -0.4616911
vn 0.0001842829 0.997993 -0.0633242
vn -0.0006661073 0.9186716 0.3950216
vn 0.0006685359 0.9180435 0.3964791
vn -0.2141649 0.9092067 -0.3570386
vn -0.2898329 0.9122413 -0.2895041
vn -0.04204842 0.9982359 -0.04191452
vn -0.0323082 0.9980164 -0.05403379
vn 0.08759784 0.9845329 0.1517292
vn 0.1202951 0.9854226 0.120297
vn -0.2898329 0.9122413 -0.2895041
vn -0.3583477 0.9086459 -0.2143588
vn -0.05392898 0.9980314 -0.03201268
vn -0.04204842 0.9982359 -0.04191452
vn 0.1202951 0.9854226 0.120297
vn 0.1511699 0.9846476 0.08727431
vn -0.3583477 0.9086459 -0.2143588
vn -0.4244719 0.8964189 -0.1275024
vn -0.07187325 0.9971873 -0.02125065
vn -0.05392898 0.9980314 -0.03201268
vn 0.1511699 0.9846476 0.08727431
vn 0.184089 0.9816768 0.04921148
vn -0.4244719 0.8964189 -0.1275024
vn -0.4604641 0.8876773 -0.001410904
vn -0.06279063 0.9980267 -0.0001830573
vn -0.07187325 0.9971873 -0.02125065
vn 0.184089 0.9816768 0.04921148
vn 0.389788 0.9209043 0.000663012
vn 0.1275092 0.8975133 0.4221507
vn 0.2141691 0.9092081 0.3570326
vn 0.03230778 0.9980165 0.05403089
vn 0.021675 0.9971161 0.07273134
vn -0.04962092 0.9813654 -0.1856337
vn -0.08760306 0.9845318 -0.1517323
vn 0.2141691 0.9092081 0.3570326
vn 0.2898374 0.9122388 0.2895075
vn 0.0420514 0.9982357 0.04191738
vn 0.03230778 0.9980165 0.05403089
vn -0.08760306 0.9845318 -0.1517323
vn -0.120289 0.9854242 -0.1202898
vn 0.2898374 0.9122388 0.2895075
vn 0.3583426 0.908648 0.2143584
vn 0.05392615 0.9980317 0.03201154
vn 0.0420514 0.9982357 0.04191738
vn -0.120289 0.9854242 -0.1202898
vn -0.1511785 0.9846458 -0.08727943
vn 0.3583426 0.908648 0.2143584
vn 0.4244826 0.8964152 0.1274926
vn 0.07187623 0.9971872 0.0212499
vn 0.05392615 0.9980317 0.03201154
vn -0.1511785 0.9846458 -0.08727943
vn -0.184081 0.9816784 -0.04920921
vn 0.4244826 0.8964152 0.1274926
vn 0.4604608 0.887679 0.001411649
vn 0.0627901 0.9980267 0.0001831326
vn 0.07187623 0.9971872 0.0212499
vn -0.184081 0.9816784 -0.04920921
vn -0.3897862 0.9209051 -0.000663484
vn 0.4604608 0.887679 0.001411649
vn 0.4604479 0.8876857 -0.001374093
vn 0.06270683 0.9980319 -0.0001746141
vn 0.0627901 0.9980267 0.0001831326
vn -0.3897862 0.9209051 -0.000663484
vn -0.3911921 0.9203088 0.0006654549
vn 0.4604479 0.8876857 -0.001374093
vn 0.4211735 0.8980428 -0.1270113
vn 0.0721003 0.9971667 -0.02145105
vn 0.06270683 0.9980319 -0.0001746141
vn -0.3911921 0.9203088 0.0006654549
vn -0.1849067 0.9815122 0.04942984
vn 0.02147093 0.9971375 -0.07249654
vn 0.2148232 0.9084018 -0.358688
vn 0.1280194 0.8958496 -0.4255167
vn 0.03216246 0.9980161 -0.05412395
vn -0.08742659 0.9845936 0.1514328
vn -0.04940151 0.9815333 0.1848019
vn 0.1280194 0.8958496 -0.4255167
vn 0.001410283 0.8870333 -0.4617034
vn 0.0001842829 0.997993 -0.0633242
vn 0.02147093 0.9971375 -0.07249654
vn -0.04940151 0.9815333 0.1848019
vn -0.0006661073 0.9186716 0.3950216
vn 0.03216246 0.9980161 -0.05412395
vn 0.2896658 0.9122324 -0.2896997
vn 0.2148232 0.9084018 -0.358688
vn 0.04192842 0.9982365 -0.0420231
vn -0.1202879 0.9854245 0.1202896
vn -0.08742659 0.9845936 0.1514328
vn 0.04192842 0.9982365 -0.0420231
vn 0.3567492 0.9094202 -0.2137406
vn 0.2896658 0.9122324 -0.2896997
vn 0.05382694 0.9980325 -0.03215201
vn -0.1514563 0.9845889 0.08743892
vn -0.1202879 0.9854245 0.1202896
vn 0.05382694 0.9980325 -0.03215201
vn 0.4211735 0.8980428 -0.1270113
vn 0.3567492 0.9094202 -0.2137406
vn 0.0721003 0.9971667 -0.02145105
vn -0.1849067 0.9815122 0.04942984
vn -0.1514563 0.9845889 0.08743892
vn -0.1110177 0.8809848 0.4599356
vn -0.06666797 0.990512 0.1201729
vn -0.04003488 0.9842709 0.1720699
vn -0.2146628 0.8984258 0.3830811
vn -0.2148298 0.9084041 0.3586784
vn -0.1280143 0.8958499 0.4255176
vn -0.04003488 0.9842709 0.1720699
vn -0.0001206316 0.9899232 0.1416053
vn -0.0005522415 0.8370831 0.5470755
vn -0.1110177 0.8809848 0.4599356
vn -0.1280143 0.8958499 0.4255176
vn -0.001410371 0.8870323 0.4617051
vn -0.0001206316 0.9899232 0.1416053
vn 0.0001918365 0.9847936 0.1737285
vn 0.0005665604 0.8370979 0.5470529
vn -0.0005522415 0.8370831 0.5470755
vn -0.001410371 0.8870323 0.4617051
vn 0.001372998 0.8870397 0.4616913
vn -0.2146628 0.8984258 0.3830811
vn -0.08261538 0.9931751 0.08232882
vn -0.06666797 0.990512 0.1201729
vn -0.3027439 0.9037143 0.3027319
vn -0.2896676 0.9122317 0.2896998
vn -0.2148298 0.9084041 0.3586784
vn -0.3027439 0.9037143 0.3027319
vn -0.09450856 0.9941661 0.05197756
vn -0.08261538 0.9931751 0.08232882
vn -0.381583 0.8992822 0.2137424
vn -0.3567425 0.9094228 0.2137406
vn -0.2896676 0.9122317 0.2896998
vn -0.381583 0.8992822 0.2137424
vn -0.1060944 0.9940603 0.02424976
vn -0.09450856 0.9941661 0.05197756
vn -0.4559214 0.8831739 0.1101799
vn -0.4211846 0.8980382 0.1270075
vn -0.3567425 0.9094228 0.2137406
vn -0.4559214 0.8831739 0.1101799
vn -0.1188123 0.9929167 0.0001331578
vn -0.1060944 0.9940603 0.02424976
vn -0.5442747 0.8389068 0.0005719588
vn -0.4604488 0.8876852 0.001374985
vn -0.4211846 0.8980382 0.1270075
vn -0.5442747 0.8389068 0.0005719588
vn -0.1188226 0.9929155 -0.0001031728
vn -0.1188123 0.9929167 0.0001331578
vn -0.5442949 0.8388938 -0.0005572732
vn -0.4604641 0.8876773 -0.001410904
vn -0.4604488 0.8876852 0.001374985
vn 0.0001918365 0.9847936 0.1737285
vn 0.03332715 0.9886874 0.1462416
vn 0.1103352 0.8823986 0.4573826
vn 0.0005665604 0.8370979 0.5470529
vn 0.001372998 0.8870397 0.4616913
vn 0.1275092 0.8975133 0.4221507
vn -0.1103415 0.8824 -0.4573784
vn -0.0001562939 0.9899322 -0.1415424
vn -0.03923733 0.9842865 -0.1721643
vn -0.000566532 0.8370978 -0.5470531
vn -0.001372983 0.8870397 -0.4616911
vn -0.1275159 0.8975143 -0.4221466
vn -0.03923733 0.9842865 -0.1721643
vn -0.06600887 0.9905543 -0.1201874
vn -0.2139012 0.8989688 -0.3822319
vn -0.1103415 0.8824 -0.4573784
vn -0.1275159 0.8975143 -0.4221466
vn -0.2141649 0.9092067 -0.3570386
vn -0.000566532 0.8370978 -0.5470531
vn 0.0001478157 0.9848315 -0.1735136
vn -0.0001562939 0.9899322 -0.1415424
vn 0.0005522171 0.8370823 -0.5470768
vn 0.001410283 0.8870333 -0.4617034
vn -0.001372983 0.8870397 -0.4616911
vn -0.06600887 0.9905543 -0.1201874
vn -0.08250453 0.9931363 -0.0829049
vn -0.3025898 0.9037188 -0.3028727
vn -0.2139012 0.8989688 -0.3822319
vn -0.2141649 0.9092067 -0.3570386
vn -0.2898329 0.9122413 -0.2895041
vn -0.08250453 0.9931363 -0.0829049
vn -0.09488692 0.994091 -0.05272073
vn -0.382396 0.8987628 -0.214473
vn -0.3025898 0.9037188 -0.3028727
vn -0.2898329 0.9122413 -0.2895041
vn -0.3583477 0.9086459 -0.2143588
vn -0.09488692 0.994091 -0.05272073
vn -0.106357 0.9940182 -0.02481783
vn -0.4584256 0.8817931 -0.1108459
vn -0.382396 0.8987628 -0.214473
vn -0.3583477 0.9086459 -0.2143588
vn -0.4244719 0.8964189 -0.1275024
vn -0.106357 0.9940182 -0.02481783
vn -0.1188226 0.9929155 -0.0001031728
vn -0.5442949 0.8388938 -0.0005572732
vn -0.4584256 0.8817931 -0.1108459
vn -0.4244719 0.8964189 -0.1275024
vn -0.4604641 0.8876773 -0.001410904
vn 0.03332715 0.9886874 0.1462416
vn 0.04983811 0.9946266 0.09074138
vn 0.2139073 0.8989677 0.3822313
vn 0.1103352 0.8823986 0.4573826
vn 0.1275092 0.8975133 0.4221507
vn 0.2141691 0.9092081 0.3570326
vn 0.04983811 0.9946266 0.09074138
vn 0.05954103 0.9964311 0.05983083
vn 0.3025896 0.903719 0.3028721
vn 0.2139073 0.8989677 0.3822313
vn 0.2141691 0.9092081 0.3570326
vn 0.2898374 0.9122388 0.2895075
vn 0.05954103 0.9964311 0.05983083
vn 0.06685153 0.9970714 0.03714248
vn 0.3824017 0.8987609 0.2144711
vn 0.3025896 0.903719 0.3028721
vn 0.2898374 0.9122388 0.2895075
vn 0.3583426 0.908648 0.2143584
vn 0.06685153 0.9970714 0.03714248
vn 0.07377762 0.997126 0.01721622
vn 0.4584251 0.8817934 0.1108462
vn 0.3824017 0.8987609 0.2144711
vn 0.3583426 0.908648 0.2143584
vn 0.4244826 0.8964152 0.1274926
vn 0.07377762 0.997126 0.01721622
vn 0.0820464 0.9966285 7.135347E-05
vn 0.5443065 0.8388862 0.0005577275
vn 0.4584251 0.8817934 0.1108462
vn 0.4244826 0.8964152 0.1274926
vn 0.4604608 0.887679 0.001411649
vn 0.0820464 0.9966285 7.135347E-05
vn 0.08204067 0.9966289 -9.186713E-05
vn 0.5442881 0.8388981 -0.0005715296
vn 0.5443065 0.8388862 0.0005577275
vn 0.4604608 0.887679 0.001411649
vn 0.4604479 0.8876857 -0.001374093
vn 0.08204067 0.9966289 -9.186713E-05
vn 0.07376169 0.9971334 -0.01686018
vn 0.4559315 0.8831691 -0.1101768
vn 0.5442881 0.8388981 -0.0005715296
vn 0.4604479 0.8876857 -0.001374093
vn 0.4211735 0.8980428 -0.1270113
vn 0.1110221 0.8809856 -0.4599332
vn 0.05020855 0.9946293 -0.09050827
vn 0.03395437 0.9887118 -0.1459315
vn 0.2146565 0.8984229 -0.383091
vn 0.2148232 0.9084018 -0.358688
vn 0.1280194 0.8958496 -0.4255167
vn 0.03395437 0.9887118 -0.1459315
vn 0.0001478157 0.9848315 -0.1735136
vn 0.0005522171 0.8370823 -0.5470768
vn 0.1110221 0.8809856 -0.4599332
vn 0.1280194 0.8958496 -0.4255167
vn 0.001410283 0.8870333 -0.4617034
vn 0.2146565 0.8984229 -0.383091
vn 0.05958683 0.9964556 -0.05937799
vn 0.05020855 0.9946293 -0.09050827
vn 0.3027485 0.9037114 -0.3027359
vn 0.2896658 0.9122324 -0.2896997
vn 0.2148232 0.9084018 -0.358688
vn 0.3027485 0.9037114 -0.3027359
vn 0.06666394 0.9971016 -0.03666376
vn 0.05958683 0.9964556 -0.05937799
vn 0.3815771 0.8992848 -0.2137421
vn 0.3567492 0.9094202 -0.2137406
vn 0.2896658 0.9122324 -0.2896997
vn 0.3815771 0.8992848 -0.2137421
vn 0.07376169 0.9971334 -0.01686018
vn 0.06666394 0.9971016 -0.03666376
vn 0.4559315 0.8831691 -0.1101768
vn 0.4211735 0.8980428 -0.1270113
vn 0.3567492 0.9094202 -0.2137406
vn 0 1 0
vn 0.08204067 0.9966289 -9.186713E-05
vn 0.0820464 0.9966285 7.135347E-05
vn 0 1 0
vn 0 1 0
vn 0 1 0
vn -0.1188226 0.9929155 -0.0001031728
vn -0.1188123 0.9929167 0.0001331578
vn 0.07377762 0.997126 0.01721622
vn 0 1 0
vn 0.0820464 0.9966285 7.135347E-05
vn 0 1 0
vn 0 1 0
vn 0 1 0
vn -0.1188123 0.9929167 0.0001331578
vn -0.1060944 0.9940603 0.02424976
vn 0 1 0
vn 0.07377762 0.997126 0.01721622
vn 0.06685153 0.9970714 0.03714248
vn 0 1 2.298004E-07
vn 0 1 0
vn 0 1 2.206761E-07
vn -0.1060944 0.9940603 0.02424976
vn -0.09450856 0.9941661 0.05197756
vn 0.05954103 0.9964311 0.05983083
vn 0 1 2.298004E-07
vn 0.06685153 0.9970714 0.03714248
vn 0 1 6.108901E-07
vn 0 1 2.206761E-07
vn 0 1 6.267352E-07
vn -0.09450856 0.9941661 0.05197756
vn -0.08261538 0.9931751 0.08232882
vn 0 1 6.108901E-07
vn 0.05954103 0.9964311 0.05983083
vn 0.04983811 0.9946266 0.09074138
vn 0 1 -2.846035E-07
vn 0 1 6.267352E-07
vn 0 1 -1.354291E-07
vn -0.08261538 0.9931751 0.08232882
vn -0.06666797 0.990512 0.1201729
vn 0.08204067 0.9966289 -9.186713E-05
vn 0 1 5.218104E-07
vn 0.07376169 0.9971334 -0.01686018
vn 0 1 0
vn 0 1 5.045158E-07
vn 0 1 0
vn -0.106357 0.9940182 -0.02481783
vn -0.1188226 0.9929155 -0.0001031728
vn 0 1 9.128166E-07
vn 0.06666394 0.9971016 -0.03666376
vn 0.07376169 0.9971334 -0.01686018
vn 0 1 5.218104E-07
vn 0 1 9.406951E-07
vn 0 1 5.045158E-07
vn -0.09488692 0.994091 -0.05272073
vn -0.106357 0.9940182 -0.02481783
vn 0.06666394 0.9971016 -0.03666376
vn 0 1 0
vn 0.05958683 0.9964556 -0.05937799
vn 0 1 9.128166E-07
vn 0 1 0
vn 0 1 9.406951E-07
vn -0.08250453 0.9931363 -0.0829049
vn -0.09488692 0.994091 -0.05272073
vn 0 1 -2.987951E-07
vn 0.05020855 0.9946293 -0.09050827
vn 0.05958683 0.9964556 -0.05937799
vn 0 1 0
vn 0 1 -1.263608E-07
vn 0 1 0
vn -0.06600887 0.9905543 -0.1201874
vn -0.08250453 0.9931363 -0.0829049
vn -0.0001562939 0.9899322 -0.1415424
vn 0 1 -1.263608E-07
vn -0.06600887 0.9905543 -0.1201874
vn -0.03923733 0.9842865 -0.1721643
vn 0.03395437 0.9887118 -0.1459315
vn 0.05020855 0.9946293 -0.09050827
vn 0 1 -2.987951E-07
vn 0.0001478157 0.9848315 -0.1735136
vn 0 1 -1.263608E-07
vn -0.0001562939 0.9899322 -0.1415424
vn 0.0001478157 0.9848315 -0.1735136
vn 0 1 -2.987951E-07
vn 0.04983811 0.9946266 0.09074138
vn 0.03332715 0.9886874 0.1462416
vn 0.0001918365 0.9847936 0.1737285
vn 0 1 -2.846035E-07
vn -0.0001206316 0.9899232 0.1416053
vn 0 1 -1.354291E-07
vn 0 1 -2.846035E-07
vn 0.0001918365 0.9847936 0.1737285
vn -0.04003488 0.9842709 0.1720699
vn -0.06666797 0.990512 0.1201729
vn 0 1 -1.354291E-07
vn -0.0001206316 0.9899232 0.1416053
g Door_Button_002_Button_Button_Chamber_0
f 3/3/3 2/2/2 1/1/1
f 2/2/2 4/4/4 1/1/1
f 1/1/1 4/4/4 5/5/5
f 6/6/6 1/1/1 5/5/5
f 9/9/9 8/8/8 7/7/7
f 10/10/10 9/9/9 7/7/7
f 9/9/9 10/10/10 11/11/11
f 12/12/12 9/9/9 11/11/11
f 15/15/15 14/14/14 13/13/13
f 16/16/16 15/15/15 13/13/13
f 15/15/15 16/16/16 17/17/17
f 18/18/18 15/15/15 17/17/17
f 21/21/21 20/20/20 19/19/19
f 20/20/20 22/22/22 19/19/19
f 19/19/19 22/22/22 23/23/23
f 24/24/24 19/19/19 23/23/23
f 27/27/27 26/26/26 25/25/25
f 26/26/26 28/28/28 25/25/25
f 25/25/25 28/28/28 29/29/29
f 30/30/30 25/25/25 29/29/29
f 33/33/33 32/32/32 31/31/31
f 32/32/32 34/34/34 31/31/31
f 31/31/31 34/34/34 35/35/35
f 36/36/36 31/31/31 35/35/35
f 39/39/39 38/38/38 37/37/37
f 38/38/38 40/40/40 37/37/37
f 37/37/37 40/40/40 41/41/41
f 42/42/42 37/37/37 41/41/41
f 45/45/45 44/44/44 43/43/43
f 44/44/44 46/46/46 43/43/43
f 43/43/43 46/46/46 47/47/47
f 48/48/48 43/43/43 47/47/47
f 51/51/51 50/50/50 49/49/49
f 52/52/52 51/51/51 49/49/49
f 51/51/51 52/52/52 53/53/53
f 54/54/54 51/51/51 53/53/53
f 57/57/57 56/56/56 55/55/55
f 56/56/56 58/58/58 55/55/55
f 55/55/55 58/58/58 59/59/59
f 60/60/60 55/55/55 59/59/59
f 63/63/63 62/62/62 61/61/61
f 64/64/64 63/63/63 61/61/61
f 63/63/63 64/64/64 65/65/65
f 66/66/66 63/63/63 65/65/65
f 69/69/69 68/68/68 67/67/67
f 68/68/68 70/70/70 67/67/67
f 67/67/67 70/70/70 71/71/71
f 72/72/72 67/67/67 71/71/71
f 75/75/75 74/74/74 73/73/73
f 76/76/76 75/75/75 73/73/73
f 75/75/75 76/76/76 77/77/77
f 78/78/78 75/75/75 77/77/77
f 81/81/81 80/80/80 79/79/79
f 82/82/82 81/81/81 79/79/79
f 81/81/81 82/82/82 83/83/83
f 84/84/84 81/81/81 83/83/83
f 87/87/87 86/86/86 85/85/85
f 88/88/88 87/87/87 85/85/85
f 87/87/87 88/88/88 89/89/89
f 90/90/90 87/87/87 89/89/89
f 93/93/93 92/92/92 91/91/91
f 94/94/94 93/93/93 91/91/91
f 93/93/93 94/94/94 95/95/95
f 96/96/96 93/93/93 95/95/95
f 99/99/99 98/98/98 97/97/97
f 100/100/100 99/99/99 97/97/97
f 99/99/99 100/100/100 101/101/101
f 102/102/102 99/99/99 101/101/101
f 105/105/105 104/104/104 103/103/103
f 106/106/106 105/105/105 103/103/103
f 105/105/105 106/106/106 107/107/107
f 108/108/108 105/105/105 107/107/107
f 111/111/111 110/110/110 109/109/109
f 112/112/112 111/111/111 109/109/109
f 111/111/111 112/112/112 113/113/113
f 114/114/114 111/111/111 113/113/113
f 117/117/117 116/116/116 115/115/115
f 118/118/118 117/117/117 115/115/115
f 117/117/117 118/118/118 119/119/119
f 120/120/120 117/117/117 119/119/119
f 123/123/123 122/122/122 121/121/121
f 124/124/124 123/123/123 121/121/121
f 123/123/123 124/124/124 125/125/125
f 126/126/126 123/123/123 125/125/125
f 129/129/129 128/128/128 127/127/127
f 130/130/130 129/129/129 127/127/127
f 129/129/129 130/130/130 131/131/131
f 132/132/132 129/129/129 131/131/131
f 135/135/135 134/134/134 133/133/133
f 136/136/136 135/135/135 133/133/133
f 135/135/135 136/136/136 137/137/137
f 138/138/138 135/135/135 137/137/137
f 141/141/141 140/140/140 139/139/139
f 140/140/140 142/142/142 139/139/139
f 139/139/139 142/142/142 143/143/143
f 144/144/144 139/139/139 143/143/143
f 147/147/147 146/146/146 145/145/145
f 148/148/148 147/147/147 145/145/145
f 147/147/147 148/148/148 149/149/149
f 150/150/150 147/147/147 149/149/149
f 153/153/153 152/152/152 151/151/151
f 152/152/152 154/154/154 151/151/151
f 151/151/151 154/154/154 155/155/155
f 156/156/156 151/151/151 155/155/155
f 159/159/159 158/158/158 157/157/157
f 158/158/158 160/160/160 157/157/157
f 157/157/157 160/160/160 161/161/161
f 162/162/162 157/157/157 161/161/161
f 165/165/165 164/164/164 163/163/163
f 164/164/164 166/166/166 163/163/163
f 163/163/163 166/166/166 167/167/167
f 168/168/168 163/163/163 167/167/167
f 171/171/171 170/170/170 169/169/169
f 170/170/170 172/172/172 169/169/169
f 169/169/169 172/172/172 173/173/173
f 174/174/174 169/169/169 173/173/173
f 177/177/177 176/176/176 175/175/175
f 178/178/178 177/177/177 175/175/175
f 177/177/177 178/178/178 179/179/179
f 180/180/180 177/177/177 179/179/179
f 183/183/183 182/182/182 181/181/181
f 184/184/184 183/183/183 181/181/181
f 183/183/183 184/184/184 185/185/185
f 186/186/186 183/183/183 185/185/185
f 189/189/189 188/188/188 187/187/187
f 188/188/188 190/190/190 187/187/187
f 187/187/187 190/190/190 191/191/191
f 192/192/192 187/187/187 191/191/191
f 195/195/195 194/194/194 193/193/193
f 194/194/194 196/196/196 193/193/193
f 193/193/193 196/196/196 197/197/197
f 198/198/198 193/193/193 197/197/197
f 201/201/201 200/200/200 199/199/199
f 200/200/200 202/202/202 199/199/199
f 199/199/199 202/202/202 203/203/203
f 204/204/204 199/199/199 203/203/203
f 207/207/207 206/206/206 205/205/205
f 206/206/206 208/208/208 205/205/205
f 205/205/205 208/208/208 209/209/209
f 210/210/210 205/205/205 209/209/209
f 213/213/213 212/212/212 211/211/211
f 212/212/212 214/214/214 211/211/211
f 211/211/211 214/214/214 215/215/215
f 216/216/216 211/211/211 215/215/215
f 219/219/219 218/218/218 217/217/217
f 220/220/220 219/219/219 217/217/217
f 219/219/219 220/220/220 221/221/221
f 222/222/222 219/219/219 221/221/221
f 225/225/225 224/224/224 223/223/223
f 224/224/224 226/226/226 223/223/223
f 223/223/223 226/226/226 227/227/227
f 228/228/228 223/223/223 227/227/227
f 231/231/231 230/230/230 229/229/229
f 232/232/232 231/231/231 229/229/229
f 231/231/231 232/232/232 233/233/233
f 234/234/234 231/231/231 233/233/233
f 237/237/237 236/236/236 235/235/235
f 236/236/236 238/238/238 235/235/235
f 235/235/235 238/238/238 239/239/239
f 240/240/240 235/235/235 239/239/239
f 243/243/243 242/242/242 241/241/241
f 244/244/244 243/243/243 241/241/241
f 243/243/243 244/244/244 245/245/245
f 246/246/246 243/243/243 245/245/245
f 249/249/249 248/248/248 247/247/247
f 250/250/250 249/249/249 247/247/247
f 249/249/249 250/250/250 251/251/251
f 252/252/252 249/249/249 251/251/251
f 255/255/255 254/254/254 253/253/253
f 256/256/256 255/255/255 253/253/253
f 255/255/255 256/256/256 257/257/257
f 258/258/258 255/255/255 257/257/257
f 261/261/261 260/260/260 259/259/259
f 262/262/262 261/261/261 259/259/259
f 261/261/261 262/262/262 263/263/263
f 264/264/264 261/261/261 263/263/263
f 267/267/267 266/266/266 265/265/265
f 268/268/268 267/267/267 265/265/265
f 267/267/267 268/268/268 269/269/269
f 270/270/270 267/267/267 269/269/269
f 273/273/273 272/272/272 271/271/271
f 274/274/274 273/273/273 271/271/271
f 273/273/273 274/274/274 275/275/275
f 276/276/276 273/273/273 275/275/275
f 279/279/279 278/278/278 277/277/277
f 280/280/280 279/279/279 277/277/277
f 279/279/279 280/280/280 281/281/281
f 282/282/282 279/279/279 281/281/281
f 285/285/285 284/284/284 283/283/283
f 286/286/286 285/285/285 283/283/283
f 285/285/285 286/286/286 287/287/287
f 288/288/288 285/285/285 287/287/287
f 291/291/291 290/290/290 289/289/289
f 292/292/292 291/291/291 289/289/289
f 291/291/291 292/292/292 293/293/293
f 294/294/294 291/291/291 293/293/293
f 297/297/297 296/296/296 295/295/295
f 298/298/298 297/297/297 295/295/295
f 297/297/297 298/298/298 299/299/299
f 300/300/300 297/297/297 299/299/299
f 303/303/303 302/302/302 301/301/301
f 304/304/304 303/303/303 301/301/301
f 303/303/303 304/304/304 305/305/305
f 306/306/306 303/303/303 305/305/305
f 309/309/309 308/308/308 307/307/307
f 308/308/308 310/310/310 307/307/307
f 307/307/307 310/310/310 311/311/311
f 312/312/312 307/307/307 311/311/311
f 315/315/315 314/314/314 313/313/313
f 316/316/316 315/315/315 313/313/313
f 315/315/315 316/316/316 317/317/317
f 318/318/318 315/315/315 317/317/317
f 321/321/321 320/320/320 319/319/319
f 320/320/320 322/322/322 319/319/319
f 319/319/319 322/322/322 323/323/323
f 324/324/324 319/319/319 323/323/323
f 327/327/327 326/326/326 325/325/325
f 326/326/326 328/328/328 325/325/325
f 325/325/325 328/328/328 329/329/329
f 330/330/330 325/325/325 329/329/329
f 333/333/333 332/332/332 331/331/331
f 332/332/332 334/334/334 331/331/331
f 331/331/331 334/334/334 335/335/335
f 336/336/336 331/331/331 335/335/335
f 339/339/339 338/338/338 337/337/337
f 338/338/338 340/340/340 337/337/337
f 337/337/337 340/340/340 341/341/341
f 342/342/342 337/337/337 341/341/341
f 345/345/345 344/344/344 343/343/343
f 346/346/346 345/345/345 343/343/343
f 345/345/345 346/346/346 347/347/347
f 348/348/348 345/345/345 347/347/347
f 351/351/351 350/350/350 349/349/349
f 352/352/352 351/351/351 349/349/349
f 351/351/351 352/352/352 353/353/353
f 354/354/354 351/351/351 353/353/353
f 357/357/357 356/356/356 355/355/355
f 356/356/356 358/358/358 355/355/355
f 355/355/355 358/358/358 359/359/359
f 360/360/360 355/355/355 359/359/359
f 363/363/363 362/362/362 361/361/361
f 362/362/362 364/364/364 361/361/361
f 361/361/361 364/364/364 365/365/365
f 366/366/366 361/361/361 365/365/365
f 369/369/369 368/368/368 367/367/367
f 368/368/368 370/370/370 367/367/367
f 367/367/367 370/370/370 371/371/371
f 372/372/372 367/367/367 371/371/371
f 375/375/375 374/374/374 373/373/373
f 374/374/374 376/376/376 373/373/373
f 373/373/373 376/376/376 377/377/377
f 378/378/378 373/373/373 377/377/377
f 381/381/381 380/380/380 379/379/379
f 380/380/380 382/382/382 379/379/379
f 379/379/379 382/382/382 383/383/383
f 384/384/384 379/379/379 383/383/383
f 387/387/387 386/386/386 385/385/385
f 388/388/388 387/387/387 385/385/385
f 387/387/387 388/388/388 389/389/389
f 390/390/390 387/387/387 389/389/389
f 393/393/393 392/392/392 391/391/391
f 392/392/392 394/394/394 391/391/391
f 391/391/391 394/394/394 395/395/395
f 396/396/396 391/391/391 395/395/395
f 399/399/399 398/398/398 397/397/397
f 400/400/400 399/399/399 397/397/397
f 399/399/399 400/400/400 401/401/401
f 402/402/402 399/399/399 401/401/401
f 405/405/405 404/404/404 403/403/403
f 404/404/404 406/406/406 403/403/403
f 403/403/403 406/406/406 407/407/407
f 408/408/408 403/403/403 407/407/407
f 411/411/411 410/410/410 409/409/409
f 412/412/412 411/411/411 409/409/409
f 411/411/411 412/412/412 413/413/413
f 414/414/414 411/411/411 413/413/413
f 417/417/417 416/416/416 415/415/415
f 418/418/418 417/417/417 415/415/415
f 417/417/417 418/418/418 419/419/419
f 420/420/420 417/417/417 419/419/419
f 423/423/423 422/422/422 421/421/421
f 424/424/424 423/423/423 421/421/421
f 423/423/423 424/424/424 425/425/425
f 426/426/426 423/423/423 425/425/425
f 429/429/429 428/428/428 427/427/427
f 430/430/430 429/429/429 427/427/427
f 429/429/429 430/430/430 431/431/431
f 432/432/432 429/429/429 431/431/431
f 435/435/435 434/434/434 433/433/433
f 436/436/436 435/435/435 433/433/433
f 435/435/435 436/436/436 437/437/437
f 438/438/438 435/435/435 437/437/437
f 441/441/441 440/440/440 439/439/439
f 442/442/442 441/441/441 439/439/439
f 441/441/441 442/442/442 443/443/443
f 444/444/444 441/441/441 443/443/443
f 447/447/447 446/446/446 445/445/445
f 448/448/448 447/447/447 445/445/445
f 447/447/447 448/448/448 449/449/449
f 450/450/450 447/447/447 449/449/449
f 453/453/453 452/452/452 451/451/451
f 454/454/454 453/453/453 451/451/451
f 453/453/453 454/454/454 455/455/455
f 456/456/456 453/453/453 455/455/455
f 459/459/459 458/458/458 457/457/457
f 460/460/460 459/459/459 457/457/457
f 459/459/459 460/460/460 461/461/461
f 462/462/462 459/459/459 461/461/461
f 465/465/465 464/464/464 463/463/463
f 466/466/466 465/465/465 463/463/463
f 465/465/465 466/466/466 467/467/467
f 468/468/468 465/465/465 467/467/467
f 471/471/471 470/470/470 469/469/469
f 472/472/472 471/471/471 469/469/469
f 471/471/471 472/472/472 473/473/473
f 474/474/474 471/471/471 473/473/473
f 477/477/477 476/476/476 475/475/475
f 476/476/476 478/478/478 475/475/475
f 475/475/475 478/478/478 479/479/479
f 480/480/480 475/475/475 479/479/479
f 483/483/483 482/482/482 481/481/481
f 484/484/484 483/483/483 481/481/481
f 483/483/483 484/484/484 485/485/485
f 486/486/486 483/483/483 485/485/485
f 489/489/489 488/488/488 487/487/487
f 488/488/488 490/490/490 487/487/487
f 487/487/487 490/490/490 491/491/491
f 492/492/492 487/487/487 491/491/491
f 495/495/495 494/494/494 493/493/493
f 494/494/494 496/496/496 493/493/493
f 493/493/493 496/496/496 497/497/497
f 498/498/498 493/493/493 497/497/497
f 501/501/501 500/500/500 499/499/499
f 500/500/500 502/502/502 499/499/499
f 499/499/499 502/502/502 503/503/503
f 504/504/504 499/499/499 503/503/503
f 507/507/507 506/506/506 505/505/505
f 508/508/508 507/507/507 505/505/505
f 508/508/508 505/505/505 509/509/509
f 510/510/510 508/508/508 509/509/509
f 510/510/510 509/509/509 511/511/511
f 512/512/512 510/510/510 511/511/511
f 515/515/515 514/514/514 513/513/513
f 514/514/514 516/516/516 513/513/513
f 514/514/514 517/517/517 516/516/516
f 517/517/517 518/518/518 516/516/516
f 517/517/517 519/519/519 518/518/518
f 519/519/519 520/520/520 518/518/518
f 523/523/523 522/522/522 521/521/521
f 524/524/524 523/523/523 521/521/521
f 524/524/524 521/521/521 525/525/525
f 526/526/526 524/524/524 525/525/525
f 526/526/526 525/525/525 527/527/527
f 528/528/528 526/526/526 527/527/527
f 531/531/531 530/530/530 529/529/529
f 530/530/530 532/532/532 529/529/529
f 530/530/530 533/533/533 532/532/532
f 533/533/533 534/534/534 532/532/532
f 533/533/533 535/535/535 534/534/534
f 535/535/535 536/536/536 534/534/534
f 539/539/539 538/538/538 537/537/537
f 540/540/540 539/539/539 537/537/537
f 540/540/540 537/537/537 541/541/541
f 542/542/542 540/540/540 541/541/541
f 542/542/542 541/541/541 543/543/543
f 544/544/544 542/542/542 543/543/543
f 547/547/547 546/546/546 545/545/545
f 546/546/546 548/548/548 545/545/545
f 546/546/546 549/549/549 548/548/548
f 549/549/549 550/550/550 548/548/548
f 549/549/549 551/551/551 550/550/550
f 551/551/551 552/552/552 550/550/550
f 555/555/555 554/554/554 553/553/553
f 556/556/556 555/555/555 553/553/553
f 556/556/556 553/553/553 557/557/557
f 558/558/558 556/556/556 557/557/557
f 558/558/558 557/557/557 559/559/559
f 560/560/560 558/558/558 559/559/559
f 563/563/563 562/562/562 561/561/561
f 562/562/562 564/564/564 561/561/561
f 562/562/562 565/565/565 564/564/564
f 565/565/565 566/566/566 564/564/564
f 565/565/565 567/567/567 566/566/566
f 567/567/567 568/568/568 566/566/566
f 571/571/571 570/570/570 569/569/569
f 572/572/572 571/571/571 569/569/569
f 572/572/572 569/569/569 573/573/573
f 574/574/574 572/572/572 573/573/573
f 574/574/574 573/573/573 575/575/575
f 576/576/576 574/574/574 575/575/575
f 579/579/579 578/578/578 577/577/577
f 580/580/580 579/579/579 577/577/577
f 583/583/583 582/582/582 581/581/581
f 584/584/584 583/583/583 581/581/581
f 587/587/587 586/586/586 585/585/585
f 588/588/588 587/587/587 585/585/585
f 591/591/591 590/590/590 589/589/589
f 592/592/592 591/591/591 589/589/589
f 595/595/595 594/594/594 593/593/593
f 596/596/596 595/595/595 593/593/593
f 599/599/599 598/598/598 597/597/597
f 600/600/600 599/599/599 597/597/597
