g Painted_Panel_001_Chamber_Gameplay
v -0.7875006 -3.150215 0.04599655
v -0.7925 -3.145216 -0.04599655
v -0.7925 -3.145216 0.04599655
v -0.7875006 -3.150215 -0.04599655
v 0.7875004 -3.150215 0.04599655
v 0.7875004 -3.150215 -0.04599655
v 0.7925 -3.145216 0.04599655
v 0.7925 -3.145216 -0.04599655
v 0.7875004 -3.150215 -0.04599655
v 0.7875004 -3.150215 0.04599655
v -0.7925 3.145216 0.04599655
v -0.7925 3.145216 -0.04599655
v -0.7875006 3.150215 -0.04599655
v -0.7875006 3.150215 0.04599655
v 0.7875004 3.150215 -0.04599655
v 0.7875004 3.150215 0.04599655
v 0.7925 3.145216 -0.04599655
v 0.7925 3.145216 0.04599655
v 0.7925 -3.145216 0.04599655
v 0.7925 3.145216 0.04599655
v 0.7925 3.145216 -0.04599655
v 0.7925 -3.145216 -0.04599655
v -0.7925 -3.145216 -0.04599655
v -0.7925 3.145216 -0.04599655
v -0.7925 3.145216 0.04599655
v -0.7925 -3.145216 0.04599655
v -0.7925 -3.145216 0.04599655
v -0.7925 3.145216 0.04599655
v -0.7875006 3.145216 0.05099609
v -0.7875006 3.150215 0.04599655
v -0.7875006 -3.145216 0.05099609
v -0.7875006 -3.150215 0.04599655
v 0.7875004 -3.150215 0.04599655
v 0.7875004 3.145216 0.05099609
v 0.7875004 3.150215 0.04599655
v 0.7925 3.145216 0.04599655
v 0.7875004 -3.145216 0.05099609
v 0.7925 -3.145216 0.04599655
v -0.7925 3.145216 -0.04599655
v -0.7925 -3.145216 -0.04599655
v -0.7875006 -3.145216 -0.05099609
v -0.7875006 -3.150215 -0.04599655
v -0.7875006 3.145216 -0.05099609
v -0.7875006 3.150215 -0.04599655
v 0.7875004 3.150215 -0.04599655
v 0.7875004 -3.145216 -0.05099609
v 0.7875004 -3.150215 -0.04599655
v 0.7925 -3.145216 -0.04599655
v 0.7875004 3.145216 -0.05099609
v 0.7925 3.145216 -0.04599655
vt 0.5115817 0.890231
vt 0.4884291 0.8914102
vt 0.5118833 0.8914101
vt 0.4887289 0.8902301
vt 0.5116893 0.4946669
vt 0.4885716 0.4945771
vt 0.5119635 0.5458868
vt 0.488508 0.5460526
vt 0.4886525 0.547292
vt 0.5117702 0.5473819
vt 0.4882725 0.8914089
vt 0.5117662 0.8914088
vt 0.5114343 0.8902475
vt 0.4886033 0.8902469
vt 0.5115765 0.494523
vt 0.4884615 0.494523
vt 0.5115765 0.4932668
vt 0.4884615 0.4932668
vt 0.4872742 0.001992047
vt 0.4872742 0.9964274
vt 0.5122688 0.9964274
vt 0.5122688 0.001992047
vt 0.4871955 0.001268178
vt 0.4871955 0.9972177
vt 0.5126231 0.9972177
vt 0.5126231 0.001268178
vt 0.0008196629 0.001573916
vt 0.0009131558 0.9981946
vt 0.00239504 0.9978937
vt 0.00226192 0.999557
vt 0.002432743 0.001997391
vt 0.002338299 0.0001604695
vt 0.4992062 0.0004874525
vt 0.4993641 0.9979344
vt 0.4996162 0.999207
vt 0.5008714 0.9981663
vt 0.4993004 0.001961998
vt 0.5009868 0.00172194
vt 0.9985109 0.9976024
vt 0.9985046 0.001585722
vt 0.9970411 0.001926661
vt 0.9970945 0.0002593994
vt 0.9970474 0.9972615
vt 0.9971403 0.9989353
vt 0.5014338 0.9987199
vt 0.5017011 0.001930237
vt 0.5017248 0.0007117391
vt 0.5001875 0.001719356
vt 0.501809 0.9972429
vt 0.4999717 0.997559
vn -0.003051721 -0.9986749 0.05137131
vn -0.9986753 -0.0007658502 -0.05144988
vn -0.9986753 -0.0007658502 0.05144988
vn -0.003051721 -0.9986749 -0.05137131
vn 0.003051721 -0.9986749 0.05137131
vn 0.003051721 -0.9986749 -0.05137131
vn 0.9986752 -0.0007658703 0.05145144
vn 0.9986752 -0.0007658703 -0.05145144
vn 0.003051721 -0.9986749 -0.05137131
vn 0.003051721 -0.9986749 0.05137131
vn -0.9986753 0.0007658502 0.05144988
vn -0.9986753 0.0007658502 -0.05144988
vn -0.003051721 0.9986749 -0.05137131
vn -0.003051721 0.9986749 0.05137131
vn 0.003051721 0.9986749 -0.05137131
vn 0.003051721 0.9986749 0.05137131
vn 0.9986752 0.0007658703 -0.05145144
vn 0.9986752 0.0007658703 0.05145144
vn 0.9986752 -0.0007658703 0.05145144
vn 0.9986752 0.0007658703 0.05145144
vn 0.9986752 0.0007658703 -0.05145144
vn 0.9986752 -0.0007658703 -0.05145144
vn -0.9986753 -0.0007658502 -0.05144988
vn -0.9986753 0.0007658502 -0.05144988
vn -0.9986753 0.0007658502 0.05144988
vn -0.9986753 -0.0007658502 0.05144988
vn -0.9986753 -0.0007658502 0.05144988
vn -0.9986753 0.0007658502 0.05144988
vn -0.003162581 0.000792476 0.9999948
vn -0.003051721 0.9986749 0.05137131
vn -0.003162581 -0.000792476 0.9999948
vn -0.003051721 -0.9986749 0.05137131
vn 0.003051721 -0.9986749 0.05137131
vn 0.003162581 0.0007924759 0.9999948
vn 0.003051721 0.9986749 0.05137131
vn 0.9986752 0.0007658703 0.05145144
vn 0.003162581 -0.0007924759 0.9999948
vn 0.9986752 -0.0007658703 0.05145144
vn -0.9986753 0.0007658502 -0.05144988
vn -0.9986753 -0.0007658502 -0.05144988
vn -0.003162581 -0.000792476 -0.9999948
vn -0.003051721 -0.9986749 -0.05137131
vn -0.003162581 0.000792476 -0.9999948
vn -0.003051721 0.9986749 -0.05137131
vn 0.003051721 0.9986749 -0.05137131
vn 0.003162581 -0.0007924759 -0.9999948
vn 0.003051721 -0.9986749 -0.05137131
vn 0.9986752 -0.0007658703 -0.05145144
vn 0.003162581 0.0007924759 -0.9999948
vn 0.9986752 0.0007658703 -0.05145144
g Painted_Panel_001_Chamber_Gameplay_0
f 3/3/3 2/2/2 1/1/1
f 2/2/2 4/4/4 1/1/1
f 5/5/5 1/1/1 4/4/4
f 6/6/6 5/5/5 4/4/4
f 9/9/9 8/8/8 7/7/7
f 10/10/10 9/9/9 7/7/7
f 13/13/13 12/12/12 11/11/11
f 14/14/14 13/13/13 11/11/11
f 15/15/15 13/13/13 14/14/14
f 16/16/16 15/15/15 14/14/14
f 17/17/17 15/15/15 16/16/16
f 18/18/18 17/17/17 16/16/16
f 21/21/21 20/20/20 19/19/19
f 22/22/22 21/21/21 19/19/19
f 25/25/25 24/24/24 23/23/23
f 26/26/26 25/25/25 23/23/23
f 29/29/29 28/28/28 27/27/27
f 29/29/29 30/30/30 28/28/28
f 31/31/31 29/29/29 27/27/27
f 31/31/31 27/27/27 32/32/32
f 32/32/32 33/33/33 31/31/31
f 29/29/29 34/34/34 30/30/30
f 34/34/34 29/29/29 31/31/31
f 34/34/34 35/35/35 30/30/30
f 34/34/34 36/36/36 35/35/35
f 33/33/33 37/37/37 31/31/31
f 37/37/37 34/34/34 31/31/31
f 36/36/36 34/34/34 37/37/37
f 37/37/37 33/33/33 38/38/38
f 38/38/38 36/36/36 37/37/37
f 41/41/41 40/40/40 39/39/39
f 41/41/41 42/42/42 40/40/40
f 43/43/43 41/41/41 39/39/39
f 44/44/44 43/43/43 39/39/39
f 44/44/44 45/45/45 43/43/43
f 41/41/41 46/46/46 42/42/42
f 46/46/46 41/41/41 43/43/43
f 46/46/46 47/47/47 42/42/42
f 46/46/46 48/48/48 47/47/47
f 45/45/45 49/49/49 43/43/43
f 49/49/49 46/46/46 43/43/43
f 48/48/48 46/46/46 49/49/49
f 45/45/45 50/50/50 49/49/49
f 50/50/50 48/48/48 49/49/49
