g Table_Bar_002_Common_Prop
v 0.06961396 0.02413687 -0.04364672
v 0.0001689434 0.02413688 -0.0002445924
v -0.07524101 0.02413687 -0.04022217
v 0.07576746 0.02413687 0.04086859
v 0.0001689434 0.02413688 -0.0002445924
v 0.06961396 0.02413687 -0.04364672
v -0.06929155 0.02413687 0.0431575
v 0.0001689434 0.02413688 -0.0002445924
v 0.07576746 0.02413687 0.04086859
v -0.07524101 0.02413687 -0.04022217
v 0.0001689434 0.02413688 -0.0002445924
v -0.06929155 0.02413687 0.0431575
v 0.0377211 0.0232849 -0.03711897
v 0.03745473 0.7538336 -0.03745473
v 2.75824E-10 0.7538336 -0.052969
v 4.629758E-10 0.0232849 -0.0524941
v -0.03745473 0.7538336 -0.03745473
v -0.03772111 0.0232849 -0.03711897
v -0.03772111 0.0232849 -0.03711897
v -0.03745473 0.7538336 -0.03745473
v -0.05296902 0.7538336 3.116642E-09
v -0.05334571 0.0232849 -8.036218E-10
v -0.03745473 0.7538336 0.03745474
v -0.03772111 0.0232849 0.03711897
v -0.03772111 0.0232849 0.03711897
v -0.03745473 0.7538336 0.03745474
v 2.75824E-10 0.7538336 0.05296902
v 4.629758E-10 0.0232849 0.0524941
v 0.03745474 0.7538336 0.03745474
v 0.03772111 0.0232849 0.03711898
v 0.03772111 0.0232849 0.03711898
v 0.03745474 0.7538336 0.03745474
v 0.05296902 0.7538336 3.116642E-09
v 0.0533457 0.0232849 -8.036218E-10
v 0.03745473 0.7538336 -0.03745473
v 0.0377211 0.0232849 -0.03711897
v 0.02339007 0.01214152 -0.461309
v 0.007821773 0.02413687 -0.4347898
v -0.007483885 0.02413687 -0.4347898
v -0.02305222 0.01214152 -0.461309
v 0.03326939 0.00119538 -0.4645023
v -0.03293151 0.00119538 -0.4645023
v -0.02378173 0.02413687 -0.1246528
v 0.06961396 0.02413687 -0.04364672
v -0.07524101 0.02413687 -0.04022217
v 0.02144236 0.02413687 -0.1246527
v -0.009319729 0.02413687 -0.1793199
v 0.009657608 0.02413687 -0.17932
v -0.007483885 0.02413687 -0.4347898
v 0.007821773 0.02413687 -0.4347898
v -0.04265974 0.00119538 -0.1362325
v -0.09016978 0.00119538 -0.05184048
v 0.08755722 0.00119538 -0.05358257
v 0.04086195 0.00119538 -0.1362325
v 0.03698801 0.00119538 -0.1793199
v -0.03665018 0.00119538 -0.1793199
v 0.03326939 0.00119538 -0.4645023
v -0.03293151 0.00119538 -0.4645023
v -0.02305222 0.01214152 -0.461309
v -0.007483885 0.02413687 -0.4347898
v -0.009319729 0.02413687 -0.1793199
v -0.009319729 0.02341064 -0.1793199
v -0.03293151 0.00119538 -0.4645023
v -0.03665018 0.00119538 -0.1793199
v -0.02378173 0.02413687 -0.1246528
v -0.04265974 0.00119538 -0.1362325
v -0.07524101 0.02413687 -0.04022217
v -0.09016978 0.00119538 -0.05184048
v 0.007821773 0.02413687 -0.4347898
v 0.02339007 0.01214152 -0.461309
v 0.009657608 0.02413687 -0.17932
v 0.03698801 0.00119538 -0.1793199
v 0.03326939 0.00119538 -0.4645023
v 0.02144236 0.02413687 -0.1246527
v 0.04086195 0.00119538 -0.1362325
v 0.06961396 0.02413687 -0.04364672
v 0.08755722 0.00119538 -0.05358257
v -0.1903453 0.7423375 0.7103782
v -0.1939856 0.7517001 0.723964
v -0.09900132 0.7517001 0.7416254
v -0.2802401 0.7423375 0.6790287
v -0.2855724 0.7517001 0.6919136
v -0.3677188 0.7423375 0.6369077
v -0.3747514 0.7517001 0.6490884
v -0.4476683 0.7423375 0.5823521
v -0.456152 0.7517001 0.5934194
v -0.5200329 0.7423375 0.5200329
v -0.5299785 0.7517001 0.5299785
v -0.5842493 0.7423375 0.444912
v -0.5953451 0.7517001 0.4533586
v -0.6369077 0.7423375 0.3677188
v -0.6490884 0.7517001 0.3747513
v -0.6782482 0.7423375 0.280073
v -0.6911377 0.7517001 0.2853943
v -0.7103782 0.7423375 0.1903452
v -0.723964 0.7517001 0.1939856
v -0.7275705 0.7423375 0.09729347
v -0.7413916 0.7517001 0.09914641
v -0.7354376 0.7423375 -4.383551E-08
v -0.7281094 0.7423375 -0.09376276
v -0.7495027 0.7517001 -4.735658E-08
v -0.7419401 0.7517001 -0.09554299
v -0.7103781 0.7423375 -0.1903453
v -0.7239639 0.7517001 -0.1939856
v -0.6789697 0.7423375 -0.2788904
v -0.6918684 0.7517001 -0.2841895
v -0.6369076 0.7423375 -0.3677188
v -0.6490884 0.7517001 -0.3747514
v -0.5835299 0.7423375 -0.4466296
v -0.5945991 0.7517001 -0.4551109
v -0.5200328 0.7423375 -0.5200329
v -0.5299784 0.7517001 -0.5299785
v -0.4491116 0.7423375 -0.5807741
v -0.4576446 0.7517001 -0.5918036
v -0.3677186 0.7423375 -0.6369076
v -0.3747512 0.7517001 -0.6490884
v -0.2847466 0.7423375 -0.676957
v -0.2901491 0.7517001 -0.6898129
v -0.1903451 0.7423375 -0.710378
v -0.1939854 0.7517001 -0.7239639
v -0.09706423 0.7423375 -0.7284268
v -0.09890329 0.7517001 -0.7422497
v 8.767101E-08 0.7423375 -0.7354375
v 8.677522E-08 0.7517001 -0.7495025
v 0.09555505 0.7423375 -0.728426
v 0.09733255 0.7517001 -0.7422571
v 0.1903453 0.7423375 -0.7103779
v 0.1939856 0.7517001 -0.7239637
v 0.2787642 0.7423375 -0.6799899
v 0.2840622 0.7517001 -0.6928892
v 0.3677188 0.7423375 -0.6369074
v 0.3747513 0.7517001 -0.6490882
v 0.4475296 0.7423375 -0.5826476
v 0.4560249 0.7517001 -0.5937058
v 0.5200328 0.7423375 -0.5200327
v 0.5299784 0.7517001 -0.5299783
v 0.5834989 0.7423375 -0.4452451
v 0.5945777 0.7517001 -0.4537138
v 0.6369075 0.7423375 -0.3677186
v 0.6490883 0.7517001 -0.3747512
v 0.679337 0.7423375 -0.2772736
v -0.1903453 0.7423375 0.7103782
v -0.09900132 0.7517001 0.7416254
v -0.0971817 0.7423375 0.7277997
v -2.490943E-08 0.7517001 0.7495028
v -0.09932407 0.7599615 0.7440777
v -0.1939856 0.7517001 0.723964
v -2.536445E-08 0.7599615 0.7519976
v -0.1946313 0.7599615 0.7263738
v -0.2865182 0.7599615 0.694199
v -0.2855724 0.7517001 0.6919136
v 0.09664937 0.7599615 0.744269
v 0.09633144 0.7517001 0.7418159
v 0.1939856 0.7517001 0.7239642
v 0.1946313 0.7599615 0.7263739
v 0.2860455 0.7599615 0.6940864
v 0.2851053 0.7517001 0.6917987
v 0.3747514 0.7517001 0.6490885
v 0.3759988 0.7599615 0.651249
v 0.4557304 0.7599615 0.5967518
v 0.4542306 0.7517001 0.5947849
v 0.5299786 0.7517001 0.5299786
v 0.5317427 0.7599615 0.5317427
v 0.595435 0.7599615 0.4573047
v 0.593473 0.7517001 0.4557984
v 0.6490886 0.7517001 0.3747515
v 0.6512491 0.7599615 0.3759989
v 0.6936195 0.7599615 0.2880371
v 0.6913354 0.7517001 0.2870882
v 0.7263737 0.7599615 -0.1946312
v 0.7177849 0.7677301 -0.1923298
v 0.6863693 0.7677301 -0.2801623
v 0.6945239 0.7599615 -0.283512
v 0.6512488 0.7599615 -0.3759986
v 0.6435482 0.7677301 -0.3715527
v 0.5895388 0.7677301 -0.4498622
v 0.5965427 0.7599615 -0.4552159
v 0.5317424 0.7599615 -0.5317423
v 0.5254549 0.7677301 -0.5254549
v 0.452161 0.7677301 -0.5886763
v 0.4575318 0.7599615 -0.5956673
v 0.3715528 0.7677301 -0.6435481
v 0.3759988 0.7599615 -0.6512487
v 0.2816526 0.7677301 -0.6870224
v 0.285002 0.7599615 -0.6951771
v 0.1923299 0.7677301 -0.7177847
v 0.1946313 0.7599615 -0.7263736
v 0.0965241 0.7677301 -0.7359665
v 0.09764784 0.7599615 -0.7447104
v 8.741506E-08 0.7677301 -0.7431055
v 8.669194E-08 0.7599615 -0.7519974
v -0.09806687 0.7677301 -0.735963
v -0.09922951 0.7599615 -0.7447017
v -0.1923298 0.7677301 -0.7177849
v -0.1946312 0.7599615 -0.7263737
v -0.287692 0.7677301 -0.6839659
v -0.2911074 0.7599615 -0.6920931
v -0.3715527 0.7677301 -0.6435484
v -0.3759987 0.7599615 -0.6512489
v -0.4537636 0.7677301 -0.5867872
v -0.4591581 0.7599615 -0.5937599
v -0.5254549 0.7677301 -0.5254551
v -0.5317425 0.7599615 -0.5317425
v -0.5895646 0.7677301 -0.4512535
v -0.5965624 0.7599615 -0.4566152
v -0.6435484 0.7677301 -0.3715529
v -0.6512489 0.7599615 -0.3759988
v -0.6860019 0.7677301 -0.2817794
v -0.6941563 0.7599615 -0.2851295
v -0.7177849 0.7677301 -0.1923299
v -0.7263737 0.7599615 -0.1946313
v -0.7356496 0.7677301 -0.09473328
v -0.7443933 0.7599615 -0.09585876
v -0.7431056 0.7677301 -4.575513E-08
v -0.7519975 0.7599615 -4.798111E-08
v -0.7351055 0.7677301 0.09830367
v -0.7438432 0.7599615 0.09947506
v -0.717785 0.7677301 0.1923299
v -0.7263738 0.7599615 0.1946313
v -0.6852755 0.7677301 0.2829741
v -0.693424 0.7599615 0.2863382
v -0.651249 0.7599615 0.3759988
v -0.6435485 0.7677301 0.3715528
v -0.5902985 0.7677301 0.4495169
v -0.5973132 0.7599615 0.4548568
v -0.5317425 0.7599615 0.5317425
v -0.5254551 0.7677301 0.5254551
v -0.4522935 0.7677301 0.5883859
v -0.4576568 0.7599615 0.5953825
v -0.3759988 0.7599615 0.651249
v -0.3715529 0.7677301 0.6435485
v -0.2831472 0.7677301 0.6860534
v -0.2865182 0.7599615 0.694199
v -0.1946313 0.7599615 0.7263738
v -0.1923299 0.7677301 0.717785
v -0.09817372 0.7677301 0.7353372
v -0.09932407 0.7599615 0.7440777
v -2.536445E-08 0.7599615 0.7519976
v -2.331634E-08 0.7677301 0.7431058
v 0.09551621 0.7677301 0.7355263
v 0.09664937 0.7599615 0.744269
v 0.1946313 0.7599615 0.7263739
v 0.1923299 0.7677301 0.717785
v 0.2826945 0.7677301 0.6859324
v 0.2860455 0.7599615 0.6940864
v 0.3759988 0.7599615 0.651249
v 0.3715529 0.7677301 0.6435485
v 0.450385 0.7677301 0.5897413
v 0.4557304 0.7599615 0.5967518
v 0.5317427 0.7599615 0.5317427
v 0.5254551 0.7677301 0.5254552
v 0.5884425 0.7677301 0.451936
v 0.595435 0.7599615 0.4573047
v 0.6512491 0.7599615 0.3759989
v 0.6435485 0.7677301 0.3715529
v 0.6854782 0.7677301 0.2846553
v 0.6936195 0.7599615 0.2880371
v 0.726374 0.7599615 0.1946313
v 0.7177852 0.7677301 0.19233
v 0.7354611 0.7677301 0.09817006
v 0.7442006 0.7599615 0.09932768
v 0.7519978 0.7599615 -3.158555E-09
v 0.7431059 0.7677301 -1.46257E-09
v 0.7359985 0.7677301 -0.09738515
v 0.7447391 0.7599615 -0.09853453
v 0.7263737 0.7599615 -0.1946312
v 0.7177849 0.7677301 -0.1923298
v -0.6918684 0.7517001 -0.2841895
v -0.7263737 0.7599615 -0.1946313
v -0.7239639 0.7517001 -0.1939856
v -0.6941563 0.7599615 -0.2851295
v -0.6490884 0.7517001 -0.3747514
v -0.6512489 0.7599615 -0.3759988
v -0.6860019 0.7677301 -0.2817794
v -0.5945991 0.7517001 -0.4551109
v -0.5965624 0.7599615 -0.4566152
v -0.5299784 0.7517001 -0.5299785
v -0.5317425 0.7599615 -0.5317425
v -0.5895646 0.7677301 -0.4512535
v -0.4576446 0.7517001 -0.5918036
v -0.4591581 0.7599615 -0.5937599
v -0.3747512 0.7517001 -0.6490884
v -0.3759987 0.7599615 -0.6512489
v -0.2901491 0.7517001 -0.6898129
v -0.2911074 0.7599615 -0.6920931
v -0.1939854 0.7517001 -0.7239639
v -0.1946312 0.7599615 -0.7263737
v -0.09890329 0.7517001 -0.7422497
v -0.09922951 0.7599615 -0.7447017
v 8.677522E-08 0.7517001 -0.7495025
v 8.669194E-08 0.7599615 -0.7519974
v 0.09733255 0.7517001 -0.7422571
v 0.09764784 0.7599615 -0.7447104
v 0.1939856 0.7517001 -0.7239637
v 0.1946313 0.7599615 -0.7263736
v 0.2840622 0.7517001 -0.6928892
v 0.285002 0.7599615 -0.6951771
v 0.3747513 0.7517001 -0.6490882
v 0.3759988 0.7599615 -0.6512487
v 0.4560249 0.7517001 -0.5937058
v 0.3759988 0.7599615 -0.6512487
v 0.3747513 0.7517001 -0.6490882
v 0.4575318 0.7599615 -0.5956673
v 0.5299784 0.7517001 -0.5299783
v 0.5317424 0.7599615 -0.5317423
v 0.5965427 0.7599615 -0.4552159
v 0.5945777 0.7517001 -0.4537138
v 0.6490883 0.7517001 -0.3747512
v 0.6512488 0.7599615 -0.3759986
v 0.6945239 0.7599615 -0.283512
v 0.692236 0.7517001 -0.2825722
v 0.679337 0.7423375 -0.2772736
v 0.710378 0.7423375 -0.1903451
v 0.7239639 0.7517001 -0.1939854
v 0.7263737 0.7599615 -0.1946312
v -0.3747514 0.7517001 0.6490884
v -0.2865182 0.7599615 0.694199
v -0.2855724 0.7517001 0.6919136
v -0.3759988 0.7599615 0.651249
v -0.4576568 0.7599615 0.5953825
v -0.456152 0.7517001 0.5934194
v -0.5299785 0.7517001 0.5299785
v -0.5317425 0.7599615 0.5317425
v -0.5973132 0.7599615 0.4548568
v -0.5953451 0.7517001 0.4533586
v -0.6490884 0.7517001 0.3747513
v -0.651249 0.7599615 0.3759988
v -0.693424 0.7599615 0.2863382
v -0.6911377 0.7517001 0.2853943
v -0.723964 0.7517001 0.1939856
v -0.7263738 0.7599615 0.1946313
v -0.7413916 0.7517001 0.09914641
v -0.7438432 0.7599615 0.09947506
v -0.7495027 0.7517001 -4.735658E-08
v -0.7354376 0.7423375 -4.383551E-08
v -0.7519975 0.7599615 -4.798111E-08
v -0.7419401 0.7517001 -0.09554299
v -0.7443933 0.7599615 -0.09585876
v -0.7239639 0.7517001 -0.1939856
v -0.7263737 0.7599615 -0.1946313
v 0.4393596 0.01214152 0.02041518
v 0.4128078 0.02413687 0.00656411
v 0.4128078 0.02413687 -0.007053289
v 0.4393596 0.01214152 -0.02090436
v 0.1245771 0.02413687 -0.02155343
v 0.07576746 0.02413687 0.04086859
v 0.06961396 0.02413687 -0.04364672
v 0.1245771 0.02413687 0.01868231
v 0.1792443 0.02413687 -0.008686622
v 0.1792443 0.02413687 0.008197442
v 0.4128078 0.02413687 -0.007053289
v 0.4128078 0.02413687 0.00656411
v 0.1361568 0.00119538 -0.03834916
v 0.08755722 0.00119538 -0.05358257
v 0.09050766 0.00119538 0.05135138
v 0.1361568 0.00119538 0.03595985
v 0.1792443 0.00119538 0.03251324
v 0.1792443 0.00119538 -0.03300245
v 0.4425207 0.00119538 0.02920477
v 0.4425207 0.00119538 -0.02969398
v 0.4393596 0.01214152 -0.02090436
v 0.4128078 0.02413687 -0.007053289
v 0.1792443 0.02413687 -0.008686622
v 0.1792443 0.02341064 -0.008686622
v 0.4425207 0.00119538 -0.02969398
v 0.1792443 0.00119538 -0.03300245
v 0.1245771 0.02413687 -0.02155343
v 0.1361568 0.00119538 -0.03834916
v 0.06961396 0.02413687 -0.04364672
v 0.08755722 0.00119538 -0.05358257
v 0.4128078 0.02413687 0.00656411
v 0.4393596 0.01214152 0.02041518
v 0.1792443 0.02413687 0.008197442
v 0.1792443 0.00119538 0.03251324
v 0.4425207 0.00119538 0.02920477
v 0.1245771 0.02413687 0.01868231
v 0.1361568 0.00119538 0.03595985
v 0.07576746 0.02413687 0.04086859
v 0.09050766 0.00119538 0.05135138
v 0.4425207 0.00119538 0.02920477
v 0.4393596 0.01214152 0.02041518
v 0.4393596 0.01214152 -0.02090436
v 0.4425207 0.00119538 -0.02969398
v -0.02305221 0.01214152 0.4561257
v -0.007483881 0.02413687 0.4296064
v 0.007821777 0.02413687 0.4296064
v 0.02339008 0.01214152 0.4561257
v -0.03293151 0.00119538 0.459319
v 0.03326939 0.00119538 0.459319
v 0.0241196 0.02413687 0.1241636
v -0.06929155 0.02413687 0.0431575
v 0.07576746 0.02413687 0.04086859
v -0.02110447 0.02413687 0.1241635
v 0.009657612 0.02413687 0.1788308
v -0.009319729 0.02413687 0.1788308
v 0.007821777 0.02413687 0.4296064
v -0.007483881 0.02413687 0.4296064
v 0.04299764 0.00119538 0.1357433
v 0.09050766 0.00119538 0.05135138
v -0.08721934 0.00119538 0.05309334
v -0.04052406 0.00119538 0.1357433
v -0.03665018 0.00119538 0.1788308
v 0.03698801 0.00119538 0.1788308
v -0.03293151 0.00119538 0.459319
v 0.03326939 0.00119538 0.459319
v 0.02339008 0.01214152 0.4561257
v 0.007821777 0.02413687 0.4296064
v 0.009657612 0.02413687 0.1788308
v 0.009657612 0.02341064 0.1788308
v 0.03326939 0.00119538 0.459319
v 0.03698801 0.00119538 0.1788308
v 0.0241196 0.02413687 0.1241636
v 0.04299764 0.00119538 0.1357433
v 0.07576746 0.02413687 0.04086859
v 0.09050766 0.00119538 0.05135138
v -0.007483881 0.02413687 0.4296064
v -0.02305221 0.01214152 0.4561257
v -0.009319729 0.02413687 0.1788308
v -0.03665018 0.00119538 0.1788308
v -0.03293151 0.00119538 0.459319
v -0.02110447 0.02413687 0.1241635
v -0.04052406 0.00119538 0.1357433
v -0.06929155 0.02413687 0.0431575
v -0.08721934 0.00119538 0.05309334
v -0.4357794 0.01214152 -0.02090436
v -0.4092276 0.02413687 -0.007053288
v -0.4092276 0.02413687 0.006564111
v -0.4357794 0.01214152 0.02041518
v -0.4389405 0.00119538 -0.02969398
v -0.4389405 0.00119538 0.02920477
v -0.1242392 0.02413687 0.02106425
v -0.07524101 0.02413687 -0.04022217
v -0.06929155 0.02413687 0.0431575
v -0.1242392 0.02413687 -0.0191715
v -0.1789064 0.02413687 0.008197444
v -0.1789064 0.02413687 -0.00868662
v -0.4092276 0.02413687 0.006564111
v -0.4092276 0.02413687 -0.007053288
v -0.1358189 0.00119538 0.03785995
v -0.08721934 0.00119538 0.05309334
v -0.09016978 0.00119538 -0.05184048
v -0.1358189 0.00119538 -0.03644903
v -0.1789064 0.00119538 -0.03300245
v -0.1789064 0.00119538 0.03251324
v -0.4389405 0.00119538 -0.02969398
v -0.4389405 0.00119538 0.02920477
v -0.4357794 0.01214152 0.02041518
v -0.4092276 0.02413687 0.006564111
v -0.1789064 0.02413687 0.008197444
v -0.1789064 0.02341064 0.008197444
v -0.4389405 0.00119538 0.02920477
v -0.1789064 0.00119538 0.03251324
v -0.1242392 0.02413687 0.02106425
v -0.1358189 0.00119538 0.03785995
v -0.06929155 0.02413687 0.0431575
v -0.08721934 0.00119538 0.05309334
v -0.4092276 0.02413687 -0.007053288
v -0.4357794 0.01214152 -0.02090436
v -0.1789064 0.02413687 -0.00868662
v -0.1789064 0.00119538 -0.03300245
v -0.4389405 0.00119538 -0.02969398
v -0.1242392 0.02413687 -0.0191715
v -0.1358189 0.00119538 -0.03644903
v -0.07524101 0.02413687 -0.04022217
v -0.09016978 0.00119538 -0.05184048
v 0.08755722 0.00119538 -0.05358257
v -0.09016978 0.00119538 -0.05184048
v -0.08721934 0.00119538 0.05309334
v 0.09050766 0.00119538 0.05135138
v -0.0971817 0.7423375 0.7277997
v -2.490943E-08 0.7517001 0.7495028
v -2.191775E-08 0.7423375 0.7354377
v 0.09633144 0.7517001 0.7418159
v 0.09453898 0.7423375 0.7279869
v 0.1939856 0.7517001 0.7239642
v 0.1903453 0.7423375 0.7103782
v 0.2851053 0.7517001 0.6917987
v 0.2798048 0.7423375 0.6789005
v 0.3747514 0.7517001 0.6490885
v 0.3677188 0.7423375 0.6369077
v 0.4542306 0.7517001 0.5947849
v 0.4457753 0.7423375 0.5836958
v 0.5299786 0.7517001 0.5299786
v 0.520033 0.7423375 0.5200331
v 0.593473 0.7517001 0.4557984
v 0.5824124 0.7423375 0.4473061
v 0.6490886 0.7517001 0.3747515
v 0.6369078 0.7423375 0.3677189
v 0.6913354 0.7517001 0.2870882
v 0.6784574 0.7423375 0.281739
v 0.7239642 0.7517001 0.1939856
v 0.7103784 0.7423375 0.1903453
v 0.7417485 0.7517001 0.09900288
v 0.7279245 0.7423375 0.09717175
v 0.749503 0.7517001 -2.682715E-09
v 0.7354378 0.7423375 -1.804543E-16
v 0.7422867 0.7517001 -0.09821204
v 0.7284609 0.7423375 -0.09639394
v 0.7239639 0.7517001 -0.1939854
v 0.710378 0.7423375 -0.1903451
v 0.7447391 0.7599615 -0.09853453
v 0.7263737 0.7599615 -0.1946312
v 0.7239639 0.7517001 -0.1939854
v 0.7422867 0.7517001 -0.09821204
v 0.749503 0.7517001 -2.682715E-09
v 0.7519978 0.7599615 -3.158555E-09
v 0.7442006 0.7599615 0.09932768
v 0.7417485 0.7517001 0.09900288
v 0.7239642 0.7517001 0.1939856
v 0.726374 0.7599615 0.1946313
v 0.6936195 0.7599615 0.2880371
v 0.6913354 0.7517001 0.2870882
v 0.5200328 0.7423375 -0.5200327
v -1.443635E-15 0.7423375 -1.804543E-16
v 0.5834989 0.7423375 -0.4452451
v 0.4475296 0.7423375 -0.5826476
v 0.6369075 0.7423375 -0.3677186
v 0.3677188 0.7423375 -0.6369074
v 0.679337 0.7423375 -0.2772736
v 0.2787642 0.7423375 -0.6799899
v 0.710378 0.7423375 -0.1903451
v 0.1903453 0.7423375 -0.7103779
v 0.7284609 0.7423375 -0.09639394
v 0.09555505 0.7423375 -0.728426
v 0.7354378 0.7423375 -1.804543E-16
v 8.767101E-08 0.7423375 -0.7354375
v 0.7279245 0.7423375 0.09717175
v -0.09706423 0.7423375 -0.7284268
v 0.7103784 0.7423375 0.1903453
v -0.1903451 0.7423375 -0.710378
v 0.6784574 0.7423375 0.281739
v -0.2847466 0.7423375 -0.676957
v 0.6369078 0.7423375 0.3677189
v -0.3677186 0.7423375 -0.6369076
v 0.5824124 0.7423375 0.4473061
v -0.4491116 0.7423375 -0.5807741
v 0.520033 0.7423375 0.5200331
v -0.5200328 0.7423375 -0.5200329
v 0.4457753 0.7423375 0.5836958
v -0.5835299 0.7423375 -0.4466296
v 0.3677188 0.7423375 0.6369077
v -0.6369076 0.7423375 -0.3677188
v 0.2798048 0.7423375 0.6789005
v -0.6789697 0.7423375 -0.2788904
v 0.1903453 0.7423375 0.7103782
v -0.7103781 0.7423375 -0.1903453
v 0.09453898 0.7423375 0.7279869
v -0.7281094 0.7423375 -0.09376276
v -2.191775E-08 0.7423375 0.7354377
v -0.7354376 0.7423375 -4.383551E-08
v -0.0971817 0.7423375 0.7277997
v -0.7275705 0.7423375 0.09729347
v -0.1903453 0.7423375 0.7103782
v -0.7103782 0.7423375 0.1903452
v -0.2802401 0.7423375 0.6790287
v -0.6782482 0.7423375 0.280073
v -0.3677188 0.7423375 0.6369077
v -0.6369077 0.7423375 0.3677188
v -0.4476683 0.7423375 0.5823521
v -0.5842493 0.7423375 0.444912
v -0.5200329 0.7423375 0.5200329
v 0.7177849 0.7677301 -0.1923298
v 0.7086518 0.7677301 -0.1898826
v 0.677698 0.7677301 -0.2766003
v 0.7267043 0.7677301 -0.09616293
v 0.6863693 0.7677301 -0.2801623
v 0.7359985 0.7677301 -0.09738515
v 0.6435482 0.7677301 -0.3715527
v 0.6353598 0.7677301 -0.3668251
v 0.7431059 0.7677301 -1.46257E-09
v 0.7336506 0.7677301 1.138684E-08
v 0.5820912 0.7677301 -0.4441691
v 0.5895388 0.7677301 -0.4498622
v 0.726168 0.7677301 0.09693912
v 0.7354611 0.7677301 0.09817006
v 0.5254549 0.7677301 -0.5254549
v 0.5187691 0.7677301 -0.518769
v 0.4464501 0.7677301 -0.5812424
v 0.452161 0.7677301 -0.5886763
v 0.3668252 0.7677301 -0.6353596
v 0.3715528 0.7677301 -0.6435481
v 0.2780911 0.7677301 -0.678351
v 0.2816526 0.7677301 -0.6870224
v 0.1898828 0.7677301 -0.7086517
v 0.1923299 0.7677301 -0.7177847
v 0.09532919 0.7677301 -0.7266686
v 0.0965241 0.7677301 -0.7359665
v 8.371161E-08 0.7677301 -0.7336502
v 8.741506E-08 0.7677301 -0.7431055
v -0.09683059 0.7677301 -0.7266704
v -0.09806687 0.7677301 -0.735963
v -0.1898826 0.7677301 -0.7086517
v -0.1923298 0.7677301 -0.7177849
v -0.2840602 0.7677301 -0.6753234
v -0.287692 0.7677301 -0.6839659
v -0.3668251 0.7677301 -0.6353598
v -0.3715527 0.7677301 -0.6435484
v -0.4480273 0.7677301 -0.5793727
v -0.4537636 0.7677301 -0.5867872
v -0.5187691 0.7677301 -0.5187693
v -0.5254549 0.7677301 -0.5254551
v -0.5821235 0.7677301 -0.445552
v -0.5895646 0.7677301 -0.4512535
v -0.6353598 0.7677301 -0.3668253
v -0.6435484 0.7677301 -0.3715529
v -0.6773307 0.7677301 -0.278217
v -0.6860019 0.7677301 -0.2817794
v -0.7086518 0.7677301 -0.1898828
v -0.7177849 0.7677301 -0.1923299
v -0.726352 0.7677301 -0.09353656
v -0.7356496 0.7677301 -0.09473328
v -0.7336505 0.7677301 -4.364454E-08
v -0.7431056 0.7677301 -4.575513E-08
v -0.7258143 0.7677301 0.09705804
v -0.7351055 0.7677301 0.09830367
v -0.7086518 0.7677301 0.1898827
v -0.717785 0.7677301 0.1923299
v -0.6766104 0.7677301 0.2793969
v -0.6852755 0.7677301 0.2829741
v -0.6435485 0.7677301 0.3715528
v -0.63536 0.7677301 0.3668252
v -0.5828395 0.7677301 0.4438387
v -0.5902985 0.7677301 0.4495169
v -0.5254551 0.7677301 0.5254551
v -0.5187693 0.7677301 0.5187693
v -0.4465903 0.7677301 0.5809459
v -0.4522935 0.7677301 0.5883859
v -0.3715529 0.7677301 0.6435485
v -0.3668253 0.7677301 0.63536
v -0.2795626 0.7677301 0.6773914
v -0.2831472 0.7677301 0.6860534
v -0.1923299 0.7677301 0.717785
v -0.1898828 0.7677301 0.7086518
v -0.09695049 0.7677301 0.7260429
v -0.09817372 0.7677301 0.7353372
v -2.331634E-08 0.7677301 0.7431058
v -2.104572E-08 0.7677301 0.7336505
v 0.09431124 0.7677301 0.7262297
v 0.09551621 0.7677301 0.7355263
v 0.1923299 0.7677301 0.717785
v 0.1898828 0.7677301 0.708652
v 0.2791313 0.7677301 0.6772617
v 0.2826945 0.7677301 0.6859324
v 0.3715529 0.7677301 0.6435485
v 0.3668253 0.7677301 0.63536
v 0.444701 0.7677301 0.5822868
v 0.450385 0.7677301 0.5897413
v 0.5254551 0.7677301 0.5254552
v 0.5187693 0.7677301 0.5187693
v 0.581007 0.7677301 0.446227
v 0.5884425 0.7677301 0.451936
v 0.6435485 0.7677301 0.3715529
v 0.6353601 0.7677301 0.3668253
v 0.6768211 0.7677301 0.2810593
v 0.6854782 0.7677301 0.2846553
v 0.7177852 0.7677301 0.19233
v 0.7086522 0.7677301 0.1898828
v 4.629758E-10 0.0232849 -0.0524941
v 4.629758E-10 0.0232849 -8.036218E-10
v 0.0377211 0.0232849 -0.03711897
v -0.03772111 0.0232849 -0.03711897
v 0.0533457 0.0232849 -8.036218E-10
v -0.05334571 0.0232849 -8.036218E-10
v 0.03772111 0.0232849 0.03711898
v -0.03772111 0.0232849 0.03711897
v 4.629758E-10 0.0232849 0.0524941
v 0.03745473 0.7538336 -0.03745473
v 2.75824E-10 0.7538336 3.116642E-09
v 2.75824E-10 0.7538336 -0.052969
v 0.05296902 0.7538336 3.116642E-09
v -0.03745473 0.7538336 -0.03745473
v 0.03745474 0.7538336 0.03745474
v -0.05296902 0.7538336 3.116642E-09
v 2.75824E-10 0.7538336 0.05296902
v -0.03745473 0.7538336 0.03745474
v -1.443635E-15 0.7677301 -1.804543E-16
vt 0 1.76532E-16
vt 0.4999998 0.3861239
vt 0.9999999 0
vt 0 1.76532E-16
vt 0.4999998 0.3861239
vt 0.9999999 0
vt 0 1.76532E-16
vt 0.4999998 0.3861239
vt 0.9999999 0
vt 0 1.76532E-16
vt 0.4999998 0.3861239
vt 0.9999999 0
vt 0.375 0.3125
vt 0.375 0.6884398
vt 0.40625 0.6884398
vt 0.40625 0.3125
vt 0.4375 0.6884398
vt 0.4375 0.3125
vt 0.4375 0.3125
vt 0.4375 0.6884398
vt 0.46875 0.6884398
vt 0.46875 0.3125
vt 0.5 0.6884398
vt 0.5 0.3125
vt 0.5 0.3125
vt 0.5 0.6884398
vt 0.53125 0.6884398
vt 0.53125 0.3125
vt 0.5625 0.6884398
vt 0.5625 0.3125
vt 0.5625 0.3125
vt 0.5625 0.6884398
vt 0.59375 0.6884398
vt 0.59375 0.3125
vt 0.625 0.6884398
vt 0.625 0.3125
vt 0.3497374 0.1219791
vt 0.3497374 0.25
vt 0.375 0.25
vt 0.375 0.1219791
vt 0.3497374 0
vt 0.375 0
vt 0.5609348 0.1859896
vt 0.5805902 0.2752625
vt 0.5805902 0.1859896
vt 0.5609348 0.2752625
vt 0.5389165 0.25
vt 0.5389165 0.2752625
vt 0.375 0.25
vt 0.375 0.2752625
vt 0.5609348 1
vt 0.5805902 1
vt 0.5805902 0.9747375
vt 0.5609348 0.9747375
vt 0.5389165 0.9747375
vt 0.5389165 1
vt 0.375 0.9747375
vt 0.375 1
vt 0.375 0.1219791
vt 0.375 0.25
vt 0.5389165 0.25
vt 0.5389165 0.1219791
vt 0.375 0
vt 0.5389165 0
vt 0.5609348 0.1859896
vt 0.5609348 0
vt 0.5805902 0.1859896
vt 0.5805902 0
vt 0 0
vt 0 0.5120834
vt 0.327833 0.2560417
vt 0.327833 1
vt 0 1
vt 0.3718697 0.2560417
vt 0.3718697 1
vt 0.4111803 0.2560417
vt 0.4111803 1
vt 0.5416666 0.3125
vt 0.5416666 0.4520293
vt 0.5468765 0.4520293
vt 0.5364711 0.3125
vt 0.5364711 0.4520293
vt 0.5312499 0.3125
vt 0.5312499 0.4520293
vt 0.5260608 0.3125
vt 0.5260608 0.4520293
vt 0.5208333 0.3125
vt 0.5208333 0.4520293
vt 0.5154729 0.3125
vt 0.5154729 0.4520293
vt 0.5104166 0.3125
vt 0.5104166 0.4520293
vt 0.5051618 0.3125
vt 0.5051617 0.4520293
vt 0.4999999 0.3125
vt 0.4999999 0.4520293
vt 0.4948853 0.3125
vt 0.4948854 0.4520293
vt 0.4895832 0.3125
vt 0.4844891 0.3125
vt 0.4895833 0.4520293
vt 0.4844892 0.4520293
vt 0.4791666 0.3125
vt 0.4791666 0.4520293
vt 0.4740727 0.3125
vt 0.4740728 0.4520293
vt 0.4687499 0.3125
vt 0.4687499 0.4520293
vt 0.4635696 0.3125
vt 0.4635696 0.4520293
vt 0.4583333 0.3125
vt 0.4583333 0.4520293
vt 0.4532821 0.3125
vt 0.4532821 0.4520293
vt 0.4479166 0.3125
vt 0.4479166 0.4520293
vt 0.4429112 0.3125
vt 0.4429112 0.4520293
vt 0.4374999 0.3125
vt 0.4374999 0.4520293
vt 0.4323457 0.3125
vt 0.4323457 0.4520293
vt 0.4270833 0.3125
vt 0.4270833 0.4520293
vt 0.421997 0.3125
vt 0.421997 0.4520293
vt 0.4166666 0.3125
vt 0.4166666 0.4520293
vt 0.4115763 0.3125
vt 0.4115763 0.4520293
vt 0.40625 0.3125
vt 0.4062499 0.4520293
vt 0.401019 0.3125
vt 0.401019 0.4520293
vt 0.3958333 0.3125
vt 0.3958333 0.4520293
vt 0.390552 0.3125
vt 0.390552 0.4520293
vt 0.3854167 0.3125
vt 0.3854167 0.4520293
vt 0.380092 0.3125
vt 0.5416666 0.3125
vt 0.5468765 0.4520293
vt 0.5468765 0.3125
vt 0.5520833 0.4520293
vt 0.5468765 0.5725087
vt 0.5416666 0.4520293
vt 0.5520833 0.5725087
vt 0.5416666 0.5725087
vt 0.5364711 0.5725087
vt 0.5364711 0.4520293
vt 0.5572124 0.5725087
vt 0.5572124 0.4520293
vt 0.5625 0.4520293
vt 0.5625 0.5725087
vt 0.5675982 0.5725087
vt 0.5675982 0.4520293
vt 0.5729167 0.4520293
vt 0.5729167 0.5725087
vt 0.5780042 0.5725087
vt 0.5780042 0.4520293
vt 0.5833334 0.4520293
vt 0.5833334 0.5725087
vt 0.5885299 0.5725087
vt 0.5885299 0.4520293
vt 0.5937501 0.4520293
vt 0.5937501 0.5725087
vt 0.598919 0.5725087
vt 0.598919 0.4520293
vt 0.375 0.5725087
vt 0.375 0.6884398
vt 0.380092 0.6884398
vt 0.3800921 0.5725087
vt 0.3854167 0.5725087
vt 0.3854167 0.6884398
vt 0.390552 0.6884398
vt 0.390552 0.5725087
vt 0.3958333 0.5725087
vt 0.3958333 0.6884398
vt 0.401019 0.6884398
vt 0.401019 0.5725087
vt 0.40625 0.6884398
vt 0.4062499 0.5725087
vt 0.4115763 0.6884398
vt 0.4115763 0.5725087
vt 0.4166666 0.6884398
vt 0.4166666 0.5725087
vt 0.421997 0.6884398
vt 0.421997 0.5725087
vt 0.4270833 0.6884398
vt 0.4270833 0.5725087
vt 0.4323457 0.6884398
vt 0.4323457 0.5725087
vt 0.4374999 0.6884398
vt 0.4374999 0.5725087
vt 0.4429112 0.6884398
vt 0.4429112 0.5725087
vt 0.4479166 0.6884398
vt 0.4479166 0.5725087
vt 0.4532821 0.6884398
vt 0.4532821 0.5725087
vt 0.4583333 0.6884398
vt 0.4583333 0.5725087
vt 0.4635696 0.6884398
vt 0.4635696 0.5725087
vt 0.4687499 0.6884398
vt 0.4687499 0.5725087
vt 0.4740727 0.6884398
vt 0.4740728 0.5725087
vt 0.4791666 0.6884398
vt 0.4791666 0.5725087
vt 0.4844891 0.6884398
vt 0.4844892 0.5725087
vt 0.4895832 0.6884398
vt 0.4895833 0.5725087
vt 0.4948853 0.6884398
vt 0.4948854 0.5725087
vt 0.4999999 0.6884398
vt 0.4999999 0.5725087
vt 0.5051618 0.6884398
vt 0.5051617 0.5725087
vt 0.5104166 0.5725087
vt 0.5104166 0.6884398
vt 0.5154729 0.6884398
vt 0.5154729 0.5725087
vt 0.5208333 0.5725087
vt 0.5208333 0.6884398
vt 0.5260608 0.6884398
vt 0.5260608 0.5725087
vt 0.5312499 0.5725087
vt 0.5312499 0.6884398
vt 0.5364711 0.6884398
vt 0.5364711 0.5725087
vt 0.5416666 0.5725087
vt 0.5416666 0.6884398
vt 0.5468765 0.6884398
vt 0.5468765 0.5725087
vt 0.5520833 0.5725087
vt 0.5520833 0.6884398
vt 0.5572124 0.6884398
vt 0.5572124 0.5725087
vt 0.5625 0.5725087
vt 0.5625 0.6884398
vt 0.5675982 0.6884398
vt 0.5675982 0.5725087
vt 0.5729167 0.5725087
vt 0.5729167 0.6884398
vt 0.5780042 0.6884398
vt 0.5780042 0.5725087
vt 0.5833334 0.5725087
vt 0.5833334 0.6884398
vt 0.5885299 0.6884398
vt 0.5885299 0.5725087
vt 0.5937501 0.5725087
vt 0.5937501 0.6884398
vt 0.598919 0.6884398
vt 0.598919 0.5725087
vt 0.6041667 0.5725087
vt 0.6041667 0.6884398
vt 0.6093438 0.6884398
vt 0.6093437 0.5725087
vt 0.6145834 0.5725087
vt 0.6145834 0.6884398
vt 0.6197859 0.6884398
vt 0.6197859 0.5725087
vt 0.6250001 0.5725087
vt 0.6250001 0.6884398
vt 0.4740728 0.4520293
vt 0.4791666 0.5725087
vt 0.4791666 0.4520293
vt 0.4740728 0.5725087
vt 0.4687499 0.4520293
vt 0.4687499 0.5725087
vt 0.4740727 0.6884398
vt 0.4635696 0.4520293
vt 0.4635696 0.5725087
vt 0.4583333 0.4520293
vt 0.4583333 0.5725087
vt 0.4635696 0.6884398
vt 0.4532821 0.4520293
vt 0.4532821 0.5725087
vt 0.4479166 0.4520293
vt 0.4479166 0.5725087
vt 0.4429112 0.4520293
vt 0.4429112 0.5725087
vt 0.4374999 0.4520293
vt 0.4374999 0.5725087
vt 0.4323457 0.4520293
vt 0.4323457 0.5725087
vt 0.4270833 0.4520293
vt 0.4270833 0.5725087
vt 0.421997 0.4520293
vt 0.421997 0.5725087
vt 0.4166666 0.4520293
vt 0.4166666 0.5725087
vt 0.4115763 0.4520293
vt 0.4115763 0.5725087
vt 0.4062499 0.4520293
vt 0.4062499 0.5725087
vt 0.401019 0.4520293
vt 0.4062499 0.5725087
vt 0.4062499 0.4520293
vt 0.401019 0.5725087
vt 0.3958333 0.4520293
vt 0.3958333 0.5725087
vt 0.390552 0.5725087
vt 0.390552 0.4520293
vt 0.3854167 0.4520293
vt 0.3854167 0.5725087
vt 0.3800921 0.5725087
vt 0.3800921 0.4520293
vt 0.380092 0.3125
vt 0.375 0.3125
vt 0.375 0.4520293
vt 0.375 0.5725087
vt 0.5312499 0.4520293
vt 0.5364711 0.5725087
vt 0.5364711 0.4520293
vt 0.5312499 0.5725087
vt 0.5260608 0.5725087
vt 0.5260608 0.4520293
vt 0.5208333 0.4520293
vt 0.5208333 0.5725087
vt 0.5154729 0.5725087
vt 0.5154729 0.4520293
vt 0.5104166 0.4520293
vt 0.5104166 0.5725087
vt 0.5051617 0.5725087
vt 0.5051617 0.4520293
vt 0.4999999 0.4520293
vt 0.4999999 0.5725087
vt 0.4948854 0.4520293
vt 0.4948854 0.5725087
vt 0.4895833 0.4520293
vt 0.4895832 0.3125
vt 0.4895833 0.5725087
vt 0.4844892 0.4520293
vt 0.4844892 0.5725087
vt 0.4791666 0.4520293
vt 0.4791666 0.5725087
vt 0.3497374 0.1219791
vt 0.3497374 0.25
vt 0.375 0.25
vt 0.375 0.1219791
vt 0.5609348 0.1859896
vt 0.5805902 0.2752625
vt 0.5805902 0.1859896
vt 0.5609348 0.2752625
vt 0.5389165 0.25
vt 0.5389165 0.2752625
vt 0.375 0.25
vt 0.375 0.2752625
vt 0.5609348 1
vt 0.5805902 1
vt 0.5805902 0.9747375
vt 0.5609348 0.9747375
vt 0.5389165 0.9747375
vt 0.5389165 1
vt 0.375 0.9747375
vt 0.375 1
vt 0.375 0.1219791
vt 0.375 0.25
vt 0.5389165 0.25
vt 0.5389165 0.1219791
vt 0.375 0
vt 0.5389165 0
vt 0.5609348 0.1859896
vt 0.5609348 0
vt 0.5805902 0.1859896
vt 0.5805902 0
vt 0 0
vt 0 0.5120834
vt 0.327833 0.2560417
vt 0.327833 1
vt 0 1
vt 0.3718697 0.2560417
vt 0.3718697 1
vt 0.4111803 0.2560417
vt 0.4111803 1
vt 0.3497374 0
vt 0.3497374 0.1219791
vt 0.375 0.1219791
vt 0.375 0
vt 0.3497374 0.1219791
vt 0.3497374 0.25
vt 0.375 0.25
vt 0.375 0.1219791
vt 0.3497374 0
vt 0.375 0
vt 0.5609348 0.1859896
vt 0.5805902 0.2752625
vt 0.5805902 0.1859896
vt 0.5609348 0.2752625
vt 0.5389165 0.25
vt 0.5389165 0.2752625
vt 0.375 0.25
vt 0.375 0.2752625
vt 0.5609348 1
vt 0.5805902 1
vt 0.5805902 0.9747375
vt 0.5609348 0.9747375
vt 0.5389165 0.9747375
vt 0.5389165 1
vt 0.375 0.9747375
vt 0.375 1
vt 0.375 0.1219791
vt 0.375 0.25
vt 0.5389165 0.25
vt 0.5389165 0.1219791
vt 0.375 0
vt 0.5389165 0
vt 0.5609348 0.1859896
vt 0.5609348 0
vt 0.5805902 0.1859896
vt 0.5805902 0
vt 0 0
vt 0 0.5120834
vt 0.327833 0.2560417
vt 0.327833 1
vt 0 1
vt 0.3718697 0.2560417
vt 0.3718697 1
vt 0.4111803 0.2560417
vt 0.4111803 1
vt 0.3497374 0.1219791
vt 0.3497374 0.25
vt 0.375 0.25
vt 0.375 0.1219791
vt 0.3497374 0
vt 0.375 0
vt 0.5609348 0.1859896
vt 0.5805902 0.2752625
vt 0.5805902 0.1859896
vt 0.5609348 0.2752625
vt 0.5389165 0.25
vt 0.5389165 0.2752625
vt 0.375 0.25
vt 0.375 0.2752625
vt 0.5609348 1
vt 0.5805902 1
vt 0.5805902 0.9747375
vt 0.5609348 0.9747375
vt 0.5389165 0.9747375
vt 0.5389165 1
vt 0.375 0.9747375
vt 0.375 1
vt 0.375 0.1219791
vt 0.375 0.25
vt 0.5389165 0.25
vt 0.5389165 0.1219791
vt 0.375 0
vt 0.5389165 0
vt 0.5609348 0.1859896
vt 0.5609348 0
vt 0.5805902 0.1859896
vt 0.5805902 0
vt 0 0
vt 0 0.5120834
vt 0.327833 0.2560417
vt 0.327833 1
vt 0 1
vt 0.3718697 0.2560417
vt 0.3718697 1
vt 0.4111803 0.2560417
vt 0.4111803 1
vt 0 0
vt 8.700234E-17 1
vt 1 1
vt 1 8.700234E-17
vt 0.5468765 0.3125
vt 0.5520833 0.4520293
vt 0.5520833 0.3125
vt 0.5572124 0.4520293
vt 0.5572124 0.3125
vt 0.5625 0.4520293
vt 0.5625 0.3125
vt 0.5675982 0.4520293
vt 0.5675982 0.3125
vt 0.5729167 0.4520293
vt 0.5729167 0.3125
vt 0.5780042 0.4520293
vt 0.5780042 0.3125
vt 0.5833334 0.4520293
vt 0.5833334 0.3125
vt 0.5885299 0.4520293
vt 0.5885299 0.3125
vt 0.5937501 0.4520293
vt 0.5937501 0.3125
vt 0.598919 0.4520293
vt 0.598919 0.3125
vt 0.6041667 0.4520293
vt 0.6041667 0.3125
vt 0.6093437 0.4520293
vt 0.6093438 0.3125
vt 0.6145834 0.4520293
vt 0.6145834 0.3125
vt 0.6197859 0.4520293
vt 0.6197859 0.3125
vt 0.6250001 0.4520293
vt 0.6250001 0.3125
vt 0.6197859 0.5725087
vt 0.6250001 0.5725087
vt 0.6250001 0.4520293
vt 0.6197859 0.4520293
vt 0.6145834 0.4520293
vt 0.6145834 0.5725087
vt 0.6093437 0.5725087
vt 0.6093437 0.4520293
vt 0.6041667 0.4520293
vt 0.6041667 0.5725087
vt 0.598919 0.5725087
vt 0.598919 0.4520293
vt 0.6104854 0.04576464
vt 0.5 0.15
vt 0.6230749 0.06217167
vt 0.5943754 0.033403
vt 0.6353164 0.07812506
vt 0.578125 0.02093361
vt 0.6432953 0.09738794
vt 0.5588558 0.01295207
vt 0.6509258 0.1158096
vt 0.5404404 0.005324185
vt 0.6535909 0.1360527
vt 0.5197464 0.002599762
vt 0.65625 0.15625
vt 0.5 8.940697E-08
vt 0.653572 0.1765921
vt 0.4795699 0.002689753
vt 0.6509259 0.1966905
vt 0.4595596 0.005324155
vt 0.6430622 0.2156751
vt 0.4399832 0.01343293
vt 0.6353165 0.234375
vt 0.4218751 0.02093358
vt 0.622873 0.2505916
vt 0.4052066 0.03372376
vt 0.6104854 0.2667354
vt 0.3895146 0.0457646
vt 0.5939299 0.279439
vt 0.3770323 0.06203187
vt 0.578125 0.2915665
vt 0.3646836 0.07812501
vt 0.5588844 0.2995362
vt 0.3567073 0.09738144
vt 0.5404404 0.3071759
vt 0.3490741 0.1158095
vt 0.5199125 0.3098784
vt 0.3463537 0.1364733
vt 0.5 0.3125
vt 0.3437501 0.15625
vt 0.4797857 0.3098387
vt 0.34646 0.1768343
vt 0.4595595 0.3071759
vt 0.3490741 0.1966904
vt 0.4407635 0.2993903
vt 0.3568091 0.2153644
vt 0.421875 0.2915664
vt 0.3646836 0.234375
vt 0.4057545 0.2791967
vt 0.3767368 0.250083
vt 0.3895146 0.2667354
vt 0.952278 0.9649373
vt 0.952278 0.9649373
vt 0.9294119 1.020141
vt 0.9602644 0.9042749
vt 0.9294119 1.020141
vt 0.9602644 0.9042749
vt 0.9055015 1.077866
vt 0.9055015 1.077866
vt 0.9682328 0.8437499
vt 0.9682328 0.8437499
vt 0.8688176 1.125674
vt 0.8688176 1.125674
vt 0.9602072 0.7827911
vt 0.9602072 0.7827911
vt 0.8310906 1.17484
vt 0.8310906 1.17484
vt 0.7828138 1.211884
vt 0.7828138 1.211884
vt 0.7341164 1.249251
vt 0.7341164 1.249251
vt 0.6763726 1.27317
vt 0.6763726 1.27317
vt 0.6211874 1.296028
vt 0.6211874 1.296028
vt 0.5591739 1.304192
vt 0.5591739 1.304192
vt 0.5 1.311983
vt 0.5 1.311983
vt 0.4387773 1.303922
vt 0.4387773 1.303922
vt 0.3788125 1.296028
vt 0.3788125 1.296028
vt 0.3201483 1.271728
vt 0.3201483 1.271728
vt 0.2658836 1.249251
vt 0.2658836 1.249251
vt 0.2159333 1.210923
vt 0.2159333 1.210923
vt 0.1689095 1.17484
vt 0.1689095 1.17484
vt 0.1315039 1.126092
vt 0.1315039 1.126092
vt 0.09449863 1.077866
vt 0.09449863 1.077866
vt 0.07059621 1.020161
vt 0.07059621 1.020161
vt 0.04772198 0.9649373
vt 0.04772198 0.9649373
vt 0.03956969 0.9030144
vt 0.03956969 0.9030144
vt 0.0317674 0.8437499
vt 0.0317674 0.8437499
vt 0.03988831 0.7820652
vt 0.03988831 0.7820652
vt 0.04772198 0.7225624
vt 0.04772198 0.7225624
vt 0.07090142 0.6666023
vt 0.07090142 0.6666023
vt 0.09449863 0.6096335
vt 0.09449863 0.6096335
vt 0.1306183 0.5625615
vt 0.1306183 0.5625615
vt 0.1689096 0.5126593
vt 0.1689096 0.5126593
vt 0.2175757 0.4753166
vt 0.2175757 0.4753166
vt 0.2658838 0.4382485
vt 0.2658838 0.4382485
vt 0.3224867 0.4148028
vt 0.3224867 0.4148028
vt 0.3788126 0.3914719
vt 0.3788126 0.3914719
vt 0.4394239 0.3834924
vt 0.4394239 0.3834924
vt 0.5 0.3755175
vt 0.5 0.3755175
vt 0.5596716 0.3833734
vt 0.5596716 0.3833734
vt 0.6211874 0.391472
vt 0.6211874 0.391472
vt 0.6764581 0.4143659
vt 0.6764581 0.4143659
vt 0.7341164 0.4382487
vt 0.7341164 0.4382487
vt 0.7814785 0.474591
vt 0.7814785 0.474591
vt 0.8310904 0.5126595
vt 0.8310904 0.5126595
vt 0.8682121 0.5610375
vt 0.8682121 0.5610375
vt 0.9055012 0.6096337
vt 0.9055012 0.6096337
vt 0.9287128 0.6656714
vt 0.9287128 0.6656714
vt 0.9522778 0.7225624
vt 0.9522778 0.7225624
vt 0.5 1.490116E-08
vt 0.5 0.15
vt 0.6104854 0.04576458
vt 0.3895146 0.04576458
vt 0.65625 0.15625
vt 0.34375 0.15625
vt 0.6104854 0.2667354
vt 0.3895146 0.2667354
vt 0.5 0.3125
vt 0.6104854 0.9542354
vt 0.5 0.8375
vt 0.5 1
vt 0.65625 0.84375
vt 0.3895146 0.9542354
vt 0.6104854 0.7332646
vt 0.34375 0.84375
vt 0.5 0.6875
vt 0.3895146 0.7332646
vt 0.5 0.8250205
vn 0 1 0
vn 0 1 0
vn 0 1 0
vn 0 1 0
vn 0 1 0
vn 0 1 0
vn 0 1 0
vn 0 1 0
vn 0 1 0
vn 0 1 0
vn 0 1 0
vn 0 1 0
vn 0.7043584 -6.938758E-05 -0.7098445
vn 0.7041569 -6.966999E-05 -0.7100444
vn 0 -0.0004799161 -0.9999999
vn 0 -0.0004799161 -0.9999999
vn -0.7041569 -6.966227E-05 -0.7100444
vn -0.7043584 -6.937985E-05 -0.7098445
vn -0.7043584 -6.937985E-05 -0.7098445
vn -0.7041569 -6.966227E-05 -0.7100444
vn -1 0.0003441783 0
vn -1 0.0003441783 0
vn -0.7041569 -6.967467E-05 0.7100444
vn -0.7043585 -6.939225E-05 0.7098445
vn -0.7043585 -6.939225E-05 0.7098445
vn -0.7041569 -6.967467E-05 0.7100444
vn -1.59215E-07 -0.0004799257 0.9999999
vn -1.591649E-07 -0.0004799257 0.9999999
vn 0.7041569 -6.967856E-05 0.7100444
vn 0.7043585 -6.939613E-05 0.7098445
vn 0.7043585 -6.939613E-05 0.7098445
vn 0.7041569 -6.967856E-05 0.7100444
vn 1 0.0003441682 -1.247983E-07
vn 1 0.0003441682 -1.248299E-07
vn 0.7041569 -6.966999E-05 -0.7100444
vn 0.7043584 -6.938758E-05 -0.7098445
vn 0 0.5821787 -0.8130608
vn 0 0.9111269 -0.4121261
vn 0 0.9111269 -0.4121261
vn 0 0.5821787 -0.8130608
vn 0 0.2800532 -0.9599845
vn 0 0.2800532 -0.9599844
vn 0 1 0
vn 0 1 0
vn 0 1 0
vn 0 1 0
vn 1.421067E-07 1 0
vn 1.420543E-07 1 0
vn 1.390885E-07 1 0
vn 1.390885E-07 1 0
vn 0 -1 0
vn 0 -1 0
vn 0 -1 0
vn 0 -1 0
vn 0 -1 0
vn 0 -1 0
vn 0 -1 0
vn 0 -1 0
vn -0.6616671 0.7497916 -0.003012959
vn -0.6303793 0.7762838 -0.002323222
vn -0.634955 0.7725371 -0.00432741
vn -0.6595845 0.7512988 -0.0223253
vn -0.6651768 0.7466794 -0.003091573
vn -0.6677459 0.7437125 -0.03173649
vn -0.6572821 0.6890011 -0.3053812
vn -0.6598169 0.6939883 -0.2881352
vn -0.5525355 0.6709729 -0.4944692
vn -0.5278941 0.6700667 -0.5218606
vn 0.6056728 0.7957019 -0.004352416
vn 0.6666849 0.7453299 -0.003815513
vn 0.6744515 0.7379834 -0.02226081
vn 0.6755536 0.7369083 -0.02436266
vn 0.6731512 0.7394954 -0.003754906
vn 0.6520864 0.7023385 -0.2854894
vn 0.6567609 0.7059432 -0.2651591
vn 0.5462792 0.6831585 -0.4846375
vn 0.4991073 0.6767783 -0.5411681
vn -0.006933253 -0.9996371 0.02602892
vn -0.1898271 -0.6756337 0.7123796
vn -0.09603591 -0.6772007 0.7295042
vn -0.01010286 -0.9996514 0.02439099
vn -0.2816533 -0.6769913 0.6799664
vn -0.01346231 -0.9996376 0.02331431
vn -0.3686258 -0.6756805 0.6384129
vn -0.01606371 -0.9996518 0.02093345
vn -0.4480195 -0.6770247 0.5838802
vn -0.01912754 -0.9996364 0.01900577
vn -0.5229623 -0.6755559 0.5197449
vn -0.0208979 -0.999653 0.01603763
vn -0.5838163 -0.6771225 0.4479552
vn -0.02349643 -0.9996341 0.01339458
vn -0.6405563 -0.6754259 0.3653592
vn -0.02419309 -0.999657 0.01002095
vn -0.6795486 -0.6774859 0.2814719
vn -0.02615706 -0.999633 0.007059115
vn -0.7120483 -0.675337 0.1921127
vn -0.02602984 -0.9996552 0.003425804
vn -0.7293863 -0.6773275 0.09603725
vn -0.02705647 -0.9996339 7.778079E-05
vn -0.02605018 -0.9996548 -0.003431451
vn -0.7374531 -0.6753953 0.002063319
vn -0.7294328 -0.67728 -0.09601827
vn -0.02615985 -0.9996337 -0.006943622
vn -0.7127918 -0.6753743 -0.1892021
vn -0.02424812 -0.9996555 -0.01004443
vn -0.6796712 -0.6773453 -0.2815142
vn -0.02343853 -0.9996364 -0.01333035
vn -0.6407781 -0.675568 -0.3647071
vn -0.02099969 -0.9996496 -0.01611413
vn -0.5840165 -0.6768333 -0.448131
vn -0.01900902 -0.9996378 -0.01905099
vn -0.5207691 -0.6757082 -0.5217451
vn -0.01600173 -0.9996544 -0.02085668
vn -0.4479135 -0.677249 -0.5837013
vn -0.01363372 -0.9996357 -0.02329208
vn -0.3723529 -0.6755332 -0.6364026
vn -0.01008369 -0.9996526 -0.02434977
vn -0.2816357 -0.6770921 -0.6798732
vn -0.007121159 -0.9996377 -0.02595446
vn -0.1949044 -0.6756653 -0.7109773
vn -0.003455507 -0.9996494 -0.02625122
vn -0.09609304 -0.6768134 -0.729856
vn 1.116684E-07 -0.9996395 -0.02684995
vn -2.692743E-05 -0.6758373 -0.7370508
vn 0.003451135 -0.9996508 -0.02619701
vn 0.09604955 -0.6769384 -0.7297458
vn 0.006852951 -0.9996403 -0.02592946
vn 0.1884035 -0.6758689 -0.7125344
vn 0.01013889 -0.999649 -0.02447455
vn 0.2817145 -0.6767809 -0.6801504
vn 0.01342182 -0.9996392 -0.02326919
vn 0.3682742 -0.6757764 -0.6385142
vn 0.01608797 -0.9996507 -0.02096659
vn 0.4480808 -0.6769284 -0.5839447
vn 0.01919189 -0.9996356 -0.01898628
vn 0.5240474 -0.6755105 -0.51871
vn 0.02081247 -0.9996558 -0.01597033
vn 0.5836253 -0.6773738 -0.4478241
vn 0.02358056 -0.9996314 -0.01345215
vn 0.6406528 -0.6752034 -0.3656015
vn 0.02418094 -0.9996574 -0.01001744
vn -0.006933253 -0.9996371 0.02602892
vn -0.09603591 -0.6772007 0.7295042
vn -0.003434912 -0.9996538 0.02608655
vn -0.0007208571 -0.6754696 0.7373874
vn -0.1215987 0.3632432 0.9237251
vn -0.1898271 -0.6756337 0.7123796
vn -0.0009126518 0.3613324 0.9324366
vn -0.2400885 0.3615212 0.9009217
vn -0.3565805 0.3630145 0.8608547
vn -0.2816533 -0.6769913 0.6799664
vn 0.1215849 0.363351 0.9236845
vn 0.09601987 -0.6772947 0.729419
vn 0.1888786 -0.6754676 0.7127892
vn 0.2388573 0.3613404 0.9013214
vn 0.3565179 0.3632134 0.8607967
vn 0.2815745 -0.6771677 0.6798232
vn 0.3668682 -0.6755805 0.6395301
vn 0.4639633 0.3614633 0.8087535
vn 0.5671828 0.3631101 0.7392259
vn 0.4479824 -0.6770737 0.5838519
vn 0.5208793 -0.6755539 0.5218349
vn 0.6586992 0.3614375 0.6599079
vn 0.7391831 0.363173 0.5671981
vn 0.5837972 -0.6771326 0.4479646
vn 0.6376994 -0.6756632 0.3698903
vn 0.8065102 0.3615519 0.4677835
vn 0.8608611 0.3629867 0.3565935
vn 0.6799902 -0.6769616 0.2816672
vn 0.8998466 0.3614595 -0.2441788
vn 0.3934883 0.9130931 -0.1069023
vn 0.3721482 0.9152819 -0.1541582
vn 0.8606529 0.3635943 -0.356477
vn 0.8099227 0.3610526 -0.4622405
vn 0.355022 0.9126553 -0.2025335
vn 0.3198782 0.9151105 -0.2454602
vn 0.7391092 0.3634418 -0.5671223
vn 0.6626427 0.3613909 -0.6559736
vn 0.2899759 0.9130188 -0.2868983
vn 0.2461939 0.914573 -0.3208502
vn 0.5672536 0.3629518 -0.7392492
vn 0.203454 0.9133393 -0.3527294
vn 0.4657919 0.3616828 -0.8076035
vn 0.1549319 0.9143968 -0.3739979
vn 0.3565893 0.3627876 -0.8609467
vn 0.1039904 0.9134449 -0.3934518
vn 0.2383337 0.3617807 -0.9012833
vn 0.05281441 0.9145849 -0.4009304
vn 0.1215761 0.3629605 -0.9238392
vn -4.852267E-06 0.9133837 -0.4070998
vn -4.62965E-05 0.3617387 -0.9322795
vn -0.05282083 0.9144338 -0.401274
vn -0.121644 0.3628191 -0.9238858
vn -0.1078047 0.9132134 -0.3929627
vn -0.2464527 0.3615581 -0.8991867
vn -0.1545642 0.9147739 -0.3732273
vn -0.3566055 0.3631286 -0.8607962
vn -0.206031 0.9130388 -0.3520102
vn -0.4708372 0.3614103 -0.804795
vn -0.2456442 0.914959 -0.3201702
vn -0.5671964 0.3633033 -0.7391204
vn -0.2877996 0.9132326 -0.2884053
vn -0.6586661 0.361604 -0.6598496
vn -0.3210558 0.9144567 -0.2463574
vn -0.7392862 0.3628481 -0.5672716
vn -0.3544232 0.9130926 -0.2016086
vn -0.8102975 0.3614537 -0.461269
vn -0.3725797 0.9150747 -0.154346
vn -0.8607247 0.363406 -0.3564954
vn -0.3946252 0.9128534 -0.1047355
vn -0.9012623 0.3612384 -0.2392344
vn -0.4000098 0.9149957 -0.05267908
vn -0.9236903 0.3633386 -0.1215782
vn -0.4082346 0.9128762 0.001170349
vn -0.9324605 0.3612626 0.002593897
vn -0.3998854 0.9150528 0.05263058
vn -0.9236651 0.3633864 0.1216275
vn -0.3943113 0.9127945 0.1064183
vn -0.9003068 0.3611854 0.2428847
vn -0.3722329 0.9152418 0.1541914
vn -0.8606669 0.3635517 0.3564864
vn -0.8099391 0.3612847 0.4620304
vn -0.3545918 0.9129052 0.2021603
vn -0.3204131 0.9148078 0.2458905
vn -0.7392111 0.3631623 0.5671684
vn -0.6613174 0.361443 0.6572809
vn -0.2892474 0.9130874 0.2874151
vn -0.2460467 0.9146865 0.3206394
vn -0.5672143 0.3630506 0.7392308
vn -0.4662059 0.3615649 0.8074174
vn -0.2037683 0.9132046 0.3528964
vn -0.1546978 0.9146481 0.3734803
vn -0.3565805 0.3630145 0.8608547
vn -0.2400885 0.3615212 0.9009217
vn -0.1049183 0.9131649 0.3938555
vn -0.05269955 0.9148952 0.4002369
vn -0.1215987 0.3632432 0.9237251
vn -0.0009126518 0.3613324 0.9324366
vn -0.0003965709 0.9129488 0.4080738
vn 0.05266986 0.915014 0.399969
vn 0.1215849 0.363351 0.9236845
vn 0.2388573 0.3613404 0.9013214
vn 0.1044857 0.9129587 0.3944478
vn 0.1545348 0.9148607 0.3730268
vn 0.3565179 0.3632134 0.8607967
vn 0.4639633 0.3614633 0.8087535
vn 0.2028627 0.9130946 0.353702
vn 0.2459721 0.914748 0.3205212
vn 0.5671828 0.3631101 0.7392259
vn 0.6586992 0.3614375 0.6599079
vn 0.2880855 0.9130758 0.2886164
vn 0.3204108 0.9148175 0.2458578
vn 0.7391831 0.363173 0.5671981
vn 0.8065102 0.3615519 0.4677835
vn 0.352507 0.9131905 0.2045042
vn 0.3735554 0.9146127 0.1547253
vn 0.8608611 0.3629867 0.3565935
vn 0.9005578 0.3615567 0.2413969
vn 0.3936242 0.9131984 0.105493
vn 0.4004479 0.9148017 0.05271909
vn 0.9237563 0.3631582 0.1216158
vn 0.9323368 0.3615825 0.002488171
vn 0.4074555 0.9132243 0.001148777
vn 0.4011757 0.9144768 -0.05282171
vn 0.9238735 0.3628572 -0.1216245
vn 0.8998466 0.3614595 -0.2441788
vn 0.3934883 0.9130931 -0.1069023
vn -0.6796712 -0.6773453 -0.2815142
vn -0.9012623 0.3612384 -0.2392344
vn -0.7127918 -0.6753743 -0.1892021
vn -0.8607247 0.363406 -0.3564954
vn -0.6407781 -0.675568 -0.3647071
vn -0.8102975 0.3614537 -0.461269
vn -0.3725797 0.9150747 -0.154346
vn -0.5840165 -0.6768333 -0.448131
vn -0.7392862 0.3628481 -0.5672716
vn -0.5207691 -0.6757082 -0.5217451
vn -0.6586661 0.361604 -0.6598496
vn -0.3210558 0.9144567 -0.2463574
vn -0.4479135 -0.677249 -0.5837013
vn -0.5671964 0.3633033 -0.7391204
vn -0.3723529 -0.6755332 -0.6364026
vn -0.4708372 0.3614103 -0.804795
vn -0.2816357 -0.6770921 -0.6798732
vn -0.3566055 0.3631286 -0.8607962
vn -0.1949044 -0.6756653 -0.7109773
vn -0.2464527 0.3615581 -0.8991867
vn -0.09609304 -0.6768134 -0.729856
vn -0.121644 0.3628191 -0.9238858
vn -2.692743E-05 -0.6758373 -0.7370508
vn -4.62965E-05 0.3617387 -0.9322795
vn 0.09604955 -0.6769384 -0.7297458
vn 0.1215761 0.3629605 -0.9238392
vn 0.1884035 -0.6758689 -0.7125344
vn 0.2383337 0.3617807 -0.9012833
vn 0.2817145 -0.6767809 -0.6801504
vn 0.3565893 0.3627876 -0.8609467
vn 0.3682742 -0.6757764 -0.6385142
vn 0.4657919 0.3616828 -0.8076035
vn 0.4480808 -0.6769284 -0.5839447
vn 0.4657919 0.3616828 -0.8076035
vn 0.3682742 -0.6757764 -0.6385142
vn 0.5672536 0.3629518 -0.7392492
vn 0.5240474 -0.6755105 -0.51871
vn 0.6626427 0.3613909 -0.6559736
vn 0.7391092 0.3634418 -0.5671223
vn 0.5836253 -0.6773738 -0.4478241
vn 0.6406528 -0.6752034 -0.3656015
vn 0.8099227 0.3610526 -0.4622405
vn 0.8606529 0.3635943 -0.356477
vn 0.6795232 -0.6775166 -0.2814595
vn 0.02418094 -0.9996574 -0.01001744
vn 0.02602299 -0.9996363 -0.007070601
vn 0.7115415 -0.6755801 -0.1931327
vn 0.8998466 0.3614595 -0.2441788
vn -0.3686258 -0.6756805 0.6384129
vn -0.3565805 0.3630145 0.8608547
vn -0.2816533 -0.6769913 0.6799664
vn -0.4662059 0.3615649 0.8074174
vn -0.5672143 0.3630506 0.7392308
vn -0.4480195 -0.6770247 0.5838802
vn -0.5229623 -0.6755559 0.5197449
vn -0.6613174 0.361443 0.6572809
vn -0.7392111 0.3631623 0.5671684
vn -0.5838163 -0.6771225 0.4479552
vn -0.6405563 -0.6754259 0.3653592
vn -0.8099391 0.3612847 0.4620304
vn -0.8606669 0.3635517 0.3564864
vn -0.6795486 -0.6774859 0.2814719
vn -0.7120483 -0.675337 0.1921127
vn -0.9003068 0.3611854 0.2428847
vn -0.7293863 -0.6773275 0.09603725
vn -0.9236651 0.3633864 0.1216275
vn -0.7374531 -0.6753953 0.002063319
vn -0.02705647 -0.9996339 7.778079E-05
vn -0.9324605 0.3612626 0.002593897
vn -0.7294328 -0.67728 -0.09601827
vn -0.9236903 0.3633386 -0.1215782
vn -0.7127918 -0.6753743 -0.1892021
vn -0.9012623 0.3612384 -0.2392344
vn 0.8048559 0.5934703 0
vn 0.4117075 0.911316 0
vn 0.4117076 0.911316 0
vn 0.8048561 0.5934701 0
vn 0 1 0
vn 0 1 0
vn 0 1 0
vn 0 1 0
vn 0 1 1.967278E-07
vn 0 1 1.969982E-07
vn 0 1 2.141876E-07
vn 0 1 2.141876E-07
vn 0 -1 0
vn 0 -1 0
vn 0 -1 0
vn 0 -1 0
vn 0 -1 0
vn 0 -1 0
vn 0 -1 0
vn 0 -1 0
vn 0.003099133 0.7097928 -0.7044038
vn 0.002415602 0.7387983 -0.6739224
vn 0.00449411 0.7343493 -0.6787569
vn 0.0230702 0.7112821 -0.7025281
vn 0.003170973 0.7066573 -0.7075489
vn 0.03177025 0.703366 -0.7101175
vn 0.2139682 0.6432174 -0.7351795
vn 0.1950166 0.6544886 -0.7304884
vn 0.5462792 0.6831585 -0.4846375
vn 0.4991073 0.6767783 -0.5411681
vn 0.004543088 0.7602154 0.6496553
vn 0.003911742 0.7048357 0.7093599
vn 0.02274565 0.6971821 0.7165332
vn 0.02443147 0.6960919 0.7175368
vn 0.003846519 0.698981 0.7151299
vn 0.2083559 0.6469208 0.7335404
vn 0.1816988 0.6567095 0.7319277
vn 0.5595977 0.6626418 0.4977511
vn 0.531716 0.6611845 0.5292571
vn 0.9607404 0.2774489 0
vn 0.8048559 0.5934703 0
vn 0.8048561 0.5934701 0
vn 0.9607404 0.2774489 0
vn 0 0.5821787 0.8130609
vn 0 0.9111269 0.4121261
vn 0 0.9111269 0.412126
vn 0 0.5821788 0.8130608
vn 0 0.2800532 0.9599845
vn 0 0.2800532 0.9599845
vn 0 1 0
vn 0 1 0
vn 0 1 0
vn 0 1 0
vn -1.421451E-07 1 0
vn -1.420923E-07 1 0
vn -1.390885E-07 1 0
vn -1.390885E-07 1 0
vn 0 -1 0
vn 0 -1 0
vn 0 -1 0
vn 0 -1 0
vn 0 -1 0
vn 0 -1 0
vn 0 -1 0
vn 0 -1 0
vn 0.6616737 0.7497857 0.003064402
vn 0.6303357 0.7763191 0.002366257
vn 0.634996 0.7725029 0.004407199
vn 0.6596359 0.7512434 0.0226667
vn 0.6651748 0.7466811 0.003143649
vn 0.6677744 0.7436684 0.03216632
vn 0.6601275 0.6849228 0.3084031
vn 0.6623878 0.6903927 0.2908612
vn 0.5595977 0.6626418 0.4977511
vn 0.531716 0.6611845 0.5292571
vn -0.6055853 0.795768 0.004433273
vn -0.666698 0.7453179 0.003880405
vn -0.6744651 0.7379615 0.02257703
vn -0.6755807 0.7368724 0.02469414
vn -0.6731475 0.7394983 0.003818268
vn -0.6521375 0.702267 0.2855485
vn -0.6568063 0.7058806 0.2652133
vn -0.5463114 0.6830541 0.4847482
vn -0.4992012 0.6766905 0.5411915
vn -0.8048573 0.5934684 0
vn -0.411707 0.9113163 0
vn -0.411707 0.9113163 0
vn -0.8048571 0.5934686 0
vn -0.9607416 0.2774446 0
vn -0.9607416 0.2774446 0
vn 0 1 0
vn 0 1 0
vn 0 1 0
vn 0 1 0
vn 0 1 -1.985584E-07
vn 0 1 -1.988458E-07
vn 0 1 -2.172029E-07
vn 0 1 -2.172029E-07
vn 0 -1 0
vn 0 -1 0
vn 0 -1 0
vn 0 -1 0
vn 0 -1 0
vn 0 -1 0
vn 0 -1 0
vn 0 -1 0
vn -0.00313859 0.7097878 0.7044085
vn -0.002449258 0.73883 0.6738874
vn -0.004556341 0.7343192 0.678789
vn -0.02332988 0.7112346 0.7025675
vn -0.003210803 0.7066585 0.7075475
vn -0.03208632 0.7033306 0.7101385
vn -0.2139894 0.6431955 0.7351925
vn -0.1950319 0.6544726 0.7304985
vn -0.5463114 0.6830541 0.4847482
vn -0.4992012 0.6766905 0.5411915
vn -0.004606547 0.7602749 -0.6495851
vn -0.003961311 0.7048264 -0.7093687
vn -0.02298247 0.6971635 -0.7165437
vn -0.02467561 0.6960632 -0.7175563
vn -0.003894885 0.6989838 -0.7151268
vn -0.2028063 0.6519148 -0.7306687
vn -0.1773591 0.6603943 -0.7296732
vn -0.5525355 0.6709729 -0.4944692
vn -0.5278941 0.6700667 -0.5218606
vn 0 -1 0
vn 0 -1 0
vn 0 -1 0
vn 0 -1 0
vn -0.003434912 -0.9996538 0.02608655
vn -0.0007208571 -0.6754696 0.7373874
vn -2.626336E-05 -0.9996346 0.02702894
vn 0.09601987 -0.6772947 0.729419
vn 0.003429628 -0.9996549 0.02604384
vn 0.1888786 -0.6754676 0.7127892
vn 0.006919304 -0.9996349 0.02612282
vn 0.2815745 -0.6771677 0.6798232
vn 0.01007482 -0.9996535 0.02431915
vn 0.3668682 -0.6755805 0.6395301
vn 0.01341598 -0.9996364 0.02339169
vn 0.4479824 -0.6770737 0.5838519
vn 0.0160508 -0.9996524 0.02091539
vn 0.5208793 -0.6755539 0.5218349
vn 0.01905414 -0.9996362 0.0190892
vn 0.5837972 -0.6771326 0.4479646
vn 0.02089653 -0.9996531 0.01603433
vn 0.6376994 -0.6756632 0.3698903
vn 0.02329103 -0.9996374 0.01351265
vn 0.6799902 -0.6769616 0.2816672
vn 0.02440249 -0.9996512 0.01010735
vn 0.7120723 -0.6756655 0.1908642
vn 0.02600469 -0.9996375 0.0069691
vn 0.7295762 -0.6771209 0.09605083
vn 0.02611974 -0.999653 0.003438676
vn 0.7371793 -0.6756942 0.001992135
vn 0.02691302 -0.9996378 7.589265E-05
vn 0.729822 -0.6768517 -0.09608073
vn 0.02623594 -0.9996499 -0.003454435
vn 0.7115415 -0.6755801 -0.1931327
vn 0.02602299 -0.9996363 -0.007070601
vn 0.9238735 0.3628572 -0.1216245
vn 0.8998466 0.3614595 -0.2441788
vn 0.7115415 -0.6755801 -0.1931327
vn 0.729822 -0.6768517 -0.09608073
vn 0.7371793 -0.6756942 0.001992135
vn 0.9323368 0.3615825 0.002488171
vn 0.9237563 0.3631582 0.1216158
vn 0.7295762 -0.6771209 0.09605083
vn 0.7120723 -0.6756655 0.1908642
vn 0.9005578 0.3615567 0.2413969
vn 0.8608611 0.3629867 0.3565935
vn 0.6799902 -0.6769616 0.2816672
vn 0.01919189 -0.9996356 -0.01898628
vn 0 -1 0
vn 0.02081247 -0.9996558 -0.01597033
vn 0.01608797 -0.9996507 -0.02096659
vn 0.02358056 -0.9996314 -0.01345215
vn 0.01342182 -0.9996392 -0.02326919
vn 0.02418094 -0.9996574 -0.01001744
vn 0.01013889 -0.999649 -0.02447455
vn 0.02602299 -0.9996363 -0.007070601
vn 0.006852951 -0.9996403 -0.02592946
vn 0.02623594 -0.9996499 -0.003454435
vn 0.003451135 -0.9996508 -0.02619701
vn 0.02691302 -0.9996378 7.589265E-05
vn 1.116684E-07 -0.9996395 -0.02684995
vn 0.02611974 -0.999653 0.003438676
vn -0.003455507 -0.9996494 -0.02625122
vn 0.02600469 -0.9996375 0.0069691
vn -0.007121159 -0.9996377 -0.02595446
vn 0.02440249 -0.9996512 0.01010735
vn -0.01008369 -0.9996526 -0.02434977
vn 0.02329103 -0.9996374 0.01351265
vn -0.01363372 -0.9996357 -0.02329208
vn 0.02089653 -0.9996531 0.01603433
vn -0.01600173 -0.9996544 -0.02085668
vn 0.01905414 -0.9996362 0.0190892
vn -0.01900902 -0.9996378 -0.01905099
vn 0.0160508 -0.9996524 0.02091539
vn -0.02099969 -0.9996496 -0.01611413
vn 0.01341598 -0.9996364 0.02339169
vn -0.02343853 -0.9996364 -0.01333035
vn 0.01007482 -0.9996535 0.02431915
vn -0.02424812 -0.9996555 -0.01004443
vn 0.006919304 -0.9996349 0.02612282
vn -0.02615985 -0.9996337 -0.006943622
vn 0.003429628 -0.9996549 0.02604384
vn -0.02605018 -0.9996548 -0.003431451
vn -2.626336E-05 -0.9996346 0.02702894
vn -0.02705647 -0.9996339 7.778079E-05
vn -0.003434912 -0.9996538 0.02608655
vn -0.02602984 -0.9996552 0.003425804
vn -0.006933253 -0.9996371 0.02602892
vn -0.02615706 -0.999633 0.007059115
vn -0.01010286 -0.9996514 0.02439099
vn -0.02419309 -0.999657 0.01002095
vn -0.01346231 -0.9996376 0.02331431
vn -0.02349643 -0.9996341 0.01339458
vn -0.01606371 -0.9996518 0.02093345
vn -0.0208979 -0.999653 0.01603763
vn -0.01912754 -0.9996364 0.01900577
vn 0.3934883 0.9130931 -0.1069023
vn 0 1 0
vn 0 1 0
vn 0 1 0
vn 0.3721482 0.9152819 -0.1541582
vn 0.4011757 0.9144768 -0.05282171
vn 0.355022 0.9126553 -0.2025335
vn 0 1 0
vn 0.4074555 0.9132243 0.001148777
vn 0 1 0
vn 0 1 0
vn 0.3198782 0.9151105 -0.2454602
vn 0 1 0
vn 0.4004479 0.9148017 0.05271909
vn 0.2899759 0.9130188 -0.2868983
vn 0 1 3.769414E-07
vn 0 1 4.068056E-07
vn 0.2461939 0.914573 -0.3208502
vn 0 1 0
vn 0.203454 0.9133393 -0.3527294
vn 0 1 2.350282E-07
vn 0.1549319 0.9143968 -0.3739979
vn 0 1 1.420429E-07
vn 0.1039904 0.9134449 -0.3934518
vn 0 1 -1.266277E-07
vn 0.05281441 0.9145849 -0.4009304
vn 0 1 0
vn -4.852267E-06 0.9133837 -0.4070998
vn 0 1 0
vn -0.05282083 0.9144338 -0.401274
vn 0 1 -1.335737E-07
vn -0.1078047 0.9132134 -0.3929627
vn 0 1 -2.229025E-07
vn -0.1545642 0.9147739 -0.3732273
vn 0 1 0
vn -0.206031 0.9130388 -0.3520102
vn 0 1 3.561398E-07
vn -0.2456442 0.914959 -0.3201702
vn 0 1 0
vn -0.2877996 0.9132326 -0.2884053
vn 0 1 3.217005E-07
vn -0.3210558 0.9144567 -0.2463574
vn 0 1 6.515245E-07
vn -0.3544232 0.9130926 -0.2016086
vn 0 1 0
vn -0.3725797 0.9150747 -0.154346
vn 0 1 0
vn -0.3946252 0.9128534 -0.1047355
vn 0 1 -6.556947E-07
vn -0.4000098 0.9149957 -0.05267908
vn 0 1 -6.796178E-07
vn -0.4082346 0.9128762 0.001170349
vn 0 1 0
vn -0.3998854 0.9150528 0.05263058
vn 0 1 -6.726239E-07
vn -0.3943113 0.9127945 0.1064183
vn 0 1 -6.218592E-07
vn -0.3722329 0.9152418 0.1541914
vn -0.3545918 0.9129052 0.2021603
vn 0 1 7.328217E-07
vn 0 1 6.328052E-07
vn -0.3204131 0.9148078 0.2458905
vn -0.2892474 0.9130874 0.2874151
vn 0 1 -3.468232E-07
vn 0 1 -3.045316E-07
vn -0.2460467 0.9146865 0.3206394
vn -0.2037683 0.9132046 0.3528964
vn 0 1 0
vn 0 1 0
vn -0.1546978 0.9146481 0.3734803
vn -0.1049183 0.9131649 0.3938555
vn 0 1 -1.324403E-07
vn 0 1 0
vn -0.05269955 0.9148952 0.4002369
vn -0.0003965709 0.9129488 0.4080738
vn 0 1 0
vn 0 1 1.712036E-07
vn 0.05266986 0.915014 0.399969
vn 0.1044857 0.9129587 0.3944478
vn 0 1 -1.31287E-07
vn 0 1 2.06003E-07
vn 0.1545348 0.9148607 0.3730268
vn 0.2028627 0.9130946 0.353702
vn 0 1 4.729843E-07
vn 0 1 0
vn 0.2459721 0.914748 0.3205212
vn 0.2880855 0.9130758 0.2886164
vn 0 1 -4.170535E-07
vn 0 1 -3.727151E-07
vn 0.3204108 0.9148175 0.2458578
vn 0.352507 0.9131905 0.2045042
vn 0 1 6.144757E-07
vn 0 1 6.601165E-07
vn 0.3735554 0.9146127 0.1547253
vn 0.3936242 0.9131984 0.105493
vn 0 1 0
vn 0 -1 0
vn 0 -1 0
vn 0 -1 0
vn 0 -1 0
vn 0 -1 0
vn 0 -1 0
vn 0 -1 0
vn 0 -1 0
vn 0 -1 0
vn 0 1 0
vn 0 1 0
vn 0 1 0
vn 0 1 0
vn 0 1 0
vn 0 1 0
vn 0 1 0
vn 0 1 0
vn 0 1 0
vn 0 1 0
g Table_Bar_002_Common_Prop_0
f 3/3/3 2/2/2 1/1/1
f 6/6/6 5/5/5 4/4/4
f 9/9/9 8/8/8 7/7/7
f 12/12/12 11/11/11 10/10/10
f 15/15/15 14/14/14 13/13/13
f 16/16/16 15/15/15 13/13/13
f 17/17/17 15/15/15 16/16/16
f 18/18/18 17/17/17 16/16/16
f 21/21/21 20/20/20 19/19/19
f 22/22/22 21/21/21 19/19/19
f 23/23/23 21/21/21 22/22/22
f 24/24/24 23/23/23 22/22/22
f 27/27/27 26/26/26 25/25/25
f 28/28/28 27/27/27 25/25/25
f 29/29/29 27/27/27 28/28/28
f 30/30/30 29/29/29 28/28/28
f 33/33/33 32/32/32 31/31/31
f 34/34/34 33/33/33 31/31/31
f 35/35/35 33/33/33 34/34/34
f 36/36/36 35/35/35 34/34/34
f 39/39/39 38/38/38 37/37/37
f 40/40/40 39/39/39 37/37/37
f 40/40/40 37/37/37 41/41/41
f 42/42/42 40/40/40 41/41/41
f 45/45/45 44/44/44 43/43/43
f 44/44/44 46/46/46 43/43/43
f 43/43/43 46/46/46 47/47/47
f 46/46/46 48/48/48 47/47/47
f 47/47/47 48/48/48 49/49/49
f 48/48/48 50/50/50 49/49/49
f 53/53/53 52/52/52 51/51/51
f 54/54/54 53/53/53 51/51/51
f 54/54/54 51/51/51 55/55/55
f 51/51/51 56/56/56 55/55/55
f 55/55/55 56/56/56 57/57/57
f 56/56/56 58/58/58 57/57/57
f 61/61/61 60/60/60 59/59/59
f 62/62/62 61/61/61 59/59/59
f 62/62/62 59/59/59 63/63/63
f 64/64/64 62/62/62 63/63/63
f 65/65/65 61/61/61 62/62/62
f 65/65/65 62/62/62 64/64/64
f 66/66/66 65/65/65 64/64/64
f 65/65/65 66/66/66 67/67/67
f 66/66/66 68/68/68 67/67/67
f 71/71/71 70/70/70 69/69/69
f 71/71/71 72/72/72 70/70/70
f 72/72/72 73/73/73 70/70/70
f 71/71/71 74/74/74 72/72/72
f 74/74/74 75/75/75 72/72/72
f 74/74/74 76/76/76 75/75/75
f 76/76/76 77/77/77 75/75/75
f 80/80/80 79/79/79 78/78/78
f 78/78/78 79/79/79 81/81/81
f 79/79/79 82/82/82 81/81/81
f 81/81/81 82/82/82 83/83/83
f 82/82/82 84/84/84 83/83/83
f 83/83/83 84/84/84 85/85/85
f 84/84/84 86/86/86 85/85/85
f 85/85/85 86/86/86 87/87/87
f 86/86/86 88/88/88 87/87/87
f 87/87/87 88/88/88 89/89/89
f 88/88/88 90/90/90 89/89/89
f 89/89/89 90/90/90 91/91/91
f 90/90/90 92/92/92 91/91/91
f 91/91/91 92/92/92 93/93/93
f 92/92/92 94/94/94 93/93/93
f 93/93/93 94/94/94 95/95/95
f 94/94/94 96/96/96 95/95/95
f 95/95/95 96/96/96 97/97/97
f 96/96/96 98/98/98 97/97/97
f 97/97/97 98/98/98 99/99/99
f 99/99/99 101/101/101 100/100/100
f 101/101/101 102/102/102 100/100/100
f 100/100/100 102/102/102 103/103/103
f 102/102/102 104/104/104 103/103/103
f 103/103/103 104/104/104 105/105/105
f 104/104/104 106/106/106 105/105/105
f 105/105/105 106/106/106 107/107/107
f 106/106/106 108/108/108 107/107/107
f 107/107/107 108/108/108 109/109/109
f 108/108/108 110/110/110 109/109/109
f 109/109/109 110/110/110 111/111/111
f 110/110/110 112/112/112 111/111/111
f 111/111/111 112/112/112 113/113/113
f 112/112/112 114/114/114 113/113/113
f 113/113/113 114/114/114 115/115/115
f 114/114/114 116/116/116 115/115/115
f 115/115/115 116/116/116 117/117/117
f 116/116/116 118/118/118 117/117/117
f 117/117/117 118/118/118 119/119/119
f 118/118/118 120/120/120 119/119/119
f 119/119/119 120/120/120 121/121/121
f 120/120/120 122/122/122 121/121/121
f 121/121/121 122/122/122 123/123/123
f 122/122/122 124/124/124 123/123/123
f 123/123/123 124/124/124 125/125/125
f 124/124/124 126/126/126 125/125/125
f 125/125/125 126/126/126 127/127/127
f 126/126/126 128/128/128 127/127/127
f 127/127/127 128/128/128 129/129/129
f 128/128/128 130/130/130 129/129/129
f 129/129/129 130/130/130 131/131/131
f 130/130/130 132/132/132 131/131/131
f 131/131/131 132/132/132 133/133/133
f 132/132/132 134/134/134 133/133/133
f 133/133/133 134/134/134 135/135/135
f 134/134/134 136/136/136 135/135/135
f 135/135/135 136/136/136 137/137/137
f 136/136/136 138/138/138 137/137/137
f 137/137/137 138/138/138 139/139/139
f 138/138/138 140/140/140 139/139/139
f 139/139/139 140/140/140 141/141/141
f 144/144/144 143/143/143 142/142/142
f 145/145/145 143/143/143 144/144/144
f 143/143/143 145/145/145 146/146/146
f 143/143/143 146/146/146 147/147/147
f 145/145/145 148/148/148 146/146/146
f 146/146/146 149/149/149 147/147/147
f 147/147/147 149/149/149 150/150/150
f 151/151/151 147/147/147 150/150/150
f 152/152/152 148/148/148 145/145/145
f 153/153/153 152/152/152 145/145/145
f 153/153/153 154/154/154 152/152/152
f 154/154/154 155/155/155 152/152/152
f 156/156/156 155/155/155 154/154/154
f 157/157/157 156/156/156 154/154/154
f 157/157/157 158/158/158 156/156/156
f 158/158/158 159/159/159 156/156/156
f 160/160/160 159/159/159 158/158/158
f 161/161/161 160/160/160 158/158/158
f 161/161/161 162/162/162 160/160/160
f 162/162/162 163/163/163 160/160/160
f 164/164/164 163/163/163 162/162/162
f 165/165/165 164/164/164 162/162/162
f 165/165/165 166/166/166 164/164/164
f 166/166/166 167/167/167 164/164/164
f 168/168/168 167/167/167 166/166/166
f 169/169/169 168/168/168 166/166/166
f 172/172/172 171/171/171 170/170/170
f 173/173/173 172/172/172 170/170/170
f 173/173/173 174/174/174 172/172/172
f 174/174/174 175/175/175 172/172/172
f 176/176/176 175/175/175 174/174/174
f 177/177/177 176/176/176 174/174/174
f 177/177/177 178/178/178 176/176/176
f 178/178/178 179/179/179 176/176/176
f 180/180/180 179/179/179 178/178/178
f 181/181/181 180/180/180 178/178/178
f 182/182/182 180/180/180 181/181/181
f 183/183/183 182/182/182 181/181/181
f 184/184/184 182/182/182 183/183/183
f 185/185/185 184/184/184 183/183/183
f 186/186/186 184/184/184 185/185/185
f 187/187/187 186/186/186 185/185/185
f 188/188/188 186/186/186 187/187/187
f 189/189/189 188/188/188 187/187/187
f 190/190/190 188/188/188 189/189/189
f 191/191/191 190/190/190 189/189/189
f 192/192/192 190/190/190 191/191/191
f 193/193/193 192/192/192 191/191/191
f 194/194/194 192/192/192 193/193/193
f 195/195/195 194/194/194 193/193/193
f 196/196/196 194/194/194 195/195/195
f 197/197/197 196/196/196 195/195/195
f 198/198/198 196/196/196 197/197/197
f 199/199/199 198/198/198 197/197/197
f 200/200/200 198/198/198 199/199/199
f 201/201/201 200/200/200 199/199/199
f 202/202/202 200/200/200 201/201/201
f 203/203/203 202/202/202 201/201/201
f 204/204/204 202/202/202 203/203/203
f 206/206/206 204/204/204 205/205/205
f 207/207/207 206/206/206 205/205/205
f 208/208/208 206/206/206 207/207/207
f 210/210/210 208/208/208 209/209/209
f 211/211/211 210/210/210 209/209/209
f 212/212/212 210/210/210 211/211/211
f 213/213/213 212/212/212 211/211/211
f 214/214/214 212/212/212 213/213/213
f 215/215/215 214/214/214 213/213/213
f 216/216/216 214/214/214 215/215/215
f 217/217/217 216/216/216 215/215/215
f 218/218/218 216/216/216 217/217/217
f 219/219/219 218/218/218 217/217/217
f 220/220/220 218/218/218 219/219/219
f 221/221/221 220/220/220 219/219/219
f 221/221/221 222/222/222 220/220/220
f 222/222/222 223/223/223 220/220/220
f 224/224/224 223/223/223 222/222/222
f 225/225/225 224/224/224 222/222/222
f 225/225/225 226/226/226 224/224/224
f 226/226/226 227/227/227 224/224/224
f 228/228/228 227/227/227 226/226/226
f 229/229/229 228/228/228 226/226/226
f 229/229/229 230/230/230 228/228/228
f 230/230/230 231/231/231 228/228/228
f 232/232/232 231/231/231 230/230/230
f 233/233/233 232/232/232 230/230/230
f 233/233/233 234/234/234 232/232/232
f 234/234/234 235/235/235 232/232/232
f 236/236/236 235/235/235 234/234/234
f 237/237/237 236/236/236 234/234/234
f 237/237/237 238/238/238 236/236/236
f 238/238/238 239/239/239 236/236/236
f 240/240/240 239/239/239 238/238/238
f 241/241/241 240/240/240 238/238/238
f 241/241/241 242/242/242 240/240/240
f 242/242/242 243/243/243 240/240/240
f 244/244/244 243/243/243 242/242/242
f 245/245/245 244/244/244 242/242/242
f 245/245/245 246/246/246 244/244/244
f 246/246/246 247/247/247 244/244/244
f 248/248/248 247/247/247 246/246/246
f 249/249/249 248/248/248 246/246/246
f 249/249/249 250/250/250 248/248/248
f 250/250/250 251/251/251 248/248/248
f 252/252/252 251/251/251 250/250/250
f 253/253/253 252/252/252 250/250/250
f 253/253/253 254/254/254 252/252/252
f 254/254/254 255/255/255 252/252/252
f 256/256/256 255/255/255 254/254/254
f 257/257/257 256/256/256 254/254/254
f 257/257/257 258/258/258 256/256/256
f 258/258/258 259/259/259 256/256/256
f 260/260/260 259/259/259 258/258/258
f 261/261/261 260/260/260 258/258/258
f 261/261/261 262/262/262 260/260/260
f 262/262/262 263/263/263 260/260/260
f 264/264/264 263/263/263 262/262/262
f 265/265/265 264/264/264 262/262/262
f 265/265/265 266/266/266 264/264/264
f 266/266/266 267/267/267 264/264/264
f 270/270/270 269/269/269 268/268/268
f 269/269/269 271/271/271 268/268/268
f 268/268/268 271/271/271 272/272/272
f 271/271/271 273/273/273 272/272/272
f 271/271/271 274/274/274 273/273/273
f 272/272/272 273/273/273 275/275/275
f 273/273/273 276/276/276 275/275/275
f 275/275/275 276/276/276 277/277/277
f 276/276/276 278/278/278 277/277/277
f 276/276/276 279/279/279 278/278/278
f 277/277/277 278/278/278 280/280/280
f 278/278/278 281/281/281 280/280/280
f 280/280/280 281/281/281 282/282/282
f 281/281/281 283/283/283 282/282/282
f 282/282/282 283/283/283 284/284/284
f 283/283/283 285/285/285 284/284/284
f 284/284/284 285/285/285 286/286/286
f 285/285/285 287/287/287 286/286/286
f 286/286/286 287/287/287 288/288/288
f 287/287/287 289/289/289 288/288/288
f 288/288/288 289/289/289 290/290/290
f 289/289/289 291/291/291 290/290/290
f 290/290/290 291/291/291 292/292/292
f 291/291/291 293/293/293 292/292/292
f 292/292/292 293/293/293 294/294/294
f 293/293/293 295/295/295 294/294/294
f 294/294/294 295/295/295 296/296/296
f 295/295/295 297/297/297 296/296/296
f 296/296/296 297/297/297 298/298/298
f 297/297/297 299/299/299 298/298/298
f 302/302/302 301/301/301 300/300/300
f 301/301/301 303/303/303 300/300/300
f 300/300/300 303/303/303 304/304/304
f 303/303/303 305/305/305 304/304/304
f 304/304/304 305/305/305 306/306/306
f 307/307/307 304/304/304 306/306/306
f 307/307/307 306/306/306 308/308/308
f 306/306/306 309/309/309 308/308/308
f 308/308/308 309/309/309 310/310/310
f 311/311/311 308/308/308 310/310/310
f 308/308/308 311/311/311 312/312/312
f 312/312/312 311/311/311 313/313/313
f 311/311/311 314/314/314 313/313/313
f 311/311/311 310/310/310 314/314/314
f 310/310/310 315/315/315 314/314/314
f 318/318/318 317/317/317 316/316/316
f 317/317/317 319/319/319 316/316/316
f 316/316/316 319/319/319 320/320/320
f 321/321/321 316/316/316 320/320/320
f 321/321/321 320/320/320 322/322/322
f 320/320/320 323/323/323 322/322/322
f 322/322/322 323/323/323 324/324/324
f 325/325/325 322/322/322 324/324/324
f 325/325/325 324/324/324 326/326/326
f 324/324/324 327/327/327 326/326/326
f 326/326/326 327/327/327 328/328/328
f 329/329/329 326/326/326 328/328/328
f 329/329/329 328/328/328 330/330/330
f 328/328/328 331/331/331 330/330/330
f 330/330/330 331/331/331 332/332/332
f 331/331/331 333/333/333 332/332/332
f 332/332/332 333/333/333 334/334/334
f 332/332/332 334/334/334 335/335/335
f 333/333/333 336/336/336 334/334/334
f 334/334/334 336/336/336 337/337/337
f 336/336/336 338/338/338 337/337/337
f 337/337/337 338/338/338 339/339/339
f 338/338/338 340/340/340 339/339/339
f 343/343/343 342/342/342 341/341/341
f 344/344/344 343/343/343 341/341/341
f 347/347/347 346/346/346 345/345/345
f 346/346/346 348/348/348 345/345/345
f 345/345/345 348/348/348 349/349/349
f 348/348/348 350/350/350 349/349/349
f 349/349/349 350/350/350 351/351/351
f 350/350/350 352/352/352 351/351/351
f 355/355/355 354/354/354 353/353/353
f 356/356/356 355/355/355 353/353/353
f 356/356/356 353/353/353 357/357/357
f 353/353/353 358/358/358 357/357/357
f 357/357/357 358/358/358 359/359/359
f 358/358/358 360/360/360 359/359/359
f 363/363/363 362/362/362 361/361/361
f 364/364/364 363/363/363 361/361/361
f 364/364/364 361/361/361 365/365/365
f 366/366/366 364/364/364 365/365/365
f 367/367/367 363/363/363 364/364/364
f 367/367/367 364/364/364 366/366/366
f 368/368/368 367/367/367 366/366/366
f 367/367/367 368/368/368 369/369/369
f 368/368/368 370/370/370 369/369/369
f 373/373/373 372/372/372 371/371/371
f 373/373/373 374/374/374 372/372/372
f 374/374/374 375/375/375 372/372/372
f 373/373/373 376/376/376 374/374/374
f 376/376/376 377/377/377 374/374/374
f 376/376/376 378/378/378 377/377/377
f 378/378/378 379/379/379 377/377/377
f 382/382/382 381/381/381 380/380/380
f 383/383/383 382/382/382 380/380/380
f 386/386/386 385/385/385 384/384/384
f 387/387/387 386/386/386 384/384/384
f 387/387/387 384/384/384 388/388/388
f 389/389/389 387/387/387 388/388/388
f 392/392/392 391/391/391 390/390/390
f 391/391/391 393/393/393 390/390/390
f 390/390/390 393/393/393 394/394/394
f 393/393/393 395/395/395 394/394/394
f 394/394/394 395/395/395 396/396/396
f 395/395/395 397/397/397 396/396/396
f 400/400/400 399/399/399 398/398/398
f 401/401/401 400/400/400 398/398/398
f 401/401/401 398/398/398 402/402/402
f 398/398/398 403/403/403 402/402/402
f 402/402/402 403/403/403 404/404/404
f 403/403/403 405/405/405 404/404/404
f 408/408/408 407/407/407 406/406/406
f 409/409/409 408/408/408 406/406/406
f 409/409/409 406/406/406 410/410/410
f 411/411/411 409/409/409 410/410/410
f 412/412/412 408/408/408 409/409/409
f 412/412/412 409/409/409 411/411/411
f 413/413/413 412/412/412 411/411/411
f 412/412/412 413/413/413 414/414/414
f 413/413/413 415/415/415 414/414/414
f 418/418/418 417/417/417 416/416/416
f 418/418/418 419/419/419 417/417/417
f 419/419/419 420/420/420 417/417/417
f 418/418/418 421/421/421 419/419/419
f 421/421/421 422/422/422 419/419/419
f 421/421/421 423/423/423 422/422/422
f 423/423/423 424/424/424 422/422/422
f 427/427/427 426/426/426 425/425/425
f 428/428/428 427/427/427 425/425/425
f 428/428/428 425/425/425 429/429/429
f 430/430/430 428/428/428 429/429/429
f 433/433/433 432/432/432 431/431/431
f 432/432/432 434/434/434 431/431/431
f 431/431/431 434/434/434 435/435/435
f 434/434/434 436/436/436 435/435/435
f 435/435/435 436/436/436 437/437/437
f 436/436/436 438/438/438 437/437/437
f 441/441/441 440/440/440 439/439/439
f 442/442/442 441/441/441 439/439/439
f 442/442/442 439/439/439 443/443/443
f 439/439/439 444/444/444 443/443/443
f 443/443/443 444/444/444 445/445/445
f 444/444/444 446/446/446 445/445/445
f 449/449/449 448/448/448 447/447/447
f 450/450/450 449/449/449 447/447/447
f 450/450/450 447/447/447 451/451/451
f 452/452/452 450/450/450 451/451/451
f 453/453/453 449/449/449 450/450/450
f 453/453/453 450/450/450 452/452/452
f 454/454/454 453/453/453 452/452/452
f 453/453/453 454/454/454 455/455/455
f 454/454/454 456/456/456 455/455/455
f 459/459/459 458/458/458 457/457/457
f 459/459/459 460/460/460 458/458/458
f 460/460/460 461/461/461 458/458/458
f 459/459/459 462/462/462 460/460/460
f 462/462/462 463/463/463 460/460/460
f 462/462/462 464/464/464 463/463/463
f 464/464/464 465/465/465 463/463/463
f 468/468/468 467/467/467 466/466/466
f 469/469/469 468/468/468 466/466/466
f 472/472/472 471/471/471 470/470/470
f 473/473/473 471/471/471 472/472/472
f 474/474/474 473/473/473 472/472/472
f 475/475/475 473/473/473 474/474/474
f 476/476/476 475/475/475 474/474/474
f 477/477/477 475/475/475 476/476/476
f 478/478/478 477/477/477 476/476/476
f 479/479/479 477/477/477 478/478/478
f 480/480/480 479/479/479 478/478/478
f 481/481/481 479/479/479 480/480/480
f 482/482/482 481/481/481 480/480/480
f 483/483/483 481/481/481 482/482/482
f 484/484/484 483/483/483 482/482/482
f 485/485/485 483/483/483 484/484/484
f 486/486/486 485/485/485 484/484/484
f 487/487/487 485/485/485 486/486/486
f 488/488/488 487/487/487 486/486/486
f 489/489/489 487/487/487 488/488/488
f 490/490/490 489/489/489 488/488/488
f 491/491/491 489/489/489 490/490/490
f 492/492/492 491/491/491 490/490/490
f 493/493/493 491/491/491 492/492/492
f 494/494/494 493/493/493 492/492/492
f 495/495/495 493/493/493 494/494/494
f 496/496/496 495/495/495 494/494/494
f 497/497/497 495/495/495 496/496/496
f 498/498/498 497/497/497 496/496/496
f 499/499/499 497/497/497 498/498/498
f 500/500/500 499/499/499 498/498/498
f 503/503/503 502/502/502 501/501/501
f 504/504/504 503/503/503 501/501/501
f 504/504/504 501/501/501 505/505/505
f 501/501/501 506/506/506 505/505/505
f 505/505/505 506/506/506 507/507/507
f 508/508/508 505/505/505 507/507/507
f 508/508/508 507/507/507 509/509/509
f 507/507/507 510/510/510 509/509/509
f 509/509/509 510/510/510 511/511/511
f 512/512/512 509/509/509 511/511/511
f 515/515/515 514/514/514 513/513/513
f 516/516/516 513/513/513 514/514/514
f 515/515/515 517/517/517 514/514/514
f 516/516/516 514/514/514 518/518/518
f 519/519/519 514/514/514 517/517/517
f 520/520/520 518/518/518 514/514/514
f 519/519/519 521/521/521 514/514/514
f 520/520/520 514/514/514 522/522/522
f 521/521/521 523/523/523 514/514/514
f 524/524/524 522/522/522 514/514/514
f 523/523/523 525/525/525 514/514/514
f 524/524/524 514/514/514 526/526/526
f 527/527/527 514/514/514 525/525/525
f 528/528/528 526/526/526 514/514/514
f 527/527/527 529/529/529 514/514/514
f 528/528/528 514/514/514 530/530/530
f 531/531/531 514/514/514 529/529/529
f 532/532/532 530/530/530 514/514/514
f 531/531/531 533/533/533 514/514/514
f 532/532/532 514/514/514 534/534/534
f 535/535/535 514/514/514 533/533/533
f 536/536/536 534/534/534 514/514/514
f 535/535/535 537/537/537 514/514/514
f 536/536/536 514/514/514 538/538/538
f 539/539/539 514/514/514 537/537/537
f 540/540/540 538/538/538 514/514/514
f 539/539/539 541/541/541 514/514/514
f 540/540/540 514/514/514 542/542/542
f 543/543/543 514/514/514 541/541/541
f 544/544/544 542/542/542 514/514/514
f 543/543/543 545/545/545 514/514/514
f 544/544/544 514/514/514 546/546/546
f 547/547/547 514/514/514 545/545/545
f 548/548/548 546/546/546 514/514/514
f 547/547/547 549/549/549 514/514/514
f 548/548/548 514/514/514 550/550/550
f 551/551/551 514/514/514 549/549/549
f 552/552/552 550/550/550 514/514/514
f 551/551/551 553/553/553 514/514/514
f 552/552/552 514/514/514 554/554/554
f 555/555/555 514/514/514 553/553/553
f 556/556/556 554/554/554 514/514/514
f 555/555/555 557/557/557 514/514/514
f 556/556/556 514/514/514 558/558/558
f 559/559/559 514/514/514 557/557/557
f 560/560/560 558/558/558 514/514/514
f 559/559/559 561/561/561 514/514/514
f 560/560/560 514/514/514 561/561/561
f 564/564/564 563/563/563 562/562/562
f 562/562/562 563/563/563 565/565/565
f 566/566/566 564/564/564 562/562/562
f 567/567/567 562/562/562 565/565/565
f 566/566/566 568/568/568 564/564/564
f 568/568/568 569/569/569 564/564/564
f 567/567/567 565/565/565 570/570/570
f 565/565/565 571/571/571 570/570/570
f 572/572/572 569/569/569 568/568/568
f 573/573/573 572/572/572 568/568/568
f 570/570/570 571/571/571 574/574/574
f 575/575/575 570/570/570 574/574/574
f 573/573/573 576/576/576 572/572/572
f 576/576/576 577/577/577 572/572/572
f 578/578/578 577/577/577 576/576/576
f 579/579/579 578/578/578 576/576/576
f 580/580/580 578/578/578 579/579/579
f 581/581/581 580/580/580 579/579/579
f 582/582/582 580/580/580 581/581/581
f 583/583/583 582/582/582 581/581/581
f 584/584/584 582/582/582 583/583/583
f 585/585/585 584/584/584 583/583/583
f 586/586/586 584/584/584 585/585/585
f 587/587/587 586/586/586 585/585/585
f 588/588/588 586/586/586 587/587/587
f 589/589/589 588/588/588 587/587/587
f 590/590/590 588/588/588 589/589/589
f 591/591/591 590/590/590 589/589/589
f 592/592/592 590/590/590 591/591/591
f 593/593/593 592/592/592 591/591/591
f 594/594/594 592/592/592 593/593/593
f 595/595/595 594/594/594 593/593/593
f 596/596/596 594/594/594 595/595/595
f 597/597/597 596/596/596 595/595/595
f 598/598/598 596/596/596 597/597/597
f 599/599/599 598/598/598 597/597/597
f 600/600/600 598/598/598 599/599/599
f 601/601/601 600/600/600 599/599/599
f 602/602/602 600/600/600 601/601/601
f 603/603/603 602/602/602 601/601/601
f 604/604/604 602/602/602 603/603/603
f 605/605/605 604/604/604 603/603/603
f 606/606/606 604/604/604 605/605/605
f 607/607/607 606/606/606 605/605/605
f 608/608/608 606/606/606 607/607/607
f 609/609/609 608/608/608 607/607/607
f 610/610/610 608/608/608 609/609/609
f 611/611/611 610/610/610 609/609/609
f 612/612/612 610/610/610 611/611/611
f 613/613/613 612/612/612 611/611/611
f 614/614/614 612/612/612 613/613/613
f 615/615/615 614/614/614 613/613/613
f 616/616/616 614/614/614 615/615/615
f 617/617/617 616/616/616 615/615/615
f 618/618/618 616/616/616 617/617/617
f 619/619/619 618/618/618 617/617/617
f 619/619/619 620/620/620 618/618/618
f 620/620/620 621/621/621 618/618/618
f 622/622/622 621/621/621 620/620/620
f 623/623/623 622/622/622 620/620/620
f 623/623/623 624/624/624 622/622/622
f 624/624/624 625/625/625 622/622/622
f 626/626/626 625/625/625 624/624/624
f 627/627/627 626/626/626 624/624/624
f 627/627/627 628/628/628 626/626/626
f 628/628/628 629/629/629 626/626/626
f 630/630/630 629/629/629 628/628/628
f 631/631/631 630/630/630 628/628/628
f 631/631/631 632/632/632 630/630/630
f 632/632/632 633/633/633 630/630/630
f 634/634/634 633/633/633 632/632/632
f 635/635/635 634/634/634 632/632/632
f 635/635/635 636/636/636 634/634/634
f 636/636/636 637/637/637 634/634/634
f 638/638/638 637/637/637 636/636/636
f 639/639/639 638/638/638 636/636/636
f 639/639/639 640/640/640 638/638/638
f 640/640/640 641/641/641 638/638/638
f 642/642/642 641/641/641 640/640/640
f 643/643/643 642/642/642 640/640/640
f 643/643/643 644/644/644 642/642/642
f 644/644/644 645/645/645 642/642/642
f 646/646/646 645/645/645 644/644/644
f 647/647/647 646/646/646 644/644/644
f 647/647/647 648/648/648 646/646/646
f 648/648/648 649/649/649 646/646/646
f 650/650/650 649/649/649 648/648/648
f 651/651/651 650/650/650 648/648/648
f 651/651/651 652/652/652 650/650/650
f 652/652/652 653/653/653 650/650/650
f 654/654/654 653/653/653 652/652/652
f 655/655/655 654/654/654 652/652/652
f 655/655/655 656/656/656 654/654/654
f 656/656/656 657/657/657 654/654/654
f 574/574/574 657/657/657 656/656/656
f 575/575/575 574/574/574 656/656/656
f 660/660/660 659/659/659 658/658/658
f 658/658/658 659/659/659 661/661/661
f 662/662/662 659/659/659 660/660/660
f 661/661/661 659/659/659 663/663/663
f 664/664/664 659/659/659 662/662/662
f 663/663/663 659/659/659 665/665/665
f 666/666/666 659/659/659 664/664/664
f 665/665/665 659/659/659 666/666/666
f 669/669/669 668/668/668 667/667/667
f 667/667/667 668/668/668 670/670/670
f 671/671/671 668/668/668 669/669/669
f 670/670/670 668/668/668 672/672/672
f 673/673/673 668/668/668 671/671/671
f 672/672/672 668/668/668 674/674/674
f 675/675/675 668/668/668 673/673/673
f 674/674/674 668/668/668 675/675/675
g Table_Bar_002_Common_Prop_1
f 564/564/564 676/676/676 563/563/563
f 565/565/565 563/563/563 676/676/676
f 564/564/564 569/569/569 676/676/676
f 565/565/565 676/676/676 571/571/571
f 572/572/572 676/676/676 569/569/569
f 574/574/574 571/571/571 676/676/676
f 572/572/572 577/577/577 676/676/676
f 574/574/574 676/676/676 657/657/657
f 578/578/578 676/676/676 577/577/577
f 654/654/654 657/657/657 676/676/676
f 578/578/578 580/580/580 676/676/676
f 654/654/654 676/676/676 653/653/653
f 582/582/582 676/676/676 580/580/580
f 650/650/650 653/653/653 676/676/676
f 582/582/582 584/584/584 676/676/676
f 650/650/650 676/676/676 649/649/649
f 586/586/586 676/676/676 584/584/584
f 646/646/646 649/649/649 676/676/676
f 586/586/586 588/588/588 676/676/676
f 646/646/646 676/676/676 645/645/645
f 590/590/590 676/676/676 588/588/588
f 642/642/642 645/645/645 676/676/676
f 590/590/590 592/592/592 676/676/676
f 642/642/642 676/676/676 641/641/641
f 594/594/594 676/676/676 592/592/592
f 638/638/638 641/641/641 676/676/676
f 594/594/594 596/596/596 676/676/676
f 638/638/638 676/676/676 637/637/637
f 598/598/598 676/676/676 596/596/596
f 634/634/634 637/637/637 676/676/676
f 598/598/598 600/600/600 676/676/676
f 634/634/634 676/676/676 633/633/633
f 602/602/602 676/676/676 600/600/600
f 630/630/630 633/633/633 676/676/676
f 602/602/602 604/604/604 676/676/676
f 630/630/630 676/676/676 629/629/629
f 606/606/606 676/676/676 604/604/604
f 626/626/626 629/629/629 676/676/676
f 606/606/606 608/608/608 676/676/676
f 626/626/626 676/676/676 625/625/625
f 610/610/610 676/676/676 608/608/608
f 622/622/622 625/625/625 676/676/676
f 610/610/610 612/612/612 676/676/676
f 622/622/622 676/676/676 621/621/621
f 614/614/614 676/676/676 612/612/612
f 618/618/618 621/621/621 676/676/676
f 614/614/614 616/616/616 676/676/676
f 618/618/618 676/676/676 616/616/616
