g Door_004_Common_Struc
v -0.5830282 2.169665 -0.1143811
v -0.5830282 2.169665 -0.01559402
v -0.5830282 1.078056E-17 -0.01559402
v -0.5830282 1.078056E-17 -0.1143811
v 0.5890902 1.078056E-17 -0.01559402
v 0.5890892 2.169665 -0.01559402
v 0.5890911 2.169665 -0.1143811
v 0.5890917 1.078056E-17 -0.1143811
v -0.5125585 0.01328612 -0.1143811
v -0.512557 0.01328612 -0.01559402
v -0.512557 2.099719 -0.01559402
v -0.5125585 2.099719 -0.1143811
v 0.5144626 2.099719 -0.1143811
v 0.5144626 2.099719 -0.01559402
v 0.5144626 0.01328612 -0.01559402
v 0.5144626 0.01328612 -0.1143811
v 0.5890892 2.169665 -0.01559402
v -0.5830282 2.169665 -0.01559402
v -0.5830282 2.169665 -0.1143811
v 0.5890911 2.169665 -0.1143811
v 0.5144626 0.01328612 -0.1143811
v 0.5144626 0.01328612 -0.01559402
v -0.512557 0.01328612 -0.01559402
v -0.5125585 0.01328612 -0.1143811
v 0.5144626 2.099719 -0.01559402
v 0.5144626 2.099719 -0.1143811
v -0.5125585 2.099719 -0.1143811
v -0.512557 2.099719 -0.01559402
v 0.5223796 0.01328612 -0.02742027
v -0.512418 0.01328612 -0.02742027
v -0.512418 2.099719 -0.02742027
v 0.5223796 2.099719 -0.02742027
v 0.5222409 0.01328612 -0.1038416
v 0.5222409 2.099719 -0.1038416
v -0.512557 2.099719 -0.1038416
v -0.512557 0.01328612 -0.1038416
v 0.5222409 0.01328612 -0.1038416
v 0.5223796 0.01328612 -0.02742027
v 0.5223796 2.099719 -0.02742027
v 0.5222409 2.099719 -0.1038416
v 0.5222409 2.099719 -0.1038416
v 0.5223796 2.099719 -0.02742027
v -0.512418 2.099719 -0.02742027
v -0.512557 2.099719 -0.1038416
v -0.512557 2.099719 -0.1038416
v -0.512418 2.099719 -0.02742027
v -0.512418 0.01328612 -0.02742027
v -0.512557 0.01328612 -0.1038416
v -0.512557 0.01328612 -0.1038416
v -0.512418 0.01328612 -0.02742027
v 0.5223796 0.01328612 -0.02742027
v 0.5222409 0.01328612 -0.1038416
v -0.5830282 1.078056E-17 -0.01559402
v -0.512557 2.099719 -0.01559402
v -0.512557 0.01328612 -0.01559402
v 0.5144626 0.01328612 -0.01559402
v -0.5830282 2.169665 -0.01559402
v 0.5890902 1.078056E-17 -0.01559402
v 0.5144626 2.099719 -0.01559402
v 0.5890892 2.169665 -0.01559402
v -0.5125585 2.099719 -0.1143811
v -0.5830282 1.078056E-17 -0.1143811
v -0.5125585 0.01328612 -0.1143811
v 0.5144626 0.01328612 -0.1143811
v -0.5830282 2.169665 -0.1143811
v 0.5890917 1.078056E-17 -0.1143811
v 0.5144626 2.099719 -0.1143811
v 0.5890911 2.169665 -0.1143811
v 0.4437864 2.040281 -0.02625183
v 0.4497555 2.040281 -0.02858436
v 0.4497555 2.067282 -0.03170181
v 0.4437823 2.067282 -0.02845619
v 0.4497555 2.078133 -0.03691406
v 0.4413236 2.040281 -0.02064301
v 0.4437684 2.081621 -0.03691429
v 0.4413236 2.067282 -0.02064301
v 0.4438082 2.040281 -0.01504082
v 0.441294 2.090043 -0.03691406
v 0.4438108 2.067282 -0.01283905
v 0.4497555 2.040281 -0.01272972
v 0.4437669 2.098466 -0.03691406
v 0.4497555 2.067282 -0.009614944
v 0.455734 2.040281 -0.01506264
v 0.4497555 2.101955 -0.03691429
v 0.4557366 2.067282 -0.01286087
v 0.4581969 2.040281 -0.02067337
v 0.4556929 2.098467 -0.03691406
v 0.4581969 2.067282 -0.02067146
v 0.4557123 2.040281 -0.02627365
v 0.4581673 2.090045 -0.03691429
v 0.4557084 2.067282 -0.02847732
v 0.4497555 2.040281 -0.02858436
v 0.4556945 2.081622 -0.03691429
v 0.4497555 2.067282 -0.03170181
v 0.4497555 2.078133 -0.03691406
v 0.4454525 2.040281 -0.0250428
v 0.4497555 2.040281 -0.02683281
v 0.4497555 2.040281 -0.02858436
v 0.4437864 2.040281 -0.02625183
v 0.4436734 2.040281 -0.02073761
v 0.4413236 2.040281 -0.02064301
v 0.4454682 2.040281 -0.01643654
v 0.4438082 2.040281 -0.01504082
v 0.4497555 2.040281 -0.0146624
v 0.4497555 2.040281 -0.01272972
v 0.4540707 2.040281 -0.01645241
v 0.455734 2.040281 -0.01506264
v 0.4558497 2.040281 -0.02076004
v 0.4581969 2.040281 -0.02067337
v 0.4540551 2.040281 -0.02505836
v 0.4557123 2.040281 -0.02627365
v 0.4497555 2.040281 -0.02683281
v 0.4497555 2.040281 -0.02858436
v 0.4497555 1.383978 -0.01271866
v 0.4560113 1.414443 -0.01508156
v 0.4560113 1.383978 -0.01508156
v 0.4497555 1.414443 -0.01271866
v 0.4435297 1.383978 -0.01505875
v 0.4435297 1.414443 -0.01505875
v 0.4409294 1.383978 -0.02073357
v 0.4409294 1.414443 -0.02073357
v 0.478197 1.383978 -0.01512192
v 0.478197 1.414443 -0.01512192
v 0.478197 1.414443 -0.02882957
v 0.478197 1.383978 -0.02882957
v 0.4213787 1.383978 -0.02872604
v 0.4213787 1.414443 -0.02872604
v 0.4213786 1.414443 -0.02069778
v 0.4213786 1.383978 -0.02069778
v 0.4454525 1.12347 -0.0250428
v 0.4497555 1.12347 -0.02683281
v 0.4497555 1.383978 -0.02683281
v 0.4454525 1.383978 -0.0250428
v 0.4436734 1.12347 -0.02073761
v 0.4436734 1.383978 -0.02073761
v 0.4454682 1.12347 -0.01643654
v 0.4454682 1.383978 -0.01643654
v 0.4497555 1.12347 -0.0146624
v 0.4497555 1.383978 -0.0146624
v 0.4540707 1.12347 -0.01645241
v 0.4540707 1.383978 -0.01645241
v 0.4558497 1.12347 -0.02076004
v 0.4558497 1.383978 -0.02076004
v 0.4540551 1.12347 -0.02505836
v 0.4540551 1.383978 -0.02505836
v 0.4497555 1.12347 -0.02683281
v 0.4497555 1.383978 -0.02683281
v 0.4497555 1.414443 -0.02683281
v 0.4540551 2.040281 -0.02505836
v 0.4497555 2.040281 -0.02683281
v 0.4540551 1.414443 -0.02505836
v 0.4558497 2.040281 -0.02076004
v 0.4558497 1.414443 -0.02076004
v 0.4540707 2.040281 -0.01645241
v 0.4540707 1.414443 -0.01645241
v 0.4497555 2.040281 -0.0146624
v 0.4497555 1.414443 -0.0146624
v 0.4454682 2.040281 -0.01643654
v 0.4454682 1.414443 -0.01643654
v 0.4436734 2.040281 -0.02073761
v 0.4436734 1.414443 -0.02073761
v 0.4454525 2.040281 -0.0250428
v 0.4454525 1.414443 -0.0250428
v 0.4497555 2.040281 -0.02683281
v 0.4497555 1.414443 -0.02683281
v 0.4560113 1.383978 -0.01508156
v 0.4560113 1.414443 -0.01508156
v 0.478197 1.414443 -0.01512192
v 0.478197 1.383978 -0.01512192
v 0.4560113 1.414443 -0.01508156
v 0.478197 1.414443 -0.02882957
v 0.478197 1.414443 -0.01512192
v 0.4558497 1.414443 -0.02076004
v 0.4540707 1.414443 -0.01645241
v 0.4540551 1.414443 -0.02505836
v 0.4497555 1.414443 -0.0146624
v 0.4497555 1.414443 -0.01271866
v 0.4454682 1.414443 -0.01643654
v 0.4435297 1.414443 -0.01505875
v 0.4436734 1.414443 -0.02073761
v 0.4213787 1.414443 -0.02872604
v 0.4409294 1.414443 -0.02073357
v 0.4497555 1.414443 -0.02683281
v 0.4454525 1.414443 -0.0250428
v 0.4213786 1.414443 -0.02069778
v 0.4409294 1.414443 -0.02073357
v 0.4409294 1.383978 -0.02073357
v 0.4213786 1.383978 -0.02069778
v 0.4213786 1.414443 -0.02069778
v 0.4409294 1.383978 -0.02073357
v 0.4213787 1.383978 -0.02872604
v 0.4213786 1.383978 -0.02069778
v 0.4436734 1.383978 -0.02073761
v 0.4454525 1.383978 -0.0250428
v 0.4454682 1.383978 -0.01643654
v 0.4497555 1.383978 -0.02683281
v 0.4435297 1.383978 -0.01505875
v 0.4497555 1.383978 -0.0146624
v 0.4497555 1.383978 -0.01271866
v 0.4540707 1.383978 -0.01645241
v 0.4560113 1.383978 -0.01508156
v 0.478197 1.383978 -0.02882957
v 0.4540551 1.383978 -0.02505836
v 0.4558497 1.383978 -0.02076004
v 0.478197 1.383978 -0.01512192
v 0.4830947 0.04148375 -0.01155106
v 0.415941 0.04148375 -0.0115509
v 0.415941 0.1041902 -0.0115509
v 0.4830947 0.1041902 -0.01155106
v 0.4830593 0.04148375 -0.03133103
v 0.4830947 0.04148375 -0.01155106
v 0.4830947 0.1041902 -0.01155106
v 0.4830593 0.1041902 -0.03133103
v 0.4830593 0.1041902 -0.03133103
v 0.4830947 0.1041902 -0.01155106
v 0.415941 0.1041902 -0.0115509
v 0.4159054 0.1041902 -0.03133103
v 0.4159054 0.1041902 -0.03133103
v 0.415941 0.1041902 -0.0115509
v 0.415941 0.04148375 -0.0115509
v 0.4159054 0.04148375 -0.03133103
v 0.4159054 0.04148375 -0.03133103
v 0.415941 0.04148375 -0.0115509
v 0.4830947 0.04148375 -0.01155106
v 0.4830593 0.04148375 -0.03133103
v 0.4497555 0.6699693 -0.01271866
v 0.4560113 0.6699693 -0.01508156
v 0.4560113 0.6395032 -0.01508156
v 0.4497555 0.6395032 -0.01271866
v 0.4435297 0.6699693 -0.01505875
v 0.4435297 0.6395032 -0.01505875
v 0.4409294 0.6699693 -0.02073357
v 0.4409294 0.6395032 -0.02073357
v 0.478197 0.6699693 -0.01512192
v 0.478197 0.6699693 -0.02882957
v 0.478197 0.6395032 -0.02882957
v 0.478197 0.6395032 -0.01512192
v 0.4213787 0.6699693 -0.02872604
v 0.4213786 0.6699693 -0.02069778
v 0.4213786 0.6395032 -0.02069778
v 0.4213787 0.6395032 -0.02872604
v 0.4454525 0.9311467 -0.0250428
v 0.4497555 0.6699693 -0.02683281
v 0.4497555 0.9311467 -0.02683281
v 0.4454525 0.6699693 -0.0250428
v 0.4436734 0.9311467 -0.02073761
v 0.4436734 0.6699693 -0.02073761
v 0.4454682 0.9311467 -0.01643654
v 0.4454682 0.6699693 -0.01643654
v 0.4497555 0.9311467 -0.0146624
v 0.4497555 0.6699693 -0.0146624
v 0.4540707 0.9311467 -0.01645241
v 0.4540707 0.6699693 -0.01645241
v 0.4558497 0.9311467 -0.02076004
v 0.4558497 0.6699693 -0.02076004
v 0.4540551 0.9311467 -0.02505836
v 0.4540551 0.6699693 -0.02505836
v 0.4497555 0.9311467 -0.02683281
v 0.4497555 0.6699693 -0.02683281
v 0.4497555 0.6395032 -0.02683281
v 0.4497555 0.01130365 -0.02683281
v 0.4540551 0.01130365 -0.02505836
v 0.4540551 0.6395032 -0.02505836
v 0.4558497 0.01130365 -0.02076004
v 0.4558497 0.6395032 -0.02076004
v 0.4540707 0.01130365 -0.01645241
v 0.4540707 0.6395032 -0.01645241
v 0.4497555 0.01130365 -0.0146624
v 0.4497555 0.6395032 -0.0146624
v 0.4454682 0.01130365 -0.01643654
v 0.4454682 0.6395032 -0.01643654
v 0.4436734 0.01130365 -0.02073761
v 0.4436734 0.6395032 -0.02073761
v 0.4454525 0.01130365 -0.0250428
v 0.4454525 0.6395032 -0.0250428
v 0.4497555 0.01130365 -0.02683281
v 0.4497555 0.6395032 -0.02683281
v 0.4560113 0.6699693 -0.01508156
v 0.478197 0.6699693 -0.01512192
v 0.478197 0.6395032 -0.01512192
v 0.4560113 0.6395032 -0.01508156
v 0.4560113 0.6395032 -0.01508156
v 0.478197 0.6395032 -0.01512192
v 0.478197 0.6395032 -0.02882957
v 0.4558497 0.6395032 -0.02076004
v 0.4559862 0.6395032 -0.02878921
v 0.4540707 0.6395032 -0.01645241
v 0.4540551 0.6395032 -0.02505836
v 0.4497555 0.6395032 -0.0146624
v 0.4497555 0.6395032 -0.01271866
v 0.4454682 0.6395032 -0.01643654
v 0.4435297 0.6395032 -0.01505875
v 0.4436734 0.6395032 -0.02073761
v 0.4409294 0.6395032 -0.02073357
v 0.4497555 0.6395032 -0.02877792
v 0.4497555 0.6395032 -0.02683281
v 0.4454525 0.6395032 -0.0250428
v 0.4213786 0.6395032 -0.02069778
v 0.4213787 0.6395032 -0.02872604
v 0.4409294 0.6395032 -0.02073357
v 0.4213786 0.6395032 -0.02069778
v 0.4213786 0.6699693 -0.02069778
v 0.4409294 0.6699693 -0.02073357
v 0.4409294 0.6699693 -0.02073357
v 0.4213786 0.6699693 -0.02069778
v 0.4213787 0.6699693 -0.02872604
v 0.4454525 0.6699693 -0.0250428
v 0.4497555 0.6699693 -0.02877792
v 0.4436734 0.6699693 -0.02073761
v 0.4497555 0.6699693 -0.02683281
v 0.4454682 0.6699693 -0.01643654
v 0.4435297 0.6699693 -0.01505875
v 0.4497555 0.6699693 -0.0146624
v 0.4497555 0.6699693 -0.01271866
v 0.4540707 0.6699693 -0.01645241
v 0.4560113 0.6699693 -0.01508156
v 0.4559862 0.6699693 -0.02878921
v 0.4540551 0.6699693 -0.02505836
v 0.4558497 0.6699693 -0.02076004
v 0.478197 0.6699693 -0.01512192
v 0.478197 0.6699693 -0.02882957
v 0.4830741 2.096979 -0.02314735
v 0.4830741 2.034272 -0.02314735
v 0.4159204 2.034272 -0.02302551
v 0.4159204 2.096979 -0.02302551
v 0.4830593 2.096979 -0.03133103
v 0.4830593 2.034272 -0.03133103
v 0.4830741 2.034272 -0.02314735
v 0.4830741 2.096979 -0.02314735
v 0.4830593 2.034272 -0.03133103
v 0.4159054 2.034272 -0.03133103
v 0.4159204 2.034272 -0.02302551
v 0.4830741 2.034272 -0.02314735
v 0.4159054 2.034272 -0.03133103
v 0.4159054 2.096979 -0.03133103
v 0.4159204 2.096979 -0.02302551
v 0.4159204 2.034272 -0.02302551
v 0.4159054 2.096979 -0.03133103
v 0.4830593 2.096979 -0.03133103
v 0.4830741 2.096979 -0.02314735
v 0.4159204 2.096979 -0.02302551
v 0.4588223 0.9253148 -0.001910782
v 0.469958 0.930354 -0.001930771
v 0.4775865 0.930354 -0.0115509
v 0.4213787 0.930354 -0.01155106
v 0.4293042 0.930354 -0.001856918
v 0.4398716 0.9253148 -0.001876144
v -0.4705198 0.9253148 -0.0002398682
v -0.4893809 0.930354 -0.01155106
v -0.4815045 0.930354 -0.0002398682
v -0.4332374 0.930354 -0.0115509
v -0.4515702 0.9253148 -0.0002398682
v -0.4408506 0.930354 -0.0002396393
v 0.4720142 1.116148 -0.0115509
v 0.4775865 1.10194 -0.0115509
v 0.4588223 1.124926 -0.0115509
v 0.4776118 0.9970112 -0.0115509
v 0.4213787 0.997012 -0.01155106
v 0.4398718 1.124926 -0.01155106
v 0.4213787 1.10194 -0.01155106
v 0.4270011 1.116148 -0.01155106
v 0.4775865 0.930354 -0.0115509
v 0.4775529 0.930354 -0.02986397
v 0.4588222 0.9253148 -0.02986397
v 0.4588223 0.9253148 -0.001910782
v 0.4398716 0.9253148 -0.001876144
v 0.4398716 0.9253148 -0.02986397
v 0.4213787 0.930354 -0.01155106
v 0.4213786 0.930354 -0.02986397
v 0.4776118 0.9970112 -0.0115509
v 0.469958 0.9668319 -0.001930771
v 0.4293042 0.9668319 -0.001856918
v 0.4213787 0.997012 -0.01155106
v 0.4775865 0.930354 -0.0115509
v 0.469958 0.930354 -0.001930771
v 0.469958 0.9668319 -0.001930771
v 0.4776118 0.9970112 -0.0115509
v 0.4213787 0.997012 -0.01155106
v 0.4293042 0.9668319 -0.001856918
v 0.4293042 0.930354 -0.001856918
v 0.4213787 0.930354 -0.01155106
v 0.4775865 0.930354 -0.0115509
v 0.4775529 0.9484985 -0.02986397
v 0.4775529 0.930354 -0.02986397
v 0.4775529 0.9668319 -0.02986397
v 0.4776118 0.9970112 -0.0115509
v 0.4775529 1.10194 -0.02986397
v 0.4775865 1.10194 -0.0115509
v 0.4719788 1.116148 -0.02986397
v 0.4720142 1.116148 -0.0115509
v 0.4588223 1.124926 -0.0115509
v 0.4588222 1.124926 -0.02986397
v 0.4398716 1.124926 -0.02986397
v 0.4398718 1.124926 -0.01155106
v 0.4269659 1.116148 -0.02986397
v 0.4270011 1.116148 -0.01155106
v 0.4213786 1.10194 -0.02986397
v 0.4213787 1.10194 -0.01155106
v 0.4213786 0.9668319 -0.02986397
v 0.4213787 0.997012 -0.01155106
v 0.4213786 0.9484985 -0.02986397
v 0.4213787 0.930354 -0.01155106
v 0.4213786 0.930354 -0.02986397
v 0.469958 0.9064969 0.09134132
v 0.4699582 0.9062139 0.1079002
v 0.4699582 0.9154239 0.1127268
v 0.4699582 0.9271832 0.1102357
v 0.469958 0.9339026 0.09649628
v 0.469958 0.930354 -0.001930771
v 0.469958 0.9668319 -0.001930771
v 0.469958 0.9668319 -0.001930771
v 0.4293042 0.9339026 0.09656998
v 0.4293042 0.9668319 -0.001856918
v 0.469958 0.9339026 0.09649628
v 0.4293042 0.9271832 0.1102356
v 0.4699582 0.9271832 0.1102357
v 0.4293042 0.9154239 0.1127268
v 0.4699582 0.9154239 0.1127268
v 0.4293042 0.9062139 0.1079002
v 0.4699582 0.9062139 0.1079002
v 0.4398718 0.9027105 0.09068329
v 0.4293042 0.9064969 0.09141525
v 0.4293042 0.930354 -0.001856918
v 0.4398716 0.9253148 -0.001876144
v 0.4588223 0.9027105 0.0906488
v 0.469958 0.9064969 0.09134132
v 0.4588223 0.9253148 -0.001910782
v 0.469958 0.930354 -0.001930771
v -0.4838062 1.116148 -0.0115509
v -0.4705386 1.124926 -0.0115509
v -0.4893809 1.10194 -0.01155106
v -0.4894061 0.9970112 -0.01155106
v -0.4332373 0.997012 -0.0115509
v -0.4515888 1.124926 -0.0115509
v -0.4332374 1.10194 -0.0115509
v -0.4387916 1.116148 -0.01155106
v -0.4893809 0.930354 -0.01155106
v -0.4705715 0.9253148 -0.02986397
v -0.4894145 0.930354 -0.02986397
v -0.4705198 0.9253148 -0.0002398682
v -0.4515702 0.9253148 -0.0002398682
v -0.4516202 0.9253148 -0.02986397
v -0.4332374 0.930354 -0.0115509
v -0.4332373 0.930354 -0.02986397
v -0.4894061 0.9970112 -0.01155106
v -0.4332373 0.997012 -0.0115509
v -0.4408506 0.9668319 -0.0002396393
v -0.4815045 0.9668319 -0.0002398682
v -0.4893809 0.930354 -0.01155106
v -0.4894061 0.9970112 -0.01155106
v -0.4815045 0.9668319 -0.0002398682
v -0.4815045 0.930354 -0.0002398682
v -0.4332373 0.997012 -0.0115509
v -0.4332374 0.930354 -0.0115509
v -0.4408506 0.930354 -0.0002396393
v -0.4408506 0.9668319 -0.0002396393
v -0.4893809 0.930354 -0.01155106
v -0.4894145 0.930354 -0.02986397
v -0.4894145 0.9484985 -0.02986397
v -0.4894145 0.9668319 -0.02986397
v -0.4894061 0.9970112 -0.01155106
v -0.4894145 1.10194 -0.02986397
v -0.4893809 1.10194 -0.01155106
v -0.4838376 1.116148 -0.02986397
v -0.4838062 1.116148 -0.0115509
v -0.4705386 1.124926 -0.0115509
v -0.4705715 1.124926 -0.02986397
v -0.4516202 1.124926 -0.02986397
v -0.4515888 1.124926 -0.0115509
v -0.4388244 1.116148 -0.02986397
v -0.4387916 1.116148 -0.01155106
v -0.4332373 1.10194 -0.02986397
v -0.4332374 1.10194 -0.0115509
v -0.4332373 0.9668319 -0.02986397
v -0.4332373 0.997012 -0.0115509
v -0.4332373 0.9484985 -0.02986397
v -0.4332374 0.930354 -0.0115509
v -0.4332373 0.930354 -0.02986397
v -0.4815045 0.9064969 0.09306915
v -0.4815046 0.9154239 0.1143811
v -0.4815046 0.9062139 0.1079002
v -0.4815046 0.9271832 0.1118896
v -0.4815045 0.9339026 0.09818702
v -0.4815045 0.930354 -0.0002398682
v -0.4815045 0.9668319 -0.0002398682
v -0.4815045 0.9668319 -0.0002398682
v -0.4408506 0.9668319 -0.0002396393
v -0.4408507 0.9339026 0.09818702
v -0.4815045 0.9339026 0.09818702
v -0.4408507 0.9271832 0.1118896
v -0.4815046 0.9271832 0.1118896
v -0.4408507 0.9154239 0.1143811
v -0.4815046 0.9154239 0.1143811
v -0.4408506 0.9062139 0.1079003
v -0.4815046 0.9062139 0.1079002
v -0.4513998 0.9027105 0.09230202
v -0.4408507 0.9064969 0.09299579
v -0.4408506 0.930354 -0.0002396393
v -0.4515702 0.9253148 -0.0002398682
v -0.4703511 0.9027105 0.09233642
v -0.4815045 0.9064969 0.09306915
v -0.4705198 0.9253148 -0.0002398682
v -0.4815045 0.930354 -0.0002398682
v 0.429304 0.9321342 0.05366119
v -0.4408507 0.9321342 0.05366119
v -0.4408507 0.92219 0.05784248
v 0.4293042 0.92219 0.05784248
v -0.4408507 0.9137 0.08923309
v 0.429304 0.9137 0.08923309
v -0.4408506 0.9122776 0.1024911
v 0.4293042 0.9122776 0.1024911
v -0.4408506 0.9171783 0.1079003
v 0.429304 0.9171783 0.1079002
v -0.4408507 0.9242125 0.1064227
v 0.4293042 0.9242125 0.1064226
v -0.4408507 0.9292161 0.09524128
v 0.4293042 0.9292161 0.09524124
v -0.4408507 0.9404671 0.06199859
v 0.4293042 0.9404671 0.06199859
v -0.4408507 0.9321342 0.05366119
v 0.429304 0.9321342 0.05366119
v 0.4293042 0.930354 -0.001856918
v 0.429304 0.9321342 0.05366119
v 0.4293042 0.92219 0.05784248
v 0.429304 0.9137 0.08923309
v 0.4293042 0.9668319 -0.001856918
v 0.4293042 0.9064969 0.09141525
v 0.4293042 0.9404671 0.06199859
v 0.4293042 0.9122776 0.1024911
v 0.4293042 0.9339026 0.09656998
v 0.4293042 0.9062139 0.1079002
v 0.4293042 0.9292161 0.09524124
v 0.429304 0.9171783 0.1079002
v 0.4293042 0.9271832 0.1102356
v 0.4293042 0.9154239 0.1127268
v 0.4293042 0.9242125 0.1064226
v -0.4408506 0.930354 -0.0002396393
v -0.4408507 0.92219 0.05784248
v -0.4408507 0.9321342 0.05366119
v -0.4408507 0.9137 0.08923309
v -0.4408506 0.9668319 -0.0002396393
v -0.4408507 0.9064969 0.09299579
v -0.4408507 0.9404671 0.06199859
v -0.4408506 0.9122776 0.1024911
v -0.4408507 0.9339026 0.09818702
v -0.4408506 0.9062139 0.1079003
v -0.4408507 0.9292161 0.09524128
v -0.4408506 0.9171783 0.1079003
v -0.4408507 0.9271832 0.1118896
v -0.4408507 0.9154239 0.1143811
v -0.4408507 0.9242125 0.1064227
vt 0.4839252 0.5076929
vt 0.4481296 0.4846229
vt 0.007217646 0.4846229
vt 0.007217646 0.5076929
vt 0.007217646 0.02502739
vt 0.4481296 0.02502739
vt 0.4839252 0.004250765
vt 0.007217646 0.004250765
vt 0.01651919 0.5246313
vt 0.03615212 0.5424564
vt 0.4474084 0.5424564
vt 0.4667585 0.5246313
vt 0.4667585 0.9800663
vt 0.4474084 0.9622922
vt 0.03615212 0.9622922
vt 0.01651919 0.9800663
vt 0.4481296 0.02502739
vt 0.4481296 0.4846229
vt 0.4839252 0.5076929
vt 0.4839252 0.004250765
vt 0.01651919 0.9800663
vt 0.03615212 0.9622922
vt 0.03615212 0.5424564
vt 0.01651919 0.5246313
vt 0.4474084 0.9622922
vt 0.4667585 0.9800663
vt 0.4667585 0.5246313
vt 0.4474084 0.5424564
vt 0.7408099 0.8267294
vt 0.9677052 0.8267294
vt 0.9677052 0.4335244
vt 0.7408099 0.4335244
vt 0.7271715 0.8375582
vt 0.7271713 0.4226637
vt 0.4894857 0.422664
vt 0.4894865 0.8375585
vt 0.7271715 0.8375582
vt 0.7408099 0.8267294
vt 0.7408099 0.4335244
vt 0.7271713 0.4226637
vt 0.7271713 0.4226637
vt 0.7408099 0.4335244
vt 0.9677052 0.4335244
vt 0.9813622 0.4226637
vt 0.9813622 0.4226637
vt 0.9677052 0.4335244
vt 0.9677052 0.8267294
vt 0.9813622 0.8375582
vt 0.9813622 0.8375582
vt 0.9677052 0.8267294
vt 0.7408099 0.8267294
vt 0.7271715 0.8375582
vt 0.007217646 0.4846229
vt 0.4308515 0.4688778
vt 0.01651919 0.4688778
vt 0.01651919 0.04000759
vt 0.4481296 0.4846229
vt 0.007217646 0.02502739
vt 0.4308515 0.04000759
vt 0.4481296 0.02502739
vt 0.4667585 0.5246313
vt 0.007217646 0.5076929
vt 0.01651919 0.5246313
vt 0.01651919 0.9800663
vt 0.4839252 0.5076929
vt 0.007217646 0.9957492
vt 0.4667585 0.9800663
vt 0.4839252 0.9957492
vt 0.2027953 0.115288
vt 0.2039848 0.115288
vt 0.2039848 0.1204538
vt 0.2027953 0.1204538
vt 0.2039848 0.1255193
vt 0.2016537 0.115288
vt 0.2027953 0.1255193
vt 0.2016537 0.1204538
vt 0.2005354 0.115288
vt 0.2016537 0.1255193
vt 0.2005354 0.1204538
vt 0.1993133 0.115288
vt 0.2005354 0.1255193
vt 0.1993133 0.1204538
vt 0.1979208 0.115288
vt 0.1993133 0.1255193
vt 0.1979208 0.1204538
vt 0.1966748 0.115288
vt 0.1979208 0.1255193
vt 0.1966748 0.1204538
vt 0.195376 0.115288
vt 0.1966748 0.1255193
vt 0.195376 0.1204538
vt 0.1940423 0.115288
vt 0.195376 0.1255193
vt 0.1940423 0.1204538
vt 0.1940423 0.1255193
vt 0.2027953 0.1149187
vt 0.2039848 0.1149187
vt 0.2039848 0.115288
vt 0.2027953 0.115288
vt 0.2016537 0.1149187
vt 0.2016537 0.115288
vt 0.2005354 0.1149187
vt 0.2005354 0.115288
vt 0.1993133 0.1149187
vt 0.1993133 0.115288
vt 0.1979208 0.1149187
vt 0.1979208 0.115288
vt 0.1966748 0.1149187
vt 0.1966748 0.115288
vt 0.195376 0.1149187
vt 0.195376 0.115288
vt 0.1940423 0.1149187
vt 0.1940423 0.115288
vt 0.2739478 0.05433428
vt 0.2668315 0.05250716
vt 0.2742379 0.05249804
vt 0.2670556 0.05382019
vt 0.2742493 0.05607283
vt 0.2666847 0.05514932
vt 0.2735399 0.05781543
vt 0.2657107 0.05626506
vt 0.2735288 0.04640776
vt 0.2662948 0.0481267
vt 0.2635959 0.04670763
vt 0.2716938 0.04305381
vt 0.2707307 0.06459188
vt 0.2635584 0.06147707
vt 0.265283 0.06043619
vt 0.2717476 0.06287122
vt 0.2319165 0.04305649
vt 0.2329816 0.04305649
vt 0.2329816 0.123839
vt 0.2319164 0.123839
vt 0.2308511 0.04305649
vt 0.2308507 0.123839
vt 0.2297847 0.04305649
vt 0.2297845 0.123839
vt 0.2287193 0.04305649
vt 0.2287193 0.1238389
vt 0.2276534 0.04305649
vt 0.2276534 0.1238389
vt 0.2265872 0.04305649
vt 0.2265872 0.123839
vt 0.2255214 0.04305649
vt 0.2255214 0.1238389
vt 0.2244555 0.04305649
vt 0.2244555 0.1238389
vt 0.1940423 0.04305649
vt 0.195376 0.1149187
vt 0.1940423 0.1149187
vt 0.195376 0.04305649
vt 0.1966748 0.1149187
vt 0.1966748 0.04305649
vt 0.1979208 0.1149187
vt 0.1979208 0.04305649
vt 0.1993133 0.1149187
vt 0.1993133 0.04305649
vt 0.2005354 0.1149187
vt 0.2005354 0.04305649
vt 0.2016537 0.1149187
vt 0.2016537 0.04305649
vt 0.2027953 0.1149187
vt 0.2027953 0.04305649
vt 0.2039848 0.1149187
vt 0.2039848 0.04305649
vt 0.2742379 0.05249804
vt 0.2668315 0.05250716
vt 0.2662948 0.0481267
vt 0.2735288 0.04640776
vt 0.2668315 0.05250716
vt 0.2635959 0.04670763
vt 0.2662948 0.0481267
vt 0.2653661 0.05256498
vt 0.2663752 0.05293238
vt 0.2644199 0.0530147
vt 0.2666957 0.05386114
vt 0.2670556 0.05382019
vt 0.2663526 0.05485177
vt 0.2666847 0.05514932
vt 0.2655266 0.055511
vt 0.2635584 0.06147707
vt 0.2657107 0.05626506
vt 0.2640352 0.0541172
vt 0.2644939 0.05519116
vt 0.265283 0.06043619
vt 0.2657107 0.05626506
vt 0.2735399 0.05781543
vt 0.2717476 0.06287122
vt 0.265283 0.06043619
vt 0.2763744 0.05646646
vt 0.2793475 0.06160986
vt 0.276993 0.06184691
vt 0.2762877 0.05571347
vt 0.277493 0.05509615
vt 0.2749691 0.05535012
vt 0.2778801 0.05386382
vt 0.2742493 0.05607283
vt 0.2743108 0.05422294
vt 0.2739478 0.05433428
vt 0.2746977 0.05298972
vt 0.2742379 0.05249804
vt 0.2775532 0.04600269
vt 0.2772214 0.05273557
vt 0.2759036 0.0523724
vt 0.2735288 0.04640776
vt 0.2404914 0.06009233
vt 0.2404914 0.04583895
vt 0.25473 0.04583895
vt 0.25473 0.06009233
vt 0.2374898 0.06287444
vt 0.2404914 0.06009233
vt 0.25473 0.06009233
vt 0.2577316 0.06287444
vt 0.2577316 0.06287444
vt 0.25473 0.06009233
vt 0.25473 0.04583895
vt 0.2577316 0.04305649
vt 0.2577316 0.04305649
vt 0.25473 0.04583895
vt 0.2404914 0.04583895
vt 0.2374898 0.04305649
vt 0.2374898 0.04305649
vt 0.2404914 0.04583895
vt 0.2404914 0.06009233
vt 0.2374898 0.06287444
vt 0.3150437 0.05327088
vt 0.3147075 0.05197787
vt 0.3223549 0.0516727
vt 0.3221434 0.05336732
vt 0.3147853 0.05453533
vt 0.3225329 0.05497426
vt 0.3140371 0.05558902
vt 0.3218501 0.05659282
vt 0.3150424 0.04781449
vt 0.3126065 0.04594254
vt 0.3197628 0.04305202
vt 0.3212748 0.04592961
vt 0.312889 0.06091726
vt 0.3142352 0.05984271
vt 0.321151 0.06117821
vt 0.3204538 0.06308645
vt 0.2124866 0.04305661
vt 0.2114213 0.1238393
vt 0.2114214 0.04305661
vt 0.2124864 0.1238393
vt 0.2135522 0.04305661
vt 0.2135522 0.1238391
vt 0.2146186 0.04305661
vt 0.2146186 0.1238393
vt 0.2156841 0.04305661
vt 0.2156836 0.1238393
vt 0.2167497 0.04305661
vt 0.2167498 0.1238393
vt 0.217816 0.04305661
vt 0.217816 0.1238391
vt 0.2188816 0.04305649
vt 0.2188817 0.1238391
vt 0.2199475 0.04305661
vt 0.2199476 0.1238391
vt 0.181008 0.1417549
vt 0.181008 0.04305661
vt 0.182074 0.04305661
vt 0.182074 0.1417549
vt 0.1831397 0.04305661
vt 0.1831397 0.1417549
vt 0.1842058 0.04305661
vt 0.1842058 0.1417549
vt 0.1852718 0.04305661
vt 0.1852718 0.1417549
vt 0.1863368 0.04305661
vt 0.1863371 0.1417549
vt 0.187403 0.04305661
vt 0.1874035 0.1417549
vt 0.1884687 0.04305649
vt 0.1884692 0.1417549
vt 0.1895339 0.04305649
vt 0.1895344 0.1417549
vt 0.3147075 0.05197787
vt 0.3150424 0.04781449
vt 0.3212748 0.04592961
vt 0.3223549 0.0516727
vt 0.3223549 0.0516727
vt 0.3212748 0.04592961
vt 0.3250745 0.04531318
vt 0.3239251 0.0514583
vt 0.3261391 0.05105883
vt 0.3228203 0.05211395
vt 0.3252009 0.05172777
vt 0.3225337 0.05330759
vt 0.3221434 0.05336732
vt 0.3232329 0.05434048
vt 0.3225329 0.05497426
vt 0.3245092 0.05460984
vt 0.3246411 0.05532008
vt 0.3264385 0.05267459
vt 0.3259004 0.05276144
vt 0.3256134 0.05395442
vt 0.3255814 0.06039542
vt 0.3278023 0.06003511
vt 0.3218501 0.05659282
vt 0.321151 0.06117821
vt 0.3142352 0.05984271
vt 0.3140371 0.05558902
vt 0.3140371 0.05558902
vt 0.3142352 0.05984271
vt 0.312889 0.06091726
vt 0.3126358 0.05465275
vt 0.3115211 0.05367458
vt 0.3137276 0.05489838
vt 0.3120046 0.05360484
vt 0.31444 0.05425042
vt 0.3147853 0.05453533
vt 0.3146837 0.05330068
vt 0.3150437 0.05327088
vt 0.3142623 0.05238247
vt 0.3147075 0.05197787
vt 0.3113507 0.05184633
vt 0.3122581 0.05242842
vt 0.3132234 0.05199659
vt 0.3150424 0.04781449
vt 0.3126065 0.04594254
vt 0.3344113 0.05827624
vt 0.3344113 0.04433137
vt 0.3503485 0.04433137
vt 0.3503485 0.05827624
vt 0.3330745 0.05954206
vt 0.3330745 0.04305649
vt 0.3344113 0.04433137
vt 0.3344113 0.05827624
vt 0.3330745 0.04305649
vt 0.3516882 0.04305649
vt 0.3503485 0.04433137
vt 0.3344113 0.04433137
vt 0.3516882 0.04305649
vt 0.3516882 0.05954206
vt 0.3503485 0.05827624
vt 0.3503485 0.04433137
vt 0.3516882 0.05954206
vt 0.3330745 0.05954206
vt 0.3344113 0.05827624
vt 0.3503485 0.05827624
vt 0.1303919 0.04886663
vt 0.1281012 0.05000508
vt 0.1248751 0.04886663
vt 0.1397519 0.04886663
vt 0.1363832 0.05013269
vt 0.134316 0.04886663
vt 0.1641822 0.04902565
vt 0.1693514 0.04940403
vt 0.1662676 0.05023271
vt 0.1550383 0.04892302
vt 0.1604017 0.04894328
vt 0.1582689 0.04988486
vt 0.1273453 0.09162128
vt 0.1248751 0.08866054
vt 0.1303841 0.09326237
vt 0.1248751 0.06444633
vt 0.1397519 0.06438577
vt 0.1347342 0.09326237
vt 0.1397519 0.08872324
vt 0.1376067 0.09167248
vt 0.1248751 0.04886663
vt 0.1230443 0.04695958
vt 0.1290908 0.04305649
vt 0.1303919 0.04886663
vt 0.134316 0.04886663
vt 0.1358682 0.04305649
vt 0.1397519 0.04886663
vt 0.1416046 0.04695183
vt 0.1248751 0.06444633
vt 0.1281012 0.0577001
vt 0.1363832 0.0577001
vt 0.1397519 0.06438577
vt 0.1248751 0.04886663
vt 0.1281012 0.05000508
vt 0.1281012 0.0577001
vt 0.1248751 0.06444633
vt 0.1397519 0.06438577
vt 0.1363832 0.0577001
vt 0.1363832 0.05013269
vt 0.1397519 0.04886663
vt 0.1248751 0.04886663
vt 0.1201814 0.05204701
vt 0.1230443 0.04695958
vt 0.1201814 0.05681765
vt 0.1248751 0.06444633
vt 0.1201814 0.09023148
vt 0.1248751 0.08866054
vt 0.124721 0.09424102
vt 0.1273453 0.09162128
vt 0.1303841 0.09326237
vt 0.1293535 0.09713703
vt 0.1359291 0.09713703
vt 0.1347342 0.09326237
vt 0.1405457 0.09423459
vt 0.1376067 0.09167248
vt 0.1443777 0.09007943
vt 0.1397519 0.08872324
vt 0.1443777 0.05675292
vt 0.1397519 0.06438577
vt 0.1443777 0.05203015
vt 0.1397519 0.04886663
vt 0.1416046 0.04695183
vt 0.2414018 0.1053271
vt 0.2440985 0.1011123
vt 0.2465705 0.1005728
vt 0.2492443 0.10198
vt 0.2492443 0.1053271
vt 0.2414018 0.1280466
vt 0.2492443 0.1280466
vt 0.2492443 0.1280466
vt 0.2595595 0.1053271
vt 0.2595595 0.1280466
vt 0.2492443 0.1053271
vt 0.2595595 0.10198
vt 0.2492443 0.10198
vt 0.2595595 0.09912336
vt 0.2492411 0.09912342
vt 0.2595595 0.09687793
vt 0.2492387 0.09688759
vt 0.2570277 0.09307653
vt 0.2595595 0.09307647
vt 0.2595595 0.07042724
vt 0.2570056 0.07042724
vt 0.2520893 0.09307647
vt 0.2492339 0.09307647
vt 0.2520893 0.07042724
vt 0.2492134 0.07042724
vt 0.1685949 0.09221172
vt 0.1646198 0.09358865
vt 0.1693514 0.08810633
vt 0.1693514 0.06390917
vt 0.1550383 0.0639677
vt 0.1599432 0.09360552
vt 0.1550383 0.08805364
vt 0.1564039 0.0924831
vt 0.1693514 0.04940403
vt 0.1657225 0.04362917
vt 0.1712978 0.04726607
vt 0.1641822 0.04902565
vt 0.1604017 0.04894328
vt 0.1592181 0.04305518
vt 0.1550383 0.04892302
vt 0.1534156 0.04669273
vt 0.1693514 0.06390917
vt 0.1550383 0.0639677
vt 0.1579333 0.05709809
vt 0.1665165 0.05743366
vt 0.1693514 0.04940403
vt 0.1693514 0.06390917
vt 0.1665165 0.05743366
vt 0.1662676 0.05023271
vt 0.1550383 0.0639677
vt 0.1550383 0.04892302
vt 0.1582689 0.04988486
vt 0.1579333 0.05709809
vt 0.1693514 0.04940403
vt 0.1712978 0.04726607
vt 0.1738305 0.05208039
vt 0.1738305 0.05659455
vt 0.1693514 0.06390917
vt 0.1738305 0.08806521
vt 0.1693514 0.08810633
vt 0.1712109 0.09466398
vt 0.1685949 0.09221172
vt 0.1646198 0.09358865
vt 0.1646221 0.09781629
vt 0.1599727 0.0978325
vt 0.1599432 0.09360552
vt 0.1540323 0.09501886
vt 0.1564039 0.0924831
vt 0.1505947 0.08855188
vt 0.1550383 0.08805364
vt 0.1505947 0.05646718
vt 0.1550383 0.0639677
vt 0.1512918 0.05174285
vt 0.1550383 0.04892302
vt 0.1534156 0.04669273
vt 0.1117442 0.07644373
vt 0.106756 0.07177597
vt 0.109224 0.07233101
vt 0.1040687 0.07316703
vt 0.1040687 0.07644367
vt 0.1117442 0.09923017
vt 0.1040687 0.09923017
vt 0.1040687 0.09923017
vt 0.09391496 0.09923017
vt 0.09391496 0.07644367
vt 0.1040687 0.07644367
vt 0.09391496 0.07316428
vt 0.1040687 0.07316703
vt 0.09391496 0.07044113
vt 0.1040687 0.07051057
vt 0.09391496 0.06837338
vt 0.1040687 0.06837338
vt 0.09657955 0.06473041
vt 0.09391496 0.06473035
vt 0.09391496 0.04305649
vt 0.09657955 0.04305649
vt 0.1011453 0.06473035
vt 0.1040687 0.06473041
vt 0.1011453 0.04305649
vt 0.1040687 0.04305649
vt 0.02459657 0.221377
vt 0.02459657 0.04305649
vt 0.02705884 0.04305649
vt 0.02705884 0.221377
vt 0.03483164 0.04305649
vt 0.03483164 0.221377
vt 0.03811419 0.04305649
vt 0.03811431 0.221377
vt 0.03932762 0.04305649
vt 0.03932762 0.221377
vt 0.04106939 0.04305649
vt 0.04106939 0.221377
vt 0.04383802 0.04305649
vt 0.04383802 0.221377
vt 0.05206919 0.04305649
vt 0.05206907 0.221377
vt 0.05413234 0.04305649
vt 0.05413234 0.221377
vt 0.2677262 0.1280466
vt 0.2632286 0.114194
vt 0.2651293 0.1126258
vt 0.2646674 0.1054907
vt 0.2595595 0.1280466
vt 0.2660485 0.1043665
vt 0.2607483 0.1130415
vt 0.2639906 0.102629
vt 0.2595595 0.1053271
vt 0.264935 0.1010759
vt 0.2607624 0.1053271
vt 0.2625001 0.1018623
vt 0.2595595 0.10198
vt 0.262461 0.1005449
vt 0.2610386 0.1026468
vt 0.08542332 0.09923017
vt 0.08810768 0.08371609
vt 0.08999774 0.08529568
vt 0.08861819 0.07658404
vt 0.09391496 0.09923017
vt 0.08724493 0.07545161
vt 0.09248567 0.084158
vt 0.08931458 0.07372636
vt 0.09391496 0.07644367
vt 0.08838078 0.07216775
vt 0.09252432 0.07644373
vt 0.09081027 0.07296848
vt 0.09391496 0.07300943
vt 0.09085831 0.07165146
vt 0.09226635 0.07376182
vn -1 0 0
vn -1 0 0
vn -1 0 0
vn -1 0 0
vn 1 3.13242E-07 1.699076E-05
vn 1 3.13242E-07 1.699076E-05
vn 1 3.13242E-07 1.699076E-05
vn 1 3.13242E-07 1.699076E-05
vn 1 0 -1.505998E-05
vn 1 0 -1.505998E-05
vn 1 0 -1.505998E-05
vn 1 0 -1.505998E-05
vn -1 0 3.861534E-07
vn -1 0 3.861534E-07
vn -1 0 3.861534E-07
vn -1 0 3.861534E-07
vn 0 1 -1.68678E-06
vn 0 1 -1.68678E-06
vn 0 1 -1.68678E-06
vn 0 1 -1.68678E-06
vn 0 1 0
vn 0 1 0
vn 0 1 0
vn 0 1 0
vn 0 -1 -7.894815E-07
vn 0 -1 -7.894815E-07
vn 0 -1 -7.894815E-07
vn 0 -1 -7.894814E-07
vn 0 0 1
vn 0 0 1
vn 0 0 1
vn 0 0 1
vn 0 0 -1
vn 0 0 -1
vn 0 0 -1
vn 0 0 -1
vn 0.9999983 0 -0.001815465
vn 0.9999983 0 -0.001815465
vn 0.9999983 0 -0.001815465
vn 0.9999983 0 -0.001815465
vn 0 1 1.329863E-06
vn 0 1 1.329863E-06
vn 0 1 1.329863E-06
vn 0 1 1.329863E-06
vn -0.9999983 0 0.001818959
vn -0.9999983 0 0.001818959
vn -0.9999983 0 0.001818959
vn -0.9999983 0 0.001818959
vn 0 -1 0
vn 0 -1 0
vn 0 -1 0
vn 0 -1 0
vn 0 0 1
vn 0 0 1
vn 0 0 1
vn 0 0 1
vn 0 0 1
vn 0 0 1
vn 0 0 1
vn 0 0 1
vn 0 0 -1
vn 0 0 -1
vn 0 0 -1
vn 0 0 -1
vn 0 0 -1
vn 0 0 -1
vn 0 0 -1
vn 0 0 -1
vn -0.7556834 -0.05287492 -0.6527992
vn -0.001830031 -0.09806573 -0.9951782
vn -0.001477273 -0.2475412 -0.9688762
vn -0.7709698 -0.1639047 -0.6154192
vn -0.0005876581 -0.4767011 -0.8790653
vn -0.999885 -0.01505475 0.001877582
vn -0.8317678 -0.291277 -0.4725675
vn -0.9939013 0.06227736 0.09100442
vn -0.754647 -0.05271039 0.6540103
vn -0.9563249 0.1770279 0.2326019
vn -0.6653789 0.268303 0.6966234
vn 0.001842505 -0.09797497 0.9951872
vn -0.5111611 0.5268687 0.6790609
vn 0.001241995 0.3266849 0.9451326
vn 0.755312 -0.05285132 0.6532307
vn 0.0002093845 0.6149956 0.7885305
vn 0.6668088 0.2675515 0.6955445
vn 0.9998853 -0.0150325 -0.001870739
vn 0.5121545 0.5269555 0.6782445
vn 0.994226 0.06225378 0.08740158
vn 0.7542898 -0.05277255 -0.6544173
vn 0.9570246 0.1771744 0.2295931
vn 0.7698409 -0.1633582 -0.6169758
vn -0.001830031 -0.09806573 -0.9951782
vn 0.8311215 -0.2902185 -0.4743525
vn -0.001477273 -0.2475412 -0.9688762
vn -0.0005876581 -0.4767011 -0.8790653
vn 0 -1 -5.78429E-05
vn 0 -1 -4.100392E-05
vn 0 -1 -4.093222E-05
vn 0 -1 -5.24223E-05
vn 0 -1 1.585148E-05
vn 0 -1 1.850443E-05
vn 0 -1 3.362482E-05
vn 0 -1 3.81543E-05
vn 0 -1 0
vn 0 -1 0
vn 0 -1 1.677221E-05
vn 0 -1 1.905529E-05
vn 0 -1 1.653165E-05
vn 0 -1 1.741638E-05
vn 0 -1 0
vn 0 -1 0
vn 0 -1 -4.100392E-05
vn 0 -1 -4.093222E-05
vn 0.001827677 0 0.9999983
vn 0.3533475 0 0.9354922
vn 0.3533475 0 0.9354922
vn 0.001827677 0 0.9999983
vn -0.6722669 0 0.7403088
vn -0.6722669 0 0.7403088
vn -0.9091028 0 0.4165719
vn -0.9091028 0 0.4165719
vn 1 0 0
vn 1 0 0
vn 1 0 0
vn 1 0 0
vn -1 0 -2.375797E-05
vn -1 0 -2.375797E-05
vn -1 0 -2.375797E-05
vn -1 0 -2.375797E-05
vn -0.7078684 0 -0.7063443
vn -0.001809094 0 -0.9999985
vn -0.001809094 0 -0.9999985
vn -0.7078684 0 -0.7063443
vn -0.9999983 0 0.001826188
vn -0.9999983 0 0.001826188
vn -0.7067072 0 0.7075061
vn -0.7067072 0 0.7075061
vn 0.001844697 0 0.9999983
vn 0.001844697 0 0.9999983
vn 0.7073014 0 0.7069121
vn 0.7073045 0 0.706909
vn 0.9999985 0 -0.001808555
vn 0.9999985 0 -0.001808552
vn 0.7058555 0 -0.7083558
vn 0.7058586 0 -0.7083528
vn -0.001809094 0 -0.9999985
vn -0.001809094 0 -0.9999985
vn -0.001809358 0 -0.9999985
vn 0.7058552 0 -0.7083561
vn -0.001809358 0 -0.9999985
vn 0.7058522 0 -0.7083592
vn 0.9999985 0 -0.001808598
vn 0.9999985 0 -0.001808584
vn 0.7073016 0 0.7069119
vn 0.7072985 0 0.706915
vn 0.001844687 0 0.9999983
vn 0.001844687 0 0.9999983
vn -0.7067073 0 0.707506
vn -0.7067073 0 0.707506
vn -0.9999983 0 0.001826209
vn -0.9999983 0 0.001826209
vn -0.7078684 0 -0.7063443
vn -0.7078684 0 -0.7063443
vn -0.001809358 0 -0.9999985
vn -0.001809358 0 -0.9999985
vn 0.001819143 0 0.9999983
vn 0.001819143 0 0.9999983
vn 0.001819143 0 0.9999983
vn 0.001819143 0 0.9999983
vn 2.470456E-06 1 8.896861E-06
vn 2.151361E-06 1 9.724443E-06
vn 2.862418E-06 1 8.272354E-06
vn 2.550478E-07 1 9.54557E-06
vn -5.743159E-06 1 2.094745E-05
vn -3.916963E-06 1 3.043786E-05
vn 0 1 1.774065E-05
vn 0 1 1.775635E-05
vn 0 1 2.771505E-06
vn 0 1 -5.379891E-06
vn 4.145719E-06 1 -2.406377E-06
vn 7.178698E-07 1 3.845267E-06
vn 3.980061E-06 1 3.912319E-07
vn -1.173386E-06 1 3.823814E-05
vn 4.815648E-06 1 3.766666E-05
vn 0 1 0
vn 0.001830156 0 0.9999983
vn 0.001830156 0 0.9999983
vn 0.001830156 0 0.9999983
vn 0.001830156 0 0.9999983
vn 0 -1 -9.958602E-06
vn 1.640373E-07 -1 2.620104E-05
vn 0 -1 3.888592E-05
vn 0 -1 -1.443023E-05
vn 0 -1 -1.080357E-05
vn 0 -1 -1.012382E-05
vn 3.122938E-06 -1 -3.831639E-05
vn 0 -1 -3.799599E-06
vn 0 -1 -1.774053E-05
vn 0 -1 -1.775623E-05
vn 5.743231E-06 -1 -1.047385E-05
vn -2.470453E-06 -1 -1.378984E-05
vn -2.070418E-06 -1 -1.521907E-05
vn 5.263806E-06 -1 -3.467477E-05
vn -2.550468E-07 -1 -1.459583E-05
vn -2.86242E-06 -1 -1.389757E-05
vn 2.276063E-06 0 1
vn 2.276063E-06 0 1
vn 2.276063E-06 0 1
vn 2.276063E-06 0 1
vn 0.9999985 0 -0.001787778
vn 0.9999985 0 -0.001787778
vn 0.9999985 0 -0.001787778
vn 0.9999985 0 -0.001787778
vn 0 1 1.233999E-07
vn 0 1 1.234E-07
vn 0 1 1.234E-07
vn 0 1 1.234E-07
vn -0.9999985 0 0.001797406
vn -0.9999985 0 0.001797406
vn -0.9999985 0 0.001797406
vn -0.9999985 0 0.001797406
vn 0 -1 0
vn 0 -1 0
vn 0 -1 0
vn 0 -1 0
vn 0.001827637 0 0.9999983
vn 0.3533475 0 0.9354922
vn 0.3533475 0 0.9354922
vn 0.001827637 0 0.9999983
vn -0.6722679 0 0.7403079
vn -0.6722679 0 0.7403079
vn -0.9091033 0 0.4165708
vn -0.9091033 0 0.4165708
vn 1 0 0
vn 1 0 0
vn 1 0 0
vn 1 0 0
vn -1 0 -2.375792E-05
vn -1 0 -2.375792E-05
vn -1 0 -2.375792E-05
vn -1 0 -2.375792E-05
vn -0.7078682 0 -0.7063445
vn -0.001809211 0 -0.9999985
vn -0.001809211 0 -0.9999985
vn -0.7078682 0 -0.7063445
vn -0.9999983 0 0.001826219
vn -0.9999983 0 0.001826219
vn -0.7067073 0 0.707506
vn -0.7067073 0 0.707506
vn 0.00184471 0 0.9999983
vn 0.00184471 0 0.9999983
vn 0.7073014 0 0.706912
vn 0.7073014 0 0.706912
vn 0.9999985 0 -0.001808524
vn 0.9999985 0 -0.001808524
vn 0.7058552 0 -0.7083561
vn 0.7058552 0 -0.7083561
vn -0.001809211 0 -0.9999985
vn -0.001809211 0 -0.9999985
vn -0.001809295 0 -0.9999985
vn -0.001809295 0 -0.9999985
vn 0.7058553 0 -0.708356
vn 0.7058553 0 -0.708356
vn 0.9999985 0 -0.001808492
vn 0.9999985 0 -0.001808492
vn 0.7073014 0 0.706912
vn 0.7073014 0 0.706912
vn 0.001844739 0 0.9999983
vn 0.001844739 0 0.9999983
vn -0.7067074 0 0.707506
vn -0.7067074 0 0.707506
vn -0.9999983 0 0.001826193
vn -0.9999983 0 0.001826193
vn -0.7078683 0 -0.7063444
vn -0.7078683 0 -0.7063444
vn -0.001809295 0 -0.9999985
vn -0.001809295 0 -0.9999985
vn 0.001819197 0 0.9999983
vn 0.001819197 0 0.9999983
vn 0.001819197 0 0.9999983
vn 0.001819197 0 0.9999983
vn 0 -1 -7.000468E-06
vn 0 -1 -7.059086E-06
vn 0 -1 -6.324532E-06
vn 0 -1 -5.534944E-06
vn 0 -1 -3.872132E-07
vn 0 -1 -5.236769E-06
vn 0 -1 1.037205E-06
vn 0 -1 4.435162E-06
vn 0 -1 4.439089E-06
vn 0 -1 4.369133E-06
vn 0 -1 3.244858E-06
vn 0 -1 0
vn 0 -1 0
vn 0 -1 -2.267977E-06
vn 0 -1 -4.772064E-06
vn 0 -1 0
vn 0 -1 0
vn 0 -1 0
vn 0.001830215 0 0.9999983
vn 0.001830215 0 0.9999983
vn 0.001830215 0 0.9999983
vn 0.001830215 0 0.9999983
vn 0 1 -3.11396E-07
vn 0 1 0
vn 0 1 -1.144147E-06
vn 0 1 -1.384459E-05
vn 0 1 -1.645336E-05
vn 0 1 -4.993477E-06
vn 0 1 0
vn 0 1 -3.676301E-06
vn 0 1 -4.589876E-06
vn 0 1 -8.874164E-06
vn 0 1 -8.866347E-06
vn 0 1 -1.310866E-05
vn 0 1 6.208707E-06
vn 0 1 0
vn 0 1 0
vn 0 1 5.519228E-06
vn 0 1 7.05908E-06
vn 0 1 6.324527E-06
vn 0.001814362 0 0.9999983
vn 0.001814362 0 0.9999983
vn 0.001814362 0 0.9999983
vn 0.001814362 0 0.9999983
vn 0.9999985 0 -0.001808603
vn 0.9999985 0 -0.001808603
vn 0.9999985 0 -0.001808603
vn 0.9999985 0 -0.001808603
vn 0 -1 0
vn 0 -1 0
vn 0 -1 0
vn 0 -1 0
vn -0.9999985 0 0.001805034
vn -0.9999985 0 0.001805034
vn -0.9999985 0 0.001805034
vn -0.9999985 0 0.001805034
vn 0 1 0
vn 0 1 0
vn 0 1 0
vn 0 1 0
vn 0.3922837 -0.8656482 0.3110735
vn 0.3922838 -0.8656482 0.3110735
vn 0.3922838 -0.8656482 0.3110734
vn -0.4055828 -0.8517968 0.3315795
vn -0.4055828 -0.8517968 0.3315795
vn -0.4055828 -0.8517968 0.3315795
vn -0.4004222 -0.8728763 0.2788351
vn -0.4004222 -0.8728763 0.2788351
vn -0.4004221 -0.8728763 0.278835
vn 0.4089893 -0.870037 0.2752516
vn 0.4089893 -0.8700369 0.2752516
vn 0.4089893 -0.870037 0.2752516
vn 0 0 1
vn 0 0 1
vn -3.792772E-06 0 1
vn -3.963033E-06 0 1
vn -3.965426E-06 0 1
vn -3.797382E-06 0 1
vn 0 0 1
vn 3.571511E-07 0 1
vn 0.2595305 -0.9657349 -0.0001887621
vn 0.2595304 -0.9657349 -0.0001887621
vn 0.1200703 -0.9927654 -8.89014E-05
vn 0.09793314 -0.995193 -7.304471E-05
vn -0.09822903 -0.9951638 -1.827044E-06
vn -0.1208574 -0.9926698 -1.580808E-06
vn -0.2629035 -0.9648222 0
vn -0.2629035 -0.9648222 0
vn 0.0007269048 0.3047684 0.9524262
vn 0.0007269047 0.3047684 0.9524262
vn 0.0007269048 0.3047684 0.9524262
vn 0.0007269047 0.3047684 0.9524262
vn 0.7831923 -0.0001909106 0.6217795
vn 0.7831923 -0.0001909106 0.6217796
vn 0.7831923 -0.0001909106 0.6217795
vn 0.7831923 -0.0001909106 0.6217796
vn -0.7741963 0 0.6329456
vn -0.7741962 0 0.6329457
vn -0.7741963 0 0.6329457
vn -0.7741963 0 0.6329457
vn 0.9999973 -0.0002444857 -0.002327322
vn 0.9999971 -0.0002762557 -0.002390736
vn 0.9999983 0 -0.001839321
vn 0.9999969 -0.0001467809 -0.002498819
vn 0.9999967 7.707425E-05 -0.002601585
vn 0.9991314 0.04159458 -0.002534942
vn 0.9991327 0.04156291 -0.002535005
vn 0.7747927 0.6322141 -0.001195534
vn 0.7750852 0.6318557 -0.001196467
vn 0.2635921 0.9646341 -0.0002683877
vn 0.2635891 0.964635 -0.0002683848
vn -0.2657928 0.9640302 0.0002497677
vn -0.2657872 0.9640318 0.0002497621
vn -0.7792854 0.6266688 0.0007535178
vn -0.7790038 0.6270187 0.0007532467
vn -0.9991294 0.04172073 0.0001114862
vn -0.9991294 0.04172091 0.0001114866
vn -1 0 1.041533E-05
vn -1 0 1.041532E-05
vn -1 0 1.041533E-05
vn -1 0 1.041533E-05
vn -1 0 1.041532E-05
vn 1 0 -9.978812E-07
vn 1 0 -9.132907E-06
vn 1 0 -8.758737E-06
vn 1 0 -8.725607E-06
vn 1 0 -1.029611E-06
vn 1 0 -3.886972E-07
vn 1 0 -3.886972E-07
vn 0.0005757619 0.9483349 0.3172705
vn 0.0005535138 0.9427853 0.3333999
vn 0.0005757619 0.9483349 0.3172704
vn 0.0005535964 0.9428064 0.3333403
vn 0.0002464203 0.6590777 0.7520748
vn 0.0002464191 0.6590755 0.7520766
vn -1.111826E-06 -0.1106897 0.9938549
vn -1.111826E-06 -0.1106897 0.9938549
vn -0.01604705 -0.7872856 0.6163797
vn 0.01690193 -0.7860459 0.6179371
vn -0.1226993 -0.9809956 -0.1503084
vn -0.3794478 -0.9015488 -0.2079158
vn -0.3823012 -0.8964443 -0.2241285
vn -0.1529191 -0.9595441 -0.2364124
vn 0.1196595 -0.9812478 -0.1511103
vn 0.3620536 -0.9083142 -0.2094814
vn 0.1492876 -0.9600667 -0.2366119
vn 0.3647704 -0.9032931 -0.2258406
vn 9.7368E-06 -1.450478E-05 1
vn -2.385559E-06 -5.89356E-07 1
vn -7.970899E-06 -1.273817E-07 1
vn -2.170398E-06 -5.800598E-07 1
vn -2.004972E-06 -5.807381E-07 1
vn -1.862508E-06 -5.091741E-07 1
vn 1.971495E-07 1.759397E-07 1
vn 2.651706E-05 2.104321E-05 1
vn -0.2583614 -0.9660482 0.0004569602
vn -0.118533 -0.9929501 0.0002097089
vn -0.2583614 -0.9660482 0.0004569601
vn -0.09270579 -0.9956934 0.0001640398
vn 0.09317572 -0.9956498 -9.622156E-05
vn 0.1195877 -0.9928236 -0.0001235288
vn 0.2646244 -0.9643516 -0.0002734825
vn 0.2646244 -0.9643516 -0.0002734825
vn -6.450345E-06 0.3509555 0.9363921
vn -6.450346E-06 0.3509555 0.9363921
vn -6.450346E-06 0.3509555 0.9363921
vn -6.450346E-06 0.3509555 0.9363921
vn -0.8203403 -0.0002001143 0.5718757
vn -0.8203403 -0.0002001143 0.5718756
vn -0.8203403 -0.0002001143 0.5718757
vn -0.8203403 -0.0002001142 0.5718756
vn 0.8295921 -1.085084E-06 0.5583699
vn 0.8295922 -1.085084E-06 0.5583699
vn 0.8295921 -1.085084E-06 0.5583699
vn 0.8295922 -1.085085E-06 0.5583699
vn -0.999999 -0.0002444876 0.001347916
vn -0.9999983 0 0.001835175
vn -0.9999992 -0.0002762588 0.001284597
vn -0.9999993 -0.0001467838 0.001176677
vn -0.9999994 7.707538E-05 0.001074064
vn -0.9991345 0.04158227 0.00113578
vn -0.9991332 0.04161412 0.001135836
vn -0.7734993 0.6337957 0.001364137
vn -0.7732365 0.6341162 0.00136366
vn -0.2625816 0.9649097 0.0004507141
vn -0.2631864 0.9647449 0.0004517854
vn 0.2662094 0.9639151 -0.0004788882
vn 0.2667957 0.963753 -0.0004799113
vn 0.7811017 0.6244031 -0.0009586457
vn 0.7813622 0.6240772 -0.0009585261
vn 0.9991399 0.04146598 -9.192375E-05
vn 0.9991399 0.04146585 -9.192345E-05
vn 1 -4.860381E-07 3.255992E-06
vn 1 2.552166E-07 2.789549E-06
vn 1 -9.147493E-07 3.746538E-06
vn 1 -8.09551E-07 4.034343E-06
vn 1 0 6.249142E-06
vn -1 1.79477E-06 -2.153408E-07
vn -1 -3.800339E-07 -7.713832E-06
vn -1 1.102282E-05 -7.614015E-06
vn -1 -1.117413E-06 -7.720286E-06
vn -1 1.712645E-06 -2.513649E-07
vn -1 1.946988E-06 3.670989E-07
vn -1 1.946987E-06 3.670989E-07
vn -9.0408E-07 0.9483348 0.3172714
vn -9.040802E-07 0.9483348 0.3172714
vn -7.88963E-07 0.9427959 0.3333703
vn -7.889623E-07 0.9427959 0.3333704
vn 0 0.6590861 0.7520674
vn 0 0.659085 0.7520683
vn -1.098986E-07 -0.1868975 0.9823794
vn -1.098984E-07 -0.1868966 0.9823796
vn 0.01542772 -0.8002644 0.5994488
vn -0.01597212 -0.7989994 0.6011197
vn 0.1232729 -0.9805772 -0.1525518
vn 0.3773527 -0.901891 -0.2102324
vn 0.3797081 -0.8973836 -0.2247767
vn 0.1518422 -0.9596653 -0.2366146
vn -0.1217579 -0.9807863 -0.152425
vn -0.3645453 -0.9070815 -0.210499
vn -0.1503463 -0.9599503 -0.2364139
vn -0.367223 -0.902451 -0.2252319
vn 0 0.2217337 -0.9751073
vn 0 0.2217341 -0.9751071
vn 0 -0.8878613 -0.4601112
vn 0 -0.8878619 -0.4601101
vn 0 -0.9762314 -0.2167306
vn 0 -0.9762315 -0.2167303
vn 0 -0.9830806 0.1831733
vn 0 -0.9830807 0.1831726
vn 0 -0.3128827 0.9497917
vn 0 -0.3128846 0.9497912
vn 0 0.7246649 0.6891015
vn 0 0.7246665 0.6890997
vn 0 0.9391099 0.3436173
vn 0 0.9391097 0.3436173
vn 0 0.9975461 0.07001103
vn 0 0.997546 0.07001323
vn 0 0.2217341 -0.9751071
vn 0 0.2217337 -0.9751073
vn -1 3.746045E-06 -7.997465E-07
vn -1 7.146055E-07 -9.878504E-07
vn -1 -3.95174E-06 -3.32022E-06
vn -1 -9.671141E-07 -2.448124E-06
vn -1 4.329377E-06 -6.850471E-07
vn -1 -2.57984E-06 -7.956704E-07
vn -1 2.540505E-06 -4.276452E-07
vn -1 -1.027655E-05 5.658334E-06
vn -1 -3.712299E-07 0
vn -1 -1.112697E-05 5.578713E-06
vn -1 -3.557074E-07 0
vn -1 -3.710585E-06 1.174455E-05
vn -1 3.650482E-06 8.020409E-06
vn -1 -5.769599E-06 1.041216E-05
vn -1 3.617104E-06 7.947076E-06
vn 1 2.426121E-07 1.271051E-06
vn 1 2.080095E-06 1.450185E-06
vn 1 1.572293E-06 1.282535E-06
vn 1 0 8.584211E-07
vn 1 -1.47464E-07 1.229522E-06
vn 1 0 -1.032602E-06
vn 1 -3.428758E-06 4.611546E-07
vn 1 0 -1.75183E-06
vn 1 -7.70813E-06 -5.465639E-07
vn 1 0 8.961727E-07
vn 1 -7.900911E-06 -5.89902E-07
vn 1 3.793964E-06 6.156528E-06
vn 1 1.73697E-06 3.016851E-06
vn 1 3.670589E-06 6.164986E-06
vn 1 1.480854E-07 2.333425E-06
g Door_004_Common_Struc_0
f 3/3/3 2/2/2 1/1/1
f 4/4/4 3/3/3 1/1/1
f 7/7/7 6/6/6 5/5/5
f 8/8/8 7/7/7 5/5/5
f 11/11/11 10/10/10 9/9/9
f 12/12/12 11/11/11 9/9/9
f 15/15/15 14/14/14 13/13/13
f 16/16/16 15/15/15 13/13/13
f 19/19/19 18/18/18 17/17/17
f 20/20/20 19/19/19 17/17/17
f 23/23/23 22/22/22 21/21/21
f 24/24/24 23/23/23 21/21/21
f 27/27/27 26/26/26 25/25/25
f 28/28/28 27/27/27 25/25/25
f 31/31/31 30/30/30 29/29/29
f 32/32/32 31/31/31 29/29/29
f 35/35/35 34/34/34 33/33/33
f 36/36/36 35/35/35 33/33/33
f 39/39/39 38/38/38 37/37/37
f 40/40/40 39/39/39 37/37/37
f 43/43/43 42/42/42 41/41/41
f 44/44/44 43/43/43 41/41/41
f 47/47/47 46/46/46 45/45/45
f 48/48/48 47/47/47 45/45/45
f 51/51/51 50/50/50 49/49/49
f 52/52/52 51/51/51 49/49/49
f 55/55/55 54/54/54 53/53/53
f 55/55/55 53/53/53 56/56/56
f 54/54/54 57/57/57 53/53/53
f 53/53/53 58/58/58 56/56/56
f 54/54/54 59/59/59 57/57/57
f 56/56/56 58/58/58 59/59/59
f 59/59/59 60/60/60 57/57/57
f 58/58/58 60/60/60 59/59/59
f 63/63/63 62/62/62 61/61/61
f 62/62/62 63/63/63 64/64/64
f 62/62/62 65/65/65 61/61/61
f 66/66/66 62/62/62 64/64/64
f 61/61/61 65/65/65 67/67/67
f 68/68/68 66/66/66 64/64/64
f 65/65/65 68/68/68 67/67/67
f 67/67/67 68/68/68 64/64/64
g Door_004_Common_Struc_1
f 71/71/71 70/70/70 69/69/69
f 72/72/72 71/71/71 69/69/69
f 73/73/73 71/71/71 72/72/72
f 72/72/72 69/69/69 74/74/74
f 75/75/75 73/73/73 72/72/72
f 76/76/76 72/72/72 74/74/74
f 75/75/75 72/72/72 76/76/76
f 76/76/76 74/74/74 77/77/77
f 78/78/78 75/75/75 76/76/76
f 79/79/79 76/76/76 77/77/77
f 78/78/78 76/76/76 79/79/79
f 79/79/79 77/77/77 80/80/80
f 81/81/81 78/78/78 79/79/79
f 82/82/82 79/79/79 80/80/80
f 81/81/81 79/79/79 82/82/82
f 82/82/82 80/80/80 83/83/83
f 84/84/84 81/81/81 82/82/82
f 85/85/85 82/82/82 83/83/83
f 84/84/84 82/82/82 85/85/85
f 85/85/85 83/83/83 86/86/86
f 87/87/87 84/84/84 85/85/85
f 88/88/88 85/85/85 86/86/86
f 87/87/87 85/85/85 88/88/88
f 88/88/88 86/86/86 89/89/89
f 90/90/90 87/87/87 88/88/88
f 91/91/91 88/88/88 89/89/89
f 90/90/90 88/88/88 91/91/91
f 91/91/91 89/89/89 92/92/92
f 93/93/93 90/90/90 91/91/91
f 94/94/94 91/91/91 92/92/92
f 93/93/93 91/91/91 94/94/94
f 95/95/95 93/93/93 94/94/94
f 98/98/98 97/97/97 96/96/96
f 99/99/99 98/98/98 96/96/96
f 99/99/99 96/96/96 100/100/100
f 101/101/101 99/99/99 100/100/100
f 101/101/101 100/100/100 102/102/102
f 103/103/103 101/101/101 102/102/102
f 103/103/103 102/102/102 104/104/104
f 105/105/105 103/103/103 104/104/104
f 105/105/105 104/104/104 106/106/106
f 107/107/107 105/105/105 106/106/106
f 107/107/107 106/106/106 108/108/108
f 109/109/109 107/107/107 108/108/108
f 109/109/109 108/108/108 110/110/110
f 111/111/111 109/109/109 110/110/110
f 111/111/111 110/110/110 112/112/112
f 113/113/113 111/111/111 112/112/112
f 116/116/116 115/115/115 114/114/114
f 115/115/115 117/117/117 114/114/114
f 118/118/118 114/114/114 117/117/117
f 119/119/119 118/118/118 117/117/117
f 118/118/118 119/119/119 120/120/120
f 119/119/119 121/121/121 120/120/120
f 124/124/124 123/123/123 122/122/122
f 125/125/125 124/124/124 122/122/122
f 128/128/128 127/127/127 126/126/126
f 129/129/129 128/128/128 126/126/126
f 132/132/132 131/131/131 130/130/130
f 133/133/133 132/132/132 130/130/130
f 133/133/133 130/130/130 134/134/134
f 135/135/135 133/133/133 134/134/134
f 135/135/135 134/134/134 136/136/136
f 137/137/137 135/135/135 136/136/136
f 137/137/137 136/136/136 138/138/138
f 139/139/139 137/137/137 138/138/138
f 139/139/139 138/138/138 140/140/140
f 141/141/141 139/139/139 140/140/140
f 141/141/141 140/140/140 142/142/142
f 143/143/143 141/141/141 142/142/142
f 143/143/143 142/142/142 144/144/144
f 145/145/145 143/143/143 144/144/144
f 145/145/145 144/144/144 146/146/146
f 147/147/147 145/145/145 146/146/146
f 150/150/150 149/149/149 148/148/148
f 149/149/149 151/151/151 148/148/148
f 149/149/149 152/152/152 151/151/151
f 152/152/152 153/153/153 151/151/151
f 152/152/152 154/154/154 153/153/153
f 154/154/154 155/155/155 153/153/153
f 154/154/154 156/156/156 155/155/155
f 156/156/156 157/157/157 155/155/155
f 156/156/156 158/158/158 157/157/157
f 158/158/158 159/159/159 157/157/157
f 158/158/158 160/160/160 159/159/159
f 160/160/160 161/161/161 159/159/159
f 160/160/160 162/162/162 161/161/161
f 162/162/162 163/163/163 161/161/161
f 162/162/162 164/164/164 163/163/163
f 164/164/164 165/165/165 163/163/163
f 168/168/168 167/167/167 166/166/166
f 169/169/169 168/168/168 166/166/166
f 172/172/172 171/171/171 170/170/170
f 171/171/171 173/173/173 170/170/170
f 170/170/170 173/173/173 174/174/174
f 171/171/171 175/175/175 173/173/173
f 170/170/170 174/174/174 176/176/176
f 177/177/177 170/170/170 176/176/176
f 177/177/177 176/176/176 178/178/178
f 179/179/179 177/177/177 178/178/178
f 179/179/179 178/178/178 180/180/180
f 171/171/171 181/181/181 175/175/175
f 182/182/182 179/179/179 180/180/180
f 181/181/181 183/183/183 175/175/175
f 182/182/182 180/180/180 184/184/184
f 181/181/181 184/184/184 183/183/183
f 181/181/181 182/182/182 184/184/184
f 185/185/185 182/182/182 181/181/181
f 188/188/188 187/187/187 186/186/186
f 189/189/189 188/188/188 186/186/186
f 192/192/192 191/191/191 190/190/190
f 190/190/190 191/191/191 193/193/193
f 191/191/191 194/194/194 193/193/193
f 190/190/190 193/193/193 195/195/195
f 191/191/191 196/196/196 194/194/194
f 197/197/197 190/190/190 195/195/195
f 197/197/197 195/195/195 198/198/198
f 199/199/199 197/197/197 198/198/198
f 199/199/199 198/198/198 200/200/200
f 201/201/201 199/199/199 200/200/200
f 191/191/191 202/202/202 196/196/196
f 202/202/202 203/203/203 196/196/196
f 201/201/201 200/200/200 204/204/204
f 202/202/202 204/204/204 203/203/203
f 205/205/205 201/201/201 204/204/204
f 202/202/202 205/205/205 204/204/204
f 208/208/208 207/207/207 206/206/206
f 209/209/209 208/208/208 206/206/206
f 212/212/212 211/211/211 210/210/210
f 213/213/213 212/212/212 210/210/210
f 216/216/216 215/215/215 214/214/214
f 217/217/217 216/216/216 214/214/214
f 220/220/220 219/219/219 218/218/218
f 221/221/221 220/220/220 218/218/218
f 224/224/224 223/223/223 222/222/222
f 225/225/225 224/224/224 222/222/222
f 228/228/228 227/227/227 226/226/226
f 229/229/229 228/228/228 226/226/226
f 226/226/226 230/230/230 229/229/229
f 230/230/230 231/231/231 229/229/229
f 231/231/231 230/230/230 232/232/232
f 233/233/233 231/231/231 232/232/232
f 236/236/236 235/235/235 234/234/234
f 237/237/237 236/236/236 234/234/234
f 240/240/240 239/239/239 238/238/238
f 241/241/241 240/240/240 238/238/238
f 244/244/244 243/243/243 242/242/242
f 243/243/243 245/245/245 242/242/242
f 242/242/242 245/245/245 246/246/246
f 245/245/245 247/247/247 246/246/246
f 246/246/246 247/247/247 248/248/248
f 247/247/247 249/249/249 248/248/248
f 248/248/248 249/249/249 250/250/250
f 249/249/249 251/251/251 250/250/250
f 250/250/250 251/251/251 252/252/252
f 251/251/251 253/253/253 252/252/252
f 252/252/252 253/253/253 254/254/254
f 253/253/253 255/255/255 254/254/254
f 254/254/254 255/255/255 256/256/256
f 255/255/255 257/257/257 256/256/256
f 256/256/256 257/257/257 258/258/258
f 257/257/257 259/259/259 258/258/258
f 262/262/262 261/261/261 260/260/260
f 263/263/263 262/262/262 260/260/260
f 264/264/264 262/262/262 263/263/263
f 265/265/265 264/264/264 263/263/263
f 266/266/266 264/264/264 265/265/265
f 267/267/267 266/266/266 265/265/265
f 268/268/268 266/266/266 267/267/267
f 269/269/269 268/268/268 267/267/267
f 270/270/270 268/268/268 269/269/269
f 271/271/271 270/270/270 269/269/269
f 272/272/272 270/270/270 271/271/271
f 273/273/273 272/272/272 271/271/271
f 274/274/274 272/272/272 273/273/273
f 275/275/275 274/274/274 273/273/273
f 276/276/276 274/274/274 275/275/275
f 277/277/277 276/276/276 275/275/275
f 280/280/280 279/279/279 278/278/278
f 281/281/281 280/280/280 278/278/278
f 284/284/284 283/283/283 282/282/282
f 285/285/285 284/284/284 282/282/282
f 286/286/286 284/284/284 285/285/285
f 285/285/285 282/282/282 287/287/287
f 288/288/288 286/286/286 285/285/285
f 287/287/287 282/282/282 289/289/289
f 282/282/282 290/290/290 289/289/289
f 289/289/289 290/290/290 291/291/291
f 290/290/290 292/292/292 291/291/291
f 291/291/291 292/292/292 293/293/293
f 292/292/292 294/294/294 293/293/293
f 295/295/295 286/286/286 288/288/288
f 296/296/296 295/295/295 288/288/288
f 293/293/293 294/294/294 297/297/297
f 297/297/297 295/295/295 296/296/296
f 294/294/294 298/298/298 297/297/297
f 297/297/297 299/299/299 295/295/295
f 298/298/298 299/299/299 297/297/297
f 302/302/302 301/301/301 300/300/300
f 303/303/303 302/302/302 300/300/300
f 306/306/306 305/305/305 304/304/304
f 307/307/307 306/306/306 304/304/304
f 308/308/308 306/306/306 307/307/307
f 307/307/307 304/304/304 309/309/309
f 310/310/310 308/308/308 307/307/307
f 309/309/309 304/304/304 311/311/311
f 304/304/304 312/312/312 311/311/311
f 311/311/311 312/312/312 313/313/313
f 312/312/312 314/314/314 313/313/313
f 313/313/313 314/314/314 315/315/315
f 314/314/314 316/316/316 315/315/315
f 317/317/317 308/308/308 310/310/310
f 318/318/318 317/317/317 310/310/310
f 315/315/315 316/316/316 319/319/319
f 319/319/319 317/317/317 318/318/318
f 316/316/316 320/320/320 319/319/319
f 319/319/319 321/321/321 317/317/317
f 320/320/320 321/321/321 319/319/319
f 324/324/324 323/323/323 322/322/322
f 325/325/325 324/324/324 322/322/322
f 328/328/328 327/327/327 326/326/326
f 329/329/329 328/328/328 326/326/326
f 332/332/332 331/331/331 330/330/330
f 333/333/333 332/332/332 330/330/330
f 336/336/336 335/335/335 334/334/334
f 337/337/337 336/336/336 334/334/334
f 340/340/340 339/339/339 338/338/338
f 341/341/341 340/340/340 338/338/338
g Door_004_Common_Struc_2
f 344/344/344 343/343/343 342/342/342
f 347/347/347 346/346/346 345/345/345
f 350/350/350 349/349/349 348/348/348
f 353/353/353 352/352/352 351/351/351
f 356/356/356 355/355/355 354/354/354
f 356/356/356 357/357/357 355/355/355
f 358/358/358 357/357/357 356/356/356
f 359/359/359 358/358/358 356/356/356
f 360/360/360 358/358/358 359/359/359
f 361/361/361 360/360/360 359/359/359
f 364/364/364 363/363/363 362/362/362
f 365/365/365 364/364/364 362/362/362
f 365/365/365 366/366/366 364/364/364
f 366/366/366 367/367/367 364/364/364
f 366/366/366 368/368/368 367/367/367
f 368/368/368 369/369/369 367/367/367
f 372/372/372 371/371/371 370/370/370
f 373/373/373 372/372/372 370/370/370
f 376/376/376 375/375/375 374/374/374
f 377/377/377 376/376/376 374/374/374
f 380/380/380 379/379/379 378/378/378
f 381/381/381 380/380/380 378/378/378
f 384/384/384 383/383/383 382/382/382
f 383/383/383 385/385/385 382/382/382
f 385/385/385 386/386/386 382/382/382
f 385/385/385 387/387/387 386/386/386
f 387/387/387 388/388/388 386/386/386
f 387/387/387 389/389/389 388/388/388
f 389/389/389 390/390/390 388/388/388
f 391/391/391 390/390/390 389/389/389
f 392/392/392 391/391/391 389/389/389
f 392/392/392 393/393/393 391/391/391
f 393/393/393 394/394/394 391/391/391
f 393/393/393 395/395/395 394/394/394
f 395/395/395 396/396/396 394/394/394
f 396/396/396 395/395/395 397/397/397
f 398/398/398 396/396/396 397/397/397
f 398/398/398 397/397/397 399/399/399
f 400/400/400 398/398/398 399/399/399
f 400/400/400 399/399/399 401/401/401
f 402/402/402 400/400/400 401/401/401
f 402/402/402 401/401/401 403/403/403
f 406/406/406 405/405/405 404/404/404
f 407/407/407 406/406/406 404/404/404
f 408/408/408 407/407/407 404/404/404
f 408/408/408 404/404/404 409/409/409
f 410/410/410 408/408/408 409/409/409
f 413/413/413 412/412/412 411/411/411
f 412/412/412 414/414/414 411/411/411
f 412/412/412 415/415/415 414/414/414
f 415/415/415 416/416/416 414/414/414
f 415/415/415 417/417/417 416/416/416
f 417/417/417 418/418/418 416/416/416
f 417/417/417 419/419/419 418/418/418
f 419/419/419 420/420/420 418/418/418
f 420/420/420 419/419/419 421/421/421
f 421/421/421 419/419/419 422/422/422
f 421/421/421 422/422/422 423/423/423
f 424/424/424 421/421/421 423/423/423
f 425/425/425 420/420/420 421/421/421
f 425/425/425 421/421/421 424/424/424
f 426/426/426 420/420/420 425/425/425
f 427/427/427 425/425/425 424/424/424
f 426/426/426 425/425/425 427/427/427
f 428/428/428 426/426/426 427/427/427
f 431/431/431 430/430/430 429/429/429
f 432/432/432 430/430/430 431/431/431
f 432/432/432 433/433/433 430/430/430
f 433/433/433 434/434/434 430/430/430
f 433/433/433 435/435/435 434/434/434
f 435/435/435 436/436/436 434/434/434
f 439/439/439 438/438/438 437/437/437
f 438/438/438 440/440/440 437/437/437
f 441/441/441 440/440/440 438/438/438
f 442/442/442 441/441/441 438/438/438
f 443/443/443 441/441/441 442/442/442
f 444/444/444 443/443/443 442/442/442
f 447/447/447 446/446/446 445/445/445
f 448/448/448 447/447/447 445/445/445
f 451/451/451 450/450/450 449/449/449
f 452/452/452 451/451/451 449/449/449
f 455/455/455 454/454/454 453/453/453
f 456/456/456 455/455/455 453/453/453
f 459/459/459 458/458/458 457/457/457
f 460/460/460 459/459/459 457/457/457
f 461/461/461 460/460/460 457/457/457
f 462/462/462 460/460/460 461/461/461
f 463/463/463 462/462/462 461/461/461
f 464/464/464 462/462/462 463/463/463
f 465/465/465 464/464/464 463/463/463
f 465/465/465 466/466/466 464/464/464
f 466/466/466 467/467/467 464/464/464
f 468/468/468 467/467/467 466/466/466
f 469/469/469 468/468/468 466/466/466
f 470/470/470 468/468/468 469/469/469
f 471/471/471 470/470/470 469/469/469
f 470/470/470 471/471/471 472/472/472
f 471/471/471 473/473/473 472/472/472
f 472/472/472 473/473/473 474/474/474
f 473/473/473 475/475/475 474/474/474
f 474/474/474 475/475/475 476/476/476
f 475/475/475 477/477/477 476/476/476
f 476/476/476 477/477/477 478/478/478
f 481/481/481 480/480/480 479/479/479
f 480/480/480 482/482/482 479/479/479
f 482/482/482 483/483/483 479/479/479
f 479/479/479 483/483/483 484/484/484
f 483/483/483 485/485/485 484/484/484
f 488/488/488 487/487/487 486/486/486
f 489/489/489 488/488/488 486/486/486
f 490/490/490 488/488/488 489/489/489
f 491/491/491 490/490/490 489/489/489
f 492/492/492 490/490/490 491/491/491
f 493/493/493 492/492/492 491/491/491
f 494/494/494 492/492/492 493/493/493
f 495/495/495 494/494/494 493/493/493
f 494/494/494 495/495/495 496/496/496
f 494/494/494 496/496/496 497/497/497
f 497/497/497 496/496/496 498/498/498
f 496/496/496 499/499/499 498/498/498
f 495/495/495 500/500/500 496/496/496
f 496/496/496 500/500/500 499/499/499
f 495/495/495 501/501/501 500/500/500
f 500/500/500 502/502/502 499/499/499
f 500/500/500 501/501/501 502/502/502
f 501/501/501 503/503/503 502/502/502
f 506/506/506 505/505/505 504/504/504
f 507/507/507 506/506/506 504/504/504
f 508/508/508 506/506/506 507/507/507
f 509/509/509 508/508/508 507/507/507
f 510/510/510 508/508/508 509/509/509
f 511/511/511 510/510/510 509/509/509
f 512/512/512 510/510/510 511/511/511
f 513/513/513 512/512/512 511/511/511
f 514/514/514 512/512/512 513/513/513
f 515/515/515 514/514/514 513/513/513
f 516/516/516 514/514/514 515/515/515
f 517/517/517 516/516/516 515/515/515
f 518/518/518 516/516/516 517/517/517
f 519/519/519 518/518/518 517/517/517
f 520/520/520 518/518/518 519/519/519
f 521/521/521 520/520/520 519/519/519
f 524/524/524 523/523/523 522/522/522
f 525/525/525 524/524/524 522/522/522
f 522/522/522 523/523/523 526/526/526
f 527/527/527 525/525/525 522/522/522
f 523/523/523 528/528/528 526/526/526
f 529/529/529 525/525/525 527/527/527
f 526/526/526 528/528/528 530/530/530
f 531/531/531 529/529/529 527/527/527
f 528/528/528 532/532/532 530/530/530
f 533/533/533 529/529/529 531/531/531
f 530/530/530 532/532/532 534/534/534
f 535/535/535 533/533/533 531/531/531
f 532/532/532 536/536/536 534/534/534
f 536/536/536 533/533/533 535/535/535
f 534/534/534 536/536/536 535/535/535
f 539/539/539 538/538/538 537/537/537
f 538/538/538 540/540/540 537/537/537
f 539/539/539 537/537/537 541/541/541
f 540/540/540 542/542/542 537/537/537
f 543/543/543 539/539/539 541/541/541
f 540/540/540 544/544/544 542/542/542
f 543/543/543 541/541/541 545/545/545
f 544/544/544 546/546/546 542/542/542
f 547/547/547 543/543/543 545/545/545
f 544/544/544 548/548/548 546/546/546
f 547/547/547 545/545/545 549/549/549
f 548/548/548 550/550/550 546/546/546
f 551/551/551 547/547/547 549/549/549
f 551/551/551 549/549/549 550/550/550
f 548/548/548 551/551/551 550/550/550
