g Door_001_Common_Gameplay_Struc
v -7.105427E-17 -1.062472 0.03999814
v -7.105427E-17 1.036924 0.03999814
v 1.020566 1.036924 0.03999814
v 1.020566 -1.062472 0.03999814
v 1.020566 -1.062472 0.03999814
v 1.020566 -1.062472 -0.03948208
v -7.105427E-17 -1.062472 -0.03948208
v -7.105427E-17 -1.062472 0.03999814
v 1.020566 1.036924 0.03999814
v 1.020566 1.036924 -0.03948208
v 1.020566 -1.062472 -0.03948208
v 1.020566 -1.062472 0.03999814
v -7.105427E-17 1.036924 0.03999814
v -7.105427E-17 1.036924 -0.03948208
v 1.020566 1.036924 -0.03948208
v 1.020566 1.036924 0.03999814
v -7.105427E-17 -1.062472 0.03999814
v -7.105427E-17 -1.062472 -0.03948208
v -7.105427E-17 1.036924 -0.03948208
v -7.105427E-17 1.036924 0.03999814
v 1.020566 1.036924 -0.03948208
v -7.105427E-17 1.036924 -0.03948208
v -7.105427E-17 -1.062472 -0.03948208
v 1.020566 -1.062472 -0.03948208
v 0.890473 -0.1523106 0.120583
v 0.9025534 -0.1533884 0.120583
v 0.890473 -0.1523106 0.1087765
v 0.890473 -0.1061529 0.1087765
v 0.9025534 -0.1050653 0.120583
v 0.890473 -0.1061529 0.120583
v 0.9234785 -0.1171461 0.120583
v 0.9267148 -0.1292269 0.120583
v 0.9234785 -0.1413078 0.120583
v 0.890473 -0.1061529 0.1087765
v 0.7900636 -0.1153301 0.1087765
v 0.8814436 -0.1169875 0.1087765
v 0.8814436 -0.1169875 0.1087765
v 0.7900636 -0.1153301 0.1087765
v 0.8785797 -0.1293168 0.1087765
v 0.8785797 -0.1293168 0.1087765
v 0.7900636 -0.1153301 0.1087765
v 0.8818805 -0.1412103 0.1087765
v 0.8818805 -0.1412103 0.1087765
v 0.7900636 -0.1153301 0.1087765
v 0.890473 -0.1523106 0.1087765
v 0.7900636 -0.1153301 0.1087765
v 0.7900636 -0.1437844 0.1087765
v 0.890473 -0.1523106 0.1087765
v 0.9543583 0.1605891 0.03904762
v 0.9543583 0.1605891 0.05141283
v 0.9316927 0.1832549 0.05141283
v 0.9316927 0.1832551 0.03904762
v 0.9007303 0.1915513 0.05141283
v 0.9007303 0.1915514 0.03904762
v 0.9007303 0.1915514 0.03904762
v 0.9007303 0.1915513 0.05141283
v 0.8697687 0.1832549 0.05141283
v 0.8697687 0.1832551 0.03904762
v 0.8471025 0.1605891 0.05141283
v 0.8471025 0.1605891 0.03904762
v 0.8388062 0.1296268 0.05141283
v 0.8388062 0.1296268 0.03904762
v 0.8388062 0.1296268 0.03904762
v 0.8388062 0.1296268 0.05141283
v 0.8471025 0.09866455 0.05141283
v 0.8471025 0.09866455 0.03904762
v 0.8697687 0.07599876 0.05141283
v 0.8697687 0.07599884 0.03904762
v 0.9007303 0.06770256 0.05141283
v 0.9007303 0.06770256 0.03904762
v 0.9007303 0.06770256 0.03904762
v 0.9007303 0.06770256 0.05141283
v 0.9316927 0.07599876 0.05141283
v 0.9316927 0.07599884 0.03904762
v 0.9543583 0.09866455 0.05141283
v 0.9543583 0.09866455 0.03904762
v 0.9626552 0.1296268 0.05141283
v 0.9626552 0.1296268 0.03904762
v 0.9626552 0.1296268 0.03904762
v 0.9626552 0.1296268 0.05141283
v 0.9543583 0.1605891 0.05141283
v 0.9543583 0.1605891 0.03904762
v 0.925946 0.1733017 0.05141283
v 0.9007303 0.1665546 0.09531292
v 0.9007303 0.1800584 0.05141283
v 0.9191942 0.1616072 0.0953129
v 0.9444055 0.1548426 0.05141283
v 0.9327108 0.1480907 0.09531292
v 0.9511619 0.1296268 0.05141283
v 0.9376582 0.1296268 0.09531292
v 0.9007303 0.1800584 0.05141283
v 0.9007303 0.1665546 0.09531292
v 0.8822667 0.1616072 0.0953129
v 0.8755148 0.1733017 0.05141283
v 0.8687505 0.1480907 0.09531292
v 0.857056 0.1548426 0.05141283
v 0.8638026 0.1296268 0.09531292
v 0.8502994 0.1296268 0.05141283
v 0.8502994 0.1296268 0.05141283
v 0.8638026 0.1296268 0.09531292
v 0.8687505 0.1111631 0.09531292
v 0.857056 0.1044111 0.05141283
v 0.8822667 0.09764663 0.09531292
v 0.8755148 0.08595199 0.05141283
v 0.9007303 0.0926992 0.09531292
v 0.9007303 0.07919548 0.05141283
v 0.9007303 0.07919548 0.05141283
v 0.9007303 0.0926992 0.09531292
v 0.9191942 0.09764663 0.09531292
v 0.925946 0.08595199 0.05141283
v 0.9327108 0.1111631 0.09531292
v 0.9444055 0.1044111 0.05141283
v 0.9376582 0.1296268 0.09531292
v 0.9511619 0.1296268 0.05141283
v 0.957031 -0.09777435 0.03815661
v 0.957031 -0.09777435 0.05071763
v 0.9340063 -0.0747496 0.05071763
v 0.9340063 -0.07474937 0.03815661
v 0.9340063 -0.07474937 0.03815661
v 0.9340063 -0.0747496 0.05071763
v 0.9025534 -0.06632186 0.05071763
v 0.9025534 -0.06632164 0.03815661
v 0.8711012 -0.0747496 0.05071763
v 0.8711012 -0.07474937 0.03815661
v 0.8480766 -0.09777435 0.05071763
v 0.8480766 -0.09777435 0.03815661
v 0.8396481 -0.129227 0.05071763
v 0.8396481 -0.129227 0.03815661
v 0.8396481 -0.129227 0.03815661
v 0.8396481 -0.129227 0.05071763
v 0.8480766 -0.1606795 0.05071763
v 0.8480766 -0.1606795 0.03815661
v 0.8711012 -0.1837044 0.05071763
v 0.8711012 -0.1837041 0.03815661
v 0.9025534 -0.192132 0.05071763
v 0.9025534 -0.192132 0.03815661
v 0.9025534 -0.192132 0.03815661
v 0.9025534 -0.192132 0.05071763
v 0.9340063 -0.1837044 0.05071763
v 0.9340063 -0.1837041 0.03815661
v 0.957031 -0.1606795 0.05071763
v 0.957031 -0.1606795 0.03815661
v 0.9654585 -0.129227 0.05071763
v 0.957031 -0.1606795 0.03815661
v 0.9654585 -0.129227 0.05071763
v 0.9654585 -0.129227 0.03815661
v 0.957031 -0.09777435 0.05071763
v 0.957031 -0.09777435 0.03815661
v 0.9284582 -0.1142708 0.05071765
v 0.9284582 -0.1142708 0.07828582
v 0.9175102 -0.1033223 0.07828582
v 0.9175102 -0.1033223 0.05071765
v 0.9175102 -0.1033223 0.05071765
v 0.9175102 -0.1033223 0.07828582
v 0.9025534 -0.09931473 0.07828582
v 0.9025534 -0.09931473 0.05071765
v 0.9025534 -0.09931473 0.05071765
v 0.9025534 -0.09931473 0.07828582
v 0.8875975 -0.1033223 0.07828582
v 0.8875975 -0.1033223 0.05071765
v 0.8875975 -0.1033223 0.05071765
v 0.8875975 -0.1033223 0.07828582
v 0.8766494 -0.1142708 0.07828582
v 0.8766494 -0.1142708 0.05071765
v 0.8766494 -0.1142708 0.05071765
v 0.8766494 -0.1142708 0.07828582
v 0.8726414 -0.129227 0.07828582
v 0.8726414 -0.129227 0.05071765
v 0.8726414 -0.129227 0.05071765
v 0.8726414 -0.129227 0.07828582
v 0.8766494 -0.144183 0.07828582
v 0.8766494 -0.144183 0.05071765
v 0.8766494 -0.144183 0.05071765
v 0.8766494 -0.144183 0.07828582
v 0.8875975 -0.1551314 0.07828582
v 0.8875975 -0.1551314 0.05071765
v 0.8875975 -0.1551314 0.05071765
v 0.8875975 -0.1551314 0.07828582
v 0.9025534 -0.1591389 0.07828582
v 0.9025534 -0.1591389 0.05071765
v 0.9025534 -0.1591389 0.05071765
v 0.9025534 -0.1591389 0.07828582
v 0.9175102 -0.1551314 0.07828582
v 0.9175102 -0.1551314 0.05071765
v 0.9175102 -0.1551314 0.05071765
v 0.9175102 -0.1551314 0.07828582
v 0.9284582 -0.144183 0.07828582
v 0.9284582 -0.144183 0.05071765
v 0.9284582 -0.144183 0.05071765
v 0.9284582 -0.144183 0.07828582
v 0.9324661 -0.129227 0.07828582
v 0.9324661 -0.129227 0.05071765
v 0.9324661 -0.129227 0.05071765
v 0.9324661 -0.129227 0.07828582
v 0.9284582 -0.1142708 0.07828582
v 0.9284582 -0.1142708 0.05071765
v 0.9284582 -0.1142708 0.07828582
v 0.9192249 -0.1196017 0.07828582
v 0.9121789 -0.1125555 0.07828582
v 0.9175102 -0.1033223 0.07828582
v 0.9175102 -0.1033223 0.07828582
v 0.9121789 -0.1125555 0.07828582
v 0.9025534 -0.1099764 0.07828582
v 0.9025534 -0.09931473 0.07828582
v 0.9025534 -0.09931473 0.07828582
v 0.9025534 -0.1099764 0.07828582
v 0.8929286 -0.1125555 0.07828582
v 0.8875975 -0.1033223 0.07828582
v 0.8875975 -0.1033223 0.07828582
v 0.8929286 -0.1125555 0.07828582
v 0.8858824 -0.1196017 0.07828582
v 0.8766494 -0.1142708 0.07828582
v 0.8766494 -0.1142708 0.07828582
v 0.8858824 -0.1196017 0.07828582
v 0.8833029 -0.1292269 0.07828582
v 0.8726414 -0.129227 0.07828582
v 0.8726414 -0.129227 0.07828582
v 0.8833029 -0.1292269 0.07828582
v 0.8858824 -0.1388521 0.07828582
v 0.8766494 -0.144183 0.07828582
v 0.8766494 -0.144183 0.07828582
v 0.8858824 -0.1388521 0.07828582
v 0.8929286 -0.1458982 0.07828582
v 0.8875975 -0.1551314 0.07828582
v 0.8875975 -0.1551314 0.07828582
v 0.8929286 -0.1458982 0.07828582
v 0.9025534 -0.1484772 0.07828582
v 0.9025534 -0.1591389 0.07828582
v 0.9025534 -0.1591389 0.07828582
v 0.9025534 -0.1484772 0.07828582
v 0.9121789 -0.1458982 0.07828582
v 0.9175102 -0.1551314 0.07828582
v 0.9175102 -0.1551314 0.07828582
v 0.9121789 -0.1458982 0.07828582
v 0.9192249 -0.1388521 0.07828582
v 0.9284582 -0.144183 0.07828582
v 0.9284582 -0.144183 0.07828582
v 0.9192249 -0.1388521 0.07828582
v 0.9218042 -0.1292269 0.07828582
v 0.9324661 -0.129227 0.07828582
v 0.9324661 -0.129227 0.07828582
v 0.9218042 -0.1292269 0.07828582
v 0.9192249 -0.1196017 0.07828582
v 0.9284582 -0.1142708 0.07828582
v 0.9192249 -0.1196017 0.07828582
v 0.919082 -0.1196844 0.0923635
v 0.9120964 -0.1126988 0.0923635
v 0.9121789 -0.1125555 0.07828582
v 0.9121789 -0.1125555 0.07828582
v 0.9120964 -0.1126988 0.0923635
v 0.9025534 -0.110142 0.0923635
v 0.9025534 -0.1099764 0.07828582
v 0.9025534 -0.1099764 0.07828582
v 0.9025534 -0.110142 0.0923635
v 0.8930112 -0.1126988 0.0923635
v 0.8929286 -0.1125555 0.07828582
v 0.8929286 -0.1125555 0.07828582
v 0.8930112 -0.1126988 0.0923635
v 0.8860255 -0.1196844 0.0923635
v 0.8858824 -0.1196017 0.07828582
v 0.8858824 -0.1196017 0.07828582
v 0.8860255 -0.1196844 0.0923635
v 0.8834689 -0.1292269 0.0923635
v 0.8833029 -0.1292269 0.07828582
v 0.8833029 -0.1292269 0.07828582
v 0.8834689 -0.1292269 0.0923635
v 0.8860255 -0.1387694 0.0923635
v 0.8858824 -0.1388521 0.07828582
v 0.8858824 -0.1388521 0.07828582
v 0.8860255 -0.1387694 0.0923635
v 0.8930112 -0.1457549 0.0923635
v 0.8929286 -0.1458982 0.07828582
v 0.8929286 -0.1458982 0.07828582
v 0.8930112 -0.1457549 0.0923635
v 0.9025534 -0.1483117 0.0923635
v 0.9025534 -0.1484772 0.07828582
v 0.9025534 -0.1484772 0.07828582
v 0.9025534 -0.1483117 0.0923635
v 0.9120964 -0.1457549 0.0923635
v 0.9121789 -0.1458982 0.07828582
v 0.9121789 -0.1458982 0.07828582
v 0.9120964 -0.1457549 0.0923635
v 0.919082 -0.1387694 0.0923635
v 0.9192249 -0.1388521 0.07828582
v 0.9192249 -0.1388521 0.07828582
v 0.919082 -0.1387694 0.0923635
v 0.9216386 -0.1292269 0.0923635
v 0.9218042 -0.1292269 0.07828582
v 0.9218042 -0.1292269 0.07828582
v 0.9216386 -0.1292269 0.0923635
v 0.919082 -0.1196844 0.0923635
v 0.9192249 -0.1196017 0.07828582
v 0.890473 -0.1061529 0.120583
v 0.7900636 -0.1153301 0.1087765
v 0.890473 -0.1061529 0.1087765
v 0.7900636 -0.1153301 0.120583
v 0.7839966 -0.115783 0.1079117
v 0.7822986 -0.115783 0.1195954
v 0.7900636 -0.1437844 0.1087765
v 0.890473 -0.1523106 0.120583
v 0.890473 -0.1523106 0.1087765
v 0.7900636 -0.1437844 0.120583
v 0.7839966 -0.1433315 0.1079117
v 0.7822986 -0.1433315 0.1195954
v 0.7822986 -0.1433315 0.1195954
v 0.7740593 -0.1157832 0.1161952
v 0.7822986 -0.115783 0.1195954
v 0.7740593 -0.1433315 0.1161952
v 0.7322777 -0.1433315 0.07428271
v 0.7322777 -0.115783 0.07428271
v 0.7822986 -0.115783 0.1195954
v 0.7788147 -0.1157832 0.1058607
v 0.7839966 -0.115783 0.1079117
v 0.7740593 -0.1157832 0.1161952
v 0.7322777 -0.115783 0.07428271
v 0.7417151 -0.115783 0.06718878
v 0.7839966 -0.1433315 0.1079117
v 0.7740593 -0.1433315 0.1161952
v 0.7822986 -0.1433315 0.1195954
v 0.7788147 -0.1433315 0.1058607
v 0.7417151 -0.1433315 0.06718878
v 0.7322777 -0.1433315 0.07428271
v 0.7839966 -0.115783 0.1079117
v 0.7788147 -0.1433315 0.1058607
v 0.7839966 -0.1433315 0.1079117
v 0.7788147 -0.1157832 0.1058607
v 0.7417151 -0.115783 0.06718878
v 0.7417151 -0.1433315 0.06718878
v 0.7322777 -0.1433315 0.07428271
v 0.7417151 -0.1433315 0.06718878
v 0.7417151 -0.115783 0.06718878
v 0.7322777 -0.115783 0.07428271
v 0.7900636 -0.1437844 0.120583
v 0.7822986 -0.1433315 0.1195954
v 0.7822986 -0.115783 0.1195954
v 0.7900636 -0.1153301 0.120583
v 0.7900636 -0.1153301 0.1087765
v 0.7839966 -0.115783 0.1079117
v 0.7839966 -0.1433315 0.1079117
v 0.7900636 -0.1437844 0.1087765
v 0.9025534 -0.1533884 0.120583
v 0.9025534 -0.1533884 0.0923635
v 0.890473 -0.1523106 0.0923635
v 0.890473 -0.1523106 0.1087765
v 0.890473 -0.1061529 0.1087765
v 0.890473 -0.1061529 0.0923635
v 0.9025534 -0.1050653 0.09236349
v 0.9025534 -0.1050653 0.120583
v 0.9146345 -0.1501514 0.120583
v 0.9146345 -0.1501514 0.0923635
v 0.9025534 -0.1533884 0.0923635
v 0.9025534 -0.1533884 0.120583
v 0.9025534 -0.1050653 0.120583
v 0.9025534 -0.1050653 0.09236349
v 0.9146345 -0.1083024 0.09236349
v 0.9146345 -0.1083024 0.120583
v 0.9234785 -0.1413078 0.120583
v 0.9234785 -0.1413078 0.0923635
v 0.9146345 -0.1501514 0.0923635
v 0.9146345 -0.1501514 0.120583
v 0.9146345 -0.1083024 0.120583
v 0.9146345 -0.1083024 0.09236349
v 0.9234785 -0.1171461 0.09236349
v 0.9234785 -0.1171461 0.120583
v 0.9234785 -0.1171461 0.120583
v 0.9234785 -0.1171461 0.09236349
v 0.9267148 -0.1292269 0.09236349
v 0.9267148 -0.1292269 0.120583
v 0.9267148 -0.1292269 0.120583
v 0.9267148 -0.1292269 0.09236349
v 0.9234785 -0.1413078 0.0923635
v 0.9234785 -0.1413078 0.120583
v 0.890473 -0.1061529 0.1087765
v 0.8814436 -0.1169875 0.1087765
v 0.8814436 -0.1169875 0.0923635
v 0.890473 -0.1061529 0.0923635
v 0.8814436 -0.1169875 0.1087765
v 0.8785797 -0.1293168 0.1087765
v 0.8785797 -0.1293168 0.0923635
v 0.8814436 -0.1169875 0.0923635
v 0.8785797 -0.1293168 0.1087765
v 0.8818805 -0.1412103 0.1087765
v 0.8818805 -0.1412103 0.0923635
v 0.8785797 -0.1293168 0.0923635
v 0.8818805 -0.1412103 0.1087765
v 0.890473 -0.1523106 0.1087765
v 0.890473 -0.1523106 0.0923635
v 0.8818805 -0.1412103 0.0923635
v 0.890473 -0.1061529 0.120583
v 0.890473 -0.1523106 0.120583
v 0.7900636 -0.1437844 0.120583
v 0.7900636 -0.1153301 0.120583
v 0.890473 -0.1523106 0.120583
v 0.890473 -0.1061529 0.120583
v 0.9025534 -0.1050653 0.120583
v 0.9025534 -0.1533884 0.120583
v 0.9146345 -0.1083024 0.120583
v 0.9146345 -0.1501514 0.120583
v 0.9025534 -0.1533884 0.120583
v 0.9025534 -0.1050653 0.120583
v 0.9146345 -0.1501514 0.120583
v 0.9146345 -0.1083024 0.120583
v 0.9234785 -0.1171461 0.120583
v 0.9234785 -0.1413078 0.120583
v 0.9025534 -0.1050653 0.09236349
v 0.9025534 -0.110142 0.0923635
v 0.9120964 -0.1126988 0.0923635
v 0.9146345 -0.1083024 0.09236349
v 0.9146345 -0.1083024 0.09236349
v 0.9120964 -0.1126988 0.0923635
v 0.919082 -0.1196844 0.0923635
v 0.9234785 -0.1171461 0.09236349
v 0.9216386 -0.1292269 0.0923635
v 0.9267148 -0.1292269 0.09236349
v 0.9234785 -0.1171461 0.09236349
v 0.919082 -0.1196844 0.0923635
v 0.9267148 -0.1292269 0.09236349
v 0.9216386 -0.1292269 0.0923635
v 0.919082 -0.1387694 0.0923635
v 0.9234785 -0.1413078 0.0923635
v 0.9234785 -0.1413078 0.0923635
v 0.919082 -0.1387694 0.0923635
v 0.9120964 -0.1457549 0.0923635
v 0.9146345 -0.1501514 0.0923635
v 0.9146345 -0.1501514 0.0923635
v 0.9120964 -0.1457549 0.0923635
v 0.9025534 -0.1483117 0.0923635
v 0.9025534 -0.1533884 0.0923635
v 0.9025534 -0.1533884 0.0923635
v 0.9025534 -0.1483117 0.0923635
v 0.8930112 -0.1457549 0.0923635
v 0.890473 -0.1523106 0.0923635
v 0.890473 -0.1523106 0.0923635
v 0.8930112 -0.1457549 0.0923635
v 0.8860255 -0.1387694 0.0923635
v 0.8818805 -0.1412103 0.0923635
v 0.8818805 -0.1412103 0.0923635
v 0.8860255 -0.1387694 0.0923635
v 0.8834689 -0.1292269 0.0923635
v 0.8785797 -0.1293168 0.0923635
v 0.8860255 -0.1196844 0.0923635
v 0.8814436 -0.1169875 0.0923635
v 0.8785797 -0.1293168 0.0923635
v 0.8834689 -0.1292269 0.0923635
v 0.9025534 -0.110142 0.0923635
v 0.9025534 -0.1050653 0.09236349
v 0.890473 -0.1061529 0.0923635
v 0.8930112 -0.1126988 0.0923635
v 0.8930112 -0.1126988 0.0923635
v 0.890473 -0.1061529 0.0923635
v 0.8814436 -0.1169875 0.0923635
v 0.8860255 -0.1196844 0.0923635
v 0.9327108 0.1480907 0.09531292
v 0.9007303 0.1296268 0.09531292
v 0.9191942 0.1616072 0.0953129
v 0.9376582 0.1296268 0.09531292
v 0.9007303 0.1665546 0.09531292
v 0.9327108 0.1111631 0.09531292
v 0.8822667 0.1616072 0.0953129
v 0.9191942 0.09764663 0.09531292
v 0.8687505 0.1480907 0.09531292
v 0.9007303 0.0926992 0.09531292
v 0.8638026 0.1296268 0.09531292
v 0.8822667 0.09764663 0.09531292
v 0.8687505 0.1111631 0.09531292
v 0.9543583 0.1605891 0.05141283
v 0.9444055 0.1548426 0.05141283
v 0.925946 0.1733017 0.05141283
v 0.9316927 0.1832549 0.05141283
v 0.9626552 0.1296268 0.05141283
v 0.9007303 0.1800584 0.05141283
v 0.9511619 0.1296268 0.05141283
v 0.9007303 0.1915513 0.05141283
v 0.9543583 0.09866455 0.05141283
v 0.8755148 0.1733017 0.05141283
v 0.9444055 0.1044111 0.05141283
v 0.8697687 0.1832549 0.05141283
v 0.9316927 0.07599876 0.05141283
v 0.857056 0.1548426 0.05141283
v 0.925946 0.08595199 0.05141283
v 0.8471025 0.1605891 0.05141283
v 0.9007303 0.06770256 0.05141283
v 0.8502994 0.1296268 0.05141283
v 0.9007303 0.07919548 0.05141283
v 0.8388062 0.1296268 0.05141283
v 0.8697687 0.07599876 0.05141283
v 0.857056 0.1044111 0.05141283
v 0.8755148 0.08595199 0.05141283
v 0.8471025 0.09866455 0.05141283
v 0.957031 -0.09777435 0.05071763
v 0.9284582 -0.1142708 0.05071765
v 0.9175102 -0.1033223 0.05071765
v 0.9340063 -0.0747496 0.05071763
v 0.9654585 -0.129227 0.05071763
v 0.9025534 -0.09931473 0.05071765
v 0.9324661 -0.129227 0.05071765
v 0.9025534 -0.06632186 0.05071763
v 0.957031 -0.1606795 0.05071763
v 0.8875975 -0.1033223 0.05071765
v 0.9284582 -0.144183 0.05071765
v 0.8711012 -0.0747496 0.05071763
v 0.9340063 -0.1837044 0.05071763
v 0.8766494 -0.1142708 0.05071765
v 0.9175102 -0.1551314 0.05071765
v 0.8480766 -0.09777435 0.05071763
v 0.9025534 -0.192132 0.05071763
v 0.8726414 -0.129227 0.05071765
v 0.9025534 -0.1591389 0.05071765
v 0.8396481 -0.129227 0.05071763
v 0.8711012 -0.1837044 0.05071763
v 0.8766494 -0.144183 0.05071765
v 0.8875975 -0.1551314 0.05071765
v 0.8480766 -0.1606795 0.05071763
vt 0.375 0
vt 0.375 0.25
vt 0.625 0.25
vt 0.625 0
vt 0 0
vt 0 1
vt 1 1
vt 1 0
vt 0 0
vt 0 1
vt 1 1
vt 1 0
vt 0 0
vt 0 1
vt 1 1
vt 1 0
vt 0 0
vt 0 1
vt 1 1
vt 1 0
vt 1.037875E-16 0
vt 0 0.5718198
vt 1 0.5718198
vt 1 4.1515E-16
vt 0 0
vt 0.5 1
vt 1 0
vt 0 0
vt 0.5 1
vt 1 0
vt 0 0
vt 0.5 0.133966
vt 0.9999999 0
vt 0 0
vt 1 0.9741395
vt 0.2222102 0
vt 0 0
vt 0.2103488 1
vt 0.1634832 1.39433E-15
vt 0.485691 0
vt 0 1
vt 0.6627253 0
vt 0.8312588 0
vt 0 0.5656042
vt 1 0
vt 0 0
vt 0.1151954 0.2745288
vt 1 0
vt 0.375 0.3125
vt 0.375 0.6884398
vt 0.3958333 0.6884398
vt 0.3958333 0.3125
vt 0.4166667 0.6884398
vt 0.4166667 0.3125
vt 0.4166667 0.3125
vt 0.4166667 0.6884398
vt 0.4375 0.6884398
vt 0.4375 0.3125
vt 0.4583334 0.6884398
vt 0.4583334 0.3125
vt 0.4791667 0.6884398
vt 0.4791667 0.3125
vt 0.4791667 0.3125
vt 0.4791667 0.6884398
vt 0.5000001 0.6884398
vt 0.5000001 0.3125
vt 0.5208334 0.6884398
vt 0.5208334 0.3125
vt 0.5416667 0.6884398
vt 0.5416667 0.3125
vt 0.5416667 0.3125
vt 0.5416667 0.6884398
vt 0.5625 0.6884398
vt 0.5625 0.3125
vt 0.5833333 0.6884398
vt 0.5833333 0.3125
vt 0.6041666 0.6884398
vt 0.6041666 0.3125
vt 0.6041666 0.3125
vt 0.6041666 0.6884398
vt 0.6249999 0.6884398
vt 0.6249999 0.3125
vt 0.578125 0.9790665
vt 0.5 1
vt 0.5 1
vt 0.578125 0.9790665
vt 0.6353165 0.921875
vt 0.6353165 0.921875
vt 0.65625 0.84375
vt 0.65625 0.84375
vt 0.5 1
vt 0.5 1
vt 0.421875 0.9790665
vt 0.421875 0.9790665
vt 0.3646835 0.921875
vt 0.3646835 0.921875
vt 0.34375 0.84375
vt 0.34375 0.84375
vt 0.34375 0.84375
vt 0.34375 0.84375
vt 0.3646835 0.765625
vt 0.3646835 0.765625
vt 0.421875 0.7084335
vt 0.421875 0.7084335
vt 0.5 0.6875
vt 0.5 0.6875
vt 0.5 0.6875
vt 0.5 0.6875
vt 0.578125 0.7084335
vt 0.578125 0.7084335
vt 0.6353165 0.765625
vt 0.6353165 0.765625
vt 0.65625 0.84375
vt 0.65625 0.84375
vt 0.375 0.3125
vt 0.375 0.6884398
vt 0.3958333 0.6884398
vt 0.3958333 0.3125
vt 0.3958333 0.3125
vt 0.3958333 0.6884398
vt 0.4166667 0.6884398
vt 0.4166667 0.3125
vt 0.4375 0.6884398
vt 0.4375 0.3125
vt 0.4583334 0.6884398
vt 0.4583334 0.3125
vt 0.4791667 0.6884398
vt 0.4791667 0.3125
vt 0.4791667 0.3125
vt 0.4791667 0.6884398
vt 0.5000001 0.6884398
vt 0.5000001 0.3125
vt 0.5208334 0.6884398
vt 0.5208334 0.3125
vt 0.5416667 0.6884398
vt 0.5416667 0.3125
vt 0.5416667 0.3125
vt 0.5416667 0.6884398
vt 0.5625 0.6884398
vt 0.5625 0.3125
vt 0.5833333 0.6884398
vt 0.5833333 0.3125
vt 0.6041666 0.6884398
vt 0.5833333 0.3125
vt 0.6041666 0.6884398
vt 0.6041666 0.3125
vt 0.6249999 0.6884398
vt 0.6249999 0.3125
vt 0 0
vt 0 1
vt 1 1
vt 1 0
vt 0 0
vt 0 1
vt 1 1
vt 1 0
vt 0 0
vt 0 1
vt 1 1
vt 1 0
vt 0 0
vt 0 1
vt 1 1
vt 1 0
vt 0 0
vt 0 1
vt 1 1
vt 1 0
vt 0 0
vt 0 1
vt 1 1
vt 1 0
vt 0 0
vt 0 1
vt 1 1
vt 1 0
vt 0 0
vt 0 1
vt 1 1
vt 1 0
vt 0 0
vt 0 1
vt 1 1
vt 1 0
vt 0 0
vt 0 1
vt 1 1
vt 1 0
vt 0 0
vt 0 1
vt 1 1
vt 1 0
vt 0 0
vt 0 1
vt 1 1
vt 1 0
vt 0 0
vt 0 0
vt 1 0
vt 1 0
vt 0 0
vt 0 0
vt 1 0
vt 1 0
vt 0 0
vt 0 0
vt 1 0
vt 1 0
vt 0 0
vt 0 0
vt 1 0
vt 1 0
vt 0 0
vt 0 0
vt 1 0
vt 1 0
vt 0 0
vt 0 0
vt 1 0
vt 1 0
vt 0 0
vt 0 0
vt 1 0
vt 1 0
vt 0 0
vt 0 0
vt 1 0
vt 1 0
vt 0 0
vt 0 0
vt 1 0
vt 1 0
vt 0 0
vt 0 0
vt 1 0
vt 1 0
vt 0 0
vt 0 0
vt 1 0
vt 1 0
vt 0 0
vt 0 0
vt 1 0
vt 1 0
vt 0 0
vt 0 0
vt 1 0
vt 1 0
vt 0 0
vt 0 0
vt 1 0
vt 1 0
vt 0 0
vt 0 0
vt 1 0
vt 1 0
vt 0 0
vt 0 0
vt 1 0
vt 1 0
vt 0 0
vt 0 0
vt 1 0
vt 1 0
vt 0 0
vt 0 0
vt 1 0
vt 1 0
vt 0 0
vt 0 0
vt 1 0
vt 1 0
vt 0 0
vt 0 0
vt 1 0
vt 1 0
vt 0 0
vt 0 0
vt 1 0
vt 1 0
vt 0 0
vt 0 0
vt 1 0
vt 1 0
vt 0 0
vt 0 0
vt 1 0
vt 1 0
vt 0 0
vt 0 0
vt 1 0
vt 1 0
vt 0 0.1833389
vt 0.3826957 0.9375411
vt 0.3826957 0.1833389
vt 0 0.9375411
vt 0.3826957 1
vt 0 1
vt 0.6173043 0.9375411
vt 1 0.1833389
vt 0.6173043 0.1833389
vt 1 0.9375411
vt 0.6173043 1
vt 1 1
vt 0 0
vt 1 0.003588735
vt 1 0
vt 0 0.003588735
vt 0 1
vt 1 1
vt 0 0
vt 1 0.003588735
vt 1 0
vt 0 0.003588735
vt 0 1
vt 1 1
vt 0 0
vt 1 0.003588735
vt 1 0
vt 0 0.003588735
vt 0 1
vt 1 1
vt 0 0
vt 1 0.003588735
vt 1 0
vt 0 0.003588735
vt 0 1
vt 1 1
vt 1.321508E-06 0
vt 0 0.4426216
vt 1 0.4426217
vt 1 0
vt 0 0.9375411
vt 0 1
vt 1 1
vt 1 0.9375411
vt 0.9277244 0.2748466
vt 1 0.258004
vt 0.9703357 0
vt 0.8961235 3.238152E-17
vt 0 0
vt 0 1
vt 1 1
vt 1 0
vt 0 0
vt 0 1
vt 1 1
vt 1 0
vt 0 0
vt 0 1
vt 1 1
vt 1 0
vt 0 0
vt 0 1
vt 1 1
vt 1 0
vt 0 0
vt 0 1
vt 1 1
vt 1 0
vt 0 0
vt 0 1
vt 1 1
vt 1 0
vt 0 0
vt 0 1
vt 1 1
vt 1 0
vt 0 0
vt 0 1
vt 1 1
vt 1 0
vt 0 0
vt 0 1
vt 1 1
vt 1 0
vt 0 0
vt 0 1
vt 1 1
vt 1 0
vt 0 0
vt 0 1
vt 1 1
vt 1 0
vt 0 0
vt 0 1
vt 1 1
vt 1 0
vt 0 0
vt 0.05221741 0.501448
vt 1 0.3091211
vt 0.9678103 1.179142E-15
vt 0.08521748 0
vt 0 0.9551911
vt 0.2479919 1
vt 0.337207 0
vt 0.2320529 0
vt 0 0.866024
vt 0.2320553 1
vt 0.5000073 0
vt 0 0
vt 0.9999935 1
vt 0.9999949 0.5773534
vt 0.4226453 0
vt 0 0
vt 0.1050556 0.3920685
vt 0.8949365 0.3920675
vt 1 0
vt 0 1.726334E-14
vt 0.1050476 0.392082
vt 0.8949295 0.3920853
vt 1 0
vt 0.1050569 1.726325E-14
vt 0 0.3920667
vt 0.9999999 0.3920898
vt 0.8949543 0
vt 0 0
vt 0.1050478 0.3920691
vt 0.8949408 0.3920886
vt 0.9999999 0
vt 0 8.631697E-15
vt 0.1050689 0.3920895
vt 0.8949534 0.3920836
vt 1 0
vt 0 0
vt 0.1050673 0.3920675
vt 0.8949476 0.3920704
vt 1 0
vt 0 0
vt 0.03719451 0.4169081
vt 0.8395767 0.5569671
vt 1 0
vt 0 0
vt 0.2586025 0.4288593
vt 0.9567225 0.3399679
vt 1 0
vt 0 0
vt 0.100745 0.3765168
vt 0.9010941 0.3836348
vt 1 0
vt 0.1121809 0
vt 0 0.4050095
vt 1 0.3714782
vt 0.8931127 0
vt 0.1099492 9.033463E-15
vt 0 0.4103287
vt 0.9999999 0.5840705
vt 0.9366089 0
vt 0.2017605 0
vt 0 0.4573385
vt 1 0.3664247
vt 0.905109 7.685985E-15
vt 0.6353165 0.921875
vt 0.5 0.8375
vt 0.578125 0.9790665
vt 0.65625 0.84375
vt 0.5 1
vt 0.6353165 0.765625
vt 0.421875 0.9790665
vt 0.578125 0.7084335
vt 0.3646835 0.921875
vt 0.5 0.6875
vt 0.34375 0.84375
vt 0.421875 0.7084335
vt 0.3646835 0.765625
vt 0.6353165 0.921875
vt 0.6353165 0.921875
vt 0.578125 0.9790665
vt 0.578125 0.9790665
vt 0.65625 0.84375
vt 0.5 1
vt 0.65625 0.84375
vt 0.5 1
vt 0.6353165 0.765625
vt 0.421875 0.9790665
vt 0.6353165 0.765625
vt 0.421875 0.9790665
vt 0.578125 0.7084335
vt 0.3646835 0.921875
vt 0.578125 0.7084335
vt 0.3646835 0.921875
vt 0.5 0.6875
vt 0.34375 0.84375
vt 0.5 0.6875
vt 0.34375 0.84375
vt 0.421875 0.7084335
vt 0.3646835 0.765625
vt 0.421875 0.7084335
vt 0.3646835 0.765625
vt 0.6353165 0.921875
vt 0.6353165 0.921875
vt 0.578125 0.9790665
vt 0.578125 0.9790665
vt 0.65625 0.84375
vt 0.5 1
vt 0.65625 0.84375
vt 0.5 1
vt 0.6353165 0.765625
vt 0.421875 0.9790665
vt 0.6353165 0.765625
vt 0.421875 0.9790665
vt 0.578125 0.7084335
vt 0.3646835 0.921875
vt 0.578125 0.7084335
vt 0.3646835 0.921875
vt 0.5 0.6875
vt 0.34375 0.84375
vt 0.5 0.6875
vt 0.34375 0.84375
vt 0.421875 0.7084335
vt 0.3646835 0.765625
vt 0.421875 0.7084335
vt 0.3646835 0.765625
vn 0 0 1
vn 0 0 1
vn 0 0 1
vn 0 0 1
vn 0 -1 0
vn 0 -1 0
vn 0 -1 0
vn 0 -1 0
vn 1 0 0
vn 1 0 0
vn 1 0 0
vn 1 0 0
vn 0 1 0
vn 0 1 0
vn 0 1 0
vn 0 1 0
vn -1 0 0
vn -1 0 0
vn -1 0 0
vn -1 0 0
vn 0 0 -1
vn 0 0 -1
vn 0 0 -1
vn 0 0 -1
vn -0.08485106 -0.9963936 0
vn 0.1465048 -0.9892101 0
vn -0.1794675 -0.9837639 0
vn -0.1807432 0.9835303 0
vn 0.146244 0.9892485 0
vn -0.09094202 0.9958562 0
vn 0 -5.80993E-07 1
vn -2.439227E-06 -7.894101E-07 1
vn 0 -5.809931E-07 1
vn 0 0 -1
vn 0 0 -1
vn 0 0 -1
vn 0 0 -1
vn 0 0 -1
vn 0 0 -1
vn 0 0 -1
vn 0 0 -1
vn 0 0 -1
vn 0 0 -1
vn 0 0 -1
vn 0 0 -1
vn 0.01817771 0 -0.9998348
vn 0.01384036 0 -0.9999043
vn -1.335174E-07 0 -1
vn 0.8660235 0.5000035 3.985524E-06
vn 0.8660235 0.5000035 3.985524E-06
vn 0.5000002 0.8660253 7.971071E-06
vn 0.4999985 0.8660263 7.97107E-06
vn 0 1 1.195668E-05
vn 0 1 1.195668E-05
vn 0 1 1.195668E-05
vn 0 1 1.195668E-05
vn -0.500003 0.8660237 1.195666E-05
vn -0.5000013 0.8660246 1.195669E-05
vn -0.8660239 0.5000027 3.985526E-06
vn -0.8660239 0.5000027 3.985526E-06
vn -1 0 0
vn -1 0 0
vn -1 0 0
vn -1 0 0
vn -0.8660235 -0.5000035 0
vn -0.8660235 -0.5000035 0
vn -0.4999994 -0.8660258 -3.98557E-06
vn -0.5000003 -0.8660253 -3.985556E-06
vn 0 -1 -7.971122E-06
vn 0 -1 -7.971122E-06
vn 0 -1 -7.971122E-06
vn 0 -1 -7.971122E-06
vn 0.4999966 -0.8660274 -3.985548E-06
vn 0.4999975 -0.8660269 -3.985533E-06
vn 0.8660229 -0.5000043 0
vn 0.8660229 -0.5000043 0
vn 1 0 0
vn 1 0 0
vn 1 0 0
vn 1 0 0
vn 0.8660235 0.5000035 3.985524E-06
vn 0.8660235 0.5000035 3.985524E-06
vn 0.4778989 0.8277521 0.2940056
vn -2.020417E-07 0.9558033 0.2940068
vn 0 0.9558033 0.2940069
vn 0.4778983 0.8277523 0.2940056
vn 0.827749 0.4779037 0.2940065
vn 0.8277488 0.4779039 0.2940065
vn 0.9558036 0 0.294006
vn 0.9558037 0 0.294006
vn 0 0.9558033 0.2940069
vn -2.020417E-07 0.9558033 0.2940068
vn -0.4779072 0.827747 0.2940063
vn -0.4779069 0.8277471 0.2940063
vn -0.827751 0.477902 0.2940033
vn -0.8277509 0.4779022 0.2940034
vn -0.9558046 0 0.2940025
vn -0.9558046 0 0.2940025
vn -0.9558046 0 0.2940025
vn -0.9558046 0 0.2940025
vn -0.8277509 -0.4779019 0.2940039
vn -0.8277504 -0.4779027 0.2940038
vn -0.4779067 -0.8277468 0.2940074
vn -0.4779061 -0.8277472 0.2940074
vn -1.010207E-07 -0.9558028 0.2940084
vn 1.669756E-07 -0.9558028 0.2940083
vn 1.669756E-07 -0.9558028 0.2940083
vn -1.010207E-07 -0.9558028 0.2940084
vn 0.4778977 -0.8277521 0.2940075
vn 0.4778979 -0.8277519 0.2940075
vn 0.8277484 -0.4779041 0.2940072
vn 0.8277481 -0.4779047 0.2940072
vn 0.9558037 0 0.294006
vn 0.9558036 0 0.294006
vn 0.8660284 0.4999949 1.931123E-06
vn 0.8660284 0.4999949 1.931123E-06
vn 0.5000006 0.8660251 9.655536E-06
vn 0.499998 0.8660266 9.655602E-06
vn 0.499998 0.8660266 9.655602E-06
vn 0.5000006 0.8660251 9.655536E-06
vn 0 1 1.544894E-05
vn 0 1 1.544894E-05
vn -0.500007 0.8660214 1.158681E-05
vn -0.5000044 0.8660228 1.158686E-05
vn -0.8660225 0.5000051 3.862221E-06
vn -0.8660225 0.5000051 3.862221E-06
vn -1 0 0
vn -1 0 0
vn -1 0 0
vn -1 0 0
vn -0.4559453 -0.2632448 0.8501859
vn -0.8660216 -0.5000067 -1.931117E-06
vn -0.2632447 -0.4559507 0.850183
vn -0.5000046 -0.8660228 -5.793415E-06
vn 0 -1 -7.724469E-06
vn 0 -1 -7.724469E-06
vn 0 -1 -7.724469E-06
vn 0 -1 -7.724469E-06
vn 0.4999956 -0.866028 -5.793362E-06
vn 0.4999982 -0.8660264 -5.793339E-06
vn 0.8660275 -0.4999965 -1.931129E-06
vn 0.8660275 -0.4999965 -1.931129E-06
vn 1 0 0
vn 0.8660275 -0.4999965 -1.931129E-06
vn 1 0 0
vn 1 0 0
vn 0.8660284 0.4999949 1.931123E-06
vn 0.8660284 0.4999949 1.931123E-06
vn 0.866028 0.4999956 0
vn 0.866028 0.4999956 0
vn 0.499997 0.8660271 0
vn 0.499997 0.8660271 0
vn 0.499997 0.8660271 0
vn 0.499997 0.8660271 0
vn 0 1 0
vn 0 1 0
vn 0 1 0
vn 0 1 0
vn -0.5000103 0.8660194 0
vn -0.5000103 0.8660194 0
vn -0.5000103 0.8660194 0
vn -0.5000103 0.8660194 0
vn -0.8660268 0.4999977 0
vn -0.8660268 0.4999977 0
vn -0.8660268 0.4999977 0
vn -0.8660268 0.4999977 0
vn -1 0 0
vn -1 0 0
vn -1 0 0
vn -1 0 0
vn -0.8660248 -0.500001 0
vn -0.8660248 -0.500001 0
vn -0.8660248 -0.500001 0
vn -0.8660248 -0.500001 0
vn -0.5000045 -0.8660228 0
vn -0.5000045 -0.8660228 0
vn -0.5000045 -0.8660228 0
vn -0.5000045 -0.8660228 0
vn 0 -1 0
vn 0 -1 0
vn 0 -1 0
vn 0 -1 0
vn 0.4999912 -0.8660305 0
vn 0.4999912 -0.8660305 0
vn 0.4999912 -0.8660305 0
vn 0.4999912 -0.8660305 0
vn 0.866026 -0.499999 0
vn 0.866026 -0.499999 0
vn 0.866026 -0.499999 0
vn 0.866026 -0.499999 0
vn 1 0 0
vn 1 0 0
vn 1 0 0
vn 1 0 0
vn 0.866028 0.4999956 0
vn 0.866028 0.4999956 0
vn 0 0 1
vn 0 0 1
vn 1.819437E-07 0 1
vn 1.819383E-07 0 1
vn 1.819383E-07 0 1
vn 1.819437E-07 0 1
vn 1.819409E-07 0 1
vn 1.819431E-07 0 1
vn 1.819431E-07 0 1
vn 1.819409E-07 0 1
vn 0 0 1
vn 0 0 1
vn 0 0 1
vn 0 0 1
vn -1.819471E-07 0 1
vn -1.819451E-07 0 1
vn -1.819451E-07 0 1
vn -1.819471E-07 0 1
vn -1.351308E-07 0 1
vn -1.351289E-07 0 1
vn -1.351289E-07 0 1
vn -1.351308E-07 0 1
vn -1.351306E-07 0 1
vn -1.351323E-07 0 1
vn -1.351323E-07 0 1
vn -1.351306E-07 0 1
vn 0 0 1
vn 0 0 1
vn 0 0 1
vn 0 0 1
vn 1.819448E-07 0 1
vn 1.819426E-07 0 1
vn 1.819426E-07 0 1
vn 1.819448E-07 0 1
vn 1.819402E-07 0 1
vn 1.819472E-07 0 1
vn 1.819472E-07 0 1
vn 1.819402E-07 0 1
vn 0 0 1
vn 0 0 1
vn 0 0 1
vn 0 0 1
vn -1.351227E-07 0 1
vn -1.351247E-07 0 1
vn -1.351247E-07 0 1
vn -1.351227E-07 0 1
vn 0 0 1
vn 0 0 1
vn 0.865968 0.4999616 0.01173585
vn 0.8659706 0.4999573 0.01173586
vn 0.4999587 0.8659697 0.01174578
vn 0.4999557 0.8659713 0.01174578
vn 0.4999557 0.8659713 0.01174578
vn 0.4999587 0.8659697 0.01174578
vn 0 0.999931 0.01175315
vn 0 0.999931 0.01175315
vn 0 0.999931 0.01175315
vn 0 0.999931 0.01175315
vn -0.4999734 0.8659611 0.01174664
vn -0.499969 0.8659636 0.01174664
vn -0.499969 0.8659636 0.01174664
vn -0.4999734 0.8659611 0.01174664
vn -0.8659643 0.4999676 0.01175575
vn -0.8659641 0.499968 0.01175575
vn -0.8659641 0.499968 0.01175575
vn -0.8659643 0.4999676 0.01175575
vn -0.9999307 0 0.01177011
vn -0.9999307 0 0.01177011
vn -0.9999307 0 0.01177011
vn -0.9999307 0 0.01177011
vn -0.8659636 -0.4999686 0.01175946
vn -0.8659627 -0.4999703 0.01175946
vn -0.8659627 -0.4999703 0.01175946
vn -0.8659636 -0.4999686 0.01175946
vn -0.4999688 -0.8659636 0.01175136
vn -0.4999645 -0.8659661 0.01175136
vn -0.4999645 -0.8659661 0.01175136
vn -0.4999688 -0.8659636 0.01175136
vn 0 -0.9999309 0.0117581
vn 0 -0.9999309 0.0117581
vn 0 -0.9999309 0.0117581
vn 0 -0.9999309 0.0117581
vn 0.499954 -0.8659722 0.01175218
vn 0.499951 -0.865974 0.01175217
vn 0.499951 -0.865974 0.01175217
vn 0.499954 -0.8659722 0.01175218
vn 0.8659698 -0.4999584 0.01174071
vn 0.8659666 -0.4999641 0.01174071
vn 0.8659666 -0.4999641 0.01174071
vn 0.8659698 -0.4999584 0.01174071
vn 0.9999311 0 0.01173707
vn 0.9999311 0 0.01173707
vn 0.9999311 0 0.01173707
vn 0.9999311 0 0.01173707
vn 0.8659706 0.4999573 0.01173586
vn 0.865968 0.4999616 0.01173585
vn -0.09094202 0.9958562 0
vn -0.08918034 0.9960155 -0.000327421
vn -0.1807432 0.9835303 0
vn -0.08945049 0.9959912 -0.0002793121
vn -0.03008873 0.9995448 -0.002179277
vn -0.03487192 0.9993886 -0.002524483
vn -0.08321775 -0.9965313 -0.0003271845
vn -0.08485106 -0.9963936 0
vn -0.1794675 -0.9837639 0
vn -0.08342224 -0.9965143 -0.0002791124
vn -0.03007795 -0.9995452 -0.002171645
vn -0.03486266 -0.9993889 -0.002517103
vn -0.2610489 0 0.9653256
vn -0.6713659 0 0.741126
vn -0.2610483 0 0.9653258
vn -0.6713663 0 0.7411256
vn -0.7082112 0 0.7060006
vn -0.7082112 0 0.7060006
vn -0.03487192 0.9993886 -0.002524483
vn -1.051249E-07 1 1.798825E-07
vn -0.03008873 0.9995448 -0.002179277
vn -1.072298E-06 1 -2.702681E-07
vn 2.111886E-06 1 1.211745E-06
vn 2.111886E-06 1 1.211745E-06
vn -0.03007795 -0.9995452 -0.002171645
vn 0 -1 -2.079472E-06
vn -0.03486266 -0.9993889 -0.002517103
vn 0 -1 -2.183965E-06
vn 0 -1 -2.42349E-06
vn 0 -1 -2.42349E-06
vn 0.2473763 0 -0.9689196
vn 0.6937067 0 -0.7202576
vn 0.2473772 0 -0.9689192
vn 0.6937063 0 -0.720258
vn 0.7216238 0 -0.6922853
vn 0.7216238 0 -0.6922854
vn -0.6008633 0 -0.7993519
vn -0.6008633 0 -0.7993519
vn -0.6008633 0 -0.7993519
vn -0.6008633 0 -0.7993519
vn -0.006407446 0 0.9999795
vn -0.2610489 0 0.9653256
vn -0.2610483 0 0.9653258
vn -0.006383885 0 0.9999796
vn 0.01817771 0 -0.9998348
vn 0.2473763 0 -0.9689196
vn 0.2473772 0 -0.9689192
vn 0.01384036 0 -0.9999043
vn 0.1465048 -0.9892101 0
vn 0.1095616 -0.9939801 0
vn -0.4488354 -0.8936144 0
vn -0.1794675 -0.9837639 0
vn -0.1807432 0.9835303 0
vn -0.4354654 0.9002055 0
vn 0.1092145 0.9940182 0
vn 0.146244 0.9892485 0
vn 0.4999841 -0.8660346 0
vn 0.4999841 -0.8660346 0
vn 0.1095616 -0.9939801 0
vn 0.1465048 -0.9892101 0
vn 0.146244 0.9892485 0
vn 0.1092145 0.9940182 0
vn 0.4999881 0.8660322 0
vn 0.4999881 0.8660322 0
vn 0.8660342 -0.4999847 0
vn 0.8660342 -0.4999847 0
vn 0.4999841 -0.8660346 0
vn 0.4999841 -0.8660346 0
vn 0.4999881 0.8660322 0
vn 0.4999881 0.8660322 0
vn 0.8660356 0.4999824 0
vn 0.8660356 0.4999824 0
vn 0.8660356 0.4999824 0
vn 0.8660356 0.4999824 0
vn 1 -1.024003E-06 0
vn 1 -9.683507E-07 0
vn 1 -9.683507E-07 0
vn 1 -1.024003E-06 0
vn 0.8660342 -0.4999847 0
vn 0.8660342 -0.4999847 0
vn -0.1807432 0.9835303 0
vn -0.8895918 0.4567564 0
vn -0.8895918 0.4567564 0
vn -0.4354654 0.9002055 0
vn -0.8895918 0.4567564 0
vn -0.9998374 -0.01802901 0
vn -0.974968 -0.01758057 -0.2216493
vn -0.8895918 0.4567564 0
vn -0.9998374 -0.01802901 0
vn -0.8882167 -0.4594248 0
vn -0.8630089 -0.4463863 -0.2365477
vn -0.974968 -0.01758057 -0.2216493
vn -0.8882167 -0.4594248 0
vn -0.1794675 -0.9837639 0
vn -0.4488354 -0.8936144 0
vn -0.8630089 -0.4463863 -0.2365477
vn 0 0 1
vn 0 0 1
vn -0.006407446 0 0.9999795
vn -0.006383885 0 0.9999796
vn 0 0 1
vn 0 0 1
vn 3.204657E-07 -3.030816E-07 1
vn 3.203724E-07 -3.030522E-07 1
vn 5.695319E-07 -4.519676E-07 1
vn 5.695309E-07 -4.519678E-07 1
vn 3.203724E-07 -3.030522E-07 1
vn 3.204657E-07 -3.030816E-07 1
vn 5.695309E-07 -4.519678E-07 1
vn 5.695319E-07 -4.519676E-07 1
vn 0 -5.80993E-07 1
vn 0 -5.809931E-07 1
vn -8.390996E-07 -1.308707E-06 -1
vn -7.945379E-07 -1.338969E-06 -1
vn -4.343792E-07 -1.626904E-06 -1
vn -4.343715E-07 -1.626908E-06 -1
vn -4.343715E-07 -1.626908E-06 -1
vn -4.343792E-07 -1.626904E-06 -1
vn -2.172009E-06 -9.392754E-07 -1
vn -2.171987E-06 -9.392825E-07 -1
vn -3.475239E-06 -3.315746E-07 -1
vn -3.475239E-06 -3.315746E-07 -1
vn -2.171987E-06 -9.392825E-07 -1
vn -2.172009E-06 -9.392754E-07 -1
vn -3.475239E-06 -3.315746E-07 -1
vn -3.475239E-06 -3.315746E-07 -1
vn -1.954787E-06 0 -1
vn -1.954739E-06 0 -1
vn -1.954739E-06 0 -1
vn -1.954787E-06 0 -1
vn -2.171884E-07 0 -1
vn -2.171858E-07 0 -1
vn -2.171858E-07 0 -1
vn -2.171884E-07 0 -1
vn 0 0 -1
vn 0 0 -1
vn 0 0 -1
vn 0 0 -1
vn 3.963007E-07 0 -1
vn 3.242272E-07 0 -1
vn 3.242272E-07 0 -1
vn 3.963007E-07 0 -1
vn 6.087312E-07 0 -1
vn -0.8630089 -0.4463863 -0.2365477
vn -0.8630089 -0.4463863 -0.2365477
vn 6.087312E-07 0 -1
vn 2.196108E-07 0 -1
vn -0.974968 -0.01758057 -0.2216493
vn 3.828285E-07 0 -1
vn 4.023643E-07 0 -1
vn -0.974968 -0.01758057 -0.2216493
vn 2.196108E-07 0 -1
vn -7.945379E-07 -1.338969E-06 -1
vn -8.390996E-07 -1.308707E-06 -1
vn -4.599422E-07 -4.728186E-07 -1
vn -2.659733E-07 -3.933293E-07 -1
vn -2.659733E-07 -3.933293E-07 -1
vn -4.599422E-07 -4.728186E-07 -1
vn 4.023643E-07 0 -1
vn 3.828285E-07 0 -1
vn -5.594747E-07 4.473093E-07 1
vn 0 1.491036E-07 1
vn 2.7973E-07 4.473138E-07 1
vn 0 0 1
vn 2.797461E-07 0 1
vn 0 0 1
vn -2.797537E-07 4.47306E-07 1
vn 0 0 1
vn 2.797438E-07 4.47308E-07 1
vn 0 0 1
vn 0 0 1
vn 0 0 1
vn 0 0 1
vn -1.107809E-07 0 1
vn -1.107793E-07 0 1
vn -1.107796E-07 0 1
vn -1.107809E-07 0 1
vn 0 0 1
vn 0 0 1
vn 0 0 1
vn 0 0 1
vn -1.846344E-07 0 1
vn 1.477105E-07 0 1
vn -1.846328E-07 0 1
vn 1.477062E-07 0 1
vn -1.477092E-07 0 1
vn 1.846323E-07 0 1
vn -1.47707E-07 0 1
vn 1.84631E-07 0 1
vn 0 0 1
vn 0 0 1
vn 0 0 1
vn 0 0 1
vn 1.107806E-07 0 1
vn 1.107791E-07 0 1
vn 1.107835E-07 0 1
vn 1.107779E-07 0 1
vn 5.605669E-07 2.890544E-07 1
vn 5.605669E-07 2.890544E-07 1
vn 3.114241E-07 5.006574E-07 1
vn 3.114216E-07 5.006585E-07 1
vn 6.228449E-07 0 1
vn 0 5.781083E-07 1
vn 6.22845E-07 0 1
vn 0 5.781083E-07 1
vn 4.982811E-07 -2.89054E-07 1
vn -2.491422E-07 5.006544E-07 1
vn 4.982812E-07 -2.890538E-07 1
vn -2.491422E-07 5.006559E-07 1
vn 1.86852E-07 -5.006576E-07 1
vn -4.359912E-07 2.890569E-07 1
vn 1.868545E-07 -5.006567E-07 1
vn -4.359933E-07 2.890554E-07 1
vn 0 -5.781065E-07 1
vn -6.228337E-07 0 1
vn 0 -5.781066E-07 1
vn -6.228337E-07 0 1
vn -0.2632447 -0.4559507 0.850183
vn -4.982766E-07 -2.890571E-07 1
vn -2.491425E-07 -5.006531E-07 1
vn -0.4559453 -0.2632448 0.8501859
g Door_001_Common_Gameplay_Struc_0
f 3/3/3 2/2/2 1/1/1
f 4/4/4 3/3/3 1/1/1
f 7/7/7 6/6/6 5/5/5
f 8/8/8 7/7/7 5/5/5
f 11/11/11 10/10/10 9/9/9
f 12/12/12 11/11/11 9/9/9
f 15/15/15 14/14/14 13/13/13
f 16/16/16 15/15/15 13/13/13
f 19/19/19 18/18/18 17/17/17
f 20/20/20 19/19/19 17/17/17
f 23/23/23 22/22/22 21/21/21
f 24/24/24 23/23/23 21/21/21
g Door_001_Common_Gameplay_Struc_1
f 27/27/27 26/26/26 25/25/25
f 30/30/30 29/29/29 28/28/28
f 33/33/33 32/32/32 31/31/31
f 36/36/36 35/35/35 34/34/34
f 39/39/39 38/38/38 37/37/37
f 42/42/42 41/41/41 40/40/40
f 45/45/45 44/44/44 43/43/43
f 48/48/48 47/47/47 46/46/46
f 51/51/51 50/50/50 49/49/49
f 52/52/52 51/51/51 49/49/49
f 53/53/53 51/51/51 52/52/52
f 54/54/54 53/53/53 52/52/52
f 57/57/57 56/56/56 55/55/55
f 58/58/58 57/57/57 55/55/55
f 59/59/59 57/57/57 58/58/58
f 60/60/60 59/59/59 58/58/58
f 61/61/61 59/59/59 60/60/60
f 62/62/62 61/61/61 60/60/60
f 65/65/65 64/64/64 63/63/63
f 66/66/66 65/65/65 63/63/63
f 67/67/67 65/65/65 66/66/66
f 68/68/68 67/67/67 66/66/66
f 69/69/69 67/67/67 68/68/68
f 70/70/70 69/69/69 68/68/68
f 73/73/73 72/72/72 71/71/71
f 74/74/74 73/73/73 71/71/71
f 75/75/75 73/73/73 74/74/74
f 76/76/76 75/75/75 74/74/74
f 77/77/77 75/75/75 76/76/76
f 78/78/78 77/77/77 76/76/76
f 81/81/81 80/80/80 79/79/79
f 82/82/82 81/81/81 79/79/79
f 85/85/85 84/84/84 83/83/83
f 84/84/84 86/86/86 83/83/83
f 83/83/83 86/86/86 87/87/87
f 86/86/86 88/88/88 87/87/87
f 87/87/87 88/88/88 89/89/89
f 88/88/88 90/90/90 89/89/89
f 93/93/93 92/92/92 91/91/91
f 94/94/94 93/93/93 91/91/91
f 95/95/95 93/93/93 94/94/94
f 96/96/96 95/95/95 94/94/94
f 97/97/97 95/95/95 96/96/96
f 98/98/98 97/97/97 96/96/96
f 101/101/101 100/100/100 99/99/99
f 102/102/102 101/101/101 99/99/99
f 103/103/103 101/101/101 102/102/102
f 104/104/104 103/103/103 102/102/102
f 105/105/105 103/103/103 104/104/104
f 106/106/106 105/105/105 104/104/104
f 109/109/109 108/108/108 107/107/107
f 110/110/110 109/109/109 107/107/107
f 111/111/111 109/109/109 110/110/110
f 112/112/112 111/111/111 110/110/110
f 113/113/113 111/111/111 112/112/112
f 114/114/114 113/113/113 112/112/112
f 117/117/117 116/116/116 115/115/115
f 118/118/118 117/117/117 115/115/115
f 121/121/121 120/120/120 119/119/119
f 122/122/122 121/121/121 119/119/119
f 123/123/123 121/121/121 122/122/122
f 124/124/124 123/123/123 122/122/122
f 125/125/125 123/123/123 124/124/124
f 126/126/126 125/125/125 124/124/124
f 127/127/127 125/125/125 126/126/126
f 128/128/128 127/127/127 126/126/126
f 131/131/131 130/130/130 129/129/129
f 132/132/132 131/131/131 129/129/129
f 133/133/133 131/131/131 132/132/132
f 134/134/134 133/133/133 132/132/132
f 135/135/135 133/133/133 134/134/134
f 136/136/136 135/135/135 134/134/134
f 139/139/139 138/138/138 137/137/137
f 140/140/140 139/139/139 137/137/137
f 141/141/141 139/139/139 140/140/140
f 142/142/142 141/141/141 140/140/140
f 143/143/143 141/141/141 142/142/142
f 146/146/146 145/145/145 144/144/144
f 147/147/147 145/145/145 146/146/146
f 148/148/148 147/147/147 146/146/146
f 151/151/151 150/150/150 149/149/149
f 152/152/152 151/151/151 149/149/149
f 155/155/155 154/154/154 153/153/153
f 156/156/156 155/155/155 153/153/153
f 159/159/159 158/158/158 157/157/157
f 160/160/160 159/159/159 157/157/157
f 163/163/163 162/162/162 161/161/161
f 164/164/164 163/163/163 161/161/161
f 167/167/167 166/166/166 165/165/165
f 168/168/168 167/167/167 165/165/165
f 171/171/171 170/170/170 169/169/169
f 172/172/172 171/171/171 169/169/169
f 175/175/175 174/174/174 173/173/173
f 176/176/176 175/175/175 173/173/173
f 179/179/179 178/178/178 177/177/177
f 180/180/180 179/179/179 177/177/177
f 183/183/183 182/182/182 181/181/181
f 184/184/184 183/183/183 181/181/181
f 187/187/187 186/186/186 185/185/185
f 188/188/188 187/187/187 185/185/185
f 191/191/191 190/190/190 189/189/189
f 192/192/192 191/191/191 189/189/189
f 195/195/195 194/194/194 193/193/193
f 196/196/196 195/195/195 193/193/193
f 199/199/199 198/198/198 197/197/197
f 200/200/200 199/199/199 197/197/197
f 203/203/203 202/202/202 201/201/201
f 204/204/204 203/203/203 201/201/201
f 207/207/207 206/206/206 205/205/205
f 208/208/208 207/207/207 205/205/205
f 211/211/211 210/210/210 209/209/209
f 212/212/212 211/211/211 209/209/209
f 215/215/215 214/214/214 213/213/213
f 216/216/216 215/215/215 213/213/213
f 219/219/219 218/218/218 217/217/217
f 220/220/220 219/219/219 217/217/217
f 223/223/223 222/222/222 221/221/221
f 224/224/224 223/223/223 221/221/221
f 227/227/227 226/226/226 225/225/225
f 228/228/228 227/227/227 225/225/225
f 231/231/231 230/230/230 229/229/229
f 232/232/232 231/231/231 229/229/229
f 235/235/235 234/234/234 233/233/233
f 236/236/236 235/235/235 233/233/233
f 239/239/239 238/238/238 237/237/237
f 240/240/240 239/239/239 237/237/237
f 243/243/243 242/242/242 241/241/241
f 244/244/244 243/243/243 241/241/241
f 247/247/247 246/246/246 245/245/245
f 248/248/248 247/247/247 245/245/245
f 251/251/251 250/250/250 249/249/249
f 252/252/252 251/251/251 249/249/249
f 255/255/255 254/254/254 253/253/253
f 256/256/256 255/255/255 253/253/253
f 259/259/259 258/258/258 257/257/257
f 260/260/260 259/259/259 257/257/257
f 263/263/263 262/262/262 261/261/261
f 264/264/264 263/263/263 261/261/261
f 267/267/267 266/266/266 265/265/265
f 268/268/268 267/267/267 265/265/265
f 271/271/271 270/270/270 269/269/269
f 272/272/272 271/271/271 269/269/269
f 275/275/275 274/274/274 273/273/273
f 276/276/276 275/275/275 273/273/273
f 279/279/279 278/278/278 277/277/277
f 280/280/280 279/279/279 277/277/277
f 283/283/283 282/282/282 281/281/281
f 284/284/284 283/283/283 281/281/281
f 287/287/287 286/286/286 285/285/285
f 288/288/288 287/287/287 285/285/285
f 291/291/291 290/290/290 289/289/289
f 292/292/292 291/291/291 289/289/289
f 295/295/295 294/294/294 293/293/293
f 294/294/294 296/296/296 293/293/293
f 294/294/294 297/297/297 296/296/296
f 297/297/297 298/298/298 296/296/296
f 301/301/301 300/300/300 299/299/299
f 300/300/300 302/302/302 299/299/299
f 299/299/299 302/302/302 303/303/303
f 302/302/302 304/304/304 303/303/303
f 307/307/307 306/306/306 305/305/305
f 306/306/306 308/308/308 305/305/305
f 308/308/308 306/306/306 309/309/309
f 306/306/306 310/310/310 309/309/309
f 313/313/313 312/312/312 311/311/311
f 312/312/312 314/314/314 311/311/311
f 314/314/314 312/312/312 315/315/315
f 312/312/312 316/316/316 315/315/315
f 319/319/319 318/318/318 317/317/317
f 318/318/318 320/320/320 317/317/317
f 320/320/320 318/318/318 321/321/321
f 318/318/318 322/322/322 321/321/321
f 325/325/325 324/324/324 323/323/323
f 324/324/324 326/326/326 323/323/323
f 326/326/326 324/324/324 327/327/327
f 324/324/324 328/328/328 327/327/327
f 331/331/331 330/330/330 329/329/329
f 332/332/332 331/331/331 329/329/329
f 335/335/335 334/334/334 333/333/333
f 336/336/336 335/335/335 333/333/333
f 339/339/339 338/338/338 337/337/337
f 340/340/340 339/339/339 337/337/337
f 343/343/343 342/342/342 341/341/341
f 344/344/344 343/343/343 341/341/341
f 347/347/347 346/346/346 345/345/345
f 348/348/348 347/347/347 345/345/345
f 351/351/351 350/350/350 349/349/349
f 352/352/352 351/351/351 349/349/349
f 355/355/355 354/354/354 353/353/353
f 356/356/356 355/355/355 353/353/353
f 359/359/359 358/358/358 357/357/357
f 360/360/360 359/359/359 357/357/357
f 363/363/363 362/362/362 361/361/361
f 364/364/364 363/363/363 361/361/361
f 367/367/367 366/366/366 365/365/365
f 368/368/368 367/367/367 365/365/365
f 371/371/371 370/370/370 369/369/369
f 372/372/372 371/371/371 369/369/369
f 375/375/375 374/374/374 373/373/373
f 376/376/376 375/375/375 373/373/373
f 379/379/379 378/378/378 377/377/377
f 380/380/380 379/379/379 377/377/377
f 383/383/383 382/382/382 381/381/381
f 384/384/384 383/383/383 381/381/381
f 387/387/387 386/386/386 385/385/385
f 388/388/388 387/387/387 385/385/385
f 391/391/391 390/390/390 389/389/389
f 392/392/392 391/391/391 389/389/389
f 395/395/395 394/394/394 393/393/393
f 396/396/396 395/395/395 393/393/393
f 399/399/399 398/398/398 397/397/397
f 400/400/400 399/399/399 397/397/397
f 403/403/403 402/402/402 401/401/401
f 404/404/404 403/403/403 401/401/401
f 407/407/407 406/406/406 405/405/405
f 408/408/408 407/407/407 405/405/405
f 411/411/411 410/410/410 409/409/409
f 412/412/412 411/411/411 409/409/409
f 415/415/415 414/414/414 413/413/413
f 416/416/416 415/415/415 413/413/413
f 419/419/419 418/418/418 417/417/417
f 420/420/420 419/419/419 417/417/417
f 423/423/423 422/422/422 421/421/421
f 424/424/424 423/423/423 421/421/421
f 427/427/427 426/426/426 425/425/425
f 428/428/428 427/427/427 425/425/425
f 431/431/431 430/430/430 429/429/429
f 432/432/432 431/431/431 429/429/429
f 435/435/435 434/434/434 433/433/433
f 436/436/436 435/435/435 433/433/433
f 439/439/439 438/438/438 437/437/437
f 440/440/440 439/439/439 437/437/437
f 443/443/443 442/442/442 441/441/441
f 444/444/444 443/443/443 441/441/441
f 447/447/447 446/446/446 445/445/445
f 448/448/448 447/447/447 445/445/445
f 451/451/451 450/450/450 449/449/449
f 452/452/452 451/451/451 449/449/449
f 455/455/455 454/454/454 453/453/453
f 453/453/453 454/454/454 456/456/456
f 457/457/457 454/454/454 455/455/455
f 456/456/456 454/454/454 458/458/458
f 459/459/459 454/454/454 457/457/457
f 458/458/458 454/454/454 460/460/460
f 461/461/461 454/454/454 459/459/459
f 460/460/460 454/454/454 462/462/462
f 463/463/463 454/454/454 461/461/461
f 462/462/462 454/454/454 464/464/464
f 465/465/465 454/454/454 463/463/463
f 464/464/464 454/454/454 465/465/465
f 468/468/468 467/467/467 466/466/466
f 469/469/469 468/468/468 466/466/466
f 466/466/466 467/467/467 470/470/470
f 471/471/471 468/468/468 469/469/469
f 467/467/467 472/472/472 470/470/470
f 473/473/473 471/471/471 469/469/469
f 470/470/470 472/472/472 474/474/474
f 475/475/475 471/471/471 473/473/473
f 472/472/472 476/476/476 474/474/474
f 477/477/477 475/475/475 473/473/473
f 474/474/474 476/476/476 478/478/478
f 479/479/479 475/475/475 477/477/477
f 476/476/476 480/480/480 478/478/478
f 481/481/481 479/479/479 477/477/477
f 478/478/478 480/480/480 482/482/482
f 483/483/483 479/479/479 481/481/481
f 480/480/480 484/484/484 482/482/482
f 485/485/485 483/483/483 481/481/481
f 482/482/482 484/484/484 486/486/486
f 487/487/487 483/483/483 485/485/485
f 484/484/484 488/488/488 486/486/486
f 489/489/489 487/487/487 485/485/485
f 486/486/486 488/488/488 489/489/489
f 488/488/488 487/487/487 489/489/489
f 492/492/492 491/491/491 490/490/490
f 493/493/493 492/492/492 490/490/490
f 490/490/490 491/491/491 494/494/494
f 495/495/495 492/492/492 493/493/493
f 491/491/491 496/496/496 494/494/494
f 497/497/497 495/495/495 493/493/493
f 494/494/494 496/496/496 498/498/498
f 499/499/499 495/495/495 497/497/497
f 496/496/496 500/500/500 498/498/498
f 501/501/501 499/499/499 497/497/497
f 498/498/498 500/500/500 502/502/502
f 503/503/503 499/499/499 501/501/501
f 500/500/500 504/504/504 502/502/502
f 505/505/505 503/503/503 501/501/501
f 502/502/502 504/504/504 506/506/506
f 507/507/507 503/503/503 505/505/505
f 504/504/504 508/508/508 506/506/506
f 509/509/509 507/507/507 505/505/505
f 506/506/506 508/508/508 510/510/510
f 511/511/511 507/507/507 509/509/509
f 508/508/508 512/512/512 510/510/510
f 513/513/513 511/511/511 509/509/509
f 510/510/510 512/512/512 513/513/513
f 512/512/512 511/511/511 513/513/513
