g InfiniteDoorLeft
v 0.5870997 1.454126 0.09841149
v 0.591074 1.454126 0.1023858
v 0.5870997 1.458101 0.1023858
v 0.5870997 1.458101 0.1294466
v 0.591074 1.454126 0.1294466
v 0.5870997 1.454126 0.1334209
v -0.5936429 1.454126 0.1334209
v -0.5976171 1.454126 0.1294466
v -0.5936429 1.458101 0.1294466
v -0.5936429 1.458101 0.1023858
v -0.5976171 1.454126 0.1023858
v -0.5936429 1.454126 0.09841149
v -0.5976171 -1.454126 0.1023858
v -0.5936429 -1.458101 0.1023858
v -0.5936429 -1.454126 0.09841149
v -0.5976171 -1.454126 0.1294466
v -0.5936429 -1.454126 0.1334209
v -0.5936429 -1.458101 0.1294466
v 0.5870997 -1.458101 0.1294466
v 0.5870997 -1.454126 0.1334209
v 0.591074 -1.454126 0.1294466
v 0.5870997 -1.458101 0.1023858
v 0.591074 -1.454126 0.1023858
v 0.5870997 -1.454126 0.09841149
v 0.5936428 -1.454126 0.08481403
v 0.5976171 -1.454126 0.08083969
v 0.5936428 -1.458101 0.08083969
v -0.5936429 -1.454126 0.08481403
v -0.5936429 -1.458101 0.08083969
v -0.5976171 -1.454126 0.08083969
v 0.5870997 1.454126 0.09841149
v -0.5936429 1.458101 0.1023858
v -0.5936429 1.454126 0.09841149
v 0.5870997 1.458101 0.1023858
v -0.5936429 1.458101 0.1294466
v 0.5870997 1.458101 0.1294466
v -0.5936429 1.454126 0.1334209
v 0.5870997 1.454126 0.1334209
v -0.5936429 -1.454126 0.1334209
v 0.5870997 -1.454126 0.1334209
v -0.5936429 1.458101 0.1294466
v -0.5976171 1.454126 0.1294466
v -0.5976171 1.454126 0.1023858
v -0.5936429 1.458101 0.1023858
v -0.5976171 -1.454126 0.1294466
v -0.5976171 -1.454126 0.1023858
v -0.5936429 -1.458101 0.1023858
v -0.5936429 -1.458101 0.1294466
v -0.5936429 -1.458101 0.1294466
v 0.5870997 -1.458101 0.1294466
v 0.591074 -1.454126 0.1294466
v 0.5870997 -1.454126 0.1334209
v 0.5870997 1.454126 0.1334209
v 0.591074 1.454126 0.1294466
v 0.591074 -1.454126 0.1023858
v 0.591074 -1.454126 0.1294466
v 0.591074 1.454126 0.1294466
v 0.591074 1.454126 0.1023858
v 0.591074 1.454126 0.1023858
v 0.5870997 -1.454126 0.09841149
v 0.591074 -1.454126 0.1023858
v 0.5870997 1.454126 0.09841149
v 0.5870997 -1.458101 0.1023858
v -0.5936429 -1.458101 0.1023858
v -0.5936429 -1.454126 0.09841149
v 0.5870997 -1.454126 0.09841149
v -0.5936429 1.454126 0.09841149
v 0.5870997 -1.454126 0.09841149
v 0.5870997 1.454126 0.09841149
v -0.5936429 -1.454126 0.09841149
vt -1.287285 0.3323321
vt -1.287913 0.3329602
vt -1.287285 0.3329602
vt -1.287285 0.3372363
vt -1.287913 0.3372363
vt -1.287285 0.3378643
vt -1.100704 0.3378643
vt -1.100076 0.3378643
vt -1.100076 0.3372363
vt -1.0958 0.3372363
vt -1.0958 0.3378643
vt -1.095172 0.3378643
vt -1.0958 0.7974271
vt -1.0958 0.7980551
vt -1.095172 0.7974271
vt -1.100076 0.7974271
vt -1.100704 0.7974271
vt -1.100076 0.7980551
vt -1.287285 0.7980553
vt -1.287285 0.7974272
vt -1.287913 0.7980553
vt -1.287285 0.8023313
vt -1.287913 0.8023313
vt -1.287285 0.8029594
vt -1.748888 0.8090421
vt -1.74826 0.8084141
vt -1.748888 0.8084141
vt -1.547741 0.7955108
vt -1.547113 0.7961388
vt -1.547113 0.7955108
vt -1.287285 0.3323321
vt -1.100704 0.3329602
vt -1.100704 0.3323322
vt -1.287285 0.3329602
vt -1.100704 0.3372363
vt -1.287285 0.3372363
vt -1.100704 0.3378643
vt -1.287285 0.3378643
vt -1.100704 0.7974271
vt -1.287285 0.7974272
vt -1.100076 0.3372363
vt -1.100076 0.3378643
vt -1.0958 0.3378643
vt -1.0958 0.3372363
vt -1.100076 0.7974271
vt -1.0958 0.7974271
vt -1.0958 0.7980551
vt -1.100076 0.7980551
vt -1.100704 0.7980551
vt -1.287285 0.7980553
vt -1.287913 0.7974272
vt -1.287285 0.7974272
vt -1.287285 0.3378643
vt -1.287913 0.3378643
vt -1.292189 0.7974272
vt -1.287913 0.7974272
vt -1.287913 0.3378643
vt -1.292189 0.3378643
vt -1.292189 0.3378643
vt -1.292817 0.7974272
vt -1.292189 0.7974272
vt -1.292817 0.3378643
vt -1.287285 0.8023313
vt -1.100704 0.8023312
vt -1.100704 0.8029592
vt -1.287285 0.8029594
vt 0.5936429 1.454126
vt -0.5870997 -1.454126
vt -0.5870997 1.454126
vt 0.5936429 -1.454126
vn 0.4765117 0.4765117 -0.7388323
vn 0.854764 0.3670012 -0.3669997
vn 0.3670012 0.854764 -0.3669997
vn 0.3670011 0.8547637 0.3670001
vn 0.8547637 0.3670011 0.3670001
vn 0.3670018 0.3670018 0.8547627
vn -0.3670054 0.3670014 0.8547614
vn -0.8547665 0.366998 0.3669969
vn -0.3670047 0.8547624 0.3669997
vn -0.3670047 0.8547626 -0.3669993
vn -0.8547667 0.366998 -0.3669965
vn -0.4765162 0.4765111 -0.7388299
vn -0.8547667 -0.366998 -0.3669965
vn -0.3670047 -0.8547626 -0.3669993
vn -0.4765162 -0.4765111 -0.7388299
vn -0.8547665 -0.3669979 0.3669969
vn -0.3670054 -0.3670014 0.8547614
vn -0.3670047 -0.8547624 0.3669997
vn 0.3670011 -0.8547637 0.3670001
vn 0.3670018 -0.3670018 0.8547627
vn 0.8547637 -0.3670011 0.3670001
vn 0.3670012 -0.854764 -0.3669997
vn 0.854764 -0.3670012 -0.3669997
vn 0.4765117 -0.4765117 -0.7388323
vn 0.5773517 -0.5773517 0.5773474
vn 0.5773517 -0.5773517 0.5773474
vn 0.5773517 -0.5773517 0.5773474
vn -0.5773575 -0.5773488 0.5773445
vn -0.5773575 -0.5773488 0.5773445
vn -0.5773575 -0.5773488 0.5773445
vn 0.4765117 0.4765117 -0.7388323
vn -0.3670047 0.8547626 -0.3669993
vn -0.4765162 0.4765111 -0.7388299
vn 0.3670012 0.854764 -0.3669997
vn -0.3670047 0.8547624 0.3669997
vn 0.3670011 0.8547637 0.3670001
vn -0.3670054 0.3670014 0.8547614
vn 0.3670018 0.3670018 0.8547627
vn -0.3670054 -0.3670014 0.8547614
vn 0.3670018 -0.3670018 0.8547627
vn -0.3670047 0.8547624 0.3669997
vn -0.8547665 0.366998 0.3669969
vn -0.8547667 0.366998 -0.3669965
vn -0.3670047 0.8547626 -0.3669993
vn -0.8547665 -0.3669979 0.3669969
vn -0.8547667 -0.366998 -0.3669965
vn -0.3670047 -0.8547626 -0.3669993
vn -0.3670047 -0.8547624 0.3669997
vn -0.3670047 -0.8547624 0.3669997
vn 0.3670011 -0.8547637 0.3670001
vn 0.8547637 -0.3670011 0.3670001
vn 0.3670018 -0.3670018 0.8547627
vn 0.3670018 0.3670018 0.8547627
vn 0.8547637 0.3670011 0.3670001
vn 0.854764 -0.3670012 -0.3669997
vn 0.8547637 -0.3670011 0.3670001
vn 0.8547637 0.3670011 0.3670001
vn 0.854764 0.3670012 -0.3669997
vn 0.854764 0.3670012 -0.3669997
vn 0.4765117 -0.4765117 -0.7388323
vn 0.854764 -0.3670012 -0.3669997
vn 0.4765117 0.4765117 -0.7388323
vn 0.3670012 -0.854764 -0.3669997
vn -0.3670047 -0.8547626 -0.3669993
vn -0.4765162 -0.4765111 -0.7388299
vn 0.4765117 -0.4765117 -0.7388323
vn 0 0 -1
vn 0 0 -1
vn 0 0 -1
vn 0 0 -1
g InfiniteDoorLeft_0
f 3/3/3 2/2/2 1/1/1
f 6/6/6 5/5/5 4/4/4
f 9/9/9 8/8/8 7/7/7
f 12/12/12 11/11/11 10/10/10
f 15/15/15 14/14/14 13/13/13
f 18/18/18 17/17/17 16/16/16
f 21/21/21 20/20/20 19/19/19
f 24/24/24 23/23/23 22/22/22
f 27/27/27 26/26/26 25/25/25
f 30/30/30 29/29/29 28/28/28
f 33/33/33 32/32/32 31/31/31
f 32/32/32 34/34/34 31/31/31
f 32/32/32 35/35/35 34/34/34
f 35/35/35 36/36/36 34/34/34
f 2/2/2 3/3/3 5/5/5
f 3/3/3 4/4/4 5/5/5
f 35/35/35 37/37/37 36/36/36
f 37/37/37 38/38/38 36/36/36
f 37/37/37 39/39/39 38/38/38
f 39/39/39 40/40/40 38/38/38
f 7/7/7 8/8/8 17/17/17
f 8/8/8 16/16/16 17/17/17
f 43/43/43 42/42/42 41/41/41
f 44/44/44 43/43/43 41/41/41
f 42/42/42 43/43/43 45/45/45
f 43/43/43 46/46/46 45/45/45
f 13/13/13 11/11/11 12/12/12
f 15/15/15 13/13/13 12/12/12
f 46/46/46 47/47/47 45/45/45
f 47/47/47 48/48/48 45/45/45
f 39/39/39 49/49/49 40/40/40
f 49/49/49 50/50/50 40/40/40
f 53/53/53 52/52/52 51/51/51
f 54/54/54 53/53/53 51/51/51
f 57/57/57 56/56/56 55/55/55
f 58/58/58 57/57/57 55/55/55
f 61/61/61 60/60/60 59/59/59
f 60/60/60 62/62/62 59/59/59
f 23/23/23 21/21/21 19/19/19
f 22/22/22 23/23/23 19/19/19
f 63/63/63 50/50/50 49/49/49
f 64/64/64 63/63/63 49/49/49
f 64/64/64 65/65/65 63/63/63
f 65/65/65 66/66/66 63/63/63
f 69/69/69 68/68/68 67/67/67
f 68/68/68 70/70/70 67/67/67
g InfiniteDoorLeft_1
