g Toy_Block_Chamber_Gameplay
v -0.06236397 -0.05807415 0.06238739
v -0.06209892 -0.05925123 0.06212235
v -0.06236397 -0.05951628 0.06094526
v -0.06296135 -0.05807415 0.06094526
v -0.06296135 0.05807415 0.06094526
v -0.06236397 0.05807415 0.06238739
v -0.06296135 -0.05807415 -0.06094526
v -0.06236397 -0.05951628 -0.06094526
v -0.06236397 0.05951628 0.06094526
v -0.06209892 0.05925123 0.06212235
v -0.06236397 0.05951628 -0.06094526
v -0.06296135 0.05807415 -0.06094526
v -0.06236397 -0.05807415 -0.06238741
v -0.06209892 -0.05925123 -0.06212235
v -0.06236397 0.05807415 -0.06238741
v -0.06209892 0.05925123 -0.06212235
v -0.06236397 -0.05951628 0.06094526
v -0.06209892 -0.05925123 0.06212235
v -0.06092186 -0.05951628 0.06238739
v -0.06092186 -0.06011363 0.06094526
v -0.06236397 -0.05951628 -0.06094526
v 0.06092186 -0.06011363 0.06094526
v 0.06092186 -0.05951628 0.06238739
v -0.06092186 -0.06011363 -0.06094526
v 0.06236397 -0.05951628 0.06094526
v 0.06209892 -0.05925123 0.06212235
v 0.06092186 -0.06011363 -0.06094526
v 0.06236397 -0.05951628 -0.06094526
v 0.06092186 -0.05951628 -0.06238741
v 0.06209892 -0.05925123 -0.06212235
v -0.06092186 -0.05951628 -0.06238741
v -0.06209892 -0.05925123 -0.06212235
v -0.06092186 -0.05951628 0.06238739
v -0.06209892 -0.05925123 0.06212235
v -0.06236397 -0.05807415 0.06238739
v -0.06092186 -0.05807415 0.06298475
v 0.06092186 -0.05951628 0.06238739
v -0.06092186 0.05807415 0.06298475
v -0.06236397 0.05807415 0.06238739
v 0.06092186 -0.05807415 0.06298475
v -0.06092186 0.05951628 0.06238739
v -0.06209892 0.05925123 0.06212235
v 0.06092186 0.05807415 0.06298475
v 0.06092186 0.05951628 0.06238739
v 0.06236397 0.05807415 0.06238739
v 0.06209892 0.05925123 0.06212235
v 0.06236397 -0.05807415 0.06238739
v 0.06209892 -0.05925123 0.06212235
v -0.06092186 0.05951628 0.06238739
v -0.06209892 0.05925123 0.06212235
v -0.06236397 0.05951628 0.06094526
v -0.06092186 0.06011364 0.06094526
v 0.06092186 0.05951628 0.06238739
v -0.06092186 0.06011364 -0.06094526
v -0.06236397 0.05951628 -0.06094526
v -0.06092186 0.05951628 -0.06238741
v -0.06209892 0.05925123 -0.06212235
v 0.06092186 0.06011364 -0.06094526
v 0.06092186 0.05951628 -0.06238741
v 0.06092186 0.06011364 0.06094526
v 0.06236397 0.05951628 -0.06094526
v 0.06209892 0.05925123 -0.06212235
v 0.06236397 0.05951628 0.06094526
v 0.06209892 0.05925123 0.06212235
v -0.06092186 0.05951628 -0.06238741
v -0.06209892 0.05925123 -0.06212235
v -0.06236397 0.05807415 -0.06238741
v -0.06092186 0.05807415 -0.06298476
v 0.06092186 0.05951628 -0.06238741
v -0.06092186 -0.05807415 -0.06298476
v -0.06236397 -0.05807415 -0.06238741
v -0.06092186 -0.05951628 -0.06238741
v -0.06209892 -0.05925123 -0.06212235
v 0.06092186 -0.05807415 -0.06298476
v 0.06092186 -0.05951628 -0.06238741
v 0.06092186 0.05807415 -0.06298476
v 0.06236397 -0.05807415 -0.06238741
v 0.06209892 -0.05925123 -0.06212235
v 0.06236397 0.05807415 -0.06238741
v 0.06209892 0.05925123 -0.06212235
v 0.06236397 -0.05951628 0.06094526
v 0.06209892 -0.05925123 0.06212235
v 0.06236397 -0.05807415 0.06238739
v 0.06296135 -0.05807415 0.06094526
v 0.06236397 -0.05951628 -0.06094526
v 0.06296135 0.05807415 0.06094526
v 0.06236397 0.05807415 0.06238739
v 0.06296135 -0.05807415 -0.06094526
v 0.06236397 0.05951628 0.06094526
v 0.06209892 0.05925123 0.06212235
v 0.06296135 0.05807415 -0.06094526
v 0.06236397 0.05951628 -0.06094526
v 0.06236397 0.05807415 -0.06238741
v 0.06209892 0.05925123 -0.06212235
v 0.06236397 -0.05807415 -0.06238741
v 0.06209892 -0.05925123 -0.06212235
vt 0.2582131 0.2444121
vt 0.2582617 0.2402335
vt 0.255807 0.2402335
vt 0.2542607 0.244581
vt 0.2542609 0.4831739
vt 0.2582138 0.4833476
vt 0.01514662 0.244581
vt 0.01360053 0.2402335
vt 0.2558071 0.4873495
vt 0.2582619 0.4873495
vt 0.01360068 0.4873496
vt 0.01514666 0.4831739
vt 0.01114573 0.2430198
vt 0.01114571 0.2402336
vt 0.01114577 0.4846612
vt 0.01114589 0.4873496
vt 0.7948052 0.2419436
vt 0.7948052 0.2394888
vt 0.7923116 0.2394888
vt 0.7909155 0.2434898
vt 0.7948052 0.4841504
vt 0.5516177 0.2434897
vt 0.5502009 0.2394888
vt 0.7909154 0.4826033
vt 0.5476891 0.2419436
vt 0.5476891 0.2394889
vt 0.5516176 0.4826039
vt 0.5476891 0.4841501
vt 0.5514707 0.4867571
vt 0.5476891 0.4866049
vt 0.7910674 0.4867558
vt 0.7948052 0.486605
vt 0.008153152 0.4959848
vt 0.005531321 0.4965213
vt 0.004996608 0.4991436
vt 0.008238981 0.4992294
vt 0.2616875 0.4959868
vt 0.008244048 0.7407468
vt 0.004999529 0.7408352
vt 0.2615991 0.4992293
vt 0.008155774 0.7439892
vt 0.005535196 0.7434554
vt 0.2616042 0.7407467
vt 0.2616901 0.7439912
vt 0.2648466 0.7408324
vt 0.2643119 0.7434547
vt 0.2648438 0.4991408
vt 0.2643082 0.4965206
vt 0.5506985 0.4961241
vt 0.5469608 0.4962004
vt 0.5469608 0.4986552
vt 0.5508504 0.5002009
vt 0.790295 0.4961242
vt 0.5508504 0.7393153
vt 0.5469608 0.7408616
vt 0.5506985 0.7433924
vt 0.5469608 0.7433164
vt 0.7901481 0.7393153
vt 0.790295 0.743393
vt 0.7901481 0.5002024
vt 0.7940767 0.7408616
vt 0.7940767 0.7433164
vt 0.7940767 0.4986552
vt 0.7940767 0.4962004
vt 0.5292134 0.7438241
vt 0.5318352 0.7432876
vt 0.53237 0.7406653
vt 0.5291275 0.7405795
vt 0.2756791 0.7438221
vt 0.5291225 0.4990621
vt 0.532367 0.4989736
vt 0.5292107 0.4958197
vt 0.5318314 0.4963534
vt 0.2757623 0.4990622
vt 0.2756765 0.4958176
vt 0.2757673 0.7405797
vt 0.2725199 0.4989764
vt 0.2730546 0.4963542
vt 0.2725228 0.7406681
vt 0.2730585 0.7432883
vt 0.2815453 0.2394569
vt 0.2790906 0.2394569
vt 0.2791223 0.2436354
vt 0.2830916 0.2438044
vt 0.5237519 0.2394569
vt 0.2830916 0.4823972
vt 0.2791218 0.4825709
vt 0.5222057 0.2438044
vt 0.2815455 0.486573
vt 0.2790907 0.486573
vt 0.5222057 0.4823972
vt 0.5237519 0.486573
vt 0.5262066 0.4838846
vt 0.5262067 0.486573
vt 0.5262066 0.2422432
vt 0.5262067 0.2394569
vn -0.7071001 -0.003407323 0.7071052
vn -0.5773606 -0.5773512 0.5773391
vn -0.707085 -0.707121 0.00324762
vn -0.9999756 -0.005060616 0.004823942
vn -0.9999756 0.005060623 0.00482394
vn -0.7071 0.003407608 0.7071052
vn -0.9999756 -0.005060622 -0.00482394
vn -0.7070848 -0.7071212 -0.003247414
vn -0.7070842 0.7071218 0.003247399
vn -0.5773445 0.5773711 0.5773352
vn -0.7070845 0.7071216 -0.003247613
vn -0.9999756 0.005060616 -0.004823943
vn -0.7070993 -0.00340761 -0.707106
vn -0.5773463 -0.5773699 -0.5773346
vn -0.7070993 0.003407324 -0.707106
vn -0.5773595 0.5773519 -0.5773394
vn -0.707085 -0.707121 0.00324762
vn -0.5773606 -0.5773512 0.5773391
vn -0.003248726 -0.707103 0.7071031
vn -0.00482575 -0.9999768 0.004823911
vn -0.7070848 -0.7071212 -0.003247414
vn 0.004825753 -0.9999768 0.004823913
vn 0.003248651 -0.7071031 0.7071031
vn -0.004825747 -0.9999768 -0.004823907
vn 0.7071074 -0.7070987 0.003247614
vn 0.5773474 -0.5773714 0.577332
vn 0.004825753 -0.9999768 -0.004823913
vn 0.7071075 -0.7070985 -0.003247627
vn 0.003248664 -0.7071027 -0.7071035
vn 0.577351 -0.5773659 -0.5773338
vn -0.003248598 -0.7071025 -0.7071036
vn -0.5773463 -0.5773699 -0.5773346
vn -0.003248726 -0.707103 0.7071031
vn -0.5773606 -0.5773512 0.5773391
vn -0.7071001 -0.003407323 0.7071052
vn -0.004824797 -0.005059485 0.9999756
vn 0.003248651 -0.7071031 0.7071031
vn -0.004824797 0.005059486 0.9999756
vn -0.7071 0.003407608 0.7071052
vn 0.004824797 -0.005059489 0.9999756
vn -0.00324858 0.7071039 0.7071021
vn -0.5773445 0.5773711 0.5773352
vn 0.004824796 0.005059489 0.9999756
vn 0.003248626 0.7071041 0.7071019
vn 0.7071001 0.003407371 0.7071052
vn 0.5773503 0.5773679 0.5773327
vn 0.7071 -0.003407456 0.7071052
vn 0.5773474 -0.5773714 0.577332
vn -0.00324858 0.7071039 0.7071021
vn -0.5773445 0.5773711 0.5773352
vn -0.7070842 0.7071218 0.003247399
vn -0.004825757 0.9999768 0.004823913
vn 0.003248626 0.7071041 0.7071019
vn -0.004825761 0.9999768 -0.004823917
vn -0.7070845 0.7071216 -0.003247613
vn -0.003248721 0.7071035 -0.7071027
vn -0.5773595 0.5773519 -0.5773394
vn 0.004825764 0.9999768 -0.00482392
vn 0.003248682 0.7071036 -0.7071025
vn 0.004825764 0.9999768 0.00482392
vn 0.7071068 0.7070992 -0.0032476
vn 0.577346 0.5773714 -0.5773335
vn 0.7071069 0.7070991 0.003247622
vn 0.5773503 0.5773679 0.5773327
vn -0.003248721 0.7071035 -0.7071027
vn -0.5773595 0.5773519 -0.5773394
vn -0.7070993 0.003407324 -0.707106
vn -0.004824763 0.005059465 -0.9999756
vn 0.003248682 0.7071036 -0.7071025
vn -0.004824763 -0.005059465 -0.9999756
vn -0.7070993 -0.00340761 -0.707106
vn -0.003248598 -0.7071025 -0.7071036
vn -0.5773463 -0.5773699 -0.5773346
vn 0.004824763 -0.005059468 -0.9999756
vn 0.003248664 -0.7071027 -0.7071035
vn 0.004824763 0.005059469 -0.9999756
vn 0.7070993 -0.003407396 -0.707106
vn 0.577351 -0.5773659 -0.5773338
vn 0.7070993 0.003407477 -0.707106
vn 0.577346 0.5773714 -0.5773335
vn 0.7071074 -0.7070987 0.003247614
vn 0.5773474 -0.5773714 0.577332
vn 0.7071 -0.003407456 0.7071052
vn 0.9999756 -0.005060615 0.00482394
vn 0.7071075 -0.7070985 -0.003247627
vn 0.9999756 0.005060614 0.004823942
vn 0.7071001 0.003407371 0.7071052
vn 0.9999756 -0.005060614 -0.004823942
vn 0.7071069 0.7070991 0.003247622
vn 0.5773503 0.5773679 0.5773327
vn 0.9999756 0.005060615 -0.004823942
vn 0.7071068 0.7070992 -0.0032476
vn 0.7070993 0.003407477 -0.707106
vn 0.577346 0.5773714 -0.5773335
vn 0.7070993 -0.003407396 -0.707106
vn 0.577351 -0.5773659 -0.5773338
g Toy_Block_Chamber_Gameplay_0
f 3/3/3 2/2/2 1/1/1
f 4/4/4 3/3/3 1/1/1
f 5/5/5 4/4/4 1/1/1
f 6/6/6 5/5/5 1/1/1
f 4/4/4 7/7/7 3/3/3
f 7/7/7 8/8/8 3/3/3
f 5/5/5 6/6/6 9/9/9
f 6/6/6 10/10/10 9/9/9
f 9/9/9 11/11/11 5/5/5
f 5/5/5 12/12/12 4/4/4
f 12/12/12 7/7/7 4/4/4
f 11/11/11 12/12/12 5/5/5
f 7/7/7 13/13/13 8/8/8
f 13/13/13 7/7/7 12/12/12
f 13/13/13 14/14/14 8/8/8
f 15/15/15 13/13/13 12/12/12
f 12/12/12 11/11/11 15/15/15
f 11/11/11 16/16/16 15/15/15
f 19/19/19 18/18/18 17/17/17
f 20/20/20 19/19/19 17/17/17
f 17/17/17 21/21/21 20/20/20
f 19/19/19 20/20/20 22/22/22
f 23/23/23 19/19/19 22/22/22
f 21/21/21 24/24/24 20/20/20
f 20/20/20 24/24/24 22/22/22
f 22/22/22 25/25/25 23/23/23
f 25/25/25 26/26/26 23/23/23
f 22/22/22 27/27/27 25/25/25
f 24/24/24 27/27/27 22/22/22
f 27/27/27 28/28/28 25/25/25
f 27/27/27 29/29/29 28/28/28
f 29/29/29 27/27/27 24/24/24
f 29/29/29 30/30/30 28/28/28
f 31/31/31 29/29/29 24/24/24
f 24/24/24 21/21/21 31/31/31
f 21/21/21 32/32/32 31/31/31
f 35/35/35 34/34/34 33/33/33
f 36/36/36 35/35/35 33/33/33
f 36/36/36 33/33/33 37/37/37
f 35/35/35 36/36/36 38/38/38
f 39/39/39 35/35/35 38/38/38
f 40/40/40 36/36/36 37/37/37
f 38/38/38 36/36/36 40/40/40
f 38/38/38 41/41/41 39/39/39
f 41/41/41 42/42/42 39/39/39
f 38/38/38 43/43/43 41/41/41
f 43/43/43 38/38/38 40/40/40
f 43/43/43 44/44/44 41/41/41
f 43/43/43 45/45/45 44/44/44
f 43/43/43 40/40/40 45/45/45
f 45/45/45 46/46/46 44/44/44
f 40/40/40 47/47/47 45/45/45
f 40/40/40 37/37/37 47/47/47
f 37/37/37 48/48/48 47/47/47
f 51/51/51 50/50/50 49/49/49
f 52/52/52 51/51/51 49/49/49
f 49/49/49 53/53/53 52/52/52
f 52/52/52 54/54/54 51/51/51
f 54/54/54 55/55/55 51/51/51
f 54/54/54 56/56/56 55/55/55
f 56/56/56 57/57/57 55/55/55
f 56/56/56 54/54/54 58/58/58
f 54/54/54 52/52/52 58/58/58
f 59/59/59 56/56/56 58/58/58
f 53/53/53 60/60/60 52/52/52
f 52/52/52 60/60/60 58/58/58
f 58/58/58 61/61/61 59/59/59
f 61/61/61 58/58/58 60/60/60
f 61/61/61 62/62/62 59/59/59
f 63/63/63 61/61/61 60/60/60
f 60/60/60 53/53/53 63/63/63
f 53/53/53 64/64/64 63/63/63
f 67/67/67 66/66/66 65/65/65
f 68/68/68 67/67/67 65/65/65
f 68/68/68 65/65/65 69/69/69
f 68/68/68 70/70/70 67/67/67
f 70/70/70 71/71/71 67/67/67
f 70/70/70 72/72/72 71/71/71
f 72/72/72 73/73/73 71/71/71
f 70/70/70 74/74/74 72/72/72
f 74/74/74 70/70/70 68/68/68
f 74/74/74 75/75/75 72/72/72
f 76/76/76 68/68/68 69/69/69
f 76/76/76 74/74/74 68/68/68
f 74/74/74 77/77/77 75/75/75
f 77/77/77 74/74/74 76/76/76
f 77/77/77 78/78/78 75/75/75
f 79/79/79 77/77/77 76/76/76
f 76/76/76 69/69/69 79/79/79
f 69/69/69 80/80/80 79/79/79
f 83/83/83 82/82/82 81/81/81
f 84/84/84 83/83/83 81/81/81
f 81/81/81 85/85/85 84/84/84
f 83/83/83 84/84/84 86/86/86
f 87/87/87 83/83/83 86/86/86
f 85/85/85 88/88/88 84/84/84
f 86/86/86 84/84/84 88/88/88
f 86/86/86 89/89/89 87/87/87
f 89/89/89 90/90/90 87/87/87
f 86/86/86 91/91/91 89/89/89
f 91/91/91 86/86/86 88/88/88
f 91/91/91 92/92/92 89/89/89
f 91/91/91 93/93/93 92/92/92
f 91/91/91 88/88/88 93/93/93
f 93/93/93 94/94/94 92/92/92
f 88/88/88 95/95/95 93/93/93
f 88/88/88 85/85/85 95/95/95
f 85/85/85 96/96/96 95/95/95
